G04 #@! TF.GenerationSoftware,KiCad,Pcbnew,(5.1.5)-3*
G04 #@! TF.CreationDate,2020-10-01T22:25:20-07:00*
G04 #@! TF.ProjectId,boostino,626f6f73-7469-46e6-9f2e-6b696361645f,rev?*
G04 #@! TF.SameCoordinates,Original*
G04 #@! TF.FileFunction,Copper,L2,Bot*
G04 #@! TF.FilePolarity,Positive*
%FSLAX46Y46*%
G04 Gerber Fmt 4.6, Leading zero omitted, Abs format (unit mm)*
G04 Created by KiCad (PCBNEW (5.1.5)-3) date 2020-10-01 22:25:20*
%MOMM*%
%LPD*%
G04 APERTURE LIST*
%ADD10R,1.700000X1.700000*%
%ADD11O,1.700000X1.700000*%
%ADD12C,1.600000*%
%ADD13R,1.600000X1.600000*%
%ADD14R,1.800000X1.100000*%
%ADD15C,0.100000*%
%ADD16R,1.800000X1.800000*%
%ADD17O,1.800000X1.800000*%
%ADD18C,0.800000*%
%ADD19C,0.250000*%
%ADD20C,1.000000*%
%ADD21C,0.254000*%
G04 APERTURE END LIST*
D10*
X152400000Y-97790000D03*
D11*
X152400000Y-95250000D03*
X152400000Y-92710000D03*
X152400000Y-90170000D03*
X152400000Y-87630000D03*
X152400000Y-85090000D03*
D12*
X152400000Y-119380000D03*
X154940000Y-119380000D03*
X157480000Y-119380000D03*
X160020000Y-119380000D03*
X149860000Y-119380000D03*
X147320000Y-119380000D03*
X144780000Y-119380000D03*
X162560000Y-119380000D03*
X165100000Y-119380000D03*
X167640000Y-119380000D03*
X170180000Y-119380000D03*
X157480000Y-116840000D03*
X157480000Y-114300000D03*
X157480000Y-111760000D03*
X157480000Y-109220000D03*
X157480000Y-106680000D03*
X170180000Y-104140000D03*
X167640000Y-104140000D03*
X165100000Y-104140000D03*
X162560000Y-104140000D03*
X160020000Y-104140000D03*
X157480000Y-104140000D03*
X154940000Y-104140000D03*
X152400000Y-104140000D03*
X142240000Y-119380000D03*
X139700000Y-119380000D03*
X137160000Y-119380000D03*
X134620000Y-119380000D03*
X132080000Y-119380000D03*
X129540000Y-119380000D03*
X127000000Y-119380000D03*
X124460000Y-119380000D03*
X121920000Y-119380000D03*
X119380000Y-119380000D03*
X116840000Y-119380000D03*
X114300000Y-119380000D03*
D13*
X111760000Y-119380000D03*
D12*
X149860000Y-104140000D03*
X147320000Y-104140000D03*
X144780000Y-104140000D03*
X142240000Y-104140000D03*
X139700000Y-104140000D03*
X137160000Y-104140000D03*
X134620000Y-104140000D03*
X132080000Y-104140000D03*
X129540000Y-104140000D03*
X127000000Y-104140000D03*
X124460000Y-104140000D03*
X121920000Y-104140000D03*
X119380000Y-104140000D03*
X116840000Y-104140000D03*
X114300000Y-104140000D03*
X111760000Y-104140000D03*
X114300000Y-106680000D03*
X119380000Y-106680000D03*
X121920000Y-106680000D03*
X124460000Y-106680000D03*
X118110000Y-116380000D03*
X120650000Y-116380000D03*
X123190000Y-116380000D03*
X125730000Y-116380000D03*
X128270000Y-116380000D03*
D14*
X168510000Y-127000000D03*
G04 #@! TA.AperFunction,ComponentPad*
D15*
G36*
X169161955Y-128991324D02*
G01*
X169188650Y-128995284D01*
X169214828Y-129001841D01*
X169240238Y-129010933D01*
X169264634Y-129022472D01*
X169287782Y-129036346D01*
X169309458Y-129052422D01*
X169329454Y-129070546D01*
X169347578Y-129090542D01*
X169363654Y-129112218D01*
X169377528Y-129135366D01*
X169389067Y-129159762D01*
X169398159Y-129185172D01*
X169404716Y-129211350D01*
X169408676Y-129238045D01*
X169410000Y-129265000D01*
X169410000Y-129815000D01*
X169408676Y-129841955D01*
X169404716Y-129868650D01*
X169398159Y-129894828D01*
X169389067Y-129920238D01*
X169377528Y-129944634D01*
X169363654Y-129967782D01*
X169347578Y-129989458D01*
X169329454Y-130009454D01*
X169309458Y-130027578D01*
X169287782Y-130043654D01*
X169264634Y-130057528D01*
X169240238Y-130069067D01*
X169214828Y-130078159D01*
X169188650Y-130084716D01*
X169161955Y-130088676D01*
X169135000Y-130090000D01*
X167885000Y-130090000D01*
X167858045Y-130088676D01*
X167831350Y-130084716D01*
X167805172Y-130078159D01*
X167779762Y-130069067D01*
X167755366Y-130057528D01*
X167732218Y-130043654D01*
X167710542Y-130027578D01*
X167690546Y-130009454D01*
X167672422Y-129989458D01*
X167656346Y-129967782D01*
X167642472Y-129944634D01*
X167630933Y-129920238D01*
X167621841Y-129894828D01*
X167615284Y-129868650D01*
X167611324Y-129841955D01*
X167610000Y-129815000D01*
X167610000Y-129265000D01*
X167611324Y-129238045D01*
X167615284Y-129211350D01*
X167621841Y-129185172D01*
X167630933Y-129159762D01*
X167642472Y-129135366D01*
X167656346Y-129112218D01*
X167672422Y-129090542D01*
X167690546Y-129070546D01*
X167710542Y-129052422D01*
X167732218Y-129036346D01*
X167755366Y-129022472D01*
X167779762Y-129010933D01*
X167805172Y-129001841D01*
X167831350Y-128995284D01*
X167858045Y-128991324D01*
X167885000Y-128990000D01*
X169135000Y-128990000D01*
X169161955Y-128991324D01*
G37*
G04 #@! TD.AperFunction*
G04 #@! TA.AperFunction,ComponentPad*
G36*
X171231955Y-127721324D02*
G01*
X171258650Y-127725284D01*
X171284828Y-127731841D01*
X171310238Y-127740933D01*
X171334634Y-127752472D01*
X171357782Y-127766346D01*
X171379458Y-127782422D01*
X171399454Y-127800546D01*
X171417578Y-127820542D01*
X171433654Y-127842218D01*
X171447528Y-127865366D01*
X171459067Y-127889762D01*
X171468159Y-127915172D01*
X171474716Y-127941350D01*
X171478676Y-127968045D01*
X171480000Y-127995000D01*
X171480000Y-128545000D01*
X171478676Y-128571955D01*
X171474716Y-128598650D01*
X171468159Y-128624828D01*
X171459067Y-128650238D01*
X171447528Y-128674634D01*
X171433654Y-128697782D01*
X171417578Y-128719458D01*
X171399454Y-128739454D01*
X171379458Y-128757578D01*
X171357782Y-128773654D01*
X171334634Y-128787528D01*
X171310238Y-128799067D01*
X171284828Y-128808159D01*
X171258650Y-128814716D01*
X171231955Y-128818676D01*
X171205000Y-128820000D01*
X169955000Y-128820000D01*
X169928045Y-128818676D01*
X169901350Y-128814716D01*
X169875172Y-128808159D01*
X169849762Y-128799067D01*
X169825366Y-128787528D01*
X169802218Y-128773654D01*
X169780542Y-128757578D01*
X169760546Y-128739454D01*
X169742422Y-128719458D01*
X169726346Y-128697782D01*
X169712472Y-128674634D01*
X169700933Y-128650238D01*
X169691841Y-128624828D01*
X169685284Y-128598650D01*
X169681324Y-128571955D01*
X169680000Y-128545000D01*
X169680000Y-127995000D01*
X169681324Y-127968045D01*
X169685284Y-127941350D01*
X169691841Y-127915172D01*
X169700933Y-127889762D01*
X169712472Y-127865366D01*
X169726346Y-127842218D01*
X169742422Y-127820542D01*
X169760546Y-127800546D01*
X169780542Y-127782422D01*
X169802218Y-127766346D01*
X169825366Y-127752472D01*
X169849762Y-127740933D01*
X169875172Y-127731841D01*
X169901350Y-127725284D01*
X169928045Y-127721324D01*
X169955000Y-127720000D01*
X171205000Y-127720000D01*
X171231955Y-127721324D01*
G37*
G04 #@! TD.AperFunction*
D10*
X193040000Y-125730000D03*
D11*
X193040000Y-123190000D03*
X193040000Y-120650000D03*
X193040000Y-118110000D03*
X193040000Y-115570000D03*
X193040000Y-113030000D03*
X193040000Y-110490000D03*
X193040000Y-107950000D03*
X193040000Y-105410000D03*
X193040000Y-102870000D03*
X193040000Y-100330000D03*
X193040000Y-97790000D03*
X193040000Y-95250000D03*
X193040000Y-92710000D03*
D16*
X165735000Y-97790000D03*
D17*
X155575000Y-97790000D03*
D18*
X164465000Y-89535000D03*
X187960000Y-119380000D03*
X182880000Y-119380000D03*
X168275000Y-87630000D03*
X160020000Y-121920000D03*
X128270000Y-121920000D03*
X143510000Y-116840000D03*
X189230000Y-118110000D03*
X146050000Y-115570000D03*
X187960000Y-115570000D03*
X160271426Y-107175000D03*
X151765000Y-107950000D03*
X160020000Y-124460000D03*
X164465000Y-85725000D03*
X168910000Y-102235000D03*
X159384999Y-111760000D03*
X170180000Y-111760000D03*
X161290000Y-110490000D03*
X170180000Y-110490000D03*
D19*
X167640000Y-92710000D02*
X167640000Y-104140000D01*
X164465000Y-89535000D02*
X167640000Y-92710000D01*
D20*
X187960000Y-119380000D02*
X182880000Y-119380000D01*
D19*
X191770000Y-121920000D02*
X193040000Y-120650000D01*
X160020000Y-121920000D02*
X191770000Y-121920000D01*
X192190001Y-118959999D02*
X193040000Y-118110000D01*
X129634999Y-120555001D02*
X190594999Y-120555001D01*
X190594999Y-120555001D02*
X192190001Y-118959999D01*
X128270000Y-121920000D02*
X129634999Y-120555001D01*
X143510000Y-116840000D02*
X144780000Y-118110000D01*
X144780000Y-118110000D02*
X189230000Y-118110000D01*
X146050000Y-115570000D02*
X187960000Y-115570000D01*
X144780000Y-104140000D02*
X149860000Y-109220000D01*
X149860000Y-109220000D02*
X154940000Y-109220000D01*
X156115001Y-108044999D02*
X158020001Y-108044999D01*
X154940000Y-109220000D02*
X156115001Y-108044999D01*
X192190001Y-103719999D02*
X193040000Y-102870000D01*
X189865000Y-106045000D02*
X192190001Y-103719999D01*
X160020000Y-106045000D02*
X189865000Y-106045000D01*
X158020001Y-108044999D02*
X160020000Y-106045000D01*
X160271426Y-107175000D02*
X191275000Y-107175000D01*
X191275000Y-107175000D02*
X193040000Y-105410000D01*
X192190001Y-101179999D02*
X193040000Y-100330000D01*
X187865001Y-105504999D02*
X192190001Y-101179999D01*
X154210001Y-105504999D02*
X187865001Y-105504999D01*
X151765000Y-107950000D02*
X154210001Y-105504999D01*
X193889999Y-93559999D02*
X193040000Y-92710000D01*
X194265001Y-93935001D02*
X193889999Y-93559999D01*
X194265001Y-123778001D02*
X194265001Y-93935001D01*
X193583002Y-124460000D02*
X194265001Y-123778001D01*
X160020000Y-124460000D02*
X193583002Y-124460000D01*
X168910000Y-90170000D02*
X168910000Y-102235000D01*
X164465000Y-85725000D02*
X168910000Y-90170000D01*
X159384999Y-111760000D02*
X170180000Y-111760000D01*
X161290000Y-110490000D02*
X170180000Y-110490000D01*
D21*
G36*
X151246525Y-84143368D02*
G01*
X151084010Y-84386589D01*
X150972068Y-84656842D01*
X150915000Y-84943740D01*
X150915000Y-85236260D01*
X150972068Y-85523158D01*
X151084010Y-85793411D01*
X151246525Y-86036632D01*
X151453368Y-86243475D01*
X151627760Y-86360000D01*
X151453368Y-86476525D01*
X151246525Y-86683368D01*
X151084010Y-86926589D01*
X150972068Y-87196842D01*
X150915000Y-87483740D01*
X150915000Y-87776260D01*
X150972068Y-88063158D01*
X151084010Y-88333411D01*
X151246525Y-88576632D01*
X151453368Y-88783475D01*
X151635534Y-88905195D01*
X151518645Y-88974822D01*
X151302412Y-89169731D01*
X151128359Y-89403080D01*
X151003175Y-89665901D01*
X150958524Y-89813110D01*
X151079845Y-90043000D01*
X152273000Y-90043000D01*
X152273000Y-90023000D01*
X152527000Y-90023000D01*
X152527000Y-90043000D01*
X153720155Y-90043000D01*
X153841476Y-89813110D01*
X153796825Y-89665901D01*
X153671641Y-89403080D01*
X153497588Y-89169731D01*
X153281355Y-88974822D01*
X153164466Y-88905195D01*
X153346632Y-88783475D01*
X153553475Y-88576632D01*
X153715990Y-88333411D01*
X153827932Y-88063158D01*
X153885000Y-87776260D01*
X153885000Y-87483740D01*
X153827932Y-87196842D01*
X153715990Y-86926589D01*
X153553475Y-86683368D01*
X153346632Y-86476525D01*
X153172240Y-86360000D01*
X153346632Y-86243475D01*
X153553475Y-86036632D01*
X153715990Y-85793411D01*
X153827932Y-85523158D01*
X153885000Y-85236260D01*
X153885000Y-84943740D01*
X153827932Y-84656842D01*
X153715990Y-84386589D01*
X153553475Y-84143368D01*
X153357107Y-83947000D01*
X195453000Y-83947000D01*
X195453000Y-131953000D01*
X110617000Y-131953000D01*
X110617000Y-128049872D01*
X119685000Y-128049872D01*
X119685000Y-128490128D01*
X119770890Y-128921925D01*
X119939369Y-129328669D01*
X120183962Y-129694729D01*
X120495271Y-130006038D01*
X120861331Y-130250631D01*
X121268075Y-130419110D01*
X121699872Y-130505000D01*
X122140128Y-130505000D01*
X122571925Y-130419110D01*
X122978669Y-130250631D01*
X123344729Y-130006038D01*
X123656038Y-129694729D01*
X123900631Y-129328669D01*
X124069110Y-128921925D01*
X124155000Y-128490128D01*
X124155000Y-128049872D01*
X124069110Y-127618075D01*
X123900631Y-127211331D01*
X123656038Y-126845271D01*
X123344729Y-126533962D01*
X123219071Y-126450000D01*
X166971928Y-126450000D01*
X166971928Y-127550000D01*
X166984188Y-127674482D01*
X167020498Y-127794180D01*
X167079463Y-127904494D01*
X167158815Y-128001185D01*
X167255506Y-128080537D01*
X167365820Y-128139502D01*
X167485518Y-128175812D01*
X167610000Y-128188072D01*
X169041928Y-128188072D01*
X169041928Y-128351928D01*
X167885000Y-128351928D01*
X167706868Y-128369472D01*
X167535582Y-128421431D01*
X167377724Y-128505808D01*
X167239361Y-128619361D01*
X167125808Y-128757724D01*
X167041431Y-128915582D01*
X166989472Y-129086868D01*
X166971928Y-129265000D01*
X166971928Y-129815000D01*
X166989472Y-129993132D01*
X167041431Y-130164418D01*
X167125808Y-130322276D01*
X167239361Y-130460639D01*
X167377724Y-130574192D01*
X167535582Y-130658569D01*
X167706868Y-130710528D01*
X167885000Y-130728072D01*
X169135000Y-130728072D01*
X169313132Y-130710528D01*
X169484418Y-130658569D01*
X169642276Y-130574192D01*
X169780639Y-130460639D01*
X169894192Y-130322276D01*
X169978569Y-130164418D01*
X170030528Y-129993132D01*
X170048072Y-129815000D01*
X170048072Y-129458072D01*
X171205000Y-129458072D01*
X171383132Y-129440528D01*
X171554418Y-129388569D01*
X171712276Y-129304192D01*
X171850639Y-129190639D01*
X171964192Y-129052276D01*
X172048569Y-128894418D01*
X172100528Y-128723132D01*
X172118072Y-128545000D01*
X172118072Y-128049872D01*
X183185000Y-128049872D01*
X183185000Y-128490128D01*
X183270890Y-128921925D01*
X183439369Y-129328669D01*
X183683962Y-129694729D01*
X183995271Y-130006038D01*
X184361331Y-130250631D01*
X184768075Y-130419110D01*
X185199872Y-130505000D01*
X185640128Y-130505000D01*
X186071925Y-130419110D01*
X186478669Y-130250631D01*
X186844729Y-130006038D01*
X187156038Y-129694729D01*
X187400631Y-129328669D01*
X187569110Y-128921925D01*
X187655000Y-128490128D01*
X187655000Y-128049872D01*
X187569110Y-127618075D01*
X187400631Y-127211331D01*
X187156038Y-126845271D01*
X186844729Y-126533962D01*
X186478669Y-126289369D01*
X186071925Y-126120890D01*
X185640128Y-126035000D01*
X185199872Y-126035000D01*
X184768075Y-126120890D01*
X184361331Y-126289369D01*
X183995271Y-126533962D01*
X183683962Y-126845271D01*
X183439369Y-127211331D01*
X183270890Y-127618075D01*
X183185000Y-128049872D01*
X172118072Y-128049872D01*
X172118072Y-127995000D01*
X172100528Y-127816868D01*
X172048569Y-127645582D01*
X171964192Y-127487724D01*
X171850639Y-127349361D01*
X171712276Y-127235808D01*
X171554418Y-127151431D01*
X171383132Y-127099472D01*
X171205000Y-127081928D01*
X170048072Y-127081928D01*
X170048072Y-126450000D01*
X170035812Y-126325518D01*
X169999502Y-126205820D01*
X169940537Y-126095506D01*
X169861185Y-125998815D01*
X169764494Y-125919463D01*
X169654180Y-125860498D01*
X169534482Y-125824188D01*
X169410000Y-125811928D01*
X167610000Y-125811928D01*
X167485518Y-125824188D01*
X167365820Y-125860498D01*
X167255506Y-125919463D01*
X167158815Y-125998815D01*
X167079463Y-126095506D01*
X167020498Y-126205820D01*
X166984188Y-126325518D01*
X166971928Y-126450000D01*
X123219071Y-126450000D01*
X122978669Y-126289369D01*
X122571925Y-126120890D01*
X122140128Y-126035000D01*
X121699872Y-126035000D01*
X121268075Y-126120890D01*
X120861331Y-126289369D01*
X120495271Y-126533962D01*
X120183962Y-126845271D01*
X119939369Y-127211331D01*
X119770890Y-127618075D01*
X119685000Y-128049872D01*
X110617000Y-128049872D01*
X110617000Y-120716681D01*
X110715820Y-120769502D01*
X110835518Y-120805812D01*
X110960000Y-120818072D01*
X111474250Y-120815000D01*
X111633000Y-120656250D01*
X111633000Y-119507000D01*
X111613000Y-119507000D01*
X111613000Y-119253000D01*
X111633000Y-119253000D01*
X111633000Y-118103750D01*
X111474250Y-117945000D01*
X110960000Y-117941928D01*
X110835518Y-117954188D01*
X110715820Y-117990498D01*
X110617000Y-118043319D01*
X110617000Y-116238665D01*
X116675000Y-116238665D01*
X116675000Y-116521335D01*
X116730147Y-116798574D01*
X116838320Y-117059727D01*
X116995363Y-117294759D01*
X117195241Y-117494637D01*
X117430273Y-117651680D01*
X117691426Y-117759853D01*
X117968665Y-117815000D01*
X118251335Y-117815000D01*
X118528574Y-117759853D01*
X118789727Y-117651680D01*
X119024759Y-117494637D01*
X119224637Y-117294759D01*
X119380000Y-117062241D01*
X119535363Y-117294759D01*
X119735241Y-117494637D01*
X119970273Y-117651680D01*
X120231426Y-117759853D01*
X120508665Y-117815000D01*
X120791335Y-117815000D01*
X121068574Y-117759853D01*
X121329727Y-117651680D01*
X121564759Y-117494637D01*
X121764637Y-117294759D01*
X121920000Y-117062241D01*
X122075363Y-117294759D01*
X122275241Y-117494637D01*
X122510273Y-117651680D01*
X122771426Y-117759853D01*
X123048665Y-117815000D01*
X123331335Y-117815000D01*
X123608574Y-117759853D01*
X123869727Y-117651680D01*
X124104759Y-117494637D01*
X124304637Y-117294759D01*
X124460000Y-117062241D01*
X124615363Y-117294759D01*
X124815241Y-117494637D01*
X125050273Y-117651680D01*
X125311426Y-117759853D01*
X125588665Y-117815000D01*
X125871335Y-117815000D01*
X126148574Y-117759853D01*
X126409727Y-117651680D01*
X126644759Y-117494637D01*
X126844637Y-117294759D01*
X127000000Y-117062241D01*
X127155363Y-117294759D01*
X127355241Y-117494637D01*
X127590273Y-117651680D01*
X127851426Y-117759853D01*
X128128665Y-117815000D01*
X128411335Y-117815000D01*
X128688574Y-117759853D01*
X128949727Y-117651680D01*
X129184759Y-117494637D01*
X129384637Y-117294759D01*
X129541680Y-117059727D01*
X129649853Y-116798574D01*
X129705000Y-116521335D01*
X129705000Y-116238665D01*
X129649853Y-115961426D01*
X129541680Y-115700273D01*
X129384637Y-115465241D01*
X129184759Y-115265363D01*
X128949727Y-115108320D01*
X128688574Y-115000147D01*
X128411335Y-114945000D01*
X128128665Y-114945000D01*
X127851426Y-115000147D01*
X127590273Y-115108320D01*
X127355241Y-115265363D01*
X127155363Y-115465241D01*
X127000000Y-115697759D01*
X126844637Y-115465241D01*
X126644759Y-115265363D01*
X126409727Y-115108320D01*
X126148574Y-115000147D01*
X125871335Y-114945000D01*
X125588665Y-114945000D01*
X125311426Y-115000147D01*
X125050273Y-115108320D01*
X124815241Y-115265363D01*
X124615363Y-115465241D01*
X124460000Y-115697759D01*
X124304637Y-115465241D01*
X124104759Y-115265363D01*
X123869727Y-115108320D01*
X123608574Y-115000147D01*
X123331335Y-114945000D01*
X123048665Y-114945000D01*
X122771426Y-115000147D01*
X122510273Y-115108320D01*
X122275241Y-115265363D01*
X122075363Y-115465241D01*
X121920000Y-115697759D01*
X121764637Y-115465241D01*
X121564759Y-115265363D01*
X121329727Y-115108320D01*
X121068574Y-115000147D01*
X120791335Y-114945000D01*
X120508665Y-114945000D01*
X120231426Y-115000147D01*
X119970273Y-115108320D01*
X119735241Y-115265363D01*
X119535363Y-115465241D01*
X119380000Y-115697759D01*
X119224637Y-115465241D01*
X119024759Y-115265363D01*
X118789727Y-115108320D01*
X118528574Y-115000147D01*
X118251335Y-114945000D01*
X117968665Y-114945000D01*
X117691426Y-115000147D01*
X117430273Y-115108320D01*
X117195241Y-115265363D01*
X116995363Y-115465241D01*
X116838320Y-115700273D01*
X116730147Y-115961426D01*
X116675000Y-116238665D01*
X110617000Y-116238665D01*
X110617000Y-105012311D01*
X110645363Y-105054759D01*
X110845241Y-105254637D01*
X111080273Y-105411680D01*
X111341426Y-105519853D01*
X111618665Y-105575000D01*
X111901335Y-105575000D01*
X112178574Y-105519853D01*
X112439727Y-105411680D01*
X112674759Y-105254637D01*
X112874637Y-105054759D01*
X113030000Y-104822241D01*
X113185363Y-105054759D01*
X113385241Y-105254637D01*
X113617759Y-105410000D01*
X113385241Y-105565363D01*
X113185363Y-105765241D01*
X113028320Y-106000273D01*
X112920147Y-106261426D01*
X112865000Y-106538665D01*
X112865000Y-106821335D01*
X112920147Y-107098574D01*
X113028320Y-107359727D01*
X113185363Y-107594759D01*
X113385241Y-107794637D01*
X113620273Y-107951680D01*
X113881426Y-108059853D01*
X114158665Y-108115000D01*
X114441335Y-108115000D01*
X114718574Y-108059853D01*
X114979727Y-107951680D01*
X115214759Y-107794637D01*
X115414637Y-107594759D01*
X115571680Y-107359727D01*
X115679853Y-107098574D01*
X115735000Y-106821335D01*
X115735000Y-106538665D01*
X115679853Y-106261426D01*
X115571680Y-106000273D01*
X115414637Y-105765241D01*
X115214759Y-105565363D01*
X114982241Y-105410000D01*
X115214759Y-105254637D01*
X115414637Y-105054759D01*
X115570000Y-104822241D01*
X115725363Y-105054759D01*
X115925241Y-105254637D01*
X116160273Y-105411680D01*
X116421426Y-105519853D01*
X116698665Y-105575000D01*
X116981335Y-105575000D01*
X117258574Y-105519853D01*
X117519727Y-105411680D01*
X117754759Y-105254637D01*
X117954637Y-105054759D01*
X118110000Y-104822241D01*
X118265363Y-105054759D01*
X118465241Y-105254637D01*
X118697759Y-105410000D01*
X118465241Y-105565363D01*
X118265363Y-105765241D01*
X118108320Y-106000273D01*
X118000147Y-106261426D01*
X117945000Y-106538665D01*
X117945000Y-106821335D01*
X118000147Y-107098574D01*
X118108320Y-107359727D01*
X118265363Y-107594759D01*
X118465241Y-107794637D01*
X118700273Y-107951680D01*
X118961426Y-108059853D01*
X119238665Y-108115000D01*
X119521335Y-108115000D01*
X119798574Y-108059853D01*
X120059727Y-107951680D01*
X120294759Y-107794637D01*
X120494637Y-107594759D01*
X120650000Y-107362241D01*
X120805363Y-107594759D01*
X121005241Y-107794637D01*
X121240273Y-107951680D01*
X121501426Y-108059853D01*
X121778665Y-108115000D01*
X122061335Y-108115000D01*
X122338574Y-108059853D01*
X122599727Y-107951680D01*
X122834759Y-107794637D01*
X123034637Y-107594759D01*
X123190000Y-107362241D01*
X123345363Y-107594759D01*
X123545241Y-107794637D01*
X123780273Y-107951680D01*
X124041426Y-108059853D01*
X124318665Y-108115000D01*
X124601335Y-108115000D01*
X124878574Y-108059853D01*
X125139727Y-107951680D01*
X125374759Y-107794637D01*
X125574637Y-107594759D01*
X125731680Y-107359727D01*
X125839853Y-107098574D01*
X125895000Y-106821335D01*
X125895000Y-106538665D01*
X125839853Y-106261426D01*
X125731680Y-106000273D01*
X125574637Y-105765241D01*
X125374759Y-105565363D01*
X125142241Y-105410000D01*
X125374759Y-105254637D01*
X125574637Y-105054759D01*
X125730000Y-104822241D01*
X125885363Y-105054759D01*
X126085241Y-105254637D01*
X126320273Y-105411680D01*
X126581426Y-105519853D01*
X126858665Y-105575000D01*
X127141335Y-105575000D01*
X127418574Y-105519853D01*
X127679727Y-105411680D01*
X127914759Y-105254637D01*
X128114637Y-105054759D01*
X128270000Y-104822241D01*
X128425363Y-105054759D01*
X128625241Y-105254637D01*
X128860273Y-105411680D01*
X129121426Y-105519853D01*
X129398665Y-105575000D01*
X129681335Y-105575000D01*
X129958574Y-105519853D01*
X130219727Y-105411680D01*
X130454759Y-105254637D01*
X130654637Y-105054759D01*
X130810000Y-104822241D01*
X130965363Y-105054759D01*
X131165241Y-105254637D01*
X131400273Y-105411680D01*
X131661426Y-105519853D01*
X131938665Y-105575000D01*
X132221335Y-105575000D01*
X132498574Y-105519853D01*
X132759727Y-105411680D01*
X132994759Y-105254637D01*
X133194637Y-105054759D01*
X133350000Y-104822241D01*
X133505363Y-105054759D01*
X133705241Y-105254637D01*
X133940273Y-105411680D01*
X134201426Y-105519853D01*
X134478665Y-105575000D01*
X134761335Y-105575000D01*
X135038574Y-105519853D01*
X135299727Y-105411680D01*
X135534759Y-105254637D01*
X135734637Y-105054759D01*
X135890000Y-104822241D01*
X136045363Y-105054759D01*
X136245241Y-105254637D01*
X136480273Y-105411680D01*
X136741426Y-105519853D01*
X137018665Y-105575000D01*
X137301335Y-105575000D01*
X137578574Y-105519853D01*
X137839727Y-105411680D01*
X138074759Y-105254637D01*
X138274637Y-105054759D01*
X138430000Y-104822241D01*
X138585363Y-105054759D01*
X138785241Y-105254637D01*
X139020273Y-105411680D01*
X139281426Y-105519853D01*
X139558665Y-105575000D01*
X139841335Y-105575000D01*
X140118574Y-105519853D01*
X140379727Y-105411680D01*
X140614759Y-105254637D01*
X140814637Y-105054759D01*
X140970000Y-104822241D01*
X141125363Y-105054759D01*
X141325241Y-105254637D01*
X141560273Y-105411680D01*
X141821426Y-105519853D01*
X142098665Y-105575000D01*
X142381335Y-105575000D01*
X142658574Y-105519853D01*
X142919727Y-105411680D01*
X143154759Y-105254637D01*
X143354637Y-105054759D01*
X143510000Y-104822241D01*
X143665363Y-105054759D01*
X143865241Y-105254637D01*
X144100273Y-105411680D01*
X144361426Y-105519853D01*
X144638665Y-105575000D01*
X144921335Y-105575000D01*
X145103887Y-105538688D01*
X149296201Y-109731003D01*
X149319999Y-109760001D01*
X149348997Y-109783799D01*
X149435723Y-109854974D01*
X149567753Y-109925546D01*
X149711014Y-109969003D01*
X149822667Y-109980000D01*
X149822677Y-109980000D01*
X149860000Y-109983676D01*
X149897323Y-109980000D01*
X154902678Y-109980000D01*
X154940000Y-109983676D01*
X154977322Y-109980000D01*
X154977333Y-109980000D01*
X155088986Y-109969003D01*
X155232247Y-109925546D01*
X155364276Y-109854974D01*
X155480001Y-109760001D01*
X155503804Y-109730997D01*
X156045000Y-109189801D01*
X156045000Y-109361335D01*
X156100147Y-109638574D01*
X156208320Y-109899727D01*
X156365363Y-110134759D01*
X156565241Y-110334637D01*
X156797759Y-110490000D01*
X156565241Y-110645363D01*
X156365363Y-110845241D01*
X156208320Y-111080273D01*
X156100147Y-111341426D01*
X156045000Y-111618665D01*
X156045000Y-111901335D01*
X156100147Y-112178574D01*
X156208320Y-112439727D01*
X156365363Y-112674759D01*
X156565241Y-112874637D01*
X156797759Y-113030000D01*
X156565241Y-113185363D01*
X156365363Y-113385241D01*
X156208320Y-113620273D01*
X156100147Y-113881426D01*
X156045000Y-114158665D01*
X156045000Y-114441335D01*
X156100147Y-114718574D01*
X156138017Y-114810000D01*
X146753711Y-114810000D01*
X146709774Y-114766063D01*
X146540256Y-114652795D01*
X146351898Y-114574774D01*
X146151939Y-114535000D01*
X145948061Y-114535000D01*
X145748102Y-114574774D01*
X145559744Y-114652795D01*
X145390226Y-114766063D01*
X145246063Y-114910226D01*
X145132795Y-115079744D01*
X145054774Y-115268102D01*
X145015000Y-115468061D01*
X145015000Y-115671939D01*
X145054774Y-115871898D01*
X145132795Y-116060256D01*
X145246063Y-116229774D01*
X145390226Y-116373937D01*
X145559744Y-116487205D01*
X145748102Y-116565226D01*
X145948061Y-116605000D01*
X146151939Y-116605000D01*
X146351898Y-116565226D01*
X146540256Y-116487205D01*
X146709774Y-116373937D01*
X146753711Y-116330000D01*
X156138017Y-116330000D01*
X156100147Y-116421426D01*
X156045000Y-116698665D01*
X156045000Y-116981335D01*
X156100147Y-117258574D01*
X156138017Y-117350000D01*
X145094802Y-117350000D01*
X144545000Y-116800199D01*
X144545000Y-116738061D01*
X144505226Y-116538102D01*
X144427205Y-116349744D01*
X144313937Y-116180226D01*
X144169774Y-116036063D01*
X144000256Y-115922795D01*
X143811898Y-115844774D01*
X143611939Y-115805000D01*
X143408061Y-115805000D01*
X143208102Y-115844774D01*
X143019744Y-115922795D01*
X142850226Y-116036063D01*
X142706063Y-116180226D01*
X142592795Y-116349744D01*
X142514774Y-116538102D01*
X142475000Y-116738061D01*
X142475000Y-116941939D01*
X142514774Y-117141898D01*
X142592795Y-117330256D01*
X142706063Y-117499774D01*
X142850226Y-117643937D01*
X143019744Y-117757205D01*
X143208102Y-117835226D01*
X143408061Y-117875000D01*
X143470199Y-117875000D01*
X143862901Y-118267703D01*
X143665363Y-118465241D01*
X143510000Y-118697759D01*
X143354637Y-118465241D01*
X143154759Y-118265363D01*
X142919727Y-118108320D01*
X142658574Y-118000147D01*
X142381335Y-117945000D01*
X142098665Y-117945000D01*
X141821426Y-118000147D01*
X141560273Y-118108320D01*
X141325241Y-118265363D01*
X141125363Y-118465241D01*
X140970000Y-118697759D01*
X140814637Y-118465241D01*
X140614759Y-118265363D01*
X140379727Y-118108320D01*
X140118574Y-118000147D01*
X139841335Y-117945000D01*
X139558665Y-117945000D01*
X139281426Y-118000147D01*
X139020273Y-118108320D01*
X138785241Y-118265363D01*
X138585363Y-118465241D01*
X138430000Y-118697759D01*
X138274637Y-118465241D01*
X138074759Y-118265363D01*
X137839727Y-118108320D01*
X137578574Y-118000147D01*
X137301335Y-117945000D01*
X137018665Y-117945000D01*
X136741426Y-118000147D01*
X136480273Y-118108320D01*
X136245241Y-118265363D01*
X136045363Y-118465241D01*
X135890000Y-118697759D01*
X135734637Y-118465241D01*
X135534759Y-118265363D01*
X135299727Y-118108320D01*
X135038574Y-118000147D01*
X134761335Y-117945000D01*
X134478665Y-117945000D01*
X134201426Y-118000147D01*
X133940273Y-118108320D01*
X133705241Y-118265363D01*
X133505363Y-118465241D01*
X133350000Y-118697759D01*
X133194637Y-118465241D01*
X132994759Y-118265363D01*
X132759727Y-118108320D01*
X132498574Y-118000147D01*
X132221335Y-117945000D01*
X131938665Y-117945000D01*
X131661426Y-118000147D01*
X131400273Y-118108320D01*
X131165241Y-118265363D01*
X130965363Y-118465241D01*
X130810000Y-118697759D01*
X130654637Y-118465241D01*
X130454759Y-118265363D01*
X130219727Y-118108320D01*
X129958574Y-118000147D01*
X129681335Y-117945000D01*
X129398665Y-117945000D01*
X129121426Y-118000147D01*
X128860273Y-118108320D01*
X128625241Y-118265363D01*
X128425363Y-118465241D01*
X128270000Y-118697759D01*
X128114637Y-118465241D01*
X127914759Y-118265363D01*
X127679727Y-118108320D01*
X127418574Y-118000147D01*
X127141335Y-117945000D01*
X126858665Y-117945000D01*
X126581426Y-118000147D01*
X126320273Y-118108320D01*
X126085241Y-118265363D01*
X125885363Y-118465241D01*
X125730000Y-118697759D01*
X125574637Y-118465241D01*
X125374759Y-118265363D01*
X125139727Y-118108320D01*
X124878574Y-118000147D01*
X124601335Y-117945000D01*
X124318665Y-117945000D01*
X124041426Y-118000147D01*
X123780273Y-118108320D01*
X123545241Y-118265363D01*
X123345363Y-118465241D01*
X123190000Y-118697759D01*
X123034637Y-118465241D01*
X122834759Y-118265363D01*
X122599727Y-118108320D01*
X122338574Y-118000147D01*
X122061335Y-117945000D01*
X121778665Y-117945000D01*
X121501426Y-118000147D01*
X121240273Y-118108320D01*
X121005241Y-118265363D01*
X120805363Y-118465241D01*
X120650000Y-118697759D01*
X120494637Y-118465241D01*
X120294759Y-118265363D01*
X120059727Y-118108320D01*
X119798574Y-118000147D01*
X119521335Y-117945000D01*
X119238665Y-117945000D01*
X118961426Y-118000147D01*
X118700273Y-118108320D01*
X118465241Y-118265363D01*
X118265363Y-118465241D01*
X118110000Y-118697759D01*
X117954637Y-118465241D01*
X117754759Y-118265363D01*
X117519727Y-118108320D01*
X117258574Y-118000147D01*
X116981335Y-117945000D01*
X116698665Y-117945000D01*
X116421426Y-118000147D01*
X116160273Y-118108320D01*
X115925241Y-118265363D01*
X115725363Y-118465241D01*
X115570000Y-118697759D01*
X115414637Y-118465241D01*
X115214759Y-118265363D01*
X114979727Y-118108320D01*
X114718574Y-118000147D01*
X114441335Y-117945000D01*
X114158665Y-117945000D01*
X113881426Y-118000147D01*
X113620273Y-118108320D01*
X113385241Y-118265363D01*
X113186643Y-118463961D01*
X113185812Y-118455518D01*
X113149502Y-118335820D01*
X113090537Y-118225506D01*
X113011185Y-118128815D01*
X112914494Y-118049463D01*
X112804180Y-117990498D01*
X112684482Y-117954188D01*
X112560000Y-117941928D01*
X112045750Y-117945000D01*
X111887000Y-118103750D01*
X111887000Y-119253000D01*
X111907000Y-119253000D01*
X111907000Y-119507000D01*
X111887000Y-119507000D01*
X111887000Y-120656250D01*
X112045750Y-120815000D01*
X112560000Y-120818072D01*
X112684482Y-120805812D01*
X112804180Y-120769502D01*
X112914494Y-120710537D01*
X113011185Y-120631185D01*
X113090537Y-120534494D01*
X113149502Y-120424180D01*
X113185812Y-120304482D01*
X113186643Y-120296039D01*
X113385241Y-120494637D01*
X113620273Y-120651680D01*
X113881426Y-120759853D01*
X114158665Y-120815000D01*
X114441335Y-120815000D01*
X114718574Y-120759853D01*
X114979727Y-120651680D01*
X115214759Y-120494637D01*
X115414637Y-120294759D01*
X115570000Y-120062241D01*
X115725363Y-120294759D01*
X115925241Y-120494637D01*
X116160273Y-120651680D01*
X116421426Y-120759853D01*
X116698665Y-120815000D01*
X116981335Y-120815000D01*
X117258574Y-120759853D01*
X117519727Y-120651680D01*
X117754759Y-120494637D01*
X117954637Y-120294759D01*
X118110000Y-120062241D01*
X118265363Y-120294759D01*
X118465241Y-120494637D01*
X118700273Y-120651680D01*
X118961426Y-120759853D01*
X119238665Y-120815000D01*
X119521335Y-120815000D01*
X119798574Y-120759853D01*
X120059727Y-120651680D01*
X120294759Y-120494637D01*
X120494637Y-120294759D01*
X120650000Y-120062241D01*
X120805363Y-120294759D01*
X121005241Y-120494637D01*
X121240273Y-120651680D01*
X121501426Y-120759853D01*
X121778665Y-120815000D01*
X122061335Y-120815000D01*
X122338574Y-120759853D01*
X122599727Y-120651680D01*
X122834759Y-120494637D01*
X123034637Y-120294759D01*
X123190000Y-120062241D01*
X123345363Y-120294759D01*
X123545241Y-120494637D01*
X123780273Y-120651680D01*
X124041426Y-120759853D01*
X124318665Y-120815000D01*
X124601335Y-120815000D01*
X124878574Y-120759853D01*
X125139727Y-120651680D01*
X125374759Y-120494637D01*
X125574637Y-120294759D01*
X125730000Y-120062241D01*
X125885363Y-120294759D01*
X126085241Y-120494637D01*
X126320273Y-120651680D01*
X126581426Y-120759853D01*
X126858665Y-120815000D01*
X127141335Y-120815000D01*
X127418574Y-120759853D01*
X127679727Y-120651680D01*
X127914759Y-120494637D01*
X128114637Y-120294759D01*
X128270000Y-120062241D01*
X128425363Y-120294759D01*
X128622901Y-120492297D01*
X128230199Y-120885000D01*
X128168061Y-120885000D01*
X127968102Y-120924774D01*
X127779744Y-121002795D01*
X127610226Y-121116063D01*
X127466063Y-121260226D01*
X127352795Y-121429744D01*
X127274774Y-121618102D01*
X127235000Y-121818061D01*
X127235000Y-122021939D01*
X127274774Y-122221898D01*
X127352795Y-122410256D01*
X127466063Y-122579774D01*
X127610226Y-122723937D01*
X127779744Y-122837205D01*
X127968102Y-122915226D01*
X128168061Y-122955000D01*
X128371939Y-122955000D01*
X128571898Y-122915226D01*
X128760256Y-122837205D01*
X128929774Y-122723937D01*
X129073937Y-122579774D01*
X129187205Y-122410256D01*
X129265226Y-122221898D01*
X129305000Y-122021939D01*
X129305000Y-121959801D01*
X129949801Y-121315001D01*
X159179464Y-121315001D01*
X159102795Y-121429744D01*
X159024774Y-121618102D01*
X158985000Y-121818061D01*
X158985000Y-122021939D01*
X159024774Y-122221898D01*
X159102795Y-122410256D01*
X159216063Y-122579774D01*
X159360226Y-122723937D01*
X159529744Y-122837205D01*
X159718102Y-122915226D01*
X159918061Y-122955000D01*
X160121939Y-122955000D01*
X160321898Y-122915226D01*
X160510256Y-122837205D01*
X160679774Y-122723937D01*
X160723711Y-122680000D01*
X191645986Y-122680000D01*
X191643175Y-122685901D01*
X191598524Y-122833110D01*
X191719845Y-123063000D01*
X192913000Y-123063000D01*
X192913000Y-123043000D01*
X193167000Y-123043000D01*
X193167000Y-123063000D01*
X193187000Y-123063000D01*
X193187000Y-123317000D01*
X193167000Y-123317000D01*
X193167000Y-123337000D01*
X192913000Y-123337000D01*
X192913000Y-123317000D01*
X191719845Y-123317000D01*
X191598524Y-123546890D01*
X191643175Y-123694099D01*
X191645986Y-123700000D01*
X160723711Y-123700000D01*
X160679774Y-123656063D01*
X160510256Y-123542795D01*
X160321898Y-123464774D01*
X160121939Y-123425000D01*
X159918061Y-123425000D01*
X159718102Y-123464774D01*
X159529744Y-123542795D01*
X159360226Y-123656063D01*
X159216063Y-123800226D01*
X159102795Y-123969744D01*
X159024774Y-124158102D01*
X158985000Y-124358061D01*
X158985000Y-124561939D01*
X159024774Y-124761898D01*
X159102795Y-124950256D01*
X159216063Y-125119774D01*
X159360226Y-125263937D01*
X159529744Y-125377205D01*
X159718102Y-125455226D01*
X159918061Y-125495000D01*
X160121939Y-125495000D01*
X160321898Y-125455226D01*
X160510256Y-125377205D01*
X160679774Y-125263937D01*
X160723711Y-125220000D01*
X191551928Y-125220000D01*
X191551928Y-126580000D01*
X191564188Y-126704482D01*
X191600498Y-126824180D01*
X191659463Y-126934494D01*
X191738815Y-127031185D01*
X191835506Y-127110537D01*
X191945820Y-127169502D01*
X192065518Y-127205812D01*
X192190000Y-127218072D01*
X193890000Y-127218072D01*
X194014482Y-127205812D01*
X194134180Y-127169502D01*
X194244494Y-127110537D01*
X194341185Y-127031185D01*
X194420537Y-126934494D01*
X194479502Y-126824180D01*
X194515812Y-126704482D01*
X194528072Y-126580000D01*
X194528072Y-124880000D01*
X194515812Y-124755518D01*
X194480080Y-124637724D01*
X194776005Y-124341799D01*
X194805002Y-124318002D01*
X194899975Y-124202277D01*
X194970547Y-124070248D01*
X195014004Y-123926987D01*
X195025001Y-123815334D01*
X195025001Y-123815325D01*
X195028677Y-123778002D01*
X195025001Y-123740679D01*
X195025001Y-93972324D01*
X195028677Y-93935001D01*
X195025001Y-93897678D01*
X195025001Y-93897668D01*
X195014004Y-93786015D01*
X194970547Y-93642754D01*
X194899975Y-93510725D01*
X194805002Y-93395000D01*
X194775998Y-93371197D01*
X194481209Y-93076408D01*
X194525000Y-92856260D01*
X194525000Y-92563740D01*
X194467932Y-92276842D01*
X194355990Y-92006589D01*
X194193475Y-91763368D01*
X193986632Y-91556525D01*
X193743411Y-91394010D01*
X193473158Y-91282068D01*
X193186260Y-91225000D01*
X192893740Y-91225000D01*
X192606842Y-91282068D01*
X192336589Y-91394010D01*
X192093368Y-91556525D01*
X191886525Y-91763368D01*
X191724010Y-92006589D01*
X191612068Y-92276842D01*
X191555000Y-92563740D01*
X191555000Y-92856260D01*
X191612068Y-93143158D01*
X191724010Y-93413411D01*
X191886525Y-93656632D01*
X192093368Y-93863475D01*
X192267760Y-93980000D01*
X192093368Y-94096525D01*
X191886525Y-94303368D01*
X191724010Y-94546589D01*
X191612068Y-94816842D01*
X191555000Y-95103740D01*
X191555000Y-95396260D01*
X191612068Y-95683158D01*
X191724010Y-95953411D01*
X191886525Y-96196632D01*
X192093368Y-96403475D01*
X192267760Y-96520000D01*
X192093368Y-96636525D01*
X191886525Y-96843368D01*
X191724010Y-97086589D01*
X191612068Y-97356842D01*
X191555000Y-97643740D01*
X191555000Y-97936260D01*
X191612068Y-98223158D01*
X191724010Y-98493411D01*
X191886525Y-98736632D01*
X192093368Y-98943475D01*
X192267760Y-99060000D01*
X192093368Y-99176525D01*
X191886525Y-99383368D01*
X191724010Y-99626589D01*
X191612068Y-99896842D01*
X191555000Y-100183740D01*
X191555000Y-100476260D01*
X191598790Y-100696408D01*
X187550200Y-104744999D01*
X171482633Y-104744999D01*
X171559853Y-104558574D01*
X171615000Y-104281335D01*
X171615000Y-103998665D01*
X171559853Y-103721426D01*
X171451680Y-103460273D01*
X171294637Y-103225241D01*
X171094759Y-103025363D01*
X170859727Y-102868320D01*
X170598574Y-102760147D01*
X170321335Y-102705000D01*
X170038665Y-102705000D01*
X169810401Y-102750405D01*
X169827205Y-102725256D01*
X169905226Y-102536898D01*
X169945000Y-102336939D01*
X169945000Y-102133061D01*
X169905226Y-101933102D01*
X169827205Y-101744744D01*
X169713937Y-101575226D01*
X169670000Y-101531289D01*
X169670000Y-90207322D01*
X169673676Y-90169999D01*
X169670000Y-90132676D01*
X169670000Y-90132667D01*
X169659003Y-90021014D01*
X169637423Y-89949872D01*
X183185000Y-89949872D01*
X183185000Y-90390128D01*
X183270890Y-90821925D01*
X183439369Y-91228669D01*
X183683962Y-91594729D01*
X183995271Y-91906038D01*
X184361331Y-92150631D01*
X184768075Y-92319110D01*
X185199872Y-92405000D01*
X185640128Y-92405000D01*
X186071925Y-92319110D01*
X186478669Y-92150631D01*
X186844729Y-91906038D01*
X187156038Y-91594729D01*
X187400631Y-91228669D01*
X187569110Y-90821925D01*
X187655000Y-90390128D01*
X187655000Y-89949872D01*
X187569110Y-89518075D01*
X187400631Y-89111331D01*
X187156038Y-88745271D01*
X186844729Y-88433962D01*
X186478669Y-88189369D01*
X186071925Y-88020890D01*
X185640128Y-87935000D01*
X185199872Y-87935000D01*
X184768075Y-88020890D01*
X184361331Y-88189369D01*
X183995271Y-88433962D01*
X183683962Y-88745271D01*
X183439369Y-89111331D01*
X183270890Y-89518075D01*
X183185000Y-89949872D01*
X169637423Y-89949872D01*
X169615546Y-89877753D01*
X169544974Y-89745724D01*
X169450001Y-89629999D01*
X169421004Y-89606202D01*
X165500000Y-85685199D01*
X165500000Y-85623061D01*
X165460226Y-85423102D01*
X165382205Y-85234744D01*
X165268937Y-85065226D01*
X165124774Y-84921063D01*
X164955256Y-84807795D01*
X164766898Y-84729774D01*
X164566939Y-84690000D01*
X164363061Y-84690000D01*
X164163102Y-84729774D01*
X163974744Y-84807795D01*
X163805226Y-84921063D01*
X163661063Y-85065226D01*
X163547795Y-85234744D01*
X163469774Y-85423102D01*
X163430000Y-85623061D01*
X163430000Y-85826939D01*
X163469774Y-86026898D01*
X163547795Y-86215256D01*
X163661063Y-86384774D01*
X163805226Y-86528937D01*
X163974744Y-86642205D01*
X164163102Y-86720226D01*
X164363061Y-86760000D01*
X164425199Y-86760000D01*
X168150000Y-90484802D01*
X168150000Y-92145198D01*
X165500000Y-89495199D01*
X165500000Y-89433061D01*
X165460226Y-89233102D01*
X165382205Y-89044744D01*
X165268937Y-88875226D01*
X165124774Y-88731063D01*
X164955256Y-88617795D01*
X164766898Y-88539774D01*
X164566939Y-88500000D01*
X164363061Y-88500000D01*
X164163102Y-88539774D01*
X163974744Y-88617795D01*
X163805226Y-88731063D01*
X163661063Y-88875226D01*
X163547795Y-89044744D01*
X163469774Y-89233102D01*
X163430000Y-89433061D01*
X163430000Y-89636939D01*
X163469774Y-89836898D01*
X163547795Y-90025256D01*
X163661063Y-90194774D01*
X163805226Y-90338937D01*
X163974744Y-90452205D01*
X164163102Y-90530226D01*
X164363061Y-90570000D01*
X164425199Y-90570000D01*
X166880000Y-93024802D01*
X166880000Y-96300936D01*
X166879180Y-96300498D01*
X166759482Y-96264188D01*
X166635000Y-96251928D01*
X164835000Y-96251928D01*
X164710518Y-96264188D01*
X164590820Y-96300498D01*
X164480506Y-96359463D01*
X164383815Y-96438815D01*
X164304463Y-96535506D01*
X164245498Y-96645820D01*
X164209188Y-96765518D01*
X164196928Y-96890000D01*
X164196928Y-98690000D01*
X164209188Y-98814482D01*
X164245498Y-98934180D01*
X164304463Y-99044494D01*
X164383815Y-99141185D01*
X164480506Y-99220537D01*
X164590820Y-99279502D01*
X164710518Y-99315812D01*
X164835000Y-99328072D01*
X166635000Y-99328072D01*
X166759482Y-99315812D01*
X166879180Y-99279502D01*
X166880001Y-99279063D01*
X166880001Y-102921956D01*
X166725241Y-103025363D01*
X166525363Y-103225241D01*
X166370000Y-103457759D01*
X166214637Y-103225241D01*
X166014759Y-103025363D01*
X165779727Y-102868320D01*
X165518574Y-102760147D01*
X165241335Y-102705000D01*
X164958665Y-102705000D01*
X164681426Y-102760147D01*
X164420273Y-102868320D01*
X164185241Y-103025363D01*
X163985363Y-103225241D01*
X163830000Y-103457759D01*
X163674637Y-103225241D01*
X163474759Y-103025363D01*
X163239727Y-102868320D01*
X162978574Y-102760147D01*
X162701335Y-102705000D01*
X162418665Y-102705000D01*
X162141426Y-102760147D01*
X161880273Y-102868320D01*
X161645241Y-103025363D01*
X161445363Y-103225241D01*
X161290000Y-103457759D01*
X161134637Y-103225241D01*
X160934759Y-103025363D01*
X160699727Y-102868320D01*
X160438574Y-102760147D01*
X160161335Y-102705000D01*
X159878665Y-102705000D01*
X159601426Y-102760147D01*
X159340273Y-102868320D01*
X159105241Y-103025363D01*
X158905363Y-103225241D01*
X158750000Y-103457759D01*
X158594637Y-103225241D01*
X158394759Y-103025363D01*
X158159727Y-102868320D01*
X157898574Y-102760147D01*
X157621335Y-102705000D01*
X157338665Y-102705000D01*
X157061426Y-102760147D01*
X156800273Y-102868320D01*
X156565241Y-103025363D01*
X156365363Y-103225241D01*
X156210000Y-103457759D01*
X156054637Y-103225241D01*
X155854759Y-103025363D01*
X155619727Y-102868320D01*
X155358574Y-102760147D01*
X155081335Y-102705000D01*
X154798665Y-102705000D01*
X154521426Y-102760147D01*
X154260273Y-102868320D01*
X154025241Y-103025363D01*
X153825363Y-103225241D01*
X153670000Y-103457759D01*
X153514637Y-103225241D01*
X153314759Y-103025363D01*
X153079727Y-102868320D01*
X152818574Y-102760147D01*
X152541335Y-102705000D01*
X152258665Y-102705000D01*
X151981426Y-102760147D01*
X151720273Y-102868320D01*
X151485241Y-103025363D01*
X151285363Y-103225241D01*
X151130000Y-103457759D01*
X150974637Y-103225241D01*
X150774759Y-103025363D01*
X150539727Y-102868320D01*
X150278574Y-102760147D01*
X150001335Y-102705000D01*
X149718665Y-102705000D01*
X149441426Y-102760147D01*
X149180273Y-102868320D01*
X148945241Y-103025363D01*
X148745363Y-103225241D01*
X148589085Y-103459128D01*
X148556671Y-103398486D01*
X148312702Y-103326903D01*
X147499605Y-104140000D01*
X148312702Y-104953097D01*
X148556671Y-104881514D01*
X148587194Y-104817008D01*
X148588320Y-104819727D01*
X148745363Y-105054759D01*
X148945241Y-105254637D01*
X149180273Y-105411680D01*
X149441426Y-105519853D01*
X149718665Y-105575000D01*
X150001335Y-105575000D01*
X150278574Y-105519853D01*
X150539727Y-105411680D01*
X150774759Y-105254637D01*
X150974637Y-105054759D01*
X151130000Y-104822241D01*
X151285363Y-105054759D01*
X151485241Y-105254637D01*
X151720273Y-105411680D01*
X151981426Y-105519853D01*
X152258665Y-105575000D01*
X152541335Y-105575000D01*
X152818574Y-105519853D01*
X153079727Y-105411680D01*
X153314759Y-105254637D01*
X153514637Y-105054759D01*
X153670000Y-104822241D01*
X153731605Y-104914440D01*
X153670000Y-104964998D01*
X153646202Y-104993996D01*
X151725199Y-106915000D01*
X151663061Y-106915000D01*
X151463102Y-106954774D01*
X151274744Y-107032795D01*
X151105226Y-107146063D01*
X150961063Y-107290226D01*
X150847795Y-107459744D01*
X150769774Y-107648102D01*
X150730000Y-107848061D01*
X150730000Y-108051939D01*
X150769774Y-108251898D01*
X150847795Y-108440256D01*
X150860987Y-108460000D01*
X150174802Y-108460000D01*
X147290067Y-105575266D01*
X147390512Y-105580217D01*
X147670130Y-105538787D01*
X147936292Y-105443603D01*
X148061514Y-105376671D01*
X148133097Y-105132702D01*
X147320000Y-104319605D01*
X147305858Y-104333748D01*
X147126253Y-104154143D01*
X147140395Y-104140000D01*
X146327298Y-103326903D01*
X146083329Y-103398486D01*
X146052806Y-103462992D01*
X146051680Y-103460273D01*
X145894637Y-103225241D01*
X145816694Y-103147298D01*
X146506903Y-103147298D01*
X147320000Y-103960395D01*
X148133097Y-103147298D01*
X148061514Y-102903329D01*
X147806004Y-102782429D01*
X147531816Y-102713700D01*
X147249488Y-102699783D01*
X146969870Y-102741213D01*
X146703708Y-102836397D01*
X146578486Y-102903329D01*
X146506903Y-103147298D01*
X145816694Y-103147298D01*
X145694759Y-103025363D01*
X145459727Y-102868320D01*
X145198574Y-102760147D01*
X144921335Y-102705000D01*
X144638665Y-102705000D01*
X144361426Y-102760147D01*
X144100273Y-102868320D01*
X143865241Y-103025363D01*
X143665363Y-103225241D01*
X143510000Y-103457759D01*
X143354637Y-103225241D01*
X143154759Y-103025363D01*
X142919727Y-102868320D01*
X142658574Y-102760147D01*
X142381335Y-102705000D01*
X142098665Y-102705000D01*
X141821426Y-102760147D01*
X141560273Y-102868320D01*
X141325241Y-103025363D01*
X141125363Y-103225241D01*
X140970000Y-103457759D01*
X140814637Y-103225241D01*
X140614759Y-103025363D01*
X140379727Y-102868320D01*
X140118574Y-102760147D01*
X139841335Y-102705000D01*
X139558665Y-102705000D01*
X139281426Y-102760147D01*
X139020273Y-102868320D01*
X138785241Y-103025363D01*
X138585363Y-103225241D01*
X138430000Y-103457759D01*
X138274637Y-103225241D01*
X138074759Y-103025363D01*
X137839727Y-102868320D01*
X137578574Y-102760147D01*
X137301335Y-102705000D01*
X137018665Y-102705000D01*
X136741426Y-102760147D01*
X136480273Y-102868320D01*
X136245241Y-103025363D01*
X136045363Y-103225241D01*
X135890000Y-103457759D01*
X135734637Y-103225241D01*
X135534759Y-103025363D01*
X135299727Y-102868320D01*
X135038574Y-102760147D01*
X134761335Y-102705000D01*
X134478665Y-102705000D01*
X134201426Y-102760147D01*
X133940273Y-102868320D01*
X133705241Y-103025363D01*
X133505363Y-103225241D01*
X133350000Y-103457759D01*
X133194637Y-103225241D01*
X132994759Y-103025363D01*
X132759727Y-102868320D01*
X132498574Y-102760147D01*
X132221335Y-102705000D01*
X131938665Y-102705000D01*
X131661426Y-102760147D01*
X131400273Y-102868320D01*
X131165241Y-103025363D01*
X130965363Y-103225241D01*
X130810000Y-103457759D01*
X130654637Y-103225241D01*
X130454759Y-103025363D01*
X130219727Y-102868320D01*
X129958574Y-102760147D01*
X129681335Y-102705000D01*
X129398665Y-102705000D01*
X129121426Y-102760147D01*
X128860273Y-102868320D01*
X128625241Y-103025363D01*
X128425363Y-103225241D01*
X128270000Y-103457759D01*
X128114637Y-103225241D01*
X127914759Y-103025363D01*
X127679727Y-102868320D01*
X127418574Y-102760147D01*
X127141335Y-102705000D01*
X126858665Y-102705000D01*
X126581426Y-102760147D01*
X126320273Y-102868320D01*
X126085241Y-103025363D01*
X125885363Y-103225241D01*
X125730000Y-103457759D01*
X125574637Y-103225241D01*
X125374759Y-103025363D01*
X125139727Y-102868320D01*
X124878574Y-102760147D01*
X124601335Y-102705000D01*
X124318665Y-102705000D01*
X124041426Y-102760147D01*
X123780273Y-102868320D01*
X123545241Y-103025363D01*
X123345363Y-103225241D01*
X123190000Y-103457759D01*
X123034637Y-103225241D01*
X122834759Y-103025363D01*
X122599727Y-102868320D01*
X122338574Y-102760147D01*
X122061335Y-102705000D01*
X121778665Y-102705000D01*
X121501426Y-102760147D01*
X121240273Y-102868320D01*
X121005241Y-103025363D01*
X120805363Y-103225241D01*
X120650000Y-103457759D01*
X120494637Y-103225241D01*
X120294759Y-103025363D01*
X120059727Y-102868320D01*
X119798574Y-102760147D01*
X119521335Y-102705000D01*
X119238665Y-102705000D01*
X118961426Y-102760147D01*
X118700273Y-102868320D01*
X118465241Y-103025363D01*
X118265363Y-103225241D01*
X118110000Y-103457759D01*
X117954637Y-103225241D01*
X117754759Y-103025363D01*
X117519727Y-102868320D01*
X117258574Y-102760147D01*
X116981335Y-102705000D01*
X116698665Y-102705000D01*
X116421426Y-102760147D01*
X116160273Y-102868320D01*
X115925241Y-103025363D01*
X115725363Y-103225241D01*
X115570000Y-103457759D01*
X115414637Y-103225241D01*
X115214759Y-103025363D01*
X114979727Y-102868320D01*
X114718574Y-102760147D01*
X114441335Y-102705000D01*
X114158665Y-102705000D01*
X113881426Y-102760147D01*
X113620273Y-102868320D01*
X113385241Y-103025363D01*
X113185363Y-103225241D01*
X113030000Y-103457759D01*
X112874637Y-103225241D01*
X112674759Y-103025363D01*
X112439727Y-102868320D01*
X112178574Y-102760147D01*
X111901335Y-102705000D01*
X111618665Y-102705000D01*
X111341426Y-102760147D01*
X111080273Y-102868320D01*
X110845241Y-103025363D01*
X110645363Y-103225241D01*
X110617000Y-103267689D01*
X110617000Y-96940000D01*
X150911928Y-96940000D01*
X150911928Y-98640000D01*
X150924188Y-98764482D01*
X150960498Y-98884180D01*
X151019463Y-98994494D01*
X151098815Y-99091185D01*
X151195506Y-99170537D01*
X151305820Y-99229502D01*
X151425518Y-99265812D01*
X151550000Y-99278072D01*
X153250000Y-99278072D01*
X153374482Y-99265812D01*
X153494180Y-99229502D01*
X153604494Y-99170537D01*
X153701185Y-99091185D01*
X153780537Y-98994494D01*
X153839502Y-98884180D01*
X153875812Y-98764482D01*
X153888072Y-98640000D01*
X153888072Y-97638816D01*
X154040000Y-97638816D01*
X154040000Y-97941184D01*
X154098989Y-98237743D01*
X154214701Y-98517095D01*
X154382688Y-98768505D01*
X154596495Y-98982312D01*
X154847905Y-99150299D01*
X155127257Y-99266011D01*
X155423816Y-99325000D01*
X155726184Y-99325000D01*
X156022743Y-99266011D01*
X156302095Y-99150299D01*
X156553505Y-98982312D01*
X156767312Y-98768505D01*
X156935299Y-98517095D01*
X157051011Y-98237743D01*
X157110000Y-97941184D01*
X157110000Y-97638816D01*
X157051011Y-97342257D01*
X156935299Y-97062905D01*
X156767312Y-96811495D01*
X156553505Y-96597688D01*
X156302095Y-96429701D01*
X156022743Y-96313989D01*
X155726184Y-96255000D01*
X155423816Y-96255000D01*
X155127257Y-96313989D01*
X154847905Y-96429701D01*
X154596495Y-96597688D01*
X154382688Y-96811495D01*
X154214701Y-97062905D01*
X154098989Y-97342257D01*
X154040000Y-97638816D01*
X153888072Y-97638816D01*
X153888072Y-96940000D01*
X153875812Y-96815518D01*
X153839502Y-96695820D01*
X153780537Y-96585506D01*
X153701185Y-96488815D01*
X153604494Y-96409463D01*
X153494180Y-96350498D01*
X153421620Y-96328487D01*
X153553475Y-96196632D01*
X153715990Y-95953411D01*
X153827932Y-95683158D01*
X153885000Y-95396260D01*
X153885000Y-95103740D01*
X153827932Y-94816842D01*
X153715990Y-94546589D01*
X153553475Y-94303368D01*
X153346632Y-94096525D01*
X153172240Y-93980000D01*
X153346632Y-93863475D01*
X153553475Y-93656632D01*
X153715990Y-93413411D01*
X153827932Y-93143158D01*
X153885000Y-92856260D01*
X153885000Y-92563740D01*
X153827932Y-92276842D01*
X153715990Y-92006589D01*
X153553475Y-91763368D01*
X153346632Y-91556525D01*
X153164466Y-91434805D01*
X153281355Y-91365178D01*
X153497588Y-91170269D01*
X153671641Y-90936920D01*
X153796825Y-90674099D01*
X153841476Y-90526890D01*
X153720155Y-90297000D01*
X152527000Y-90297000D01*
X152527000Y-90317000D01*
X152273000Y-90317000D01*
X152273000Y-90297000D01*
X151079845Y-90297000D01*
X150958524Y-90526890D01*
X151003175Y-90674099D01*
X151128359Y-90936920D01*
X151302412Y-91170269D01*
X151518645Y-91365178D01*
X151635534Y-91434805D01*
X151453368Y-91556525D01*
X151246525Y-91763368D01*
X151084010Y-92006589D01*
X150972068Y-92276842D01*
X150915000Y-92563740D01*
X150915000Y-92856260D01*
X150972068Y-93143158D01*
X151084010Y-93413411D01*
X151246525Y-93656632D01*
X151453368Y-93863475D01*
X151627760Y-93980000D01*
X151453368Y-94096525D01*
X151246525Y-94303368D01*
X151084010Y-94546589D01*
X150972068Y-94816842D01*
X150915000Y-95103740D01*
X150915000Y-95396260D01*
X150972068Y-95683158D01*
X151084010Y-95953411D01*
X151246525Y-96196632D01*
X151378380Y-96328487D01*
X151305820Y-96350498D01*
X151195506Y-96409463D01*
X151098815Y-96488815D01*
X151019463Y-96585506D01*
X150960498Y-96695820D01*
X150924188Y-96815518D01*
X150911928Y-96940000D01*
X110617000Y-96940000D01*
X110617000Y-89949872D01*
X119685000Y-89949872D01*
X119685000Y-90390128D01*
X119770890Y-90821925D01*
X119939369Y-91228669D01*
X120183962Y-91594729D01*
X120495271Y-91906038D01*
X120861331Y-92150631D01*
X121268075Y-92319110D01*
X121699872Y-92405000D01*
X122140128Y-92405000D01*
X122571925Y-92319110D01*
X122978669Y-92150631D01*
X123344729Y-91906038D01*
X123656038Y-91594729D01*
X123900631Y-91228669D01*
X124069110Y-90821925D01*
X124155000Y-90390128D01*
X124155000Y-89949872D01*
X124069110Y-89518075D01*
X123900631Y-89111331D01*
X123656038Y-88745271D01*
X123344729Y-88433962D01*
X122978669Y-88189369D01*
X122571925Y-88020890D01*
X122140128Y-87935000D01*
X121699872Y-87935000D01*
X121268075Y-88020890D01*
X120861331Y-88189369D01*
X120495271Y-88433962D01*
X120183962Y-88745271D01*
X119939369Y-89111331D01*
X119770890Y-89518075D01*
X119685000Y-89949872D01*
X110617000Y-89949872D01*
X110617000Y-83947000D01*
X151442893Y-83947000D01*
X151246525Y-84143368D01*
G37*
X151246525Y-84143368D02*
X151084010Y-84386589D01*
X150972068Y-84656842D01*
X150915000Y-84943740D01*
X150915000Y-85236260D01*
X150972068Y-85523158D01*
X151084010Y-85793411D01*
X151246525Y-86036632D01*
X151453368Y-86243475D01*
X151627760Y-86360000D01*
X151453368Y-86476525D01*
X151246525Y-86683368D01*
X151084010Y-86926589D01*
X150972068Y-87196842D01*
X150915000Y-87483740D01*
X150915000Y-87776260D01*
X150972068Y-88063158D01*
X151084010Y-88333411D01*
X151246525Y-88576632D01*
X151453368Y-88783475D01*
X151635534Y-88905195D01*
X151518645Y-88974822D01*
X151302412Y-89169731D01*
X151128359Y-89403080D01*
X151003175Y-89665901D01*
X150958524Y-89813110D01*
X151079845Y-90043000D01*
X152273000Y-90043000D01*
X152273000Y-90023000D01*
X152527000Y-90023000D01*
X152527000Y-90043000D01*
X153720155Y-90043000D01*
X153841476Y-89813110D01*
X153796825Y-89665901D01*
X153671641Y-89403080D01*
X153497588Y-89169731D01*
X153281355Y-88974822D01*
X153164466Y-88905195D01*
X153346632Y-88783475D01*
X153553475Y-88576632D01*
X153715990Y-88333411D01*
X153827932Y-88063158D01*
X153885000Y-87776260D01*
X153885000Y-87483740D01*
X153827932Y-87196842D01*
X153715990Y-86926589D01*
X153553475Y-86683368D01*
X153346632Y-86476525D01*
X153172240Y-86360000D01*
X153346632Y-86243475D01*
X153553475Y-86036632D01*
X153715990Y-85793411D01*
X153827932Y-85523158D01*
X153885000Y-85236260D01*
X153885000Y-84943740D01*
X153827932Y-84656842D01*
X153715990Y-84386589D01*
X153553475Y-84143368D01*
X153357107Y-83947000D01*
X195453000Y-83947000D01*
X195453000Y-131953000D01*
X110617000Y-131953000D01*
X110617000Y-128049872D01*
X119685000Y-128049872D01*
X119685000Y-128490128D01*
X119770890Y-128921925D01*
X119939369Y-129328669D01*
X120183962Y-129694729D01*
X120495271Y-130006038D01*
X120861331Y-130250631D01*
X121268075Y-130419110D01*
X121699872Y-130505000D01*
X122140128Y-130505000D01*
X122571925Y-130419110D01*
X122978669Y-130250631D01*
X123344729Y-130006038D01*
X123656038Y-129694729D01*
X123900631Y-129328669D01*
X124069110Y-128921925D01*
X124155000Y-128490128D01*
X124155000Y-128049872D01*
X124069110Y-127618075D01*
X123900631Y-127211331D01*
X123656038Y-126845271D01*
X123344729Y-126533962D01*
X123219071Y-126450000D01*
X166971928Y-126450000D01*
X166971928Y-127550000D01*
X166984188Y-127674482D01*
X167020498Y-127794180D01*
X167079463Y-127904494D01*
X167158815Y-128001185D01*
X167255506Y-128080537D01*
X167365820Y-128139502D01*
X167485518Y-128175812D01*
X167610000Y-128188072D01*
X169041928Y-128188072D01*
X169041928Y-128351928D01*
X167885000Y-128351928D01*
X167706868Y-128369472D01*
X167535582Y-128421431D01*
X167377724Y-128505808D01*
X167239361Y-128619361D01*
X167125808Y-128757724D01*
X167041431Y-128915582D01*
X166989472Y-129086868D01*
X166971928Y-129265000D01*
X166971928Y-129815000D01*
X166989472Y-129993132D01*
X167041431Y-130164418D01*
X167125808Y-130322276D01*
X167239361Y-130460639D01*
X167377724Y-130574192D01*
X167535582Y-130658569D01*
X167706868Y-130710528D01*
X167885000Y-130728072D01*
X169135000Y-130728072D01*
X169313132Y-130710528D01*
X169484418Y-130658569D01*
X169642276Y-130574192D01*
X169780639Y-130460639D01*
X169894192Y-130322276D01*
X169978569Y-130164418D01*
X170030528Y-129993132D01*
X170048072Y-129815000D01*
X170048072Y-129458072D01*
X171205000Y-129458072D01*
X171383132Y-129440528D01*
X171554418Y-129388569D01*
X171712276Y-129304192D01*
X171850639Y-129190639D01*
X171964192Y-129052276D01*
X172048569Y-128894418D01*
X172100528Y-128723132D01*
X172118072Y-128545000D01*
X172118072Y-128049872D01*
X183185000Y-128049872D01*
X183185000Y-128490128D01*
X183270890Y-128921925D01*
X183439369Y-129328669D01*
X183683962Y-129694729D01*
X183995271Y-130006038D01*
X184361331Y-130250631D01*
X184768075Y-130419110D01*
X185199872Y-130505000D01*
X185640128Y-130505000D01*
X186071925Y-130419110D01*
X186478669Y-130250631D01*
X186844729Y-130006038D01*
X187156038Y-129694729D01*
X187400631Y-129328669D01*
X187569110Y-128921925D01*
X187655000Y-128490128D01*
X187655000Y-128049872D01*
X187569110Y-127618075D01*
X187400631Y-127211331D01*
X187156038Y-126845271D01*
X186844729Y-126533962D01*
X186478669Y-126289369D01*
X186071925Y-126120890D01*
X185640128Y-126035000D01*
X185199872Y-126035000D01*
X184768075Y-126120890D01*
X184361331Y-126289369D01*
X183995271Y-126533962D01*
X183683962Y-126845271D01*
X183439369Y-127211331D01*
X183270890Y-127618075D01*
X183185000Y-128049872D01*
X172118072Y-128049872D01*
X172118072Y-127995000D01*
X172100528Y-127816868D01*
X172048569Y-127645582D01*
X171964192Y-127487724D01*
X171850639Y-127349361D01*
X171712276Y-127235808D01*
X171554418Y-127151431D01*
X171383132Y-127099472D01*
X171205000Y-127081928D01*
X170048072Y-127081928D01*
X170048072Y-126450000D01*
X170035812Y-126325518D01*
X169999502Y-126205820D01*
X169940537Y-126095506D01*
X169861185Y-125998815D01*
X169764494Y-125919463D01*
X169654180Y-125860498D01*
X169534482Y-125824188D01*
X169410000Y-125811928D01*
X167610000Y-125811928D01*
X167485518Y-125824188D01*
X167365820Y-125860498D01*
X167255506Y-125919463D01*
X167158815Y-125998815D01*
X167079463Y-126095506D01*
X167020498Y-126205820D01*
X166984188Y-126325518D01*
X166971928Y-126450000D01*
X123219071Y-126450000D01*
X122978669Y-126289369D01*
X122571925Y-126120890D01*
X122140128Y-126035000D01*
X121699872Y-126035000D01*
X121268075Y-126120890D01*
X120861331Y-126289369D01*
X120495271Y-126533962D01*
X120183962Y-126845271D01*
X119939369Y-127211331D01*
X119770890Y-127618075D01*
X119685000Y-128049872D01*
X110617000Y-128049872D01*
X110617000Y-120716681D01*
X110715820Y-120769502D01*
X110835518Y-120805812D01*
X110960000Y-120818072D01*
X111474250Y-120815000D01*
X111633000Y-120656250D01*
X111633000Y-119507000D01*
X111613000Y-119507000D01*
X111613000Y-119253000D01*
X111633000Y-119253000D01*
X111633000Y-118103750D01*
X111474250Y-117945000D01*
X110960000Y-117941928D01*
X110835518Y-117954188D01*
X110715820Y-117990498D01*
X110617000Y-118043319D01*
X110617000Y-116238665D01*
X116675000Y-116238665D01*
X116675000Y-116521335D01*
X116730147Y-116798574D01*
X116838320Y-117059727D01*
X116995363Y-117294759D01*
X117195241Y-117494637D01*
X117430273Y-117651680D01*
X117691426Y-117759853D01*
X117968665Y-117815000D01*
X118251335Y-117815000D01*
X118528574Y-117759853D01*
X118789727Y-117651680D01*
X119024759Y-117494637D01*
X119224637Y-117294759D01*
X119380000Y-117062241D01*
X119535363Y-117294759D01*
X119735241Y-117494637D01*
X119970273Y-117651680D01*
X120231426Y-117759853D01*
X120508665Y-117815000D01*
X120791335Y-117815000D01*
X121068574Y-117759853D01*
X121329727Y-117651680D01*
X121564759Y-117494637D01*
X121764637Y-117294759D01*
X121920000Y-117062241D01*
X122075363Y-117294759D01*
X122275241Y-117494637D01*
X122510273Y-117651680D01*
X122771426Y-117759853D01*
X123048665Y-117815000D01*
X123331335Y-117815000D01*
X123608574Y-117759853D01*
X123869727Y-117651680D01*
X124104759Y-117494637D01*
X124304637Y-117294759D01*
X124460000Y-117062241D01*
X124615363Y-117294759D01*
X124815241Y-117494637D01*
X125050273Y-117651680D01*
X125311426Y-117759853D01*
X125588665Y-117815000D01*
X125871335Y-117815000D01*
X126148574Y-117759853D01*
X126409727Y-117651680D01*
X126644759Y-117494637D01*
X126844637Y-117294759D01*
X127000000Y-117062241D01*
X127155363Y-117294759D01*
X127355241Y-117494637D01*
X127590273Y-117651680D01*
X127851426Y-117759853D01*
X128128665Y-117815000D01*
X128411335Y-117815000D01*
X128688574Y-117759853D01*
X128949727Y-117651680D01*
X129184759Y-117494637D01*
X129384637Y-117294759D01*
X129541680Y-117059727D01*
X129649853Y-116798574D01*
X129705000Y-116521335D01*
X129705000Y-116238665D01*
X129649853Y-115961426D01*
X129541680Y-115700273D01*
X129384637Y-115465241D01*
X129184759Y-115265363D01*
X128949727Y-115108320D01*
X128688574Y-115000147D01*
X128411335Y-114945000D01*
X128128665Y-114945000D01*
X127851426Y-115000147D01*
X127590273Y-115108320D01*
X127355241Y-115265363D01*
X127155363Y-115465241D01*
X127000000Y-115697759D01*
X126844637Y-115465241D01*
X126644759Y-115265363D01*
X126409727Y-115108320D01*
X126148574Y-115000147D01*
X125871335Y-114945000D01*
X125588665Y-114945000D01*
X125311426Y-115000147D01*
X125050273Y-115108320D01*
X124815241Y-115265363D01*
X124615363Y-115465241D01*
X124460000Y-115697759D01*
X124304637Y-115465241D01*
X124104759Y-115265363D01*
X123869727Y-115108320D01*
X123608574Y-115000147D01*
X123331335Y-114945000D01*
X123048665Y-114945000D01*
X122771426Y-115000147D01*
X122510273Y-115108320D01*
X122275241Y-115265363D01*
X122075363Y-115465241D01*
X121920000Y-115697759D01*
X121764637Y-115465241D01*
X121564759Y-115265363D01*
X121329727Y-115108320D01*
X121068574Y-115000147D01*
X120791335Y-114945000D01*
X120508665Y-114945000D01*
X120231426Y-115000147D01*
X119970273Y-115108320D01*
X119735241Y-115265363D01*
X119535363Y-115465241D01*
X119380000Y-115697759D01*
X119224637Y-115465241D01*
X119024759Y-115265363D01*
X118789727Y-115108320D01*
X118528574Y-115000147D01*
X118251335Y-114945000D01*
X117968665Y-114945000D01*
X117691426Y-115000147D01*
X117430273Y-115108320D01*
X117195241Y-115265363D01*
X116995363Y-115465241D01*
X116838320Y-115700273D01*
X116730147Y-115961426D01*
X116675000Y-116238665D01*
X110617000Y-116238665D01*
X110617000Y-105012311D01*
X110645363Y-105054759D01*
X110845241Y-105254637D01*
X111080273Y-105411680D01*
X111341426Y-105519853D01*
X111618665Y-105575000D01*
X111901335Y-105575000D01*
X112178574Y-105519853D01*
X112439727Y-105411680D01*
X112674759Y-105254637D01*
X112874637Y-105054759D01*
X113030000Y-104822241D01*
X113185363Y-105054759D01*
X113385241Y-105254637D01*
X113617759Y-105410000D01*
X113385241Y-105565363D01*
X113185363Y-105765241D01*
X113028320Y-106000273D01*
X112920147Y-106261426D01*
X112865000Y-106538665D01*
X112865000Y-106821335D01*
X112920147Y-107098574D01*
X113028320Y-107359727D01*
X113185363Y-107594759D01*
X113385241Y-107794637D01*
X113620273Y-107951680D01*
X113881426Y-108059853D01*
X114158665Y-108115000D01*
X114441335Y-108115000D01*
X114718574Y-108059853D01*
X114979727Y-107951680D01*
X115214759Y-107794637D01*
X115414637Y-107594759D01*
X115571680Y-107359727D01*
X115679853Y-107098574D01*
X115735000Y-106821335D01*
X115735000Y-106538665D01*
X115679853Y-106261426D01*
X115571680Y-106000273D01*
X115414637Y-105765241D01*
X115214759Y-105565363D01*
X114982241Y-105410000D01*
X115214759Y-105254637D01*
X115414637Y-105054759D01*
X115570000Y-104822241D01*
X115725363Y-105054759D01*
X115925241Y-105254637D01*
X116160273Y-105411680D01*
X116421426Y-105519853D01*
X116698665Y-105575000D01*
X116981335Y-105575000D01*
X117258574Y-105519853D01*
X117519727Y-105411680D01*
X117754759Y-105254637D01*
X117954637Y-105054759D01*
X118110000Y-104822241D01*
X118265363Y-105054759D01*
X118465241Y-105254637D01*
X118697759Y-105410000D01*
X118465241Y-105565363D01*
X118265363Y-105765241D01*
X118108320Y-106000273D01*
X118000147Y-106261426D01*
X117945000Y-106538665D01*
X117945000Y-106821335D01*
X118000147Y-107098574D01*
X118108320Y-107359727D01*
X118265363Y-107594759D01*
X118465241Y-107794637D01*
X118700273Y-107951680D01*
X118961426Y-108059853D01*
X119238665Y-108115000D01*
X119521335Y-108115000D01*
X119798574Y-108059853D01*
X120059727Y-107951680D01*
X120294759Y-107794637D01*
X120494637Y-107594759D01*
X120650000Y-107362241D01*
X120805363Y-107594759D01*
X121005241Y-107794637D01*
X121240273Y-107951680D01*
X121501426Y-108059853D01*
X121778665Y-108115000D01*
X122061335Y-108115000D01*
X122338574Y-108059853D01*
X122599727Y-107951680D01*
X122834759Y-107794637D01*
X123034637Y-107594759D01*
X123190000Y-107362241D01*
X123345363Y-107594759D01*
X123545241Y-107794637D01*
X123780273Y-107951680D01*
X124041426Y-108059853D01*
X124318665Y-108115000D01*
X124601335Y-108115000D01*
X124878574Y-108059853D01*
X125139727Y-107951680D01*
X125374759Y-107794637D01*
X125574637Y-107594759D01*
X125731680Y-107359727D01*
X125839853Y-107098574D01*
X125895000Y-106821335D01*
X125895000Y-106538665D01*
X125839853Y-106261426D01*
X125731680Y-106000273D01*
X125574637Y-105765241D01*
X125374759Y-105565363D01*
X125142241Y-105410000D01*
X125374759Y-105254637D01*
X125574637Y-105054759D01*
X125730000Y-104822241D01*
X125885363Y-105054759D01*
X126085241Y-105254637D01*
X126320273Y-105411680D01*
X126581426Y-105519853D01*
X126858665Y-105575000D01*
X127141335Y-105575000D01*
X127418574Y-105519853D01*
X127679727Y-105411680D01*
X127914759Y-105254637D01*
X128114637Y-105054759D01*
X128270000Y-104822241D01*
X128425363Y-105054759D01*
X128625241Y-105254637D01*
X128860273Y-105411680D01*
X129121426Y-105519853D01*
X129398665Y-105575000D01*
X129681335Y-105575000D01*
X129958574Y-105519853D01*
X130219727Y-105411680D01*
X130454759Y-105254637D01*
X130654637Y-105054759D01*
X130810000Y-104822241D01*
X130965363Y-105054759D01*
X131165241Y-105254637D01*
X131400273Y-105411680D01*
X131661426Y-105519853D01*
X131938665Y-105575000D01*
X132221335Y-105575000D01*
X132498574Y-105519853D01*
X132759727Y-105411680D01*
X132994759Y-105254637D01*
X133194637Y-105054759D01*
X133350000Y-104822241D01*
X133505363Y-105054759D01*
X133705241Y-105254637D01*
X133940273Y-105411680D01*
X134201426Y-105519853D01*
X134478665Y-105575000D01*
X134761335Y-105575000D01*
X135038574Y-105519853D01*
X135299727Y-105411680D01*
X135534759Y-105254637D01*
X135734637Y-105054759D01*
X135890000Y-104822241D01*
X136045363Y-105054759D01*
X136245241Y-105254637D01*
X136480273Y-105411680D01*
X136741426Y-105519853D01*
X137018665Y-105575000D01*
X137301335Y-105575000D01*
X137578574Y-105519853D01*
X137839727Y-105411680D01*
X138074759Y-105254637D01*
X138274637Y-105054759D01*
X138430000Y-104822241D01*
X138585363Y-105054759D01*
X138785241Y-105254637D01*
X139020273Y-105411680D01*
X139281426Y-105519853D01*
X139558665Y-105575000D01*
X139841335Y-105575000D01*
X140118574Y-105519853D01*
X140379727Y-105411680D01*
X140614759Y-105254637D01*
X140814637Y-105054759D01*
X140970000Y-104822241D01*
X141125363Y-105054759D01*
X141325241Y-105254637D01*
X141560273Y-105411680D01*
X141821426Y-105519853D01*
X142098665Y-105575000D01*
X142381335Y-105575000D01*
X142658574Y-105519853D01*
X142919727Y-105411680D01*
X143154759Y-105254637D01*
X143354637Y-105054759D01*
X143510000Y-104822241D01*
X143665363Y-105054759D01*
X143865241Y-105254637D01*
X144100273Y-105411680D01*
X144361426Y-105519853D01*
X144638665Y-105575000D01*
X144921335Y-105575000D01*
X145103887Y-105538688D01*
X149296201Y-109731003D01*
X149319999Y-109760001D01*
X149348997Y-109783799D01*
X149435723Y-109854974D01*
X149567753Y-109925546D01*
X149711014Y-109969003D01*
X149822667Y-109980000D01*
X149822677Y-109980000D01*
X149860000Y-109983676D01*
X149897323Y-109980000D01*
X154902678Y-109980000D01*
X154940000Y-109983676D01*
X154977322Y-109980000D01*
X154977333Y-109980000D01*
X155088986Y-109969003D01*
X155232247Y-109925546D01*
X155364276Y-109854974D01*
X155480001Y-109760001D01*
X155503804Y-109730997D01*
X156045000Y-109189801D01*
X156045000Y-109361335D01*
X156100147Y-109638574D01*
X156208320Y-109899727D01*
X156365363Y-110134759D01*
X156565241Y-110334637D01*
X156797759Y-110490000D01*
X156565241Y-110645363D01*
X156365363Y-110845241D01*
X156208320Y-111080273D01*
X156100147Y-111341426D01*
X156045000Y-111618665D01*
X156045000Y-111901335D01*
X156100147Y-112178574D01*
X156208320Y-112439727D01*
X156365363Y-112674759D01*
X156565241Y-112874637D01*
X156797759Y-113030000D01*
X156565241Y-113185363D01*
X156365363Y-113385241D01*
X156208320Y-113620273D01*
X156100147Y-113881426D01*
X156045000Y-114158665D01*
X156045000Y-114441335D01*
X156100147Y-114718574D01*
X156138017Y-114810000D01*
X146753711Y-114810000D01*
X146709774Y-114766063D01*
X146540256Y-114652795D01*
X146351898Y-114574774D01*
X146151939Y-114535000D01*
X145948061Y-114535000D01*
X145748102Y-114574774D01*
X145559744Y-114652795D01*
X145390226Y-114766063D01*
X145246063Y-114910226D01*
X145132795Y-115079744D01*
X145054774Y-115268102D01*
X145015000Y-115468061D01*
X145015000Y-115671939D01*
X145054774Y-115871898D01*
X145132795Y-116060256D01*
X145246063Y-116229774D01*
X145390226Y-116373937D01*
X145559744Y-116487205D01*
X145748102Y-116565226D01*
X145948061Y-116605000D01*
X146151939Y-116605000D01*
X146351898Y-116565226D01*
X146540256Y-116487205D01*
X146709774Y-116373937D01*
X146753711Y-116330000D01*
X156138017Y-116330000D01*
X156100147Y-116421426D01*
X156045000Y-116698665D01*
X156045000Y-116981335D01*
X156100147Y-117258574D01*
X156138017Y-117350000D01*
X145094802Y-117350000D01*
X144545000Y-116800199D01*
X144545000Y-116738061D01*
X144505226Y-116538102D01*
X144427205Y-116349744D01*
X144313937Y-116180226D01*
X144169774Y-116036063D01*
X144000256Y-115922795D01*
X143811898Y-115844774D01*
X143611939Y-115805000D01*
X143408061Y-115805000D01*
X143208102Y-115844774D01*
X143019744Y-115922795D01*
X142850226Y-116036063D01*
X142706063Y-116180226D01*
X142592795Y-116349744D01*
X142514774Y-116538102D01*
X142475000Y-116738061D01*
X142475000Y-116941939D01*
X142514774Y-117141898D01*
X142592795Y-117330256D01*
X142706063Y-117499774D01*
X142850226Y-117643937D01*
X143019744Y-117757205D01*
X143208102Y-117835226D01*
X143408061Y-117875000D01*
X143470199Y-117875000D01*
X143862901Y-118267703D01*
X143665363Y-118465241D01*
X143510000Y-118697759D01*
X143354637Y-118465241D01*
X143154759Y-118265363D01*
X142919727Y-118108320D01*
X142658574Y-118000147D01*
X142381335Y-117945000D01*
X142098665Y-117945000D01*
X141821426Y-118000147D01*
X141560273Y-118108320D01*
X141325241Y-118265363D01*
X141125363Y-118465241D01*
X140970000Y-118697759D01*
X140814637Y-118465241D01*
X140614759Y-118265363D01*
X140379727Y-118108320D01*
X140118574Y-118000147D01*
X139841335Y-117945000D01*
X139558665Y-117945000D01*
X139281426Y-118000147D01*
X139020273Y-118108320D01*
X138785241Y-118265363D01*
X138585363Y-118465241D01*
X138430000Y-118697759D01*
X138274637Y-118465241D01*
X138074759Y-118265363D01*
X137839727Y-118108320D01*
X137578574Y-118000147D01*
X137301335Y-117945000D01*
X137018665Y-117945000D01*
X136741426Y-118000147D01*
X136480273Y-118108320D01*
X136245241Y-118265363D01*
X136045363Y-118465241D01*
X135890000Y-118697759D01*
X135734637Y-118465241D01*
X135534759Y-118265363D01*
X135299727Y-118108320D01*
X135038574Y-118000147D01*
X134761335Y-117945000D01*
X134478665Y-117945000D01*
X134201426Y-118000147D01*
X133940273Y-118108320D01*
X133705241Y-118265363D01*
X133505363Y-118465241D01*
X133350000Y-118697759D01*
X133194637Y-118465241D01*
X132994759Y-118265363D01*
X132759727Y-118108320D01*
X132498574Y-118000147D01*
X132221335Y-117945000D01*
X131938665Y-117945000D01*
X131661426Y-118000147D01*
X131400273Y-118108320D01*
X131165241Y-118265363D01*
X130965363Y-118465241D01*
X130810000Y-118697759D01*
X130654637Y-118465241D01*
X130454759Y-118265363D01*
X130219727Y-118108320D01*
X129958574Y-118000147D01*
X129681335Y-117945000D01*
X129398665Y-117945000D01*
X129121426Y-118000147D01*
X128860273Y-118108320D01*
X128625241Y-118265363D01*
X128425363Y-118465241D01*
X128270000Y-118697759D01*
X128114637Y-118465241D01*
X127914759Y-118265363D01*
X127679727Y-118108320D01*
X127418574Y-118000147D01*
X127141335Y-117945000D01*
X126858665Y-117945000D01*
X126581426Y-118000147D01*
X126320273Y-118108320D01*
X126085241Y-118265363D01*
X125885363Y-118465241D01*
X125730000Y-118697759D01*
X125574637Y-118465241D01*
X125374759Y-118265363D01*
X125139727Y-118108320D01*
X124878574Y-118000147D01*
X124601335Y-117945000D01*
X124318665Y-117945000D01*
X124041426Y-118000147D01*
X123780273Y-118108320D01*
X123545241Y-118265363D01*
X123345363Y-118465241D01*
X123190000Y-118697759D01*
X123034637Y-118465241D01*
X122834759Y-118265363D01*
X122599727Y-118108320D01*
X122338574Y-118000147D01*
X122061335Y-117945000D01*
X121778665Y-117945000D01*
X121501426Y-118000147D01*
X121240273Y-118108320D01*
X121005241Y-118265363D01*
X120805363Y-118465241D01*
X120650000Y-118697759D01*
X120494637Y-118465241D01*
X120294759Y-118265363D01*
X120059727Y-118108320D01*
X119798574Y-118000147D01*
X119521335Y-117945000D01*
X119238665Y-117945000D01*
X118961426Y-118000147D01*
X118700273Y-118108320D01*
X118465241Y-118265363D01*
X118265363Y-118465241D01*
X118110000Y-118697759D01*
X117954637Y-118465241D01*
X117754759Y-118265363D01*
X117519727Y-118108320D01*
X117258574Y-118000147D01*
X116981335Y-117945000D01*
X116698665Y-117945000D01*
X116421426Y-118000147D01*
X116160273Y-118108320D01*
X115925241Y-118265363D01*
X115725363Y-118465241D01*
X115570000Y-118697759D01*
X115414637Y-118465241D01*
X115214759Y-118265363D01*
X114979727Y-118108320D01*
X114718574Y-118000147D01*
X114441335Y-117945000D01*
X114158665Y-117945000D01*
X113881426Y-118000147D01*
X113620273Y-118108320D01*
X113385241Y-118265363D01*
X113186643Y-118463961D01*
X113185812Y-118455518D01*
X113149502Y-118335820D01*
X113090537Y-118225506D01*
X113011185Y-118128815D01*
X112914494Y-118049463D01*
X112804180Y-117990498D01*
X112684482Y-117954188D01*
X112560000Y-117941928D01*
X112045750Y-117945000D01*
X111887000Y-118103750D01*
X111887000Y-119253000D01*
X111907000Y-119253000D01*
X111907000Y-119507000D01*
X111887000Y-119507000D01*
X111887000Y-120656250D01*
X112045750Y-120815000D01*
X112560000Y-120818072D01*
X112684482Y-120805812D01*
X112804180Y-120769502D01*
X112914494Y-120710537D01*
X113011185Y-120631185D01*
X113090537Y-120534494D01*
X113149502Y-120424180D01*
X113185812Y-120304482D01*
X113186643Y-120296039D01*
X113385241Y-120494637D01*
X113620273Y-120651680D01*
X113881426Y-120759853D01*
X114158665Y-120815000D01*
X114441335Y-120815000D01*
X114718574Y-120759853D01*
X114979727Y-120651680D01*
X115214759Y-120494637D01*
X115414637Y-120294759D01*
X115570000Y-120062241D01*
X115725363Y-120294759D01*
X115925241Y-120494637D01*
X116160273Y-120651680D01*
X116421426Y-120759853D01*
X116698665Y-120815000D01*
X116981335Y-120815000D01*
X117258574Y-120759853D01*
X117519727Y-120651680D01*
X117754759Y-120494637D01*
X117954637Y-120294759D01*
X118110000Y-120062241D01*
X118265363Y-120294759D01*
X118465241Y-120494637D01*
X118700273Y-120651680D01*
X118961426Y-120759853D01*
X119238665Y-120815000D01*
X119521335Y-120815000D01*
X119798574Y-120759853D01*
X120059727Y-120651680D01*
X120294759Y-120494637D01*
X120494637Y-120294759D01*
X120650000Y-120062241D01*
X120805363Y-120294759D01*
X121005241Y-120494637D01*
X121240273Y-120651680D01*
X121501426Y-120759853D01*
X121778665Y-120815000D01*
X122061335Y-120815000D01*
X122338574Y-120759853D01*
X122599727Y-120651680D01*
X122834759Y-120494637D01*
X123034637Y-120294759D01*
X123190000Y-120062241D01*
X123345363Y-120294759D01*
X123545241Y-120494637D01*
X123780273Y-120651680D01*
X124041426Y-120759853D01*
X124318665Y-120815000D01*
X124601335Y-120815000D01*
X124878574Y-120759853D01*
X125139727Y-120651680D01*
X125374759Y-120494637D01*
X125574637Y-120294759D01*
X125730000Y-120062241D01*
X125885363Y-120294759D01*
X126085241Y-120494637D01*
X126320273Y-120651680D01*
X126581426Y-120759853D01*
X126858665Y-120815000D01*
X127141335Y-120815000D01*
X127418574Y-120759853D01*
X127679727Y-120651680D01*
X127914759Y-120494637D01*
X128114637Y-120294759D01*
X128270000Y-120062241D01*
X128425363Y-120294759D01*
X128622901Y-120492297D01*
X128230199Y-120885000D01*
X128168061Y-120885000D01*
X127968102Y-120924774D01*
X127779744Y-121002795D01*
X127610226Y-121116063D01*
X127466063Y-121260226D01*
X127352795Y-121429744D01*
X127274774Y-121618102D01*
X127235000Y-121818061D01*
X127235000Y-122021939D01*
X127274774Y-122221898D01*
X127352795Y-122410256D01*
X127466063Y-122579774D01*
X127610226Y-122723937D01*
X127779744Y-122837205D01*
X127968102Y-122915226D01*
X128168061Y-122955000D01*
X128371939Y-122955000D01*
X128571898Y-122915226D01*
X128760256Y-122837205D01*
X128929774Y-122723937D01*
X129073937Y-122579774D01*
X129187205Y-122410256D01*
X129265226Y-122221898D01*
X129305000Y-122021939D01*
X129305000Y-121959801D01*
X129949801Y-121315001D01*
X159179464Y-121315001D01*
X159102795Y-121429744D01*
X159024774Y-121618102D01*
X158985000Y-121818061D01*
X158985000Y-122021939D01*
X159024774Y-122221898D01*
X159102795Y-122410256D01*
X159216063Y-122579774D01*
X159360226Y-122723937D01*
X159529744Y-122837205D01*
X159718102Y-122915226D01*
X159918061Y-122955000D01*
X160121939Y-122955000D01*
X160321898Y-122915226D01*
X160510256Y-122837205D01*
X160679774Y-122723937D01*
X160723711Y-122680000D01*
X191645986Y-122680000D01*
X191643175Y-122685901D01*
X191598524Y-122833110D01*
X191719845Y-123063000D01*
X192913000Y-123063000D01*
X192913000Y-123043000D01*
X193167000Y-123043000D01*
X193167000Y-123063000D01*
X193187000Y-123063000D01*
X193187000Y-123317000D01*
X193167000Y-123317000D01*
X193167000Y-123337000D01*
X192913000Y-123337000D01*
X192913000Y-123317000D01*
X191719845Y-123317000D01*
X191598524Y-123546890D01*
X191643175Y-123694099D01*
X191645986Y-123700000D01*
X160723711Y-123700000D01*
X160679774Y-123656063D01*
X160510256Y-123542795D01*
X160321898Y-123464774D01*
X160121939Y-123425000D01*
X159918061Y-123425000D01*
X159718102Y-123464774D01*
X159529744Y-123542795D01*
X159360226Y-123656063D01*
X159216063Y-123800226D01*
X159102795Y-123969744D01*
X159024774Y-124158102D01*
X158985000Y-124358061D01*
X158985000Y-124561939D01*
X159024774Y-124761898D01*
X159102795Y-124950256D01*
X159216063Y-125119774D01*
X159360226Y-125263937D01*
X159529744Y-125377205D01*
X159718102Y-125455226D01*
X159918061Y-125495000D01*
X160121939Y-125495000D01*
X160321898Y-125455226D01*
X160510256Y-125377205D01*
X160679774Y-125263937D01*
X160723711Y-125220000D01*
X191551928Y-125220000D01*
X191551928Y-126580000D01*
X191564188Y-126704482D01*
X191600498Y-126824180D01*
X191659463Y-126934494D01*
X191738815Y-127031185D01*
X191835506Y-127110537D01*
X191945820Y-127169502D01*
X192065518Y-127205812D01*
X192190000Y-127218072D01*
X193890000Y-127218072D01*
X194014482Y-127205812D01*
X194134180Y-127169502D01*
X194244494Y-127110537D01*
X194341185Y-127031185D01*
X194420537Y-126934494D01*
X194479502Y-126824180D01*
X194515812Y-126704482D01*
X194528072Y-126580000D01*
X194528072Y-124880000D01*
X194515812Y-124755518D01*
X194480080Y-124637724D01*
X194776005Y-124341799D01*
X194805002Y-124318002D01*
X194899975Y-124202277D01*
X194970547Y-124070248D01*
X195014004Y-123926987D01*
X195025001Y-123815334D01*
X195025001Y-123815325D01*
X195028677Y-123778002D01*
X195025001Y-123740679D01*
X195025001Y-93972324D01*
X195028677Y-93935001D01*
X195025001Y-93897678D01*
X195025001Y-93897668D01*
X195014004Y-93786015D01*
X194970547Y-93642754D01*
X194899975Y-93510725D01*
X194805002Y-93395000D01*
X194775998Y-93371197D01*
X194481209Y-93076408D01*
X194525000Y-92856260D01*
X194525000Y-92563740D01*
X194467932Y-92276842D01*
X194355990Y-92006589D01*
X194193475Y-91763368D01*
X193986632Y-91556525D01*
X193743411Y-91394010D01*
X193473158Y-91282068D01*
X193186260Y-91225000D01*
X192893740Y-91225000D01*
X192606842Y-91282068D01*
X192336589Y-91394010D01*
X192093368Y-91556525D01*
X191886525Y-91763368D01*
X191724010Y-92006589D01*
X191612068Y-92276842D01*
X191555000Y-92563740D01*
X191555000Y-92856260D01*
X191612068Y-93143158D01*
X191724010Y-93413411D01*
X191886525Y-93656632D01*
X192093368Y-93863475D01*
X192267760Y-93980000D01*
X192093368Y-94096525D01*
X191886525Y-94303368D01*
X191724010Y-94546589D01*
X191612068Y-94816842D01*
X191555000Y-95103740D01*
X191555000Y-95396260D01*
X191612068Y-95683158D01*
X191724010Y-95953411D01*
X191886525Y-96196632D01*
X192093368Y-96403475D01*
X192267760Y-96520000D01*
X192093368Y-96636525D01*
X191886525Y-96843368D01*
X191724010Y-97086589D01*
X191612068Y-97356842D01*
X191555000Y-97643740D01*
X191555000Y-97936260D01*
X191612068Y-98223158D01*
X191724010Y-98493411D01*
X191886525Y-98736632D01*
X192093368Y-98943475D01*
X192267760Y-99060000D01*
X192093368Y-99176525D01*
X191886525Y-99383368D01*
X191724010Y-99626589D01*
X191612068Y-99896842D01*
X191555000Y-100183740D01*
X191555000Y-100476260D01*
X191598790Y-100696408D01*
X187550200Y-104744999D01*
X171482633Y-104744999D01*
X171559853Y-104558574D01*
X171615000Y-104281335D01*
X171615000Y-103998665D01*
X171559853Y-103721426D01*
X171451680Y-103460273D01*
X171294637Y-103225241D01*
X171094759Y-103025363D01*
X170859727Y-102868320D01*
X170598574Y-102760147D01*
X170321335Y-102705000D01*
X170038665Y-102705000D01*
X169810401Y-102750405D01*
X169827205Y-102725256D01*
X169905226Y-102536898D01*
X169945000Y-102336939D01*
X169945000Y-102133061D01*
X169905226Y-101933102D01*
X169827205Y-101744744D01*
X169713937Y-101575226D01*
X169670000Y-101531289D01*
X169670000Y-90207322D01*
X169673676Y-90169999D01*
X169670000Y-90132676D01*
X169670000Y-90132667D01*
X169659003Y-90021014D01*
X169637423Y-89949872D01*
X183185000Y-89949872D01*
X183185000Y-90390128D01*
X183270890Y-90821925D01*
X183439369Y-91228669D01*
X183683962Y-91594729D01*
X183995271Y-91906038D01*
X184361331Y-92150631D01*
X184768075Y-92319110D01*
X185199872Y-92405000D01*
X185640128Y-92405000D01*
X186071925Y-92319110D01*
X186478669Y-92150631D01*
X186844729Y-91906038D01*
X187156038Y-91594729D01*
X187400631Y-91228669D01*
X187569110Y-90821925D01*
X187655000Y-90390128D01*
X187655000Y-89949872D01*
X187569110Y-89518075D01*
X187400631Y-89111331D01*
X187156038Y-88745271D01*
X186844729Y-88433962D01*
X186478669Y-88189369D01*
X186071925Y-88020890D01*
X185640128Y-87935000D01*
X185199872Y-87935000D01*
X184768075Y-88020890D01*
X184361331Y-88189369D01*
X183995271Y-88433962D01*
X183683962Y-88745271D01*
X183439369Y-89111331D01*
X183270890Y-89518075D01*
X183185000Y-89949872D01*
X169637423Y-89949872D01*
X169615546Y-89877753D01*
X169544974Y-89745724D01*
X169450001Y-89629999D01*
X169421004Y-89606202D01*
X165500000Y-85685199D01*
X165500000Y-85623061D01*
X165460226Y-85423102D01*
X165382205Y-85234744D01*
X165268937Y-85065226D01*
X165124774Y-84921063D01*
X164955256Y-84807795D01*
X164766898Y-84729774D01*
X164566939Y-84690000D01*
X164363061Y-84690000D01*
X164163102Y-84729774D01*
X163974744Y-84807795D01*
X163805226Y-84921063D01*
X163661063Y-85065226D01*
X163547795Y-85234744D01*
X163469774Y-85423102D01*
X163430000Y-85623061D01*
X163430000Y-85826939D01*
X163469774Y-86026898D01*
X163547795Y-86215256D01*
X163661063Y-86384774D01*
X163805226Y-86528937D01*
X163974744Y-86642205D01*
X164163102Y-86720226D01*
X164363061Y-86760000D01*
X164425199Y-86760000D01*
X168150000Y-90484802D01*
X168150000Y-92145198D01*
X165500000Y-89495199D01*
X165500000Y-89433061D01*
X165460226Y-89233102D01*
X165382205Y-89044744D01*
X165268937Y-88875226D01*
X165124774Y-88731063D01*
X164955256Y-88617795D01*
X164766898Y-88539774D01*
X164566939Y-88500000D01*
X164363061Y-88500000D01*
X164163102Y-88539774D01*
X163974744Y-88617795D01*
X163805226Y-88731063D01*
X163661063Y-88875226D01*
X163547795Y-89044744D01*
X163469774Y-89233102D01*
X163430000Y-89433061D01*
X163430000Y-89636939D01*
X163469774Y-89836898D01*
X163547795Y-90025256D01*
X163661063Y-90194774D01*
X163805226Y-90338937D01*
X163974744Y-90452205D01*
X164163102Y-90530226D01*
X164363061Y-90570000D01*
X164425199Y-90570000D01*
X166880000Y-93024802D01*
X166880000Y-96300936D01*
X166879180Y-96300498D01*
X166759482Y-96264188D01*
X166635000Y-96251928D01*
X164835000Y-96251928D01*
X164710518Y-96264188D01*
X164590820Y-96300498D01*
X164480506Y-96359463D01*
X164383815Y-96438815D01*
X164304463Y-96535506D01*
X164245498Y-96645820D01*
X164209188Y-96765518D01*
X164196928Y-96890000D01*
X164196928Y-98690000D01*
X164209188Y-98814482D01*
X164245498Y-98934180D01*
X164304463Y-99044494D01*
X164383815Y-99141185D01*
X164480506Y-99220537D01*
X164590820Y-99279502D01*
X164710518Y-99315812D01*
X164835000Y-99328072D01*
X166635000Y-99328072D01*
X166759482Y-99315812D01*
X166879180Y-99279502D01*
X166880001Y-99279063D01*
X166880001Y-102921956D01*
X166725241Y-103025363D01*
X166525363Y-103225241D01*
X166370000Y-103457759D01*
X166214637Y-103225241D01*
X166014759Y-103025363D01*
X165779727Y-102868320D01*
X165518574Y-102760147D01*
X165241335Y-102705000D01*
X164958665Y-102705000D01*
X164681426Y-102760147D01*
X164420273Y-102868320D01*
X164185241Y-103025363D01*
X163985363Y-103225241D01*
X163830000Y-103457759D01*
X163674637Y-103225241D01*
X163474759Y-103025363D01*
X163239727Y-102868320D01*
X162978574Y-102760147D01*
X162701335Y-102705000D01*
X162418665Y-102705000D01*
X162141426Y-102760147D01*
X161880273Y-102868320D01*
X161645241Y-103025363D01*
X161445363Y-103225241D01*
X161290000Y-103457759D01*
X161134637Y-103225241D01*
X160934759Y-103025363D01*
X160699727Y-102868320D01*
X160438574Y-102760147D01*
X160161335Y-102705000D01*
X159878665Y-102705000D01*
X159601426Y-102760147D01*
X159340273Y-102868320D01*
X159105241Y-103025363D01*
X158905363Y-103225241D01*
X158750000Y-103457759D01*
X158594637Y-103225241D01*
X158394759Y-103025363D01*
X158159727Y-102868320D01*
X157898574Y-102760147D01*
X157621335Y-102705000D01*
X157338665Y-102705000D01*
X157061426Y-102760147D01*
X156800273Y-102868320D01*
X156565241Y-103025363D01*
X156365363Y-103225241D01*
X156210000Y-103457759D01*
X156054637Y-103225241D01*
X155854759Y-103025363D01*
X155619727Y-102868320D01*
X155358574Y-102760147D01*
X155081335Y-102705000D01*
X154798665Y-102705000D01*
X154521426Y-102760147D01*
X154260273Y-102868320D01*
X154025241Y-103025363D01*
X153825363Y-103225241D01*
X153670000Y-103457759D01*
X153514637Y-103225241D01*
X153314759Y-103025363D01*
X153079727Y-102868320D01*
X152818574Y-102760147D01*
X152541335Y-102705000D01*
X152258665Y-102705000D01*
X151981426Y-102760147D01*
X151720273Y-102868320D01*
X151485241Y-103025363D01*
X151285363Y-103225241D01*
X151130000Y-103457759D01*
X150974637Y-103225241D01*
X150774759Y-103025363D01*
X150539727Y-102868320D01*
X150278574Y-102760147D01*
X150001335Y-102705000D01*
X149718665Y-102705000D01*
X149441426Y-102760147D01*
X149180273Y-102868320D01*
X148945241Y-103025363D01*
X148745363Y-103225241D01*
X148589085Y-103459128D01*
X148556671Y-103398486D01*
X148312702Y-103326903D01*
X147499605Y-104140000D01*
X148312702Y-104953097D01*
X148556671Y-104881514D01*
X148587194Y-104817008D01*
X148588320Y-104819727D01*
X148745363Y-105054759D01*
X148945241Y-105254637D01*
X149180273Y-105411680D01*
X149441426Y-105519853D01*
X149718665Y-105575000D01*
X150001335Y-105575000D01*
X150278574Y-105519853D01*
X150539727Y-105411680D01*
X150774759Y-105254637D01*
X150974637Y-105054759D01*
X151130000Y-104822241D01*
X151285363Y-105054759D01*
X151485241Y-105254637D01*
X151720273Y-105411680D01*
X151981426Y-105519853D01*
X152258665Y-105575000D01*
X152541335Y-105575000D01*
X152818574Y-105519853D01*
X153079727Y-105411680D01*
X153314759Y-105254637D01*
X153514637Y-105054759D01*
X153670000Y-104822241D01*
X153731605Y-104914440D01*
X153670000Y-104964998D01*
X153646202Y-104993996D01*
X151725199Y-106915000D01*
X151663061Y-106915000D01*
X151463102Y-106954774D01*
X151274744Y-107032795D01*
X151105226Y-107146063D01*
X150961063Y-107290226D01*
X150847795Y-107459744D01*
X150769774Y-107648102D01*
X150730000Y-107848061D01*
X150730000Y-108051939D01*
X150769774Y-108251898D01*
X150847795Y-108440256D01*
X150860987Y-108460000D01*
X150174802Y-108460000D01*
X147290067Y-105575266D01*
X147390512Y-105580217D01*
X147670130Y-105538787D01*
X147936292Y-105443603D01*
X148061514Y-105376671D01*
X148133097Y-105132702D01*
X147320000Y-104319605D01*
X147305858Y-104333748D01*
X147126253Y-104154143D01*
X147140395Y-104140000D01*
X146327298Y-103326903D01*
X146083329Y-103398486D01*
X146052806Y-103462992D01*
X146051680Y-103460273D01*
X145894637Y-103225241D01*
X145816694Y-103147298D01*
X146506903Y-103147298D01*
X147320000Y-103960395D01*
X148133097Y-103147298D01*
X148061514Y-102903329D01*
X147806004Y-102782429D01*
X147531816Y-102713700D01*
X147249488Y-102699783D01*
X146969870Y-102741213D01*
X146703708Y-102836397D01*
X146578486Y-102903329D01*
X146506903Y-103147298D01*
X145816694Y-103147298D01*
X145694759Y-103025363D01*
X145459727Y-102868320D01*
X145198574Y-102760147D01*
X144921335Y-102705000D01*
X144638665Y-102705000D01*
X144361426Y-102760147D01*
X144100273Y-102868320D01*
X143865241Y-103025363D01*
X143665363Y-103225241D01*
X143510000Y-103457759D01*
X143354637Y-103225241D01*
X143154759Y-103025363D01*
X142919727Y-102868320D01*
X142658574Y-102760147D01*
X142381335Y-102705000D01*
X142098665Y-102705000D01*
X141821426Y-102760147D01*
X141560273Y-102868320D01*
X141325241Y-103025363D01*
X141125363Y-103225241D01*
X140970000Y-103457759D01*
X140814637Y-103225241D01*
X140614759Y-103025363D01*
X140379727Y-102868320D01*
X140118574Y-102760147D01*
X139841335Y-102705000D01*
X139558665Y-102705000D01*
X139281426Y-102760147D01*
X139020273Y-102868320D01*
X138785241Y-103025363D01*
X138585363Y-103225241D01*
X138430000Y-103457759D01*
X138274637Y-103225241D01*
X138074759Y-103025363D01*
X137839727Y-102868320D01*
X137578574Y-102760147D01*
X137301335Y-102705000D01*
X137018665Y-102705000D01*
X136741426Y-102760147D01*
X136480273Y-102868320D01*
X136245241Y-103025363D01*
X136045363Y-103225241D01*
X135890000Y-103457759D01*
X135734637Y-103225241D01*
X135534759Y-103025363D01*
X135299727Y-102868320D01*
X135038574Y-102760147D01*
X134761335Y-102705000D01*
X134478665Y-102705000D01*
X134201426Y-102760147D01*
X133940273Y-102868320D01*
X133705241Y-103025363D01*
X133505363Y-103225241D01*
X133350000Y-103457759D01*
X133194637Y-103225241D01*
X132994759Y-103025363D01*
X132759727Y-102868320D01*
X132498574Y-102760147D01*
X132221335Y-102705000D01*
X131938665Y-102705000D01*
X131661426Y-102760147D01*
X131400273Y-102868320D01*
X131165241Y-103025363D01*
X130965363Y-103225241D01*
X130810000Y-103457759D01*
X130654637Y-103225241D01*
X130454759Y-103025363D01*
X130219727Y-102868320D01*
X129958574Y-102760147D01*
X129681335Y-102705000D01*
X129398665Y-102705000D01*
X129121426Y-102760147D01*
X128860273Y-102868320D01*
X128625241Y-103025363D01*
X128425363Y-103225241D01*
X128270000Y-103457759D01*
X128114637Y-103225241D01*
X127914759Y-103025363D01*
X127679727Y-102868320D01*
X127418574Y-102760147D01*
X127141335Y-102705000D01*
X126858665Y-102705000D01*
X126581426Y-102760147D01*
X126320273Y-102868320D01*
X126085241Y-103025363D01*
X125885363Y-103225241D01*
X125730000Y-103457759D01*
X125574637Y-103225241D01*
X125374759Y-103025363D01*
X125139727Y-102868320D01*
X124878574Y-102760147D01*
X124601335Y-102705000D01*
X124318665Y-102705000D01*
X124041426Y-102760147D01*
X123780273Y-102868320D01*
X123545241Y-103025363D01*
X123345363Y-103225241D01*
X123190000Y-103457759D01*
X123034637Y-103225241D01*
X122834759Y-103025363D01*
X122599727Y-102868320D01*
X122338574Y-102760147D01*
X122061335Y-102705000D01*
X121778665Y-102705000D01*
X121501426Y-102760147D01*
X121240273Y-102868320D01*
X121005241Y-103025363D01*
X120805363Y-103225241D01*
X120650000Y-103457759D01*
X120494637Y-103225241D01*
X120294759Y-103025363D01*
X120059727Y-102868320D01*
X119798574Y-102760147D01*
X119521335Y-102705000D01*
X119238665Y-102705000D01*
X118961426Y-102760147D01*
X118700273Y-102868320D01*
X118465241Y-103025363D01*
X118265363Y-103225241D01*
X118110000Y-103457759D01*
X117954637Y-103225241D01*
X117754759Y-103025363D01*
X117519727Y-102868320D01*
X117258574Y-102760147D01*
X116981335Y-102705000D01*
X116698665Y-102705000D01*
X116421426Y-102760147D01*
X116160273Y-102868320D01*
X115925241Y-103025363D01*
X115725363Y-103225241D01*
X115570000Y-103457759D01*
X115414637Y-103225241D01*
X115214759Y-103025363D01*
X114979727Y-102868320D01*
X114718574Y-102760147D01*
X114441335Y-102705000D01*
X114158665Y-102705000D01*
X113881426Y-102760147D01*
X113620273Y-102868320D01*
X113385241Y-103025363D01*
X113185363Y-103225241D01*
X113030000Y-103457759D01*
X112874637Y-103225241D01*
X112674759Y-103025363D01*
X112439727Y-102868320D01*
X112178574Y-102760147D01*
X111901335Y-102705000D01*
X111618665Y-102705000D01*
X111341426Y-102760147D01*
X111080273Y-102868320D01*
X110845241Y-103025363D01*
X110645363Y-103225241D01*
X110617000Y-103267689D01*
X110617000Y-96940000D01*
X150911928Y-96940000D01*
X150911928Y-98640000D01*
X150924188Y-98764482D01*
X150960498Y-98884180D01*
X151019463Y-98994494D01*
X151098815Y-99091185D01*
X151195506Y-99170537D01*
X151305820Y-99229502D01*
X151425518Y-99265812D01*
X151550000Y-99278072D01*
X153250000Y-99278072D01*
X153374482Y-99265812D01*
X153494180Y-99229502D01*
X153604494Y-99170537D01*
X153701185Y-99091185D01*
X153780537Y-98994494D01*
X153839502Y-98884180D01*
X153875812Y-98764482D01*
X153888072Y-98640000D01*
X153888072Y-97638816D01*
X154040000Y-97638816D01*
X154040000Y-97941184D01*
X154098989Y-98237743D01*
X154214701Y-98517095D01*
X154382688Y-98768505D01*
X154596495Y-98982312D01*
X154847905Y-99150299D01*
X155127257Y-99266011D01*
X155423816Y-99325000D01*
X155726184Y-99325000D01*
X156022743Y-99266011D01*
X156302095Y-99150299D01*
X156553505Y-98982312D01*
X156767312Y-98768505D01*
X156935299Y-98517095D01*
X157051011Y-98237743D01*
X157110000Y-97941184D01*
X157110000Y-97638816D01*
X157051011Y-97342257D01*
X156935299Y-97062905D01*
X156767312Y-96811495D01*
X156553505Y-96597688D01*
X156302095Y-96429701D01*
X156022743Y-96313989D01*
X155726184Y-96255000D01*
X155423816Y-96255000D01*
X155127257Y-96313989D01*
X154847905Y-96429701D01*
X154596495Y-96597688D01*
X154382688Y-96811495D01*
X154214701Y-97062905D01*
X154098989Y-97342257D01*
X154040000Y-97638816D01*
X153888072Y-97638816D01*
X153888072Y-96940000D01*
X153875812Y-96815518D01*
X153839502Y-96695820D01*
X153780537Y-96585506D01*
X153701185Y-96488815D01*
X153604494Y-96409463D01*
X153494180Y-96350498D01*
X153421620Y-96328487D01*
X153553475Y-96196632D01*
X153715990Y-95953411D01*
X153827932Y-95683158D01*
X153885000Y-95396260D01*
X153885000Y-95103740D01*
X153827932Y-94816842D01*
X153715990Y-94546589D01*
X153553475Y-94303368D01*
X153346632Y-94096525D01*
X153172240Y-93980000D01*
X153346632Y-93863475D01*
X153553475Y-93656632D01*
X153715990Y-93413411D01*
X153827932Y-93143158D01*
X153885000Y-92856260D01*
X153885000Y-92563740D01*
X153827932Y-92276842D01*
X153715990Y-92006589D01*
X153553475Y-91763368D01*
X153346632Y-91556525D01*
X153164466Y-91434805D01*
X153281355Y-91365178D01*
X153497588Y-91170269D01*
X153671641Y-90936920D01*
X153796825Y-90674099D01*
X153841476Y-90526890D01*
X153720155Y-90297000D01*
X152527000Y-90297000D01*
X152527000Y-90317000D01*
X152273000Y-90317000D01*
X152273000Y-90297000D01*
X151079845Y-90297000D01*
X150958524Y-90526890D01*
X151003175Y-90674099D01*
X151128359Y-90936920D01*
X151302412Y-91170269D01*
X151518645Y-91365178D01*
X151635534Y-91434805D01*
X151453368Y-91556525D01*
X151246525Y-91763368D01*
X151084010Y-92006589D01*
X150972068Y-92276842D01*
X150915000Y-92563740D01*
X150915000Y-92856260D01*
X150972068Y-93143158D01*
X151084010Y-93413411D01*
X151246525Y-93656632D01*
X151453368Y-93863475D01*
X151627760Y-93980000D01*
X151453368Y-94096525D01*
X151246525Y-94303368D01*
X151084010Y-94546589D01*
X150972068Y-94816842D01*
X150915000Y-95103740D01*
X150915000Y-95396260D01*
X150972068Y-95683158D01*
X151084010Y-95953411D01*
X151246525Y-96196632D01*
X151378380Y-96328487D01*
X151305820Y-96350498D01*
X151195506Y-96409463D01*
X151098815Y-96488815D01*
X151019463Y-96585506D01*
X150960498Y-96695820D01*
X150924188Y-96815518D01*
X150911928Y-96940000D01*
X110617000Y-96940000D01*
X110617000Y-89949872D01*
X119685000Y-89949872D01*
X119685000Y-90390128D01*
X119770890Y-90821925D01*
X119939369Y-91228669D01*
X120183962Y-91594729D01*
X120495271Y-91906038D01*
X120861331Y-92150631D01*
X121268075Y-92319110D01*
X121699872Y-92405000D01*
X122140128Y-92405000D01*
X122571925Y-92319110D01*
X122978669Y-92150631D01*
X123344729Y-91906038D01*
X123656038Y-91594729D01*
X123900631Y-91228669D01*
X124069110Y-90821925D01*
X124155000Y-90390128D01*
X124155000Y-89949872D01*
X124069110Y-89518075D01*
X123900631Y-89111331D01*
X123656038Y-88745271D01*
X123344729Y-88433962D01*
X122978669Y-88189369D01*
X122571925Y-88020890D01*
X122140128Y-87935000D01*
X121699872Y-87935000D01*
X121268075Y-88020890D01*
X120861331Y-88189369D01*
X120495271Y-88433962D01*
X120183962Y-88745271D01*
X119939369Y-89111331D01*
X119770890Y-89518075D01*
X119685000Y-89949872D01*
X110617000Y-89949872D01*
X110617000Y-83947000D01*
X151442893Y-83947000D01*
X151246525Y-84143368D01*
M02*
