G04 #@! TF.GenerationSoftware,KiCad,Pcbnew,(5.1.5)-3*
G04 #@! TF.CreationDate,2020-02-02T22:49:33-08:00*
G04 #@! TF.ProjectId,boostino,626f6f73-7469-46e6-9f2e-6b696361645f,rev?*
G04 #@! TF.SameCoordinates,Original*
G04 #@! TF.FileFunction,Copper,L1,Top*
G04 #@! TF.FilePolarity,Positive*
%FSLAX46Y46*%
G04 Gerber Fmt 4.6, Leading zero omitted, Abs format (unit mm)*
G04 Created by KiCad (PCBNEW (5.1.5)-3) date 2020-02-02 22:49:33*
%MOMM*%
%LPD*%
G04 APERTURE LIST*
%ADD10R,1.700000X1.700000*%
%ADD11O,1.700000X1.700000*%
%ADD12C,1.600000*%
%ADD13R,1.600000X1.600000*%
%ADD14R,1.800000X1.100000*%
%ADD15C,0.100000*%
%ADD16O,1.600000X1.600000*%
%ADD17C,0.800000*%
%ADD18C,0.250000*%
%ADD19C,1.000000*%
G04 APERTURE END LIST*
D10*
X152400000Y-97790000D03*
D11*
X152400000Y-95250000D03*
X152400000Y-92710000D03*
X152400000Y-90170000D03*
X152400000Y-87630000D03*
X152400000Y-85090000D03*
D12*
X152400000Y-119380000D03*
X154940000Y-119380000D03*
X157480000Y-119380000D03*
X160020000Y-119380000D03*
X149860000Y-119380000D03*
X147320000Y-119380000D03*
X144780000Y-119380000D03*
X162560000Y-119380000D03*
X165100000Y-119380000D03*
X167640000Y-119380000D03*
X170180000Y-119380000D03*
X157480000Y-116840000D03*
X157480000Y-114300000D03*
X157480000Y-111760000D03*
X157480000Y-109220000D03*
X157480000Y-106680000D03*
X170180000Y-104140000D03*
X167640000Y-104140000D03*
X165100000Y-104140000D03*
X162560000Y-104140000D03*
X160020000Y-104140000D03*
X157480000Y-104140000D03*
X154940000Y-104140000D03*
X152400000Y-104140000D03*
X142240000Y-119380000D03*
X139700000Y-119380000D03*
X137160000Y-119380000D03*
X134620000Y-119380000D03*
X132080000Y-119380000D03*
X129540000Y-119380000D03*
X127000000Y-119380000D03*
X124460000Y-119380000D03*
X121920000Y-119380000D03*
X119380000Y-119380000D03*
X116840000Y-119380000D03*
X114300000Y-119380000D03*
D13*
X111760000Y-119380000D03*
D12*
X149860000Y-104140000D03*
X147320000Y-104140000D03*
X144780000Y-104140000D03*
X142240000Y-104140000D03*
X139700000Y-104140000D03*
X137160000Y-104140000D03*
X134620000Y-104140000D03*
X132080000Y-104140000D03*
X129540000Y-104140000D03*
X127000000Y-104140000D03*
X124460000Y-104140000D03*
X121920000Y-104140000D03*
X119380000Y-104140000D03*
X116840000Y-104140000D03*
X114300000Y-104140000D03*
X111760000Y-104140000D03*
X114300000Y-106680000D03*
X119380000Y-106680000D03*
X121920000Y-106680000D03*
X124460000Y-106680000D03*
X118110000Y-116380000D03*
X120650000Y-116380000D03*
X123190000Y-116380000D03*
X125730000Y-116380000D03*
X128270000Y-116380000D03*
D14*
X168510000Y-127000000D03*
G04 #@! TA.AperFunction,ComponentPad*
D15*
G36*
X169161955Y-128991324D02*
G01*
X169188650Y-128995284D01*
X169214828Y-129001841D01*
X169240238Y-129010933D01*
X169264634Y-129022472D01*
X169287782Y-129036346D01*
X169309458Y-129052422D01*
X169329454Y-129070546D01*
X169347578Y-129090542D01*
X169363654Y-129112218D01*
X169377528Y-129135366D01*
X169389067Y-129159762D01*
X169398159Y-129185172D01*
X169404716Y-129211350D01*
X169408676Y-129238045D01*
X169410000Y-129265000D01*
X169410000Y-129815000D01*
X169408676Y-129841955D01*
X169404716Y-129868650D01*
X169398159Y-129894828D01*
X169389067Y-129920238D01*
X169377528Y-129944634D01*
X169363654Y-129967782D01*
X169347578Y-129989458D01*
X169329454Y-130009454D01*
X169309458Y-130027578D01*
X169287782Y-130043654D01*
X169264634Y-130057528D01*
X169240238Y-130069067D01*
X169214828Y-130078159D01*
X169188650Y-130084716D01*
X169161955Y-130088676D01*
X169135000Y-130090000D01*
X167885000Y-130090000D01*
X167858045Y-130088676D01*
X167831350Y-130084716D01*
X167805172Y-130078159D01*
X167779762Y-130069067D01*
X167755366Y-130057528D01*
X167732218Y-130043654D01*
X167710542Y-130027578D01*
X167690546Y-130009454D01*
X167672422Y-129989458D01*
X167656346Y-129967782D01*
X167642472Y-129944634D01*
X167630933Y-129920238D01*
X167621841Y-129894828D01*
X167615284Y-129868650D01*
X167611324Y-129841955D01*
X167610000Y-129815000D01*
X167610000Y-129265000D01*
X167611324Y-129238045D01*
X167615284Y-129211350D01*
X167621841Y-129185172D01*
X167630933Y-129159762D01*
X167642472Y-129135366D01*
X167656346Y-129112218D01*
X167672422Y-129090542D01*
X167690546Y-129070546D01*
X167710542Y-129052422D01*
X167732218Y-129036346D01*
X167755366Y-129022472D01*
X167779762Y-129010933D01*
X167805172Y-129001841D01*
X167831350Y-128995284D01*
X167858045Y-128991324D01*
X167885000Y-128990000D01*
X169135000Y-128990000D01*
X169161955Y-128991324D01*
G37*
G04 #@! TD.AperFunction*
G04 #@! TA.AperFunction,ComponentPad*
G36*
X171231955Y-127721324D02*
G01*
X171258650Y-127725284D01*
X171284828Y-127731841D01*
X171310238Y-127740933D01*
X171334634Y-127752472D01*
X171357782Y-127766346D01*
X171379458Y-127782422D01*
X171399454Y-127800546D01*
X171417578Y-127820542D01*
X171433654Y-127842218D01*
X171447528Y-127865366D01*
X171459067Y-127889762D01*
X171468159Y-127915172D01*
X171474716Y-127941350D01*
X171478676Y-127968045D01*
X171480000Y-127995000D01*
X171480000Y-128545000D01*
X171478676Y-128571955D01*
X171474716Y-128598650D01*
X171468159Y-128624828D01*
X171459067Y-128650238D01*
X171447528Y-128674634D01*
X171433654Y-128697782D01*
X171417578Y-128719458D01*
X171399454Y-128739454D01*
X171379458Y-128757578D01*
X171357782Y-128773654D01*
X171334634Y-128787528D01*
X171310238Y-128799067D01*
X171284828Y-128808159D01*
X171258650Y-128814716D01*
X171231955Y-128818676D01*
X171205000Y-128820000D01*
X169955000Y-128820000D01*
X169928045Y-128818676D01*
X169901350Y-128814716D01*
X169875172Y-128808159D01*
X169849762Y-128799067D01*
X169825366Y-128787528D01*
X169802218Y-128773654D01*
X169780542Y-128757578D01*
X169760546Y-128739454D01*
X169742422Y-128719458D01*
X169726346Y-128697782D01*
X169712472Y-128674634D01*
X169700933Y-128650238D01*
X169691841Y-128624828D01*
X169685284Y-128598650D01*
X169681324Y-128571955D01*
X169680000Y-128545000D01*
X169680000Y-127995000D01*
X169681324Y-127968045D01*
X169685284Y-127941350D01*
X169691841Y-127915172D01*
X169700933Y-127889762D01*
X169712472Y-127865366D01*
X169726346Y-127842218D01*
X169742422Y-127820542D01*
X169760546Y-127800546D01*
X169780542Y-127782422D01*
X169802218Y-127766346D01*
X169825366Y-127752472D01*
X169849762Y-127740933D01*
X169875172Y-127731841D01*
X169901350Y-127725284D01*
X169928045Y-127721324D01*
X169955000Y-127720000D01*
X171205000Y-127720000D01*
X171231955Y-127721324D01*
G37*
G04 #@! TD.AperFunction*
D10*
X193040000Y-125730000D03*
D11*
X193040000Y-123190000D03*
X193040000Y-120650000D03*
X193040000Y-118110000D03*
X193040000Y-115570000D03*
X193040000Y-113030000D03*
X193040000Y-110490000D03*
X193040000Y-107950000D03*
X193040000Y-105410000D03*
X193040000Y-102870000D03*
X193040000Y-100330000D03*
X193040000Y-97790000D03*
X193040000Y-95250000D03*
X193040000Y-92710000D03*
D12*
X166370000Y-90170000D03*
D16*
X156210000Y-90170000D03*
D12*
X180340000Y-90170000D03*
D16*
X170180000Y-90170000D03*
X154940000Y-128270000D03*
D12*
X165100000Y-128270000D03*
X166370000Y-85090000D03*
D16*
X156210000Y-85090000D03*
X170180000Y-85090000D03*
D12*
X180340000Y-85090000D03*
D17*
X160020000Y-121920000D03*
X128270000Y-121920000D03*
X143510000Y-116840000D03*
X189230000Y-118110000D03*
X146050000Y-115570000D03*
X187960000Y-115570000D03*
X147320000Y-101600000D03*
X160271426Y-107175000D03*
X166370000Y-100330000D03*
X160020000Y-124460000D03*
D18*
X165100000Y-128270000D02*
X170180000Y-128270000D01*
X166370000Y-90170000D02*
X170180000Y-90170000D01*
X167640000Y-91440000D02*
X167640000Y-104140000D01*
X166370000Y-90170000D02*
X167640000Y-91440000D01*
D19*
X111760000Y-104140000D02*
X110209999Y-105690001D01*
X110209999Y-120780001D02*
X112619998Y-123190000D01*
X110209999Y-105690001D02*
X110209999Y-120780001D01*
X112619998Y-123190000D02*
X124460000Y-123190000D01*
X168629999Y-129820001D02*
X168910000Y-129540000D01*
X131090001Y-129820001D02*
X168629999Y-129820001D01*
X124460000Y-123190000D02*
X131090001Y-129820001D01*
X169530426Y-129570010D02*
X177769990Y-129570010D01*
X168910000Y-129540000D02*
X169500416Y-129540000D01*
X169500416Y-129540000D02*
X169530426Y-129570010D01*
X177769990Y-129570010D02*
X184150000Y-123190000D01*
X184150000Y-123190000D02*
X186690000Y-123190000D01*
X189230000Y-125730000D02*
X193040000Y-125730000D01*
X186690000Y-123190000D02*
X189230000Y-125730000D01*
X118110000Y-97790000D02*
X152400000Y-97790000D01*
X111760000Y-104140000D02*
X118110000Y-97790000D01*
D18*
X139700000Y-119380000D02*
X142240000Y-121920000D01*
X142240000Y-121920000D02*
X160020000Y-121920000D01*
X127800998Y-121920000D02*
X128270000Y-121920000D01*
X125824999Y-119005997D02*
X125824999Y-119944001D01*
X125024001Y-118204999D02*
X125824999Y-119005997D01*
X116840000Y-113181000D02*
X119474999Y-115815999D01*
X116840000Y-104140000D02*
X116840000Y-113181000D01*
X119474999Y-115815999D02*
X119474999Y-116944001D01*
X125824999Y-119944001D02*
X127800998Y-121920000D01*
X119474999Y-116944001D02*
X120735997Y-118204999D01*
X120735997Y-118204999D02*
X125024001Y-118204999D01*
X137160000Y-119380000D02*
X139700000Y-116840000D01*
X139700000Y-116840000D02*
X143510000Y-116840000D01*
X190500000Y-118110000D02*
X193040000Y-115570000D01*
X189230000Y-118110000D02*
X190500000Y-118110000D01*
X194765011Y-99515011D02*
X193889999Y-98639999D01*
X193889999Y-98639999D02*
X193040000Y-97790000D01*
X194765011Y-111304989D02*
X194765011Y-99515011D01*
X193040000Y-113030000D02*
X194765011Y-111304989D01*
X142240000Y-119380000D02*
X146050000Y-115570000D01*
X190500000Y-115570000D02*
X193040000Y-113030000D01*
X187960000Y-115570000D02*
X190500000Y-115570000D01*
X193889999Y-103719999D02*
X193040000Y-102870000D01*
X194265001Y-104095001D02*
X193889999Y-103719999D01*
X194265001Y-109264999D02*
X194265001Y-104095001D01*
X193040000Y-110490000D02*
X194265001Y-109264999D01*
X144780000Y-104140000D02*
X147320000Y-101600000D01*
D19*
X191837919Y-107950000D02*
X193040000Y-107950000D01*
X188550416Y-107950000D02*
X191837919Y-107950000D01*
X169500416Y-127000000D02*
X188550416Y-107950000D01*
X168910000Y-127000000D02*
X169500416Y-127000000D01*
D18*
X192190001Y-96099999D02*
X193040000Y-95250000D01*
X191814999Y-96475001D02*
X192190001Y-96099999D01*
X191814999Y-104184999D02*
X191814999Y-96475001D01*
X193040000Y-105410000D02*
X191814999Y-104184999D01*
X160271426Y-107175000D02*
X159591425Y-107855001D01*
X156304999Y-107855001D02*
X145579999Y-118580001D01*
X159591425Y-107855001D02*
X156304999Y-107855001D01*
X145579999Y-118580001D02*
X144780000Y-119380000D01*
X165804315Y-100330000D02*
X166370000Y-100330000D01*
X151224999Y-104607881D02*
X151224999Y-103575999D01*
X154470998Y-100330000D02*
X165804315Y-100330000D01*
X151224999Y-103575999D02*
X154470998Y-100330000D01*
X137627881Y-118204999D02*
X151224999Y-104607881D01*
X135795001Y-118204999D02*
X137627881Y-118204999D01*
X134620000Y-119380000D02*
X135795001Y-118204999D01*
X121044990Y-121044990D02*
X124854990Y-121044990D01*
X119380000Y-119380000D02*
X121044990Y-121044990D01*
X124854990Y-121044990D02*
X128270000Y-124460000D01*
X128270000Y-124460000D02*
X160020000Y-124460000D01*
X153625001Y-98940001D02*
X153505002Y-99060000D01*
X152400000Y-95250000D02*
X153625001Y-96475001D01*
X153625001Y-96475001D02*
X153625001Y-98940001D01*
X130715001Y-106314999D02*
X121449999Y-115580001D01*
X130715001Y-103765997D02*
X130715001Y-106314999D01*
X121449999Y-115580001D02*
X120650000Y-116380000D01*
X135420998Y-99060000D02*
X130715001Y-103765997D01*
X153505002Y-99060000D02*
X135420998Y-99060000D01*
X123989999Y-115580001D02*
X123190000Y-116380000D01*
X133255001Y-103765997D02*
X133255001Y-106314999D01*
X136195999Y-100824999D02*
X133255001Y-103765997D01*
X133255001Y-106314999D02*
X123989999Y-115580001D01*
X152447123Y-100824999D02*
X136195999Y-100824999D01*
X154125011Y-99147111D02*
X152447123Y-100824999D01*
X154125011Y-94435011D02*
X154125011Y-99147111D01*
X152400000Y-92710000D02*
X154125011Y-94435011D01*
X152400000Y-85090000D02*
X156210000Y-85090000D01*
X166370000Y-85090000D02*
X170180000Y-85090000D01*
X168439999Y-118580001D02*
X167640000Y-119380000D01*
X171355001Y-86265001D02*
X171355001Y-115664999D01*
X171355001Y-115664999D02*
X168439999Y-118580001D01*
X170180000Y-85090000D02*
X171355001Y-86265001D01*
X162560000Y-104140000D02*
X161290000Y-105410000D01*
X156071370Y-128270000D02*
X154940000Y-128270000D01*
X157357002Y-128270000D02*
X156071370Y-128270000D01*
X161290000Y-124337002D02*
X157357002Y-128270000D01*
X161290000Y-105410000D02*
X161290000Y-124337002D01*
X153670000Y-87630000D02*
X156210000Y-90170000D01*
X152400000Y-87630000D02*
X153670000Y-87630000D01*
M02*
