G04 #@! TF.GenerationSoftware,KiCad,Pcbnew,(5.1.5)-3*
G04 #@! TF.CreationDate,2020-10-01T22:25:20-07:00*
G04 #@! TF.ProjectId,boostino,626f6f73-7469-46e6-9f2e-6b696361645f,rev?*
G04 #@! TF.SameCoordinates,Original*
G04 #@! TF.FileFunction,Legend,Top*
G04 #@! TF.FilePolarity,Positive*
%FSLAX46Y46*%
G04 Gerber Fmt 4.6, Leading zero omitted, Abs format (unit mm)*
G04 Created by KiCad (PCBNEW (5.1.5)-3) date 2020-10-01 22:25:20*
%MOMM*%
%LPD*%
G04 APERTURE LIST*
%ADD10C,0.150000*%
%ADD11C,0.120000*%
%ADD12C,0.100000*%
G04 APERTURE END LIST*
D10*
X130859047Y-126103571D02*
X131001904Y-126151190D01*
X131049523Y-126198809D01*
X131097142Y-126294047D01*
X131097142Y-126436904D01*
X131049523Y-126532142D01*
X131001904Y-126579761D01*
X130906666Y-126627380D01*
X130525714Y-126627380D01*
X130525714Y-125627380D01*
X130859047Y-125627380D01*
X130954285Y-125675000D01*
X131001904Y-125722619D01*
X131049523Y-125817857D01*
X131049523Y-125913095D01*
X131001904Y-126008333D01*
X130954285Y-126055952D01*
X130859047Y-126103571D01*
X130525714Y-126103571D01*
X131668571Y-126627380D02*
X131573333Y-126579761D01*
X131525714Y-126532142D01*
X131478095Y-126436904D01*
X131478095Y-126151190D01*
X131525714Y-126055952D01*
X131573333Y-126008333D01*
X131668571Y-125960714D01*
X131811428Y-125960714D01*
X131906666Y-126008333D01*
X131954285Y-126055952D01*
X132001904Y-126151190D01*
X132001904Y-126436904D01*
X131954285Y-126532142D01*
X131906666Y-126579761D01*
X131811428Y-126627380D01*
X131668571Y-126627380D01*
X132573333Y-126627380D02*
X132478095Y-126579761D01*
X132430476Y-126532142D01*
X132382857Y-126436904D01*
X132382857Y-126151190D01*
X132430476Y-126055952D01*
X132478095Y-126008333D01*
X132573333Y-125960714D01*
X132716190Y-125960714D01*
X132811428Y-126008333D01*
X132859047Y-126055952D01*
X132906666Y-126151190D01*
X132906666Y-126436904D01*
X132859047Y-126532142D01*
X132811428Y-126579761D01*
X132716190Y-126627380D01*
X132573333Y-126627380D01*
X133287619Y-126579761D02*
X133382857Y-126627380D01*
X133573333Y-126627380D01*
X133668571Y-126579761D01*
X133716190Y-126484523D01*
X133716190Y-126436904D01*
X133668571Y-126341666D01*
X133573333Y-126294047D01*
X133430476Y-126294047D01*
X133335238Y-126246428D01*
X133287619Y-126151190D01*
X133287619Y-126103571D01*
X133335238Y-126008333D01*
X133430476Y-125960714D01*
X133573333Y-125960714D01*
X133668571Y-126008333D01*
X134001904Y-125960714D02*
X134382857Y-125960714D01*
X134144761Y-125627380D02*
X134144761Y-126484523D01*
X134192380Y-126579761D01*
X134287619Y-126627380D01*
X134382857Y-126627380D01*
X134716190Y-126627380D02*
X134716190Y-125960714D01*
X134716190Y-125627380D02*
X134668571Y-125675000D01*
X134716190Y-125722619D01*
X134763809Y-125675000D01*
X134716190Y-125627380D01*
X134716190Y-125722619D01*
X135192380Y-125960714D02*
X135192380Y-126627380D01*
X135192380Y-126055952D02*
X135240000Y-126008333D01*
X135335238Y-125960714D01*
X135478095Y-125960714D01*
X135573333Y-126008333D01*
X135620952Y-126103571D01*
X135620952Y-126627380D01*
X136240000Y-126627380D02*
X136144761Y-126579761D01*
X136097142Y-126532142D01*
X136049523Y-126436904D01*
X136049523Y-126151190D01*
X136097142Y-126055952D01*
X136144761Y-126008333D01*
X136240000Y-125960714D01*
X136382857Y-125960714D01*
X136478095Y-126008333D01*
X136525714Y-126055952D01*
X136573333Y-126151190D01*
X136573333Y-126436904D01*
X136525714Y-126532142D01*
X136478095Y-126579761D01*
X136382857Y-126627380D01*
X136240000Y-126627380D01*
X137668571Y-125960714D02*
X137906666Y-126627380D01*
X138144761Y-125960714D01*
X138478095Y-125722619D02*
X138525714Y-125675000D01*
X138620952Y-125627380D01*
X138859047Y-125627380D01*
X138954285Y-125675000D01*
X139001904Y-125722619D01*
X139049523Y-125817857D01*
X139049523Y-125913095D01*
X139001904Y-126055952D01*
X138430476Y-126627380D01*
X139049523Y-126627380D01*
X139478095Y-126532142D02*
X139525714Y-126579761D01*
X139478095Y-126627380D01*
X139430476Y-126579761D01*
X139478095Y-126532142D01*
X139478095Y-126627380D01*
X140144761Y-125627380D02*
X140240000Y-125627380D01*
X140335238Y-125675000D01*
X140382857Y-125722619D01*
X140430476Y-125817857D01*
X140478095Y-126008333D01*
X140478095Y-126246428D01*
X140430476Y-126436904D01*
X140382857Y-126532142D01*
X140335238Y-126579761D01*
X140240000Y-126627380D01*
X140144761Y-126627380D01*
X140049523Y-126579761D01*
X140001904Y-126532142D01*
X139954285Y-126436904D01*
X139906666Y-126246428D01*
X139906666Y-126008333D01*
X139954285Y-125817857D01*
X140001904Y-125722619D01*
X140049523Y-125675000D01*
X140144761Y-125627380D01*
X141954285Y-127008333D02*
X141906666Y-126960714D01*
X141811428Y-126817857D01*
X141763809Y-126722619D01*
X141716190Y-126579761D01*
X141668571Y-126341666D01*
X141668571Y-126151190D01*
X141716190Y-125913095D01*
X141763809Y-125770238D01*
X141811428Y-125675000D01*
X141906666Y-125532142D01*
X141954285Y-125484523D01*
X142763809Y-126579761D02*
X142668571Y-126627380D01*
X142478095Y-126627380D01*
X142382857Y-126579761D01*
X142335238Y-126532142D01*
X142287619Y-126436904D01*
X142287619Y-126151190D01*
X142335238Y-126055952D01*
X142382857Y-126008333D01*
X142478095Y-125960714D01*
X142668571Y-125960714D01*
X142763809Y-126008333D01*
X143097142Y-127008333D02*
X143144761Y-126960714D01*
X143240000Y-126817857D01*
X143287619Y-126722619D01*
X143335238Y-126579761D01*
X143382857Y-126341666D01*
X143382857Y-126151190D01*
X143335238Y-125913095D01*
X143287619Y-125770238D01*
X143240000Y-125675000D01*
X143144761Y-125532142D01*
X143097142Y-125484523D01*
X144906666Y-125627380D02*
X144906666Y-126341666D01*
X144859047Y-126484523D01*
X144763809Y-126579761D01*
X144620952Y-126627380D01*
X144525714Y-126627380D01*
X145811428Y-126627380D02*
X145811428Y-126103571D01*
X145763809Y-126008333D01*
X145668571Y-125960714D01*
X145478095Y-125960714D01*
X145382857Y-126008333D01*
X145811428Y-126579761D02*
X145716190Y-126627380D01*
X145478095Y-126627380D01*
X145382857Y-126579761D01*
X145335238Y-126484523D01*
X145335238Y-126389285D01*
X145382857Y-126294047D01*
X145478095Y-126246428D01*
X145716190Y-126246428D01*
X145811428Y-126198809D01*
X146240000Y-126579761D02*
X146335238Y-126627380D01*
X146525714Y-126627380D01*
X146620952Y-126579761D01*
X146668571Y-126484523D01*
X146668571Y-126436904D01*
X146620952Y-126341666D01*
X146525714Y-126294047D01*
X146382857Y-126294047D01*
X146287619Y-126246428D01*
X146240000Y-126151190D01*
X146240000Y-126103571D01*
X146287619Y-126008333D01*
X146382857Y-125960714D01*
X146525714Y-125960714D01*
X146620952Y-126008333D01*
X147097142Y-126627380D02*
X147097142Y-125960714D01*
X147097142Y-126055952D02*
X147144761Y-126008333D01*
X147240000Y-125960714D01*
X147382857Y-125960714D01*
X147478095Y-126008333D01*
X147525714Y-126103571D01*
X147525714Y-126627380D01*
X147525714Y-126103571D02*
X147573333Y-126008333D01*
X147668571Y-125960714D01*
X147811428Y-125960714D01*
X147906666Y-126008333D01*
X147954285Y-126103571D01*
X147954285Y-126627380D01*
X148430476Y-126627380D02*
X148430476Y-125960714D01*
X148430476Y-125627380D02*
X148382857Y-125675000D01*
X148430476Y-125722619D01*
X148478095Y-125675000D01*
X148430476Y-125627380D01*
X148430476Y-125722619D01*
X148906666Y-125960714D02*
X148906666Y-126627380D01*
X148906666Y-126055952D02*
X148954285Y-126008333D01*
X149049523Y-125960714D01*
X149192380Y-125960714D01*
X149287619Y-126008333D01*
X149335238Y-126103571D01*
X149335238Y-126627380D01*
X150573333Y-126627380D02*
X150573333Y-125627380D01*
X150954285Y-125627380D01*
X151049523Y-125675000D01*
X151097142Y-125722619D01*
X151144761Y-125817857D01*
X151144761Y-125960714D01*
X151097142Y-126055952D01*
X151049523Y-126103571D01*
X150954285Y-126151190D01*
X150573333Y-126151190D01*
X152001904Y-126627380D02*
X152001904Y-126103571D01*
X151954285Y-126008333D01*
X151859047Y-125960714D01*
X151668571Y-125960714D01*
X151573333Y-126008333D01*
X152001904Y-126579761D02*
X151906666Y-126627380D01*
X151668571Y-126627380D01*
X151573333Y-126579761D01*
X151525714Y-126484523D01*
X151525714Y-126389285D01*
X151573333Y-126294047D01*
X151668571Y-126246428D01*
X151906666Y-126246428D01*
X152001904Y-126198809D01*
X152335238Y-125960714D02*
X152716190Y-125960714D01*
X152478095Y-125627380D02*
X152478095Y-126484523D01*
X152525714Y-126579761D01*
X152620952Y-126627380D01*
X152716190Y-126627380D01*
X153049523Y-126627380D02*
X153049523Y-125960714D01*
X153049523Y-126151190D02*
X153097142Y-126055952D01*
X153144761Y-126008333D01*
X153240000Y-125960714D01*
X153335238Y-125960714D01*
X153573333Y-125960714D02*
X153811428Y-126627380D01*
X154049523Y-125960714D02*
X153811428Y-126627380D01*
X153716190Y-126865476D01*
X153668571Y-126913095D01*
X153573333Y-126960714D01*
X133406666Y-127610714D02*
X133406666Y-128467857D01*
X133359047Y-128563095D01*
X133263809Y-128610714D01*
X133216190Y-128610714D01*
X133406666Y-127277380D02*
X133359047Y-127325000D01*
X133406666Y-127372619D01*
X133454285Y-127325000D01*
X133406666Y-127277380D01*
X133406666Y-127372619D01*
X134311428Y-128277380D02*
X134311428Y-127753571D01*
X134263809Y-127658333D01*
X134168571Y-127610714D01*
X133978095Y-127610714D01*
X133882857Y-127658333D01*
X134311428Y-128229761D02*
X134216190Y-128277380D01*
X133978095Y-128277380D01*
X133882857Y-128229761D01*
X133835238Y-128134523D01*
X133835238Y-128039285D01*
X133882857Y-127944047D01*
X133978095Y-127896428D01*
X134216190Y-127896428D01*
X134311428Y-127848809D01*
X134740000Y-128229761D02*
X134835238Y-128277380D01*
X135025714Y-128277380D01*
X135120952Y-128229761D01*
X135168571Y-128134523D01*
X135168571Y-128086904D01*
X135120952Y-127991666D01*
X135025714Y-127944047D01*
X134882857Y-127944047D01*
X134787619Y-127896428D01*
X134740000Y-127801190D01*
X134740000Y-127753571D01*
X134787619Y-127658333D01*
X134882857Y-127610714D01*
X135025714Y-127610714D01*
X135120952Y-127658333D01*
X135597142Y-128277380D02*
X135597142Y-127610714D01*
X135597142Y-127705952D02*
X135644761Y-127658333D01*
X135740000Y-127610714D01*
X135882857Y-127610714D01*
X135978095Y-127658333D01*
X136025714Y-127753571D01*
X136025714Y-128277380D01*
X136025714Y-127753571D02*
X136073333Y-127658333D01*
X136168571Y-127610714D01*
X136311428Y-127610714D01*
X136406666Y-127658333D01*
X136454285Y-127753571D01*
X136454285Y-128277380D01*
X136930476Y-128277380D02*
X136930476Y-127610714D01*
X136930476Y-127277380D02*
X136882857Y-127325000D01*
X136930476Y-127372619D01*
X136978095Y-127325000D01*
X136930476Y-127277380D01*
X136930476Y-127372619D01*
X137406666Y-127610714D02*
X137406666Y-128277380D01*
X137406666Y-127705952D02*
X137454285Y-127658333D01*
X137549523Y-127610714D01*
X137692380Y-127610714D01*
X137787619Y-127658333D01*
X137835238Y-127753571D01*
X137835238Y-128277380D01*
X138311428Y-128182142D02*
X138359047Y-128229761D01*
X138311428Y-128277380D01*
X138263809Y-128229761D01*
X138311428Y-128182142D01*
X138311428Y-128277380D01*
X138787619Y-127610714D02*
X138787619Y-128610714D01*
X138787619Y-127658333D02*
X138882857Y-127610714D01*
X139073333Y-127610714D01*
X139168571Y-127658333D01*
X139216190Y-127705952D01*
X139263809Y-127801190D01*
X139263809Y-128086904D01*
X139216190Y-128182142D01*
X139168571Y-128229761D01*
X139073333Y-128277380D01*
X138882857Y-128277380D01*
X138787619Y-128229761D01*
X140120952Y-128277380D02*
X140120952Y-127753571D01*
X140073333Y-127658333D01*
X139978095Y-127610714D01*
X139787619Y-127610714D01*
X139692380Y-127658333D01*
X140120952Y-128229761D02*
X140025714Y-128277380D01*
X139787619Y-128277380D01*
X139692380Y-128229761D01*
X139644761Y-128134523D01*
X139644761Y-128039285D01*
X139692380Y-127944047D01*
X139787619Y-127896428D01*
X140025714Y-127896428D01*
X140120952Y-127848809D01*
X140454285Y-127610714D02*
X140835238Y-127610714D01*
X140597142Y-127277380D02*
X140597142Y-128134523D01*
X140644761Y-128229761D01*
X140740000Y-128277380D01*
X140835238Y-128277380D01*
X141168571Y-128277380D02*
X141168571Y-127610714D01*
X141168571Y-127801190D02*
X141216190Y-127705952D01*
X141263809Y-127658333D01*
X141359047Y-127610714D01*
X141454285Y-127610714D01*
X141692380Y-127610714D02*
X141930476Y-128277380D01*
X142168571Y-127610714D02*
X141930476Y-128277380D01*
X141835238Y-128515476D01*
X141787619Y-128563095D01*
X141692380Y-128610714D01*
X143168571Y-127801190D02*
X143120952Y-127753571D01*
X143025714Y-127705952D01*
X142930476Y-127705952D01*
X142835238Y-127753571D01*
X142787619Y-127801190D01*
X142740000Y-127896428D01*
X142740000Y-127991666D01*
X142787619Y-128086904D01*
X142835238Y-128134523D01*
X142930476Y-128182142D01*
X143025714Y-128182142D01*
X143120952Y-128134523D01*
X143168571Y-128086904D01*
X143168571Y-127705952D02*
X143168571Y-128086904D01*
X143216190Y-128134523D01*
X143263809Y-128134523D01*
X143359047Y-128086904D01*
X143406666Y-127991666D01*
X143406666Y-127753571D01*
X143311428Y-127610714D01*
X143168571Y-127515476D01*
X142978095Y-127467857D01*
X142787619Y-127515476D01*
X142644761Y-127610714D01*
X142549523Y-127753571D01*
X142501904Y-127944047D01*
X142549523Y-128134523D01*
X142644761Y-128277380D01*
X142787619Y-128372619D01*
X142978095Y-128420238D01*
X143168571Y-128372619D01*
X143311428Y-128277380D01*
X144263809Y-127610714D02*
X144263809Y-128420238D01*
X144216190Y-128515476D01*
X144168571Y-128563095D01*
X144073333Y-128610714D01*
X143930476Y-128610714D01*
X143835238Y-128563095D01*
X144263809Y-128229761D02*
X144168571Y-128277380D01*
X143978095Y-128277380D01*
X143882857Y-128229761D01*
X143835238Y-128182142D01*
X143787619Y-128086904D01*
X143787619Y-127801190D01*
X143835238Y-127705952D01*
X143882857Y-127658333D01*
X143978095Y-127610714D01*
X144168571Y-127610714D01*
X144263809Y-127658333D01*
X144740000Y-128277380D02*
X144740000Y-127610714D01*
X144740000Y-127705952D02*
X144787619Y-127658333D01*
X144882857Y-127610714D01*
X145025714Y-127610714D01*
X145120952Y-127658333D01*
X145168571Y-127753571D01*
X145168571Y-128277380D01*
X145168571Y-127753571D02*
X145216190Y-127658333D01*
X145311428Y-127610714D01*
X145454285Y-127610714D01*
X145549523Y-127658333D01*
X145597142Y-127753571D01*
X145597142Y-128277380D01*
X146501904Y-128277380D02*
X146501904Y-127753571D01*
X146454285Y-127658333D01*
X146359047Y-127610714D01*
X146168571Y-127610714D01*
X146073333Y-127658333D01*
X146501904Y-128229761D02*
X146406666Y-128277380D01*
X146168571Y-128277380D01*
X146073333Y-128229761D01*
X146025714Y-128134523D01*
X146025714Y-128039285D01*
X146073333Y-127944047D01*
X146168571Y-127896428D01*
X146406666Y-127896428D01*
X146501904Y-127848809D01*
X146978095Y-128277380D02*
X146978095Y-127610714D01*
X146978095Y-127277380D02*
X146930476Y-127325000D01*
X146978095Y-127372619D01*
X147025714Y-127325000D01*
X146978095Y-127277380D01*
X146978095Y-127372619D01*
X147597142Y-128277380D02*
X147501904Y-128229761D01*
X147454285Y-128134523D01*
X147454285Y-127277380D01*
X147978095Y-128182142D02*
X148025714Y-128229761D01*
X147978095Y-128277380D01*
X147930476Y-128229761D01*
X147978095Y-128182142D01*
X147978095Y-128277380D01*
X148882857Y-128229761D02*
X148787619Y-128277380D01*
X148597142Y-128277380D01*
X148501904Y-128229761D01*
X148454285Y-128182142D01*
X148406666Y-128086904D01*
X148406666Y-127801190D01*
X148454285Y-127705952D01*
X148501904Y-127658333D01*
X148597142Y-127610714D01*
X148787619Y-127610714D01*
X148882857Y-127658333D01*
X149454285Y-128277380D02*
X149359047Y-128229761D01*
X149311428Y-128182142D01*
X149263809Y-128086904D01*
X149263809Y-127801190D01*
X149311428Y-127705952D01*
X149359047Y-127658333D01*
X149454285Y-127610714D01*
X149597142Y-127610714D01*
X149692380Y-127658333D01*
X149740000Y-127705952D01*
X149787619Y-127801190D01*
X149787619Y-128086904D01*
X149740000Y-128182142D01*
X149692380Y-128229761D01*
X149597142Y-128277380D01*
X149454285Y-128277380D01*
X150216190Y-128277380D02*
X150216190Y-127610714D01*
X150216190Y-127705952D02*
X150263809Y-127658333D01*
X150359047Y-127610714D01*
X150501904Y-127610714D01*
X150597142Y-127658333D01*
X150644761Y-127753571D01*
X150644761Y-128277380D01*
X150644761Y-127753571D02*
X150692380Y-127658333D01*
X150787619Y-127610714D01*
X150930476Y-127610714D01*
X151025714Y-127658333D01*
X151073333Y-127753571D01*
X151073333Y-128277380D01*
D11*
X150960000Y-99120000D02*
X150960000Y-83760000D01*
X150960000Y-83760000D02*
X148300000Y-83760000D01*
X148300000Y-83760000D02*
X148300000Y-99120000D01*
X148300000Y-99120000D02*
X150960000Y-99120000D01*
X148300000Y-98170000D02*
X142300000Y-98170000D01*
X142300000Y-98170000D02*
X142300000Y-97410000D01*
X142300000Y-97410000D02*
X148300000Y-97410000D01*
X148300000Y-98110000D02*
X142300000Y-98110000D01*
X148300000Y-97990000D02*
X142300000Y-97990000D01*
X148300000Y-97870000D02*
X142300000Y-97870000D01*
X148300000Y-97750000D02*
X142300000Y-97750000D01*
X148300000Y-97630000D02*
X142300000Y-97630000D01*
X148300000Y-97510000D02*
X142300000Y-97510000D01*
X151290000Y-98170000D02*
X150960000Y-98170000D01*
X151290000Y-97410000D02*
X150960000Y-97410000D01*
X150960000Y-96520000D02*
X148300000Y-96520000D01*
X148300000Y-95630000D02*
X142300000Y-95630000D01*
X142300000Y-95630000D02*
X142300000Y-94870000D01*
X142300000Y-94870000D02*
X148300000Y-94870000D01*
X151357071Y-95630000D02*
X150960000Y-95630000D01*
X151357071Y-94870000D02*
X150960000Y-94870000D01*
X150960000Y-93980000D02*
X148300000Y-93980000D01*
X148300000Y-93090000D02*
X142300000Y-93090000D01*
X142300000Y-93090000D02*
X142300000Y-92330000D01*
X142300000Y-92330000D02*
X148300000Y-92330000D01*
X151357071Y-93090000D02*
X150960000Y-93090000D01*
X151357071Y-92330000D02*
X150960000Y-92330000D01*
X150960000Y-91440000D02*
X148300000Y-91440000D01*
X148300000Y-90550000D02*
X142300000Y-90550000D01*
X142300000Y-90550000D02*
X142300000Y-89790000D01*
X142300000Y-89790000D02*
X148300000Y-89790000D01*
X151357071Y-90550000D02*
X150960000Y-90550000D01*
X151357071Y-89790000D02*
X150960000Y-89790000D01*
X150960000Y-88900000D02*
X148300000Y-88900000D01*
X148300000Y-88010000D02*
X142300000Y-88010000D01*
X142300000Y-88010000D02*
X142300000Y-87250000D01*
X142300000Y-87250000D02*
X148300000Y-87250000D01*
X151357071Y-88010000D02*
X150960000Y-88010000D01*
X151357071Y-87250000D02*
X150960000Y-87250000D01*
X150960000Y-86360000D02*
X148300000Y-86360000D01*
X148300000Y-85470000D02*
X142300000Y-85470000D01*
X142300000Y-85470000D02*
X142300000Y-84710000D01*
X142300000Y-84710000D02*
X148300000Y-84710000D01*
X151357071Y-85470000D02*
X150960000Y-85470000D01*
X151357071Y-84710000D02*
X150960000Y-84710000D01*
X153670000Y-97790000D02*
X153670000Y-99060000D01*
X153670000Y-99060000D02*
X152400000Y-99060000D01*
D10*
X127000000Y-107950000D02*
X127000000Y-110490000D01*
X127000000Y-110490000D02*
X129540000Y-110490000D01*
X129540000Y-110490000D02*
X129540000Y-107950000D01*
X129540000Y-107950000D02*
X127000000Y-107950000D01*
X134620000Y-116840000D02*
X130810000Y-116840000D01*
X130810000Y-116840000D02*
X130810000Y-114300000D01*
X130810000Y-114300000D02*
X134620000Y-114300000D01*
X134620000Y-114300000D02*
X134620000Y-116840000D01*
X148590000Y-118110000D02*
X148590000Y-105410000D01*
X135890000Y-105410000D02*
X135890000Y-118110000D01*
X135890000Y-118110000D02*
X148590000Y-118110000D01*
X135890000Y-105410000D02*
X148590000Y-105410000D01*
X170180000Y-116840000D02*
X171450000Y-116840000D01*
X170180000Y-115570000D02*
X171450000Y-115570000D01*
X170180000Y-114300000D02*
X171450000Y-114300000D01*
X170180000Y-113030000D02*
X171450000Y-113030000D01*
X170180000Y-111760000D02*
X171450000Y-111760000D01*
X170180000Y-110490000D02*
X171450000Y-110490000D01*
X170180000Y-109220000D02*
X171450000Y-109220000D01*
X170180000Y-107950000D02*
X171450000Y-107950000D01*
X170180000Y-106680000D02*
X171450000Y-106680000D01*
X171450000Y-118110000D02*
X170180000Y-116840000D01*
X170180000Y-116840000D02*
X170180000Y-106680000D01*
X170180000Y-106680000D02*
X171450000Y-105410000D01*
X171450000Y-105410000D02*
X158750000Y-105410000D01*
X158750000Y-105410000D02*
X158750000Y-118110000D01*
X158750000Y-118110000D02*
X171450000Y-118110000D01*
X171450000Y-102870000D02*
X110490000Y-102870000D01*
X110490000Y-120650000D02*
X171450000Y-120650000D01*
X110490000Y-115570000D02*
X109220000Y-115570000D01*
X109220000Y-115570000D02*
X109220000Y-107950000D01*
X109220000Y-107950000D02*
X110490000Y-107950000D01*
X115570000Y-115570000D02*
X115570000Y-107950000D01*
X115570000Y-107950000D02*
X110490000Y-107950000D01*
X115570000Y-115570000D02*
X110490000Y-115570000D01*
X154940000Y-109220000D02*
X154940000Y-114300000D01*
X154940000Y-114300000D02*
X152400000Y-114300000D01*
X152400000Y-114300000D02*
X152400000Y-109220000D01*
X152400000Y-109220000D02*
X154940000Y-109220000D01*
X171450000Y-102870000D02*
X171450000Y-120650000D01*
X110490000Y-120650000D02*
X110490000Y-102870000D01*
D12*
G36*
X141986000Y-106807000D02*
G01*
X142240000Y-107061000D01*
X141859000Y-107315000D01*
X141605000Y-107061000D01*
X141986000Y-106807000D01*
G37*
X141986000Y-106807000D02*
X142240000Y-107061000D01*
X141859000Y-107315000D01*
X141605000Y-107061000D01*
X141986000Y-106807000D01*
G36*
X141732000Y-108331000D02*
G01*
X141986000Y-108585000D01*
X141605000Y-108839000D01*
X141351000Y-108585000D01*
X141732000Y-108331000D01*
G37*
X141732000Y-108331000D02*
X141986000Y-108585000D01*
X141605000Y-108839000D01*
X141351000Y-108585000D01*
X141732000Y-108331000D01*
G36*
X141605000Y-109093000D02*
G01*
X141859000Y-109347000D01*
X141478000Y-109601000D01*
X141224000Y-109347000D01*
X141605000Y-109093000D01*
G37*
X141605000Y-109093000D02*
X141859000Y-109347000D01*
X141478000Y-109601000D01*
X141224000Y-109347000D01*
X141605000Y-109093000D01*
G36*
X142748000Y-107569000D02*
G01*
X143002000Y-107823000D01*
X142621000Y-108077000D01*
X142367000Y-107823000D01*
X142748000Y-107569000D01*
G37*
X142748000Y-107569000D02*
X143002000Y-107823000D01*
X142621000Y-108077000D01*
X142367000Y-107823000D01*
X142748000Y-107569000D01*
G36*
X142113000Y-108712000D02*
G01*
X142367000Y-108966000D01*
X141986000Y-109220000D01*
X141732000Y-108966000D01*
X142113000Y-108712000D01*
G37*
X142113000Y-108712000D02*
X142367000Y-108966000D01*
X141986000Y-109220000D01*
X141732000Y-108966000D01*
X142113000Y-108712000D01*
G36*
X142621000Y-108331000D02*
G01*
X142875000Y-108585000D01*
X142494000Y-108839000D01*
X142240000Y-108585000D01*
X142621000Y-108331000D01*
G37*
X142621000Y-108331000D02*
X142875000Y-108585000D01*
X142494000Y-108839000D01*
X142240000Y-108585000D01*
X142621000Y-108331000D01*
G36*
X142367000Y-107188000D02*
G01*
X142621000Y-107442000D01*
X142240000Y-107696000D01*
X141986000Y-107442000D01*
X142367000Y-107188000D01*
G37*
X142367000Y-107188000D02*
X142621000Y-107442000D01*
X142240000Y-107696000D01*
X141986000Y-107442000D01*
X142367000Y-107188000D01*
G36*
X142240000Y-107950000D02*
G01*
X142494000Y-108204000D01*
X142113000Y-108458000D01*
X141859000Y-108204000D01*
X142240000Y-107950000D01*
G37*
X142240000Y-107950000D02*
X142494000Y-108204000D01*
X142113000Y-108458000D01*
X141859000Y-108204000D01*
X142240000Y-107950000D01*
D11*
X167082316Y-130078445D02*
G75*
G03X171360000Y-129050000I1827684J1808445D01*
G01*
X167068259Y-126458125D02*
G75*
G02X171360000Y-127450000I1841741J-1811875D01*
G01*
X167060000Y-126470000D02*
X167060000Y-130070000D01*
X194370000Y-124460000D02*
X191710000Y-124460000D01*
X194370000Y-124460000D02*
X194370000Y-91380000D01*
X194370000Y-91380000D02*
X191710000Y-91380000D01*
X191710000Y-124460000D02*
X191710000Y-91380000D01*
X191710000Y-127060000D02*
X191710000Y-125730000D01*
X193040000Y-127060000D02*
X191710000Y-127060000D01*
X148622936Y-100055000D02*
X149827064Y-100055000D01*
X148622936Y-101875000D02*
X149827064Y-101875000D01*
X180615000Y-94865436D02*
X180615000Y-96069564D01*
X178795000Y-94865436D02*
X178795000Y-96069564D01*
X174985000Y-94865436D02*
X174985000Y-96069564D01*
X176805000Y-94865436D02*
X176805000Y-96069564D01*
X163375000Y-99260000D02*
X163375000Y-96320000D01*
X163375000Y-96320000D02*
X157935000Y-96320000D01*
X157935000Y-96320000D02*
X157935000Y-99260000D01*
X157935000Y-99260000D02*
X163375000Y-99260000D01*
X164595000Y-97790000D02*
X163375000Y-97790000D01*
X156715000Y-97790000D02*
X157935000Y-97790000D01*
X162475000Y-99260000D02*
X162475000Y-96320000D01*
X162355000Y-99260000D02*
X162355000Y-96320000D01*
X162595000Y-99260000D02*
X162595000Y-96320000D01*
X161925000Y-89805000D02*
X154625000Y-89805000D01*
X154625000Y-89805000D02*
X154625000Y-91805000D01*
X154625000Y-91805000D02*
X161925000Y-91805000D01*
X161925000Y-92980000D02*
X154625000Y-92980000D01*
X154625000Y-92980000D02*
X154625000Y-94980000D01*
X154625000Y-94980000D02*
X161925000Y-94980000D01*
X159256252Y-88340000D02*
X158733748Y-88340000D01*
X159256252Y-86920000D02*
X158733748Y-86920000D01*
X165606252Y-88340000D02*
X165083748Y-88340000D01*
X165606252Y-86920000D02*
X165083748Y-86920000D01*
X159256252Y-84530000D02*
X158733748Y-84530000D01*
X159256252Y-83110000D02*
X158733748Y-83110000D01*
X165606252Y-83110000D02*
X165083748Y-83110000D01*
X165606252Y-84530000D02*
X165083748Y-84530000D01*
X163211252Y-127560000D02*
X162688748Y-127560000D01*
X163211252Y-128980000D02*
X162688748Y-128980000D01*
X175185000Y-100948748D02*
X175185000Y-101471252D01*
X176605000Y-100948748D02*
X176605000Y-101471252D01*
X171711252Y-98500000D02*
X171188748Y-98500000D01*
X171711252Y-97080000D02*
X171188748Y-97080000D01*
X180975000Y-110510000D02*
X182925000Y-110510000D01*
X180975000Y-110510000D02*
X179025000Y-110510000D01*
X180975000Y-105390000D02*
X182925000Y-105390000D01*
X180975000Y-105390000D02*
X177525000Y-105390000D01*
D10*
X152701666Y-99782380D02*
X152701666Y-100496666D01*
X152654047Y-100639523D01*
X152558809Y-100734761D01*
X152415952Y-100782380D01*
X152320714Y-100782380D01*
X153130238Y-99877619D02*
X153177857Y-99830000D01*
X153273095Y-99782380D01*
X153511190Y-99782380D01*
X153606428Y-99830000D01*
X153654047Y-99877619D01*
X153701666Y-99972857D01*
X153701666Y-100068095D01*
X153654047Y-100210952D01*
X153082619Y-100782380D01*
X153701666Y-100782380D01*
X140208095Y-101052380D02*
X140208095Y-101861904D01*
X140255714Y-101957142D01*
X140303333Y-102004761D01*
X140398571Y-102052380D01*
X140589047Y-102052380D01*
X140684285Y-102004761D01*
X140731904Y-101957142D01*
X140779523Y-101861904D01*
X140779523Y-101052380D01*
X141779523Y-102052380D02*
X141208095Y-102052380D01*
X141493809Y-102052380D02*
X141493809Y-101052380D01*
X141398571Y-101195238D01*
X141303333Y-101290476D01*
X141208095Y-101338095D01*
X137190000Y-112076666D02*
X137190000Y-111376666D01*
X137423333Y-111876666D01*
X137656666Y-111376666D01*
X137656666Y-112076666D01*
X137990000Y-112076666D02*
X137990000Y-111376666D01*
X138390000Y-112076666D02*
X138090000Y-111676666D01*
X138390000Y-111376666D02*
X137990000Y-111776666D01*
X138990000Y-111376666D02*
X138856666Y-111376666D01*
X138790000Y-111410000D01*
X138756666Y-111443333D01*
X138690000Y-111543333D01*
X138656666Y-111676666D01*
X138656666Y-111943333D01*
X138690000Y-112010000D01*
X138723333Y-112043333D01*
X138790000Y-112076666D01*
X138923333Y-112076666D01*
X138990000Y-112043333D01*
X139023333Y-112010000D01*
X139056666Y-111943333D01*
X139056666Y-111776666D01*
X139023333Y-111710000D01*
X138990000Y-111676666D01*
X138923333Y-111643333D01*
X138790000Y-111643333D01*
X138723333Y-111676666D01*
X138690000Y-111710000D01*
X138656666Y-111776666D01*
X139656666Y-111376666D02*
X139523333Y-111376666D01*
X139456666Y-111410000D01*
X139423333Y-111443333D01*
X139356666Y-111543333D01*
X139323333Y-111676666D01*
X139323333Y-111943333D01*
X139356666Y-112010000D01*
X139390000Y-112043333D01*
X139456666Y-112076666D01*
X139590000Y-112076666D01*
X139656666Y-112043333D01*
X139690000Y-112010000D01*
X139723333Y-111943333D01*
X139723333Y-111776666D01*
X139690000Y-111710000D01*
X139656666Y-111676666D01*
X139590000Y-111643333D01*
X139456666Y-111643333D01*
X139390000Y-111676666D01*
X139356666Y-111710000D01*
X139323333Y-111776666D01*
X140256666Y-111710000D02*
X140023333Y-111710000D01*
X140023333Y-112076666D02*
X140023333Y-111376666D01*
X140356666Y-111376666D01*
X140556666Y-111376666D02*
X141023333Y-112076666D01*
X141023333Y-111376666D02*
X140556666Y-112076666D01*
X141656666Y-112076666D02*
X141256666Y-112076666D01*
X141456666Y-112076666D02*
X141456666Y-111376666D01*
X141390000Y-111476666D01*
X141323333Y-111543333D01*
X141256666Y-111576666D01*
X141956666Y-112076666D02*
X141956666Y-111376666D01*
X142190000Y-111876666D01*
X142423333Y-111376666D01*
X142423333Y-112076666D01*
X142990000Y-111710000D02*
X143090000Y-111743333D01*
X143123333Y-111776666D01*
X143156666Y-111843333D01*
X143156666Y-111943333D01*
X143123333Y-112010000D01*
X143090000Y-112043333D01*
X143023333Y-112076666D01*
X142756666Y-112076666D01*
X142756666Y-111376666D01*
X142990000Y-111376666D01*
X143056666Y-111410000D01*
X143090000Y-111443333D01*
X143123333Y-111510000D01*
X143123333Y-111576666D01*
X143090000Y-111643333D01*
X143056666Y-111676666D01*
X142990000Y-111710000D01*
X142756666Y-111710000D01*
X143356666Y-111376666D02*
X143590000Y-112076666D01*
X143823333Y-111376666D01*
X144056666Y-112076666D02*
X144056666Y-111376666D01*
X144290000Y-111876666D01*
X144523333Y-111376666D01*
X144523333Y-112076666D01*
X144856666Y-112076666D02*
X144856666Y-111376666D01*
X145023333Y-111376666D01*
X145123333Y-111410000D01*
X145190000Y-111476666D01*
X145223333Y-111543333D01*
X145256666Y-111676666D01*
X145256666Y-111776666D01*
X145223333Y-111910000D01*
X145190000Y-111976666D01*
X145123333Y-112043333D01*
X145023333Y-112076666D01*
X144856666Y-112076666D01*
X145923333Y-112076666D02*
X145523333Y-112076666D01*
X145723333Y-112076666D02*
X145723333Y-111376666D01*
X145656666Y-111476666D01*
X145590000Y-111543333D01*
X145523333Y-111576666D01*
X146323333Y-111676666D02*
X146256666Y-111643333D01*
X146223333Y-111610000D01*
X146190000Y-111543333D01*
X146190000Y-111510000D01*
X146223333Y-111443333D01*
X146256666Y-111410000D01*
X146323333Y-111376666D01*
X146456666Y-111376666D01*
X146523333Y-111410000D01*
X146556666Y-111443333D01*
X146590000Y-111510000D01*
X146590000Y-111543333D01*
X146556666Y-111610000D01*
X146523333Y-111643333D01*
X146456666Y-111676666D01*
X146323333Y-111676666D01*
X146256666Y-111710000D01*
X146223333Y-111743333D01*
X146190000Y-111810000D01*
X146190000Y-111943333D01*
X146223333Y-112010000D01*
X146256666Y-112043333D01*
X146323333Y-112076666D01*
X146456666Y-112076666D01*
X146523333Y-112043333D01*
X146556666Y-112010000D01*
X146590000Y-111943333D01*
X146590000Y-111810000D01*
X146556666Y-111743333D01*
X146523333Y-111710000D01*
X146456666Y-111676666D01*
X147390000Y-111343333D02*
X146790000Y-112243333D01*
X137640000Y-113219666D02*
X137640000Y-112519666D01*
X137873333Y-113019666D01*
X138106666Y-112519666D01*
X138106666Y-113219666D01*
X138440000Y-113219666D02*
X138440000Y-112519666D01*
X138840000Y-113219666D02*
X138540000Y-112819666D01*
X138840000Y-112519666D02*
X138440000Y-112919666D01*
X139440000Y-112519666D02*
X139306666Y-112519666D01*
X139240000Y-112553000D01*
X139206666Y-112586333D01*
X139140000Y-112686333D01*
X139106666Y-112819666D01*
X139106666Y-113086333D01*
X139140000Y-113153000D01*
X139173333Y-113186333D01*
X139240000Y-113219666D01*
X139373333Y-113219666D01*
X139440000Y-113186333D01*
X139473333Y-113153000D01*
X139506666Y-113086333D01*
X139506666Y-112919666D01*
X139473333Y-112853000D01*
X139440000Y-112819666D01*
X139373333Y-112786333D01*
X139240000Y-112786333D01*
X139173333Y-112819666D01*
X139140000Y-112853000D01*
X139106666Y-112919666D01*
X140106666Y-112753000D02*
X140106666Y-113219666D01*
X139940000Y-112486333D02*
X139773333Y-112986333D01*
X140206666Y-112986333D01*
X140706666Y-112853000D02*
X140473333Y-112853000D01*
X140473333Y-113219666D02*
X140473333Y-112519666D01*
X140806666Y-112519666D01*
X141006666Y-112519666D02*
X141473333Y-113219666D01*
X141473333Y-112519666D02*
X141006666Y-113219666D01*
X142073333Y-112519666D02*
X141740000Y-112519666D01*
X141706666Y-112853000D01*
X141740000Y-112819666D01*
X141806666Y-112786333D01*
X141973333Y-112786333D01*
X142040000Y-112819666D01*
X142073333Y-112853000D01*
X142106666Y-112919666D01*
X142106666Y-113086333D01*
X142073333Y-113153000D01*
X142040000Y-113186333D01*
X141973333Y-113219666D01*
X141806666Y-113219666D01*
X141740000Y-113186333D01*
X141706666Y-113153000D01*
X142773333Y-113219666D02*
X142373333Y-113219666D01*
X142573333Y-113219666D02*
X142573333Y-112519666D01*
X142506666Y-112619666D01*
X142440000Y-112686333D01*
X142373333Y-112719666D01*
X143040000Y-112586333D02*
X143073333Y-112553000D01*
X143140000Y-112519666D01*
X143306666Y-112519666D01*
X143373333Y-112553000D01*
X143406666Y-112586333D01*
X143440000Y-112653000D01*
X143440000Y-112719666D01*
X143406666Y-112819666D01*
X143006666Y-113219666D01*
X143440000Y-113219666D01*
X143640000Y-112519666D02*
X143873333Y-113219666D01*
X144106666Y-112519666D01*
X144340000Y-113219666D02*
X144340000Y-112519666D01*
X144573333Y-113019666D01*
X144806666Y-112519666D01*
X144806666Y-113219666D01*
X145140000Y-113219666D02*
X145140000Y-112519666D01*
X145306666Y-112519666D01*
X145406666Y-112553000D01*
X145473333Y-112619666D01*
X145506666Y-112686333D01*
X145540000Y-112819666D01*
X145540000Y-112919666D01*
X145506666Y-113053000D01*
X145473333Y-113119666D01*
X145406666Y-113186333D01*
X145306666Y-113219666D01*
X145140000Y-113219666D01*
X146206666Y-113219666D02*
X145806666Y-113219666D01*
X146006666Y-113219666D02*
X146006666Y-112519666D01*
X145940000Y-112619666D01*
X145873333Y-112686333D01*
X145806666Y-112719666D01*
X146473333Y-112586333D02*
X146506666Y-112553000D01*
X146573333Y-112519666D01*
X146740000Y-112519666D01*
X146806666Y-112553000D01*
X146840000Y-112586333D01*
X146873333Y-112653000D01*
X146873333Y-112719666D01*
X146840000Y-112819666D01*
X146440000Y-113219666D01*
X146873333Y-113219666D01*
X173857619Y-128365238D02*
X173810000Y-128460476D01*
X173714761Y-128555714D01*
X173571904Y-128698571D01*
X173524285Y-128793809D01*
X173524285Y-128889047D01*
X173762380Y-128841428D02*
X173714761Y-128936666D01*
X173619523Y-129031904D01*
X173429047Y-129079523D01*
X173095714Y-129079523D01*
X172905238Y-129031904D01*
X172810000Y-128936666D01*
X172762380Y-128841428D01*
X172762380Y-128650952D01*
X172810000Y-128555714D01*
X172905238Y-128460476D01*
X173095714Y-128412857D01*
X173429047Y-128412857D01*
X173619523Y-128460476D01*
X173714761Y-128555714D01*
X173762380Y-128650952D01*
X173762380Y-128841428D01*
X173762380Y-127460476D02*
X173762380Y-128031904D01*
X173762380Y-127746190D02*
X172762380Y-127746190D01*
X172905238Y-127841428D01*
X173000476Y-127936666D01*
X173048095Y-128031904D01*
X192706666Y-127952380D02*
X192706666Y-128666666D01*
X192659047Y-128809523D01*
X192563809Y-128904761D01*
X192420952Y-128952380D01*
X192325714Y-128952380D01*
X193706666Y-128952380D02*
X193135238Y-128952380D01*
X193420952Y-128952380D02*
X193420952Y-127952380D01*
X193325714Y-128095238D01*
X193230476Y-128190476D01*
X193135238Y-128238095D01*
X145883333Y-101322142D02*
X145835714Y-101369761D01*
X145692857Y-101417380D01*
X145597619Y-101417380D01*
X145454761Y-101369761D01*
X145359523Y-101274523D01*
X145311904Y-101179285D01*
X145264285Y-100988809D01*
X145264285Y-100845952D01*
X145311904Y-100655476D01*
X145359523Y-100560238D01*
X145454761Y-100465000D01*
X145597619Y-100417380D01*
X145692857Y-100417380D01*
X145835714Y-100465000D01*
X145883333Y-100512619D01*
X146835714Y-101417380D02*
X146264285Y-101417380D01*
X146550000Y-101417380D02*
X146550000Y-100417380D01*
X146454761Y-100560238D01*
X146359523Y-100655476D01*
X146264285Y-100703095D01*
X181882142Y-95634166D02*
X181929761Y-95681785D01*
X181977380Y-95824642D01*
X181977380Y-95919880D01*
X181929761Y-96062738D01*
X181834523Y-96157976D01*
X181739285Y-96205595D01*
X181548809Y-96253214D01*
X181405952Y-96253214D01*
X181215476Y-96205595D01*
X181120238Y-96157976D01*
X181025000Y-96062738D01*
X180977380Y-95919880D01*
X180977380Y-95824642D01*
X181025000Y-95681785D01*
X181072619Y-95634166D01*
X181072619Y-95253214D02*
X181025000Y-95205595D01*
X180977380Y-95110357D01*
X180977380Y-94872261D01*
X181025000Y-94777023D01*
X181072619Y-94729404D01*
X181167857Y-94681785D01*
X181263095Y-94681785D01*
X181405952Y-94729404D01*
X181977380Y-95300833D01*
X181977380Y-94681785D01*
X178072142Y-95634166D02*
X178119761Y-95681785D01*
X178167380Y-95824642D01*
X178167380Y-95919880D01*
X178119761Y-96062738D01*
X178024523Y-96157976D01*
X177929285Y-96205595D01*
X177738809Y-96253214D01*
X177595952Y-96253214D01*
X177405476Y-96205595D01*
X177310238Y-96157976D01*
X177215000Y-96062738D01*
X177167380Y-95919880D01*
X177167380Y-95824642D01*
X177215000Y-95681785D01*
X177262619Y-95634166D01*
X177167380Y-95300833D02*
X177167380Y-94681785D01*
X177548333Y-95015119D01*
X177548333Y-94872261D01*
X177595952Y-94777023D01*
X177643571Y-94729404D01*
X177738809Y-94681785D01*
X177976904Y-94681785D01*
X178072142Y-94729404D01*
X178119761Y-94777023D01*
X178167380Y-94872261D01*
X178167380Y-95157976D01*
X178119761Y-95253214D01*
X178072142Y-95300833D01*
X159916904Y-100712380D02*
X159916904Y-99712380D01*
X160155000Y-99712380D01*
X160297857Y-99760000D01*
X160393095Y-99855238D01*
X160440714Y-99950476D01*
X160488333Y-100140952D01*
X160488333Y-100283809D01*
X160440714Y-100474285D01*
X160393095Y-100569523D01*
X160297857Y-100664761D01*
X160155000Y-100712380D01*
X159916904Y-100712380D01*
X161440714Y-100712380D02*
X160869285Y-100712380D01*
X161155000Y-100712380D02*
X161155000Y-99712380D01*
X161059761Y-99855238D01*
X160964523Y-99950476D01*
X160869285Y-99998095D01*
X165473095Y-100142380D02*
X165473095Y-99142380D01*
X166044523Y-100142380D02*
X165615952Y-99570952D01*
X166044523Y-99142380D02*
X165473095Y-99713809D01*
X158436904Y-92527380D02*
X158436904Y-91527380D01*
X158675000Y-91527380D01*
X158817857Y-91575000D01*
X158913095Y-91670238D01*
X158960714Y-91765476D01*
X159008333Y-91955952D01*
X159008333Y-92098809D01*
X158960714Y-92289285D01*
X158913095Y-92384523D01*
X158817857Y-92479761D01*
X158675000Y-92527380D01*
X158436904Y-92527380D01*
X159389285Y-91622619D02*
X159436904Y-91575000D01*
X159532142Y-91527380D01*
X159770238Y-91527380D01*
X159865476Y-91575000D01*
X159913095Y-91622619D01*
X159960714Y-91717857D01*
X159960714Y-91813095D01*
X159913095Y-91955952D01*
X159341666Y-92527380D01*
X159960714Y-92527380D01*
X158436904Y-95702380D02*
X158436904Y-94702380D01*
X158675000Y-94702380D01*
X158817857Y-94750000D01*
X158913095Y-94845238D01*
X158960714Y-94940476D01*
X159008333Y-95130952D01*
X159008333Y-95273809D01*
X158960714Y-95464285D01*
X158913095Y-95559523D01*
X158817857Y-95654761D01*
X158675000Y-95702380D01*
X158436904Y-95702380D01*
X159341666Y-94702380D02*
X159960714Y-94702380D01*
X159627380Y-95083333D01*
X159770238Y-95083333D01*
X159865476Y-95130952D01*
X159913095Y-95178571D01*
X159960714Y-95273809D01*
X159960714Y-95511904D01*
X159913095Y-95607142D01*
X159865476Y-95654761D01*
X159770238Y-95702380D01*
X159484523Y-95702380D01*
X159389285Y-95654761D01*
X159341666Y-95607142D01*
X158828333Y-89732380D02*
X158495000Y-89256190D01*
X158256904Y-89732380D02*
X158256904Y-88732380D01*
X158637857Y-88732380D01*
X158733095Y-88780000D01*
X158780714Y-88827619D01*
X158828333Y-88922857D01*
X158828333Y-89065714D01*
X158780714Y-89160952D01*
X158733095Y-89208571D01*
X158637857Y-89256190D01*
X158256904Y-89256190D01*
X159780714Y-89732380D02*
X159209285Y-89732380D01*
X159495000Y-89732380D02*
X159495000Y-88732380D01*
X159399761Y-88875238D01*
X159304523Y-88970476D01*
X159209285Y-89018095D01*
X165178333Y-89732380D02*
X164845000Y-89256190D01*
X164606904Y-89732380D02*
X164606904Y-88732380D01*
X164987857Y-88732380D01*
X165083095Y-88780000D01*
X165130714Y-88827619D01*
X165178333Y-88922857D01*
X165178333Y-89065714D01*
X165130714Y-89160952D01*
X165083095Y-89208571D01*
X164987857Y-89256190D01*
X164606904Y-89256190D01*
X165559285Y-88827619D02*
X165606904Y-88780000D01*
X165702142Y-88732380D01*
X165940238Y-88732380D01*
X166035476Y-88780000D01*
X166083095Y-88827619D01*
X166130714Y-88922857D01*
X166130714Y-89018095D01*
X166083095Y-89160952D01*
X165511666Y-89732380D01*
X166130714Y-89732380D01*
X158828333Y-85922380D02*
X158495000Y-85446190D01*
X158256904Y-85922380D02*
X158256904Y-84922380D01*
X158637857Y-84922380D01*
X158733095Y-84970000D01*
X158780714Y-85017619D01*
X158828333Y-85112857D01*
X158828333Y-85255714D01*
X158780714Y-85350952D01*
X158733095Y-85398571D01*
X158637857Y-85446190D01*
X158256904Y-85446190D01*
X159161666Y-84922380D02*
X159780714Y-84922380D01*
X159447380Y-85303333D01*
X159590238Y-85303333D01*
X159685476Y-85350952D01*
X159733095Y-85398571D01*
X159780714Y-85493809D01*
X159780714Y-85731904D01*
X159733095Y-85827142D01*
X159685476Y-85874761D01*
X159590238Y-85922380D01*
X159304523Y-85922380D01*
X159209285Y-85874761D01*
X159161666Y-85827142D01*
X165178333Y-85922380D02*
X164845000Y-85446190D01*
X164606904Y-85922380D02*
X164606904Y-84922380D01*
X164987857Y-84922380D01*
X165083095Y-84970000D01*
X165130714Y-85017619D01*
X165178333Y-85112857D01*
X165178333Y-85255714D01*
X165130714Y-85350952D01*
X165083095Y-85398571D01*
X164987857Y-85446190D01*
X164606904Y-85446190D01*
X166035476Y-85255714D02*
X166035476Y-85922380D01*
X165797380Y-84874761D02*
X165559285Y-85589047D01*
X166178333Y-85589047D01*
X162783333Y-130372380D02*
X162450000Y-129896190D01*
X162211904Y-130372380D02*
X162211904Y-129372380D01*
X162592857Y-129372380D01*
X162688095Y-129420000D01*
X162735714Y-129467619D01*
X162783333Y-129562857D01*
X162783333Y-129705714D01*
X162735714Y-129800952D01*
X162688095Y-129848571D01*
X162592857Y-129896190D01*
X162211904Y-129896190D01*
X163688095Y-129372380D02*
X163211904Y-129372380D01*
X163164285Y-129848571D01*
X163211904Y-129800952D01*
X163307142Y-129753333D01*
X163545238Y-129753333D01*
X163640476Y-129800952D01*
X163688095Y-129848571D01*
X163735714Y-129943809D01*
X163735714Y-130181904D01*
X163688095Y-130277142D01*
X163640476Y-130324761D01*
X163545238Y-130372380D01*
X163307142Y-130372380D01*
X163211904Y-130324761D01*
X163164285Y-130277142D01*
X177997380Y-101376666D02*
X177521190Y-101710000D01*
X177997380Y-101948095D02*
X176997380Y-101948095D01*
X176997380Y-101567142D01*
X177045000Y-101471904D01*
X177092619Y-101424285D01*
X177187857Y-101376666D01*
X177330714Y-101376666D01*
X177425952Y-101424285D01*
X177473571Y-101471904D01*
X177521190Y-101567142D01*
X177521190Y-101948095D01*
X176997380Y-100519523D02*
X176997380Y-100710000D01*
X177045000Y-100805238D01*
X177092619Y-100852857D01*
X177235476Y-100948095D01*
X177425952Y-100995714D01*
X177806904Y-100995714D01*
X177902142Y-100948095D01*
X177949761Y-100900476D01*
X177997380Y-100805238D01*
X177997380Y-100614761D01*
X177949761Y-100519523D01*
X177902142Y-100471904D01*
X177806904Y-100424285D01*
X177568809Y-100424285D01*
X177473571Y-100471904D01*
X177425952Y-100519523D01*
X177378333Y-100614761D01*
X177378333Y-100805238D01*
X177425952Y-100900476D01*
X177473571Y-100948095D01*
X177568809Y-100995714D01*
X171283333Y-99892380D02*
X170950000Y-99416190D01*
X170711904Y-99892380D02*
X170711904Y-98892380D01*
X171092857Y-98892380D01*
X171188095Y-98940000D01*
X171235714Y-98987619D01*
X171283333Y-99082857D01*
X171283333Y-99225714D01*
X171235714Y-99320952D01*
X171188095Y-99368571D01*
X171092857Y-99416190D01*
X170711904Y-99416190D01*
X171616666Y-98892380D02*
X172283333Y-98892380D01*
X171854761Y-99892380D01*
X180213095Y-104002380D02*
X180213095Y-104811904D01*
X180260714Y-104907142D01*
X180308333Y-104954761D01*
X180403571Y-105002380D01*
X180594047Y-105002380D01*
X180689285Y-104954761D01*
X180736904Y-104907142D01*
X180784523Y-104811904D01*
X180784523Y-104002380D01*
X181213095Y-104097619D02*
X181260714Y-104050000D01*
X181355952Y-104002380D01*
X181594047Y-104002380D01*
X181689285Y-104050000D01*
X181736904Y-104097619D01*
X181784523Y-104192857D01*
X181784523Y-104288095D01*
X181736904Y-104430952D01*
X181165476Y-105002380D01*
X181784523Y-105002380D01*
M02*
