G04 #@! TF.GenerationSoftware,KiCad,Pcbnew,(5.1.5)-3*
G04 #@! TF.CreationDate,2020-10-01T22:25:20-07:00*
G04 #@! TF.ProjectId,boostino,626f6f73-7469-46e6-9f2e-6b696361645f,rev?*
G04 #@! TF.SameCoordinates,Original*
G04 #@! TF.FileFunction,Copper,L1,Top*
G04 #@! TF.FilePolarity,Positive*
%FSLAX46Y46*%
G04 Gerber Fmt 4.6, Leading zero omitted, Abs format (unit mm)*
G04 Created by KiCad (PCBNEW (5.1.5)-3) date 2020-10-01 22:25:20*
%MOMM*%
%LPD*%
G04 APERTURE LIST*
%ADD10R,1.700000X1.700000*%
%ADD11O,1.700000X1.700000*%
%ADD12C,1.600000*%
%ADD13R,1.600000X1.600000*%
%ADD14R,1.800000X1.100000*%
%ADD15C,0.100000*%
%ADD16R,1.800000X1.800000*%
%ADD17O,1.800000X1.800000*%
%ADD18R,3.300000X1.700000*%
%ADD19C,0.800000*%
%ADD20C,0.250000*%
%ADD21C,1.000000*%
G04 APERTURE END LIST*
D10*
X152400000Y-97790000D03*
D11*
X152400000Y-95250000D03*
X152400000Y-92710000D03*
X152400000Y-90170000D03*
X152400000Y-87630000D03*
X152400000Y-85090000D03*
D12*
X152400000Y-119380000D03*
X154940000Y-119380000D03*
X157480000Y-119380000D03*
X160020000Y-119380000D03*
X149860000Y-119380000D03*
X147320000Y-119380000D03*
X144780000Y-119380000D03*
X162560000Y-119380000D03*
X165100000Y-119380000D03*
X167640000Y-119380000D03*
X170180000Y-119380000D03*
X157480000Y-116840000D03*
X157480000Y-114300000D03*
X157480000Y-111760000D03*
X157480000Y-109220000D03*
X157480000Y-106680000D03*
X170180000Y-104140000D03*
X167640000Y-104140000D03*
X165100000Y-104140000D03*
X162560000Y-104140000D03*
X160020000Y-104140000D03*
X157480000Y-104140000D03*
X154940000Y-104140000D03*
X152400000Y-104140000D03*
X142240000Y-119380000D03*
X139700000Y-119380000D03*
X137160000Y-119380000D03*
X134620000Y-119380000D03*
X132080000Y-119380000D03*
X129540000Y-119380000D03*
X127000000Y-119380000D03*
X124460000Y-119380000D03*
X121920000Y-119380000D03*
X119380000Y-119380000D03*
X116840000Y-119380000D03*
X114300000Y-119380000D03*
D13*
X111760000Y-119380000D03*
D12*
X149860000Y-104140000D03*
X147320000Y-104140000D03*
X144780000Y-104140000D03*
X142240000Y-104140000D03*
X139700000Y-104140000D03*
X137160000Y-104140000D03*
X134620000Y-104140000D03*
X132080000Y-104140000D03*
X129540000Y-104140000D03*
X127000000Y-104140000D03*
X124460000Y-104140000D03*
X121920000Y-104140000D03*
X119380000Y-104140000D03*
X116840000Y-104140000D03*
X114300000Y-104140000D03*
X111760000Y-104140000D03*
X114300000Y-106680000D03*
X119380000Y-106680000D03*
X121920000Y-106680000D03*
X124460000Y-106680000D03*
X118110000Y-116380000D03*
X120650000Y-116380000D03*
X123190000Y-116380000D03*
X125730000Y-116380000D03*
X128270000Y-116380000D03*
D14*
X168510000Y-127000000D03*
G04 #@! TA.AperFunction,ComponentPad*
D15*
G36*
X169161955Y-128991324D02*
G01*
X169188650Y-128995284D01*
X169214828Y-129001841D01*
X169240238Y-129010933D01*
X169264634Y-129022472D01*
X169287782Y-129036346D01*
X169309458Y-129052422D01*
X169329454Y-129070546D01*
X169347578Y-129090542D01*
X169363654Y-129112218D01*
X169377528Y-129135366D01*
X169389067Y-129159762D01*
X169398159Y-129185172D01*
X169404716Y-129211350D01*
X169408676Y-129238045D01*
X169410000Y-129265000D01*
X169410000Y-129815000D01*
X169408676Y-129841955D01*
X169404716Y-129868650D01*
X169398159Y-129894828D01*
X169389067Y-129920238D01*
X169377528Y-129944634D01*
X169363654Y-129967782D01*
X169347578Y-129989458D01*
X169329454Y-130009454D01*
X169309458Y-130027578D01*
X169287782Y-130043654D01*
X169264634Y-130057528D01*
X169240238Y-130069067D01*
X169214828Y-130078159D01*
X169188650Y-130084716D01*
X169161955Y-130088676D01*
X169135000Y-130090000D01*
X167885000Y-130090000D01*
X167858045Y-130088676D01*
X167831350Y-130084716D01*
X167805172Y-130078159D01*
X167779762Y-130069067D01*
X167755366Y-130057528D01*
X167732218Y-130043654D01*
X167710542Y-130027578D01*
X167690546Y-130009454D01*
X167672422Y-129989458D01*
X167656346Y-129967782D01*
X167642472Y-129944634D01*
X167630933Y-129920238D01*
X167621841Y-129894828D01*
X167615284Y-129868650D01*
X167611324Y-129841955D01*
X167610000Y-129815000D01*
X167610000Y-129265000D01*
X167611324Y-129238045D01*
X167615284Y-129211350D01*
X167621841Y-129185172D01*
X167630933Y-129159762D01*
X167642472Y-129135366D01*
X167656346Y-129112218D01*
X167672422Y-129090542D01*
X167690546Y-129070546D01*
X167710542Y-129052422D01*
X167732218Y-129036346D01*
X167755366Y-129022472D01*
X167779762Y-129010933D01*
X167805172Y-129001841D01*
X167831350Y-128995284D01*
X167858045Y-128991324D01*
X167885000Y-128990000D01*
X169135000Y-128990000D01*
X169161955Y-128991324D01*
G37*
G04 #@! TD.AperFunction*
G04 #@! TA.AperFunction,ComponentPad*
G36*
X171231955Y-127721324D02*
G01*
X171258650Y-127725284D01*
X171284828Y-127731841D01*
X171310238Y-127740933D01*
X171334634Y-127752472D01*
X171357782Y-127766346D01*
X171379458Y-127782422D01*
X171399454Y-127800546D01*
X171417578Y-127820542D01*
X171433654Y-127842218D01*
X171447528Y-127865366D01*
X171459067Y-127889762D01*
X171468159Y-127915172D01*
X171474716Y-127941350D01*
X171478676Y-127968045D01*
X171480000Y-127995000D01*
X171480000Y-128545000D01*
X171478676Y-128571955D01*
X171474716Y-128598650D01*
X171468159Y-128624828D01*
X171459067Y-128650238D01*
X171447528Y-128674634D01*
X171433654Y-128697782D01*
X171417578Y-128719458D01*
X171399454Y-128739454D01*
X171379458Y-128757578D01*
X171357782Y-128773654D01*
X171334634Y-128787528D01*
X171310238Y-128799067D01*
X171284828Y-128808159D01*
X171258650Y-128814716D01*
X171231955Y-128818676D01*
X171205000Y-128820000D01*
X169955000Y-128820000D01*
X169928045Y-128818676D01*
X169901350Y-128814716D01*
X169875172Y-128808159D01*
X169849762Y-128799067D01*
X169825366Y-128787528D01*
X169802218Y-128773654D01*
X169780542Y-128757578D01*
X169760546Y-128739454D01*
X169742422Y-128719458D01*
X169726346Y-128697782D01*
X169712472Y-128674634D01*
X169700933Y-128650238D01*
X169691841Y-128624828D01*
X169685284Y-128598650D01*
X169681324Y-128571955D01*
X169680000Y-128545000D01*
X169680000Y-127995000D01*
X169681324Y-127968045D01*
X169685284Y-127941350D01*
X169691841Y-127915172D01*
X169700933Y-127889762D01*
X169712472Y-127865366D01*
X169726346Y-127842218D01*
X169742422Y-127820542D01*
X169760546Y-127800546D01*
X169780542Y-127782422D01*
X169802218Y-127766346D01*
X169825366Y-127752472D01*
X169849762Y-127740933D01*
X169875172Y-127731841D01*
X169901350Y-127725284D01*
X169928045Y-127721324D01*
X169955000Y-127720000D01*
X171205000Y-127720000D01*
X171231955Y-127721324D01*
G37*
G04 #@! TD.AperFunction*
D10*
X193040000Y-125730000D03*
D11*
X193040000Y-123190000D03*
X193040000Y-120650000D03*
X193040000Y-118110000D03*
X193040000Y-115570000D03*
X193040000Y-113030000D03*
X193040000Y-110490000D03*
X193040000Y-107950000D03*
X193040000Y-105410000D03*
X193040000Y-102870000D03*
X193040000Y-100330000D03*
X193040000Y-97790000D03*
X193040000Y-95250000D03*
X193040000Y-92710000D03*
G04 #@! TA.AperFunction,SMDPad,CuDef*
D15*
G36*
X148224504Y-100091204D02*
G01*
X148248773Y-100094804D01*
X148272571Y-100100765D01*
X148295671Y-100109030D01*
X148317849Y-100119520D01*
X148338893Y-100132133D01*
X148358598Y-100146747D01*
X148376777Y-100163223D01*
X148393253Y-100181402D01*
X148407867Y-100201107D01*
X148420480Y-100222151D01*
X148430970Y-100244329D01*
X148439235Y-100267429D01*
X148445196Y-100291227D01*
X148448796Y-100315496D01*
X148450000Y-100340000D01*
X148450000Y-101590000D01*
X148448796Y-101614504D01*
X148445196Y-101638773D01*
X148439235Y-101662571D01*
X148430970Y-101685671D01*
X148420480Y-101707849D01*
X148407867Y-101728893D01*
X148393253Y-101748598D01*
X148376777Y-101766777D01*
X148358598Y-101783253D01*
X148338893Y-101797867D01*
X148317849Y-101810480D01*
X148295671Y-101820970D01*
X148272571Y-101829235D01*
X148248773Y-101835196D01*
X148224504Y-101838796D01*
X148200000Y-101840000D01*
X147275000Y-101840000D01*
X147250496Y-101838796D01*
X147226227Y-101835196D01*
X147202429Y-101829235D01*
X147179329Y-101820970D01*
X147157151Y-101810480D01*
X147136107Y-101797867D01*
X147116402Y-101783253D01*
X147098223Y-101766777D01*
X147081747Y-101748598D01*
X147067133Y-101728893D01*
X147054520Y-101707849D01*
X147044030Y-101685671D01*
X147035765Y-101662571D01*
X147029804Y-101638773D01*
X147026204Y-101614504D01*
X147025000Y-101590000D01*
X147025000Y-100340000D01*
X147026204Y-100315496D01*
X147029804Y-100291227D01*
X147035765Y-100267429D01*
X147044030Y-100244329D01*
X147054520Y-100222151D01*
X147067133Y-100201107D01*
X147081747Y-100181402D01*
X147098223Y-100163223D01*
X147116402Y-100146747D01*
X147136107Y-100132133D01*
X147157151Y-100119520D01*
X147179329Y-100109030D01*
X147202429Y-100100765D01*
X147226227Y-100094804D01*
X147250496Y-100091204D01*
X147275000Y-100090000D01*
X148200000Y-100090000D01*
X148224504Y-100091204D01*
G37*
G04 #@! TD.AperFunction*
G04 #@! TA.AperFunction,SMDPad,CuDef*
G36*
X151199504Y-100091204D02*
G01*
X151223773Y-100094804D01*
X151247571Y-100100765D01*
X151270671Y-100109030D01*
X151292849Y-100119520D01*
X151313893Y-100132133D01*
X151333598Y-100146747D01*
X151351777Y-100163223D01*
X151368253Y-100181402D01*
X151382867Y-100201107D01*
X151395480Y-100222151D01*
X151405970Y-100244329D01*
X151414235Y-100267429D01*
X151420196Y-100291227D01*
X151423796Y-100315496D01*
X151425000Y-100340000D01*
X151425000Y-101590000D01*
X151423796Y-101614504D01*
X151420196Y-101638773D01*
X151414235Y-101662571D01*
X151405970Y-101685671D01*
X151395480Y-101707849D01*
X151382867Y-101728893D01*
X151368253Y-101748598D01*
X151351777Y-101766777D01*
X151333598Y-101783253D01*
X151313893Y-101797867D01*
X151292849Y-101810480D01*
X151270671Y-101820970D01*
X151247571Y-101829235D01*
X151223773Y-101835196D01*
X151199504Y-101838796D01*
X151175000Y-101840000D01*
X150250000Y-101840000D01*
X150225496Y-101838796D01*
X150201227Y-101835196D01*
X150177429Y-101829235D01*
X150154329Y-101820970D01*
X150132151Y-101810480D01*
X150111107Y-101797867D01*
X150091402Y-101783253D01*
X150073223Y-101766777D01*
X150056747Y-101748598D01*
X150042133Y-101728893D01*
X150029520Y-101707849D01*
X150019030Y-101685671D01*
X150010765Y-101662571D01*
X150004804Y-101638773D01*
X150001204Y-101614504D01*
X150000000Y-101590000D01*
X150000000Y-100340000D01*
X150001204Y-100315496D01*
X150004804Y-100291227D01*
X150010765Y-100267429D01*
X150019030Y-100244329D01*
X150029520Y-100222151D01*
X150042133Y-100201107D01*
X150056747Y-100181402D01*
X150073223Y-100163223D01*
X150091402Y-100146747D01*
X150111107Y-100132133D01*
X150132151Y-100119520D01*
X150154329Y-100109030D01*
X150177429Y-100100765D01*
X150201227Y-100094804D01*
X150225496Y-100091204D01*
X150250000Y-100090000D01*
X151175000Y-100090000D01*
X151199504Y-100091204D01*
G37*
G04 #@! TD.AperFunction*
G04 #@! TA.AperFunction,SMDPad,CuDef*
G36*
X180354504Y-93268704D02*
G01*
X180378773Y-93272304D01*
X180402571Y-93278265D01*
X180425671Y-93286530D01*
X180447849Y-93297020D01*
X180468893Y-93309633D01*
X180488598Y-93324247D01*
X180506777Y-93340723D01*
X180523253Y-93358902D01*
X180537867Y-93378607D01*
X180550480Y-93399651D01*
X180560970Y-93421829D01*
X180569235Y-93444929D01*
X180575196Y-93468727D01*
X180578796Y-93492996D01*
X180580000Y-93517500D01*
X180580000Y-94442500D01*
X180578796Y-94467004D01*
X180575196Y-94491273D01*
X180569235Y-94515071D01*
X180560970Y-94538171D01*
X180550480Y-94560349D01*
X180537867Y-94581393D01*
X180523253Y-94601098D01*
X180506777Y-94619277D01*
X180488598Y-94635753D01*
X180468893Y-94650367D01*
X180447849Y-94662980D01*
X180425671Y-94673470D01*
X180402571Y-94681735D01*
X180378773Y-94687696D01*
X180354504Y-94691296D01*
X180330000Y-94692500D01*
X179080000Y-94692500D01*
X179055496Y-94691296D01*
X179031227Y-94687696D01*
X179007429Y-94681735D01*
X178984329Y-94673470D01*
X178962151Y-94662980D01*
X178941107Y-94650367D01*
X178921402Y-94635753D01*
X178903223Y-94619277D01*
X178886747Y-94601098D01*
X178872133Y-94581393D01*
X178859520Y-94560349D01*
X178849030Y-94538171D01*
X178840765Y-94515071D01*
X178834804Y-94491273D01*
X178831204Y-94467004D01*
X178830000Y-94442500D01*
X178830000Y-93517500D01*
X178831204Y-93492996D01*
X178834804Y-93468727D01*
X178840765Y-93444929D01*
X178849030Y-93421829D01*
X178859520Y-93399651D01*
X178872133Y-93378607D01*
X178886747Y-93358902D01*
X178903223Y-93340723D01*
X178921402Y-93324247D01*
X178941107Y-93309633D01*
X178962151Y-93297020D01*
X178984329Y-93286530D01*
X179007429Y-93278265D01*
X179031227Y-93272304D01*
X179055496Y-93268704D01*
X179080000Y-93267500D01*
X180330000Y-93267500D01*
X180354504Y-93268704D01*
G37*
G04 #@! TD.AperFunction*
G04 #@! TA.AperFunction,SMDPad,CuDef*
G36*
X180354504Y-96243704D02*
G01*
X180378773Y-96247304D01*
X180402571Y-96253265D01*
X180425671Y-96261530D01*
X180447849Y-96272020D01*
X180468893Y-96284633D01*
X180488598Y-96299247D01*
X180506777Y-96315723D01*
X180523253Y-96333902D01*
X180537867Y-96353607D01*
X180550480Y-96374651D01*
X180560970Y-96396829D01*
X180569235Y-96419929D01*
X180575196Y-96443727D01*
X180578796Y-96467996D01*
X180580000Y-96492500D01*
X180580000Y-97417500D01*
X180578796Y-97442004D01*
X180575196Y-97466273D01*
X180569235Y-97490071D01*
X180560970Y-97513171D01*
X180550480Y-97535349D01*
X180537867Y-97556393D01*
X180523253Y-97576098D01*
X180506777Y-97594277D01*
X180488598Y-97610753D01*
X180468893Y-97625367D01*
X180447849Y-97637980D01*
X180425671Y-97648470D01*
X180402571Y-97656735D01*
X180378773Y-97662696D01*
X180354504Y-97666296D01*
X180330000Y-97667500D01*
X179080000Y-97667500D01*
X179055496Y-97666296D01*
X179031227Y-97662696D01*
X179007429Y-97656735D01*
X178984329Y-97648470D01*
X178962151Y-97637980D01*
X178941107Y-97625367D01*
X178921402Y-97610753D01*
X178903223Y-97594277D01*
X178886747Y-97576098D01*
X178872133Y-97556393D01*
X178859520Y-97535349D01*
X178849030Y-97513171D01*
X178840765Y-97490071D01*
X178834804Y-97466273D01*
X178831204Y-97442004D01*
X178830000Y-97417500D01*
X178830000Y-96492500D01*
X178831204Y-96467996D01*
X178834804Y-96443727D01*
X178840765Y-96419929D01*
X178849030Y-96396829D01*
X178859520Y-96374651D01*
X178872133Y-96353607D01*
X178886747Y-96333902D01*
X178903223Y-96315723D01*
X178921402Y-96299247D01*
X178941107Y-96284633D01*
X178962151Y-96272020D01*
X178984329Y-96261530D01*
X179007429Y-96253265D01*
X179031227Y-96247304D01*
X179055496Y-96243704D01*
X179080000Y-96242500D01*
X180330000Y-96242500D01*
X180354504Y-96243704D01*
G37*
G04 #@! TD.AperFunction*
G04 #@! TA.AperFunction,SMDPad,CuDef*
G36*
X176544504Y-96243704D02*
G01*
X176568773Y-96247304D01*
X176592571Y-96253265D01*
X176615671Y-96261530D01*
X176637849Y-96272020D01*
X176658893Y-96284633D01*
X176678598Y-96299247D01*
X176696777Y-96315723D01*
X176713253Y-96333902D01*
X176727867Y-96353607D01*
X176740480Y-96374651D01*
X176750970Y-96396829D01*
X176759235Y-96419929D01*
X176765196Y-96443727D01*
X176768796Y-96467996D01*
X176770000Y-96492500D01*
X176770000Y-97417500D01*
X176768796Y-97442004D01*
X176765196Y-97466273D01*
X176759235Y-97490071D01*
X176750970Y-97513171D01*
X176740480Y-97535349D01*
X176727867Y-97556393D01*
X176713253Y-97576098D01*
X176696777Y-97594277D01*
X176678598Y-97610753D01*
X176658893Y-97625367D01*
X176637849Y-97637980D01*
X176615671Y-97648470D01*
X176592571Y-97656735D01*
X176568773Y-97662696D01*
X176544504Y-97666296D01*
X176520000Y-97667500D01*
X175270000Y-97667500D01*
X175245496Y-97666296D01*
X175221227Y-97662696D01*
X175197429Y-97656735D01*
X175174329Y-97648470D01*
X175152151Y-97637980D01*
X175131107Y-97625367D01*
X175111402Y-97610753D01*
X175093223Y-97594277D01*
X175076747Y-97576098D01*
X175062133Y-97556393D01*
X175049520Y-97535349D01*
X175039030Y-97513171D01*
X175030765Y-97490071D01*
X175024804Y-97466273D01*
X175021204Y-97442004D01*
X175020000Y-97417500D01*
X175020000Y-96492500D01*
X175021204Y-96467996D01*
X175024804Y-96443727D01*
X175030765Y-96419929D01*
X175039030Y-96396829D01*
X175049520Y-96374651D01*
X175062133Y-96353607D01*
X175076747Y-96333902D01*
X175093223Y-96315723D01*
X175111402Y-96299247D01*
X175131107Y-96284633D01*
X175152151Y-96272020D01*
X175174329Y-96261530D01*
X175197429Y-96253265D01*
X175221227Y-96247304D01*
X175245496Y-96243704D01*
X175270000Y-96242500D01*
X176520000Y-96242500D01*
X176544504Y-96243704D01*
G37*
G04 #@! TD.AperFunction*
G04 #@! TA.AperFunction,SMDPad,CuDef*
G36*
X176544504Y-93268704D02*
G01*
X176568773Y-93272304D01*
X176592571Y-93278265D01*
X176615671Y-93286530D01*
X176637849Y-93297020D01*
X176658893Y-93309633D01*
X176678598Y-93324247D01*
X176696777Y-93340723D01*
X176713253Y-93358902D01*
X176727867Y-93378607D01*
X176740480Y-93399651D01*
X176750970Y-93421829D01*
X176759235Y-93444929D01*
X176765196Y-93468727D01*
X176768796Y-93492996D01*
X176770000Y-93517500D01*
X176770000Y-94442500D01*
X176768796Y-94467004D01*
X176765196Y-94491273D01*
X176759235Y-94515071D01*
X176750970Y-94538171D01*
X176740480Y-94560349D01*
X176727867Y-94581393D01*
X176713253Y-94601098D01*
X176696777Y-94619277D01*
X176678598Y-94635753D01*
X176658893Y-94650367D01*
X176637849Y-94662980D01*
X176615671Y-94673470D01*
X176592571Y-94681735D01*
X176568773Y-94687696D01*
X176544504Y-94691296D01*
X176520000Y-94692500D01*
X175270000Y-94692500D01*
X175245496Y-94691296D01*
X175221227Y-94687696D01*
X175197429Y-94681735D01*
X175174329Y-94673470D01*
X175152151Y-94662980D01*
X175131107Y-94650367D01*
X175111402Y-94635753D01*
X175093223Y-94619277D01*
X175076747Y-94601098D01*
X175062133Y-94581393D01*
X175049520Y-94560349D01*
X175039030Y-94538171D01*
X175030765Y-94515071D01*
X175024804Y-94491273D01*
X175021204Y-94467004D01*
X175020000Y-94442500D01*
X175020000Y-93517500D01*
X175021204Y-93492996D01*
X175024804Y-93468727D01*
X175030765Y-93444929D01*
X175039030Y-93421829D01*
X175049520Y-93399651D01*
X175062133Y-93378607D01*
X175076747Y-93358902D01*
X175093223Y-93340723D01*
X175111402Y-93324247D01*
X175131107Y-93309633D01*
X175152151Y-93297020D01*
X175174329Y-93286530D01*
X175197429Y-93278265D01*
X175221227Y-93272304D01*
X175245496Y-93268704D01*
X175270000Y-93267500D01*
X176520000Y-93267500D01*
X176544504Y-93268704D01*
G37*
G04 #@! TD.AperFunction*
D16*
X165735000Y-97790000D03*
D17*
X155575000Y-97790000D03*
D18*
X156425000Y-90805000D03*
X161925000Y-90805000D03*
X156425000Y-93980000D03*
X161925000Y-93980000D03*
G04 #@! TA.AperFunction,SMDPad,CuDef*
D15*
G36*
X160369505Y-86931204D02*
G01*
X160393773Y-86934804D01*
X160417572Y-86940765D01*
X160440671Y-86949030D01*
X160462850Y-86959520D01*
X160483893Y-86972132D01*
X160503599Y-86986747D01*
X160521777Y-87003223D01*
X160538253Y-87021401D01*
X160552868Y-87041107D01*
X160565480Y-87062150D01*
X160575970Y-87084329D01*
X160584235Y-87107428D01*
X160590196Y-87131227D01*
X160593796Y-87155495D01*
X160595000Y-87179999D01*
X160595000Y-88080001D01*
X160593796Y-88104505D01*
X160590196Y-88128773D01*
X160584235Y-88152572D01*
X160575970Y-88175671D01*
X160565480Y-88197850D01*
X160552868Y-88218893D01*
X160538253Y-88238599D01*
X160521777Y-88256777D01*
X160503599Y-88273253D01*
X160483893Y-88287868D01*
X160462850Y-88300480D01*
X160440671Y-88310970D01*
X160417572Y-88319235D01*
X160393773Y-88325196D01*
X160369505Y-88328796D01*
X160345001Y-88330000D01*
X159694999Y-88330000D01*
X159670495Y-88328796D01*
X159646227Y-88325196D01*
X159622428Y-88319235D01*
X159599329Y-88310970D01*
X159577150Y-88300480D01*
X159556107Y-88287868D01*
X159536401Y-88273253D01*
X159518223Y-88256777D01*
X159501747Y-88238599D01*
X159487132Y-88218893D01*
X159474520Y-88197850D01*
X159464030Y-88175671D01*
X159455765Y-88152572D01*
X159449804Y-88128773D01*
X159446204Y-88104505D01*
X159445000Y-88080001D01*
X159445000Y-87179999D01*
X159446204Y-87155495D01*
X159449804Y-87131227D01*
X159455765Y-87107428D01*
X159464030Y-87084329D01*
X159474520Y-87062150D01*
X159487132Y-87041107D01*
X159501747Y-87021401D01*
X159518223Y-87003223D01*
X159536401Y-86986747D01*
X159556107Y-86972132D01*
X159577150Y-86959520D01*
X159599329Y-86949030D01*
X159622428Y-86940765D01*
X159646227Y-86934804D01*
X159670495Y-86931204D01*
X159694999Y-86930000D01*
X160345001Y-86930000D01*
X160369505Y-86931204D01*
G37*
G04 #@! TD.AperFunction*
G04 #@! TA.AperFunction,SMDPad,CuDef*
G36*
X158319505Y-86931204D02*
G01*
X158343773Y-86934804D01*
X158367572Y-86940765D01*
X158390671Y-86949030D01*
X158412850Y-86959520D01*
X158433893Y-86972132D01*
X158453599Y-86986747D01*
X158471777Y-87003223D01*
X158488253Y-87021401D01*
X158502868Y-87041107D01*
X158515480Y-87062150D01*
X158525970Y-87084329D01*
X158534235Y-87107428D01*
X158540196Y-87131227D01*
X158543796Y-87155495D01*
X158545000Y-87179999D01*
X158545000Y-88080001D01*
X158543796Y-88104505D01*
X158540196Y-88128773D01*
X158534235Y-88152572D01*
X158525970Y-88175671D01*
X158515480Y-88197850D01*
X158502868Y-88218893D01*
X158488253Y-88238599D01*
X158471777Y-88256777D01*
X158453599Y-88273253D01*
X158433893Y-88287868D01*
X158412850Y-88300480D01*
X158390671Y-88310970D01*
X158367572Y-88319235D01*
X158343773Y-88325196D01*
X158319505Y-88328796D01*
X158295001Y-88330000D01*
X157644999Y-88330000D01*
X157620495Y-88328796D01*
X157596227Y-88325196D01*
X157572428Y-88319235D01*
X157549329Y-88310970D01*
X157527150Y-88300480D01*
X157506107Y-88287868D01*
X157486401Y-88273253D01*
X157468223Y-88256777D01*
X157451747Y-88238599D01*
X157437132Y-88218893D01*
X157424520Y-88197850D01*
X157414030Y-88175671D01*
X157405765Y-88152572D01*
X157399804Y-88128773D01*
X157396204Y-88104505D01*
X157395000Y-88080001D01*
X157395000Y-87179999D01*
X157396204Y-87155495D01*
X157399804Y-87131227D01*
X157405765Y-87107428D01*
X157414030Y-87084329D01*
X157424520Y-87062150D01*
X157437132Y-87041107D01*
X157451747Y-87021401D01*
X157468223Y-87003223D01*
X157486401Y-86986747D01*
X157506107Y-86972132D01*
X157527150Y-86959520D01*
X157549329Y-86949030D01*
X157572428Y-86940765D01*
X157596227Y-86934804D01*
X157620495Y-86931204D01*
X157644999Y-86930000D01*
X158295001Y-86930000D01*
X158319505Y-86931204D01*
G37*
G04 #@! TD.AperFunction*
G04 #@! TA.AperFunction,SMDPad,CuDef*
G36*
X166719505Y-86931204D02*
G01*
X166743773Y-86934804D01*
X166767572Y-86940765D01*
X166790671Y-86949030D01*
X166812850Y-86959520D01*
X166833893Y-86972132D01*
X166853599Y-86986747D01*
X166871777Y-87003223D01*
X166888253Y-87021401D01*
X166902868Y-87041107D01*
X166915480Y-87062150D01*
X166925970Y-87084329D01*
X166934235Y-87107428D01*
X166940196Y-87131227D01*
X166943796Y-87155495D01*
X166945000Y-87179999D01*
X166945000Y-88080001D01*
X166943796Y-88104505D01*
X166940196Y-88128773D01*
X166934235Y-88152572D01*
X166925970Y-88175671D01*
X166915480Y-88197850D01*
X166902868Y-88218893D01*
X166888253Y-88238599D01*
X166871777Y-88256777D01*
X166853599Y-88273253D01*
X166833893Y-88287868D01*
X166812850Y-88300480D01*
X166790671Y-88310970D01*
X166767572Y-88319235D01*
X166743773Y-88325196D01*
X166719505Y-88328796D01*
X166695001Y-88330000D01*
X166044999Y-88330000D01*
X166020495Y-88328796D01*
X165996227Y-88325196D01*
X165972428Y-88319235D01*
X165949329Y-88310970D01*
X165927150Y-88300480D01*
X165906107Y-88287868D01*
X165886401Y-88273253D01*
X165868223Y-88256777D01*
X165851747Y-88238599D01*
X165837132Y-88218893D01*
X165824520Y-88197850D01*
X165814030Y-88175671D01*
X165805765Y-88152572D01*
X165799804Y-88128773D01*
X165796204Y-88104505D01*
X165795000Y-88080001D01*
X165795000Y-87179999D01*
X165796204Y-87155495D01*
X165799804Y-87131227D01*
X165805765Y-87107428D01*
X165814030Y-87084329D01*
X165824520Y-87062150D01*
X165837132Y-87041107D01*
X165851747Y-87021401D01*
X165868223Y-87003223D01*
X165886401Y-86986747D01*
X165906107Y-86972132D01*
X165927150Y-86959520D01*
X165949329Y-86949030D01*
X165972428Y-86940765D01*
X165996227Y-86934804D01*
X166020495Y-86931204D01*
X166044999Y-86930000D01*
X166695001Y-86930000D01*
X166719505Y-86931204D01*
G37*
G04 #@! TD.AperFunction*
G04 #@! TA.AperFunction,SMDPad,CuDef*
G36*
X164669505Y-86931204D02*
G01*
X164693773Y-86934804D01*
X164717572Y-86940765D01*
X164740671Y-86949030D01*
X164762850Y-86959520D01*
X164783893Y-86972132D01*
X164803599Y-86986747D01*
X164821777Y-87003223D01*
X164838253Y-87021401D01*
X164852868Y-87041107D01*
X164865480Y-87062150D01*
X164875970Y-87084329D01*
X164884235Y-87107428D01*
X164890196Y-87131227D01*
X164893796Y-87155495D01*
X164895000Y-87179999D01*
X164895000Y-88080001D01*
X164893796Y-88104505D01*
X164890196Y-88128773D01*
X164884235Y-88152572D01*
X164875970Y-88175671D01*
X164865480Y-88197850D01*
X164852868Y-88218893D01*
X164838253Y-88238599D01*
X164821777Y-88256777D01*
X164803599Y-88273253D01*
X164783893Y-88287868D01*
X164762850Y-88300480D01*
X164740671Y-88310970D01*
X164717572Y-88319235D01*
X164693773Y-88325196D01*
X164669505Y-88328796D01*
X164645001Y-88330000D01*
X163994999Y-88330000D01*
X163970495Y-88328796D01*
X163946227Y-88325196D01*
X163922428Y-88319235D01*
X163899329Y-88310970D01*
X163877150Y-88300480D01*
X163856107Y-88287868D01*
X163836401Y-88273253D01*
X163818223Y-88256777D01*
X163801747Y-88238599D01*
X163787132Y-88218893D01*
X163774520Y-88197850D01*
X163764030Y-88175671D01*
X163755765Y-88152572D01*
X163749804Y-88128773D01*
X163746204Y-88104505D01*
X163745000Y-88080001D01*
X163745000Y-87179999D01*
X163746204Y-87155495D01*
X163749804Y-87131227D01*
X163755765Y-87107428D01*
X163764030Y-87084329D01*
X163774520Y-87062150D01*
X163787132Y-87041107D01*
X163801747Y-87021401D01*
X163818223Y-87003223D01*
X163836401Y-86986747D01*
X163856107Y-86972132D01*
X163877150Y-86959520D01*
X163899329Y-86949030D01*
X163922428Y-86940765D01*
X163946227Y-86934804D01*
X163970495Y-86931204D01*
X163994999Y-86930000D01*
X164645001Y-86930000D01*
X164669505Y-86931204D01*
G37*
G04 #@! TD.AperFunction*
G04 #@! TA.AperFunction,SMDPad,CuDef*
G36*
X160369505Y-83121204D02*
G01*
X160393773Y-83124804D01*
X160417572Y-83130765D01*
X160440671Y-83139030D01*
X160462850Y-83149520D01*
X160483893Y-83162132D01*
X160503599Y-83176747D01*
X160521777Y-83193223D01*
X160538253Y-83211401D01*
X160552868Y-83231107D01*
X160565480Y-83252150D01*
X160575970Y-83274329D01*
X160584235Y-83297428D01*
X160590196Y-83321227D01*
X160593796Y-83345495D01*
X160595000Y-83369999D01*
X160595000Y-84270001D01*
X160593796Y-84294505D01*
X160590196Y-84318773D01*
X160584235Y-84342572D01*
X160575970Y-84365671D01*
X160565480Y-84387850D01*
X160552868Y-84408893D01*
X160538253Y-84428599D01*
X160521777Y-84446777D01*
X160503599Y-84463253D01*
X160483893Y-84477868D01*
X160462850Y-84490480D01*
X160440671Y-84500970D01*
X160417572Y-84509235D01*
X160393773Y-84515196D01*
X160369505Y-84518796D01*
X160345001Y-84520000D01*
X159694999Y-84520000D01*
X159670495Y-84518796D01*
X159646227Y-84515196D01*
X159622428Y-84509235D01*
X159599329Y-84500970D01*
X159577150Y-84490480D01*
X159556107Y-84477868D01*
X159536401Y-84463253D01*
X159518223Y-84446777D01*
X159501747Y-84428599D01*
X159487132Y-84408893D01*
X159474520Y-84387850D01*
X159464030Y-84365671D01*
X159455765Y-84342572D01*
X159449804Y-84318773D01*
X159446204Y-84294505D01*
X159445000Y-84270001D01*
X159445000Y-83369999D01*
X159446204Y-83345495D01*
X159449804Y-83321227D01*
X159455765Y-83297428D01*
X159464030Y-83274329D01*
X159474520Y-83252150D01*
X159487132Y-83231107D01*
X159501747Y-83211401D01*
X159518223Y-83193223D01*
X159536401Y-83176747D01*
X159556107Y-83162132D01*
X159577150Y-83149520D01*
X159599329Y-83139030D01*
X159622428Y-83130765D01*
X159646227Y-83124804D01*
X159670495Y-83121204D01*
X159694999Y-83120000D01*
X160345001Y-83120000D01*
X160369505Y-83121204D01*
G37*
G04 #@! TD.AperFunction*
G04 #@! TA.AperFunction,SMDPad,CuDef*
G36*
X158319505Y-83121204D02*
G01*
X158343773Y-83124804D01*
X158367572Y-83130765D01*
X158390671Y-83139030D01*
X158412850Y-83149520D01*
X158433893Y-83162132D01*
X158453599Y-83176747D01*
X158471777Y-83193223D01*
X158488253Y-83211401D01*
X158502868Y-83231107D01*
X158515480Y-83252150D01*
X158525970Y-83274329D01*
X158534235Y-83297428D01*
X158540196Y-83321227D01*
X158543796Y-83345495D01*
X158545000Y-83369999D01*
X158545000Y-84270001D01*
X158543796Y-84294505D01*
X158540196Y-84318773D01*
X158534235Y-84342572D01*
X158525970Y-84365671D01*
X158515480Y-84387850D01*
X158502868Y-84408893D01*
X158488253Y-84428599D01*
X158471777Y-84446777D01*
X158453599Y-84463253D01*
X158433893Y-84477868D01*
X158412850Y-84490480D01*
X158390671Y-84500970D01*
X158367572Y-84509235D01*
X158343773Y-84515196D01*
X158319505Y-84518796D01*
X158295001Y-84520000D01*
X157644999Y-84520000D01*
X157620495Y-84518796D01*
X157596227Y-84515196D01*
X157572428Y-84509235D01*
X157549329Y-84500970D01*
X157527150Y-84490480D01*
X157506107Y-84477868D01*
X157486401Y-84463253D01*
X157468223Y-84446777D01*
X157451747Y-84428599D01*
X157437132Y-84408893D01*
X157424520Y-84387850D01*
X157414030Y-84365671D01*
X157405765Y-84342572D01*
X157399804Y-84318773D01*
X157396204Y-84294505D01*
X157395000Y-84270001D01*
X157395000Y-83369999D01*
X157396204Y-83345495D01*
X157399804Y-83321227D01*
X157405765Y-83297428D01*
X157414030Y-83274329D01*
X157424520Y-83252150D01*
X157437132Y-83231107D01*
X157451747Y-83211401D01*
X157468223Y-83193223D01*
X157486401Y-83176747D01*
X157506107Y-83162132D01*
X157527150Y-83149520D01*
X157549329Y-83139030D01*
X157572428Y-83130765D01*
X157596227Y-83124804D01*
X157620495Y-83121204D01*
X157644999Y-83120000D01*
X158295001Y-83120000D01*
X158319505Y-83121204D01*
G37*
G04 #@! TD.AperFunction*
G04 #@! TA.AperFunction,SMDPad,CuDef*
G36*
X164669505Y-83121204D02*
G01*
X164693773Y-83124804D01*
X164717572Y-83130765D01*
X164740671Y-83139030D01*
X164762850Y-83149520D01*
X164783893Y-83162132D01*
X164803599Y-83176747D01*
X164821777Y-83193223D01*
X164838253Y-83211401D01*
X164852868Y-83231107D01*
X164865480Y-83252150D01*
X164875970Y-83274329D01*
X164884235Y-83297428D01*
X164890196Y-83321227D01*
X164893796Y-83345495D01*
X164895000Y-83369999D01*
X164895000Y-84270001D01*
X164893796Y-84294505D01*
X164890196Y-84318773D01*
X164884235Y-84342572D01*
X164875970Y-84365671D01*
X164865480Y-84387850D01*
X164852868Y-84408893D01*
X164838253Y-84428599D01*
X164821777Y-84446777D01*
X164803599Y-84463253D01*
X164783893Y-84477868D01*
X164762850Y-84490480D01*
X164740671Y-84500970D01*
X164717572Y-84509235D01*
X164693773Y-84515196D01*
X164669505Y-84518796D01*
X164645001Y-84520000D01*
X163994999Y-84520000D01*
X163970495Y-84518796D01*
X163946227Y-84515196D01*
X163922428Y-84509235D01*
X163899329Y-84500970D01*
X163877150Y-84490480D01*
X163856107Y-84477868D01*
X163836401Y-84463253D01*
X163818223Y-84446777D01*
X163801747Y-84428599D01*
X163787132Y-84408893D01*
X163774520Y-84387850D01*
X163764030Y-84365671D01*
X163755765Y-84342572D01*
X163749804Y-84318773D01*
X163746204Y-84294505D01*
X163745000Y-84270001D01*
X163745000Y-83369999D01*
X163746204Y-83345495D01*
X163749804Y-83321227D01*
X163755765Y-83297428D01*
X163764030Y-83274329D01*
X163774520Y-83252150D01*
X163787132Y-83231107D01*
X163801747Y-83211401D01*
X163818223Y-83193223D01*
X163836401Y-83176747D01*
X163856107Y-83162132D01*
X163877150Y-83149520D01*
X163899329Y-83139030D01*
X163922428Y-83130765D01*
X163946227Y-83124804D01*
X163970495Y-83121204D01*
X163994999Y-83120000D01*
X164645001Y-83120000D01*
X164669505Y-83121204D01*
G37*
G04 #@! TD.AperFunction*
G04 #@! TA.AperFunction,SMDPad,CuDef*
G36*
X166719505Y-83121204D02*
G01*
X166743773Y-83124804D01*
X166767572Y-83130765D01*
X166790671Y-83139030D01*
X166812850Y-83149520D01*
X166833893Y-83162132D01*
X166853599Y-83176747D01*
X166871777Y-83193223D01*
X166888253Y-83211401D01*
X166902868Y-83231107D01*
X166915480Y-83252150D01*
X166925970Y-83274329D01*
X166934235Y-83297428D01*
X166940196Y-83321227D01*
X166943796Y-83345495D01*
X166945000Y-83369999D01*
X166945000Y-84270001D01*
X166943796Y-84294505D01*
X166940196Y-84318773D01*
X166934235Y-84342572D01*
X166925970Y-84365671D01*
X166915480Y-84387850D01*
X166902868Y-84408893D01*
X166888253Y-84428599D01*
X166871777Y-84446777D01*
X166853599Y-84463253D01*
X166833893Y-84477868D01*
X166812850Y-84490480D01*
X166790671Y-84500970D01*
X166767572Y-84509235D01*
X166743773Y-84515196D01*
X166719505Y-84518796D01*
X166695001Y-84520000D01*
X166044999Y-84520000D01*
X166020495Y-84518796D01*
X165996227Y-84515196D01*
X165972428Y-84509235D01*
X165949329Y-84500970D01*
X165927150Y-84490480D01*
X165906107Y-84477868D01*
X165886401Y-84463253D01*
X165868223Y-84446777D01*
X165851747Y-84428599D01*
X165837132Y-84408893D01*
X165824520Y-84387850D01*
X165814030Y-84365671D01*
X165805765Y-84342572D01*
X165799804Y-84318773D01*
X165796204Y-84294505D01*
X165795000Y-84270001D01*
X165795000Y-83369999D01*
X165796204Y-83345495D01*
X165799804Y-83321227D01*
X165805765Y-83297428D01*
X165814030Y-83274329D01*
X165824520Y-83252150D01*
X165837132Y-83231107D01*
X165851747Y-83211401D01*
X165868223Y-83193223D01*
X165886401Y-83176747D01*
X165906107Y-83162132D01*
X165927150Y-83149520D01*
X165949329Y-83139030D01*
X165972428Y-83130765D01*
X165996227Y-83124804D01*
X166020495Y-83121204D01*
X166044999Y-83120000D01*
X166695001Y-83120000D01*
X166719505Y-83121204D01*
G37*
G04 #@! TD.AperFunction*
G04 #@! TA.AperFunction,SMDPad,CuDef*
G36*
X162274505Y-127571204D02*
G01*
X162298773Y-127574804D01*
X162322572Y-127580765D01*
X162345671Y-127589030D01*
X162367850Y-127599520D01*
X162388893Y-127612132D01*
X162408599Y-127626747D01*
X162426777Y-127643223D01*
X162443253Y-127661401D01*
X162457868Y-127681107D01*
X162470480Y-127702150D01*
X162480970Y-127724329D01*
X162489235Y-127747428D01*
X162495196Y-127771227D01*
X162498796Y-127795495D01*
X162500000Y-127819999D01*
X162500000Y-128720001D01*
X162498796Y-128744505D01*
X162495196Y-128768773D01*
X162489235Y-128792572D01*
X162480970Y-128815671D01*
X162470480Y-128837850D01*
X162457868Y-128858893D01*
X162443253Y-128878599D01*
X162426777Y-128896777D01*
X162408599Y-128913253D01*
X162388893Y-128927868D01*
X162367850Y-128940480D01*
X162345671Y-128950970D01*
X162322572Y-128959235D01*
X162298773Y-128965196D01*
X162274505Y-128968796D01*
X162250001Y-128970000D01*
X161599999Y-128970000D01*
X161575495Y-128968796D01*
X161551227Y-128965196D01*
X161527428Y-128959235D01*
X161504329Y-128950970D01*
X161482150Y-128940480D01*
X161461107Y-128927868D01*
X161441401Y-128913253D01*
X161423223Y-128896777D01*
X161406747Y-128878599D01*
X161392132Y-128858893D01*
X161379520Y-128837850D01*
X161369030Y-128815671D01*
X161360765Y-128792572D01*
X161354804Y-128768773D01*
X161351204Y-128744505D01*
X161350000Y-128720001D01*
X161350000Y-127819999D01*
X161351204Y-127795495D01*
X161354804Y-127771227D01*
X161360765Y-127747428D01*
X161369030Y-127724329D01*
X161379520Y-127702150D01*
X161392132Y-127681107D01*
X161406747Y-127661401D01*
X161423223Y-127643223D01*
X161441401Y-127626747D01*
X161461107Y-127612132D01*
X161482150Y-127599520D01*
X161504329Y-127589030D01*
X161527428Y-127580765D01*
X161551227Y-127574804D01*
X161575495Y-127571204D01*
X161599999Y-127570000D01*
X162250001Y-127570000D01*
X162274505Y-127571204D01*
G37*
G04 #@! TD.AperFunction*
G04 #@! TA.AperFunction,SMDPad,CuDef*
G36*
X164324505Y-127571204D02*
G01*
X164348773Y-127574804D01*
X164372572Y-127580765D01*
X164395671Y-127589030D01*
X164417850Y-127599520D01*
X164438893Y-127612132D01*
X164458599Y-127626747D01*
X164476777Y-127643223D01*
X164493253Y-127661401D01*
X164507868Y-127681107D01*
X164520480Y-127702150D01*
X164530970Y-127724329D01*
X164539235Y-127747428D01*
X164545196Y-127771227D01*
X164548796Y-127795495D01*
X164550000Y-127819999D01*
X164550000Y-128720001D01*
X164548796Y-128744505D01*
X164545196Y-128768773D01*
X164539235Y-128792572D01*
X164530970Y-128815671D01*
X164520480Y-128837850D01*
X164507868Y-128858893D01*
X164493253Y-128878599D01*
X164476777Y-128896777D01*
X164458599Y-128913253D01*
X164438893Y-128927868D01*
X164417850Y-128940480D01*
X164395671Y-128950970D01*
X164372572Y-128959235D01*
X164348773Y-128965196D01*
X164324505Y-128968796D01*
X164300001Y-128970000D01*
X163649999Y-128970000D01*
X163625495Y-128968796D01*
X163601227Y-128965196D01*
X163577428Y-128959235D01*
X163554329Y-128950970D01*
X163532150Y-128940480D01*
X163511107Y-128927868D01*
X163491401Y-128913253D01*
X163473223Y-128896777D01*
X163456747Y-128878599D01*
X163442132Y-128858893D01*
X163429520Y-128837850D01*
X163419030Y-128815671D01*
X163410765Y-128792572D01*
X163404804Y-128768773D01*
X163401204Y-128744505D01*
X163400000Y-128720001D01*
X163400000Y-127819999D01*
X163401204Y-127795495D01*
X163404804Y-127771227D01*
X163410765Y-127747428D01*
X163419030Y-127724329D01*
X163429520Y-127702150D01*
X163442132Y-127681107D01*
X163456747Y-127661401D01*
X163473223Y-127643223D01*
X163491401Y-127626747D01*
X163511107Y-127612132D01*
X163532150Y-127599520D01*
X163554329Y-127589030D01*
X163577428Y-127580765D01*
X163601227Y-127574804D01*
X163625495Y-127571204D01*
X163649999Y-127570000D01*
X164300001Y-127570000D01*
X164324505Y-127571204D01*
G37*
G04 #@! TD.AperFunction*
G04 #@! TA.AperFunction,SMDPad,CuDef*
G36*
X176369505Y-101661204D02*
G01*
X176393773Y-101664804D01*
X176417572Y-101670765D01*
X176440671Y-101679030D01*
X176462850Y-101689520D01*
X176483893Y-101702132D01*
X176503599Y-101716747D01*
X176521777Y-101733223D01*
X176538253Y-101751401D01*
X176552868Y-101771107D01*
X176565480Y-101792150D01*
X176575970Y-101814329D01*
X176584235Y-101837428D01*
X176590196Y-101861227D01*
X176593796Y-101885495D01*
X176595000Y-101909999D01*
X176595000Y-102560001D01*
X176593796Y-102584505D01*
X176590196Y-102608773D01*
X176584235Y-102632572D01*
X176575970Y-102655671D01*
X176565480Y-102677850D01*
X176552868Y-102698893D01*
X176538253Y-102718599D01*
X176521777Y-102736777D01*
X176503599Y-102753253D01*
X176483893Y-102767868D01*
X176462850Y-102780480D01*
X176440671Y-102790970D01*
X176417572Y-102799235D01*
X176393773Y-102805196D01*
X176369505Y-102808796D01*
X176345001Y-102810000D01*
X175444999Y-102810000D01*
X175420495Y-102808796D01*
X175396227Y-102805196D01*
X175372428Y-102799235D01*
X175349329Y-102790970D01*
X175327150Y-102780480D01*
X175306107Y-102767868D01*
X175286401Y-102753253D01*
X175268223Y-102736777D01*
X175251747Y-102718599D01*
X175237132Y-102698893D01*
X175224520Y-102677850D01*
X175214030Y-102655671D01*
X175205765Y-102632572D01*
X175199804Y-102608773D01*
X175196204Y-102584505D01*
X175195000Y-102560001D01*
X175195000Y-101909999D01*
X175196204Y-101885495D01*
X175199804Y-101861227D01*
X175205765Y-101837428D01*
X175214030Y-101814329D01*
X175224520Y-101792150D01*
X175237132Y-101771107D01*
X175251747Y-101751401D01*
X175268223Y-101733223D01*
X175286401Y-101716747D01*
X175306107Y-101702132D01*
X175327150Y-101689520D01*
X175349329Y-101679030D01*
X175372428Y-101670765D01*
X175396227Y-101664804D01*
X175420495Y-101661204D01*
X175444999Y-101660000D01*
X176345001Y-101660000D01*
X176369505Y-101661204D01*
G37*
G04 #@! TD.AperFunction*
G04 #@! TA.AperFunction,SMDPad,CuDef*
G36*
X176369505Y-99611204D02*
G01*
X176393773Y-99614804D01*
X176417572Y-99620765D01*
X176440671Y-99629030D01*
X176462850Y-99639520D01*
X176483893Y-99652132D01*
X176503599Y-99666747D01*
X176521777Y-99683223D01*
X176538253Y-99701401D01*
X176552868Y-99721107D01*
X176565480Y-99742150D01*
X176575970Y-99764329D01*
X176584235Y-99787428D01*
X176590196Y-99811227D01*
X176593796Y-99835495D01*
X176595000Y-99859999D01*
X176595000Y-100510001D01*
X176593796Y-100534505D01*
X176590196Y-100558773D01*
X176584235Y-100582572D01*
X176575970Y-100605671D01*
X176565480Y-100627850D01*
X176552868Y-100648893D01*
X176538253Y-100668599D01*
X176521777Y-100686777D01*
X176503599Y-100703253D01*
X176483893Y-100717868D01*
X176462850Y-100730480D01*
X176440671Y-100740970D01*
X176417572Y-100749235D01*
X176393773Y-100755196D01*
X176369505Y-100758796D01*
X176345001Y-100760000D01*
X175444999Y-100760000D01*
X175420495Y-100758796D01*
X175396227Y-100755196D01*
X175372428Y-100749235D01*
X175349329Y-100740970D01*
X175327150Y-100730480D01*
X175306107Y-100717868D01*
X175286401Y-100703253D01*
X175268223Y-100686777D01*
X175251747Y-100668599D01*
X175237132Y-100648893D01*
X175224520Y-100627850D01*
X175214030Y-100605671D01*
X175205765Y-100582572D01*
X175199804Y-100558773D01*
X175196204Y-100534505D01*
X175195000Y-100510001D01*
X175195000Y-99859999D01*
X175196204Y-99835495D01*
X175199804Y-99811227D01*
X175205765Y-99787428D01*
X175214030Y-99764329D01*
X175224520Y-99742150D01*
X175237132Y-99721107D01*
X175251747Y-99701401D01*
X175268223Y-99683223D01*
X175286401Y-99666747D01*
X175306107Y-99652132D01*
X175327150Y-99639520D01*
X175349329Y-99629030D01*
X175372428Y-99620765D01*
X175396227Y-99614804D01*
X175420495Y-99611204D01*
X175444999Y-99610000D01*
X176345001Y-99610000D01*
X176369505Y-99611204D01*
G37*
G04 #@! TD.AperFunction*
G04 #@! TA.AperFunction,SMDPad,CuDef*
G36*
X172824505Y-97091204D02*
G01*
X172848773Y-97094804D01*
X172872572Y-97100765D01*
X172895671Y-97109030D01*
X172917850Y-97119520D01*
X172938893Y-97132132D01*
X172958599Y-97146747D01*
X172976777Y-97163223D01*
X172993253Y-97181401D01*
X173007868Y-97201107D01*
X173020480Y-97222150D01*
X173030970Y-97244329D01*
X173039235Y-97267428D01*
X173045196Y-97291227D01*
X173048796Y-97315495D01*
X173050000Y-97339999D01*
X173050000Y-98240001D01*
X173048796Y-98264505D01*
X173045196Y-98288773D01*
X173039235Y-98312572D01*
X173030970Y-98335671D01*
X173020480Y-98357850D01*
X173007868Y-98378893D01*
X172993253Y-98398599D01*
X172976777Y-98416777D01*
X172958599Y-98433253D01*
X172938893Y-98447868D01*
X172917850Y-98460480D01*
X172895671Y-98470970D01*
X172872572Y-98479235D01*
X172848773Y-98485196D01*
X172824505Y-98488796D01*
X172800001Y-98490000D01*
X172149999Y-98490000D01*
X172125495Y-98488796D01*
X172101227Y-98485196D01*
X172077428Y-98479235D01*
X172054329Y-98470970D01*
X172032150Y-98460480D01*
X172011107Y-98447868D01*
X171991401Y-98433253D01*
X171973223Y-98416777D01*
X171956747Y-98398599D01*
X171942132Y-98378893D01*
X171929520Y-98357850D01*
X171919030Y-98335671D01*
X171910765Y-98312572D01*
X171904804Y-98288773D01*
X171901204Y-98264505D01*
X171900000Y-98240001D01*
X171900000Y-97339999D01*
X171901204Y-97315495D01*
X171904804Y-97291227D01*
X171910765Y-97267428D01*
X171919030Y-97244329D01*
X171929520Y-97222150D01*
X171942132Y-97201107D01*
X171956747Y-97181401D01*
X171973223Y-97163223D01*
X171991401Y-97146747D01*
X172011107Y-97132132D01*
X172032150Y-97119520D01*
X172054329Y-97109030D01*
X172077428Y-97100765D01*
X172101227Y-97094804D01*
X172125495Y-97091204D01*
X172149999Y-97090000D01*
X172800001Y-97090000D01*
X172824505Y-97091204D01*
G37*
G04 #@! TD.AperFunction*
G04 #@! TA.AperFunction,SMDPad,CuDef*
G36*
X170774505Y-97091204D02*
G01*
X170798773Y-97094804D01*
X170822572Y-97100765D01*
X170845671Y-97109030D01*
X170867850Y-97119520D01*
X170888893Y-97132132D01*
X170908599Y-97146747D01*
X170926777Y-97163223D01*
X170943253Y-97181401D01*
X170957868Y-97201107D01*
X170970480Y-97222150D01*
X170980970Y-97244329D01*
X170989235Y-97267428D01*
X170995196Y-97291227D01*
X170998796Y-97315495D01*
X171000000Y-97339999D01*
X171000000Y-98240001D01*
X170998796Y-98264505D01*
X170995196Y-98288773D01*
X170989235Y-98312572D01*
X170980970Y-98335671D01*
X170970480Y-98357850D01*
X170957868Y-98378893D01*
X170943253Y-98398599D01*
X170926777Y-98416777D01*
X170908599Y-98433253D01*
X170888893Y-98447868D01*
X170867850Y-98460480D01*
X170845671Y-98470970D01*
X170822572Y-98479235D01*
X170798773Y-98485196D01*
X170774505Y-98488796D01*
X170750001Y-98490000D01*
X170099999Y-98490000D01*
X170075495Y-98488796D01*
X170051227Y-98485196D01*
X170027428Y-98479235D01*
X170004329Y-98470970D01*
X169982150Y-98460480D01*
X169961107Y-98447868D01*
X169941401Y-98433253D01*
X169923223Y-98416777D01*
X169906747Y-98398599D01*
X169892132Y-98378893D01*
X169879520Y-98357850D01*
X169869030Y-98335671D01*
X169860765Y-98312572D01*
X169854804Y-98288773D01*
X169851204Y-98264505D01*
X169850000Y-98240001D01*
X169850000Y-97339999D01*
X169851204Y-97315495D01*
X169854804Y-97291227D01*
X169860765Y-97267428D01*
X169869030Y-97244329D01*
X169879520Y-97222150D01*
X169892132Y-97201107D01*
X169906747Y-97181401D01*
X169923223Y-97163223D01*
X169941401Y-97146747D01*
X169961107Y-97132132D01*
X169982150Y-97119520D01*
X170004329Y-97109030D01*
X170027428Y-97100765D01*
X170051227Y-97094804D01*
X170075495Y-97091204D01*
X170099999Y-97090000D01*
X170750001Y-97090000D01*
X170774505Y-97091204D01*
G37*
G04 #@! TD.AperFunction*
G04 #@! TA.AperFunction,SMDPad,CuDef*
G36*
X179339703Y-105745722D02*
G01*
X179354264Y-105747882D01*
X179368543Y-105751459D01*
X179382403Y-105756418D01*
X179395710Y-105762712D01*
X179408336Y-105770280D01*
X179420159Y-105779048D01*
X179431066Y-105788934D01*
X179440952Y-105799841D01*
X179449720Y-105811664D01*
X179457288Y-105824290D01*
X179463582Y-105837597D01*
X179468541Y-105851457D01*
X179472118Y-105865736D01*
X179474278Y-105880297D01*
X179475000Y-105895000D01*
X179475000Y-106195000D01*
X179474278Y-106209703D01*
X179472118Y-106224264D01*
X179468541Y-106238543D01*
X179463582Y-106252403D01*
X179457288Y-106265710D01*
X179449720Y-106278336D01*
X179440952Y-106290159D01*
X179431066Y-106301066D01*
X179420159Y-106310952D01*
X179408336Y-106319720D01*
X179395710Y-106327288D01*
X179382403Y-106333582D01*
X179368543Y-106338541D01*
X179354264Y-106342118D01*
X179339703Y-106344278D01*
X179325000Y-106345000D01*
X177675000Y-106345000D01*
X177660297Y-106344278D01*
X177645736Y-106342118D01*
X177631457Y-106338541D01*
X177617597Y-106333582D01*
X177604290Y-106327288D01*
X177591664Y-106319720D01*
X177579841Y-106310952D01*
X177568934Y-106301066D01*
X177559048Y-106290159D01*
X177550280Y-106278336D01*
X177542712Y-106265710D01*
X177536418Y-106252403D01*
X177531459Y-106238543D01*
X177527882Y-106224264D01*
X177525722Y-106209703D01*
X177525000Y-106195000D01*
X177525000Y-105895000D01*
X177525722Y-105880297D01*
X177527882Y-105865736D01*
X177531459Y-105851457D01*
X177536418Y-105837597D01*
X177542712Y-105824290D01*
X177550280Y-105811664D01*
X177559048Y-105799841D01*
X177568934Y-105788934D01*
X177579841Y-105779048D01*
X177591664Y-105770280D01*
X177604290Y-105762712D01*
X177617597Y-105756418D01*
X177631457Y-105751459D01*
X177645736Y-105747882D01*
X177660297Y-105745722D01*
X177675000Y-105745000D01*
X179325000Y-105745000D01*
X179339703Y-105745722D01*
G37*
G04 #@! TD.AperFunction*
G04 #@! TA.AperFunction,SMDPad,CuDef*
G36*
X179339703Y-107015722D02*
G01*
X179354264Y-107017882D01*
X179368543Y-107021459D01*
X179382403Y-107026418D01*
X179395710Y-107032712D01*
X179408336Y-107040280D01*
X179420159Y-107049048D01*
X179431066Y-107058934D01*
X179440952Y-107069841D01*
X179449720Y-107081664D01*
X179457288Y-107094290D01*
X179463582Y-107107597D01*
X179468541Y-107121457D01*
X179472118Y-107135736D01*
X179474278Y-107150297D01*
X179475000Y-107165000D01*
X179475000Y-107465000D01*
X179474278Y-107479703D01*
X179472118Y-107494264D01*
X179468541Y-107508543D01*
X179463582Y-107522403D01*
X179457288Y-107535710D01*
X179449720Y-107548336D01*
X179440952Y-107560159D01*
X179431066Y-107571066D01*
X179420159Y-107580952D01*
X179408336Y-107589720D01*
X179395710Y-107597288D01*
X179382403Y-107603582D01*
X179368543Y-107608541D01*
X179354264Y-107612118D01*
X179339703Y-107614278D01*
X179325000Y-107615000D01*
X177675000Y-107615000D01*
X177660297Y-107614278D01*
X177645736Y-107612118D01*
X177631457Y-107608541D01*
X177617597Y-107603582D01*
X177604290Y-107597288D01*
X177591664Y-107589720D01*
X177579841Y-107580952D01*
X177568934Y-107571066D01*
X177559048Y-107560159D01*
X177550280Y-107548336D01*
X177542712Y-107535710D01*
X177536418Y-107522403D01*
X177531459Y-107508543D01*
X177527882Y-107494264D01*
X177525722Y-107479703D01*
X177525000Y-107465000D01*
X177525000Y-107165000D01*
X177525722Y-107150297D01*
X177527882Y-107135736D01*
X177531459Y-107121457D01*
X177536418Y-107107597D01*
X177542712Y-107094290D01*
X177550280Y-107081664D01*
X177559048Y-107069841D01*
X177568934Y-107058934D01*
X177579841Y-107049048D01*
X177591664Y-107040280D01*
X177604290Y-107032712D01*
X177617597Y-107026418D01*
X177631457Y-107021459D01*
X177645736Y-107017882D01*
X177660297Y-107015722D01*
X177675000Y-107015000D01*
X179325000Y-107015000D01*
X179339703Y-107015722D01*
G37*
G04 #@! TD.AperFunction*
G04 #@! TA.AperFunction,SMDPad,CuDef*
G36*
X179339703Y-108285722D02*
G01*
X179354264Y-108287882D01*
X179368543Y-108291459D01*
X179382403Y-108296418D01*
X179395710Y-108302712D01*
X179408336Y-108310280D01*
X179420159Y-108319048D01*
X179431066Y-108328934D01*
X179440952Y-108339841D01*
X179449720Y-108351664D01*
X179457288Y-108364290D01*
X179463582Y-108377597D01*
X179468541Y-108391457D01*
X179472118Y-108405736D01*
X179474278Y-108420297D01*
X179475000Y-108435000D01*
X179475000Y-108735000D01*
X179474278Y-108749703D01*
X179472118Y-108764264D01*
X179468541Y-108778543D01*
X179463582Y-108792403D01*
X179457288Y-108805710D01*
X179449720Y-108818336D01*
X179440952Y-108830159D01*
X179431066Y-108841066D01*
X179420159Y-108850952D01*
X179408336Y-108859720D01*
X179395710Y-108867288D01*
X179382403Y-108873582D01*
X179368543Y-108878541D01*
X179354264Y-108882118D01*
X179339703Y-108884278D01*
X179325000Y-108885000D01*
X177675000Y-108885000D01*
X177660297Y-108884278D01*
X177645736Y-108882118D01*
X177631457Y-108878541D01*
X177617597Y-108873582D01*
X177604290Y-108867288D01*
X177591664Y-108859720D01*
X177579841Y-108850952D01*
X177568934Y-108841066D01*
X177559048Y-108830159D01*
X177550280Y-108818336D01*
X177542712Y-108805710D01*
X177536418Y-108792403D01*
X177531459Y-108778543D01*
X177527882Y-108764264D01*
X177525722Y-108749703D01*
X177525000Y-108735000D01*
X177525000Y-108435000D01*
X177525722Y-108420297D01*
X177527882Y-108405736D01*
X177531459Y-108391457D01*
X177536418Y-108377597D01*
X177542712Y-108364290D01*
X177550280Y-108351664D01*
X177559048Y-108339841D01*
X177568934Y-108328934D01*
X177579841Y-108319048D01*
X177591664Y-108310280D01*
X177604290Y-108302712D01*
X177617597Y-108296418D01*
X177631457Y-108291459D01*
X177645736Y-108287882D01*
X177660297Y-108285722D01*
X177675000Y-108285000D01*
X179325000Y-108285000D01*
X179339703Y-108285722D01*
G37*
G04 #@! TD.AperFunction*
G04 #@! TA.AperFunction,SMDPad,CuDef*
G36*
X179339703Y-109555722D02*
G01*
X179354264Y-109557882D01*
X179368543Y-109561459D01*
X179382403Y-109566418D01*
X179395710Y-109572712D01*
X179408336Y-109580280D01*
X179420159Y-109589048D01*
X179431066Y-109598934D01*
X179440952Y-109609841D01*
X179449720Y-109621664D01*
X179457288Y-109634290D01*
X179463582Y-109647597D01*
X179468541Y-109661457D01*
X179472118Y-109675736D01*
X179474278Y-109690297D01*
X179475000Y-109705000D01*
X179475000Y-110005000D01*
X179474278Y-110019703D01*
X179472118Y-110034264D01*
X179468541Y-110048543D01*
X179463582Y-110062403D01*
X179457288Y-110075710D01*
X179449720Y-110088336D01*
X179440952Y-110100159D01*
X179431066Y-110111066D01*
X179420159Y-110120952D01*
X179408336Y-110129720D01*
X179395710Y-110137288D01*
X179382403Y-110143582D01*
X179368543Y-110148541D01*
X179354264Y-110152118D01*
X179339703Y-110154278D01*
X179325000Y-110155000D01*
X177675000Y-110155000D01*
X177660297Y-110154278D01*
X177645736Y-110152118D01*
X177631457Y-110148541D01*
X177617597Y-110143582D01*
X177604290Y-110137288D01*
X177591664Y-110129720D01*
X177579841Y-110120952D01*
X177568934Y-110111066D01*
X177559048Y-110100159D01*
X177550280Y-110088336D01*
X177542712Y-110075710D01*
X177536418Y-110062403D01*
X177531459Y-110048543D01*
X177527882Y-110034264D01*
X177525722Y-110019703D01*
X177525000Y-110005000D01*
X177525000Y-109705000D01*
X177525722Y-109690297D01*
X177527882Y-109675736D01*
X177531459Y-109661457D01*
X177536418Y-109647597D01*
X177542712Y-109634290D01*
X177550280Y-109621664D01*
X177559048Y-109609841D01*
X177568934Y-109598934D01*
X177579841Y-109589048D01*
X177591664Y-109580280D01*
X177604290Y-109572712D01*
X177617597Y-109566418D01*
X177631457Y-109561459D01*
X177645736Y-109557882D01*
X177660297Y-109555722D01*
X177675000Y-109555000D01*
X179325000Y-109555000D01*
X179339703Y-109555722D01*
G37*
G04 #@! TD.AperFunction*
G04 #@! TA.AperFunction,SMDPad,CuDef*
G36*
X184289703Y-109555722D02*
G01*
X184304264Y-109557882D01*
X184318543Y-109561459D01*
X184332403Y-109566418D01*
X184345710Y-109572712D01*
X184358336Y-109580280D01*
X184370159Y-109589048D01*
X184381066Y-109598934D01*
X184390952Y-109609841D01*
X184399720Y-109621664D01*
X184407288Y-109634290D01*
X184413582Y-109647597D01*
X184418541Y-109661457D01*
X184422118Y-109675736D01*
X184424278Y-109690297D01*
X184425000Y-109705000D01*
X184425000Y-110005000D01*
X184424278Y-110019703D01*
X184422118Y-110034264D01*
X184418541Y-110048543D01*
X184413582Y-110062403D01*
X184407288Y-110075710D01*
X184399720Y-110088336D01*
X184390952Y-110100159D01*
X184381066Y-110111066D01*
X184370159Y-110120952D01*
X184358336Y-110129720D01*
X184345710Y-110137288D01*
X184332403Y-110143582D01*
X184318543Y-110148541D01*
X184304264Y-110152118D01*
X184289703Y-110154278D01*
X184275000Y-110155000D01*
X182625000Y-110155000D01*
X182610297Y-110154278D01*
X182595736Y-110152118D01*
X182581457Y-110148541D01*
X182567597Y-110143582D01*
X182554290Y-110137288D01*
X182541664Y-110129720D01*
X182529841Y-110120952D01*
X182518934Y-110111066D01*
X182509048Y-110100159D01*
X182500280Y-110088336D01*
X182492712Y-110075710D01*
X182486418Y-110062403D01*
X182481459Y-110048543D01*
X182477882Y-110034264D01*
X182475722Y-110019703D01*
X182475000Y-110005000D01*
X182475000Y-109705000D01*
X182475722Y-109690297D01*
X182477882Y-109675736D01*
X182481459Y-109661457D01*
X182486418Y-109647597D01*
X182492712Y-109634290D01*
X182500280Y-109621664D01*
X182509048Y-109609841D01*
X182518934Y-109598934D01*
X182529841Y-109589048D01*
X182541664Y-109580280D01*
X182554290Y-109572712D01*
X182567597Y-109566418D01*
X182581457Y-109561459D01*
X182595736Y-109557882D01*
X182610297Y-109555722D01*
X182625000Y-109555000D01*
X184275000Y-109555000D01*
X184289703Y-109555722D01*
G37*
G04 #@! TD.AperFunction*
G04 #@! TA.AperFunction,SMDPad,CuDef*
G36*
X184289703Y-108285722D02*
G01*
X184304264Y-108287882D01*
X184318543Y-108291459D01*
X184332403Y-108296418D01*
X184345710Y-108302712D01*
X184358336Y-108310280D01*
X184370159Y-108319048D01*
X184381066Y-108328934D01*
X184390952Y-108339841D01*
X184399720Y-108351664D01*
X184407288Y-108364290D01*
X184413582Y-108377597D01*
X184418541Y-108391457D01*
X184422118Y-108405736D01*
X184424278Y-108420297D01*
X184425000Y-108435000D01*
X184425000Y-108735000D01*
X184424278Y-108749703D01*
X184422118Y-108764264D01*
X184418541Y-108778543D01*
X184413582Y-108792403D01*
X184407288Y-108805710D01*
X184399720Y-108818336D01*
X184390952Y-108830159D01*
X184381066Y-108841066D01*
X184370159Y-108850952D01*
X184358336Y-108859720D01*
X184345710Y-108867288D01*
X184332403Y-108873582D01*
X184318543Y-108878541D01*
X184304264Y-108882118D01*
X184289703Y-108884278D01*
X184275000Y-108885000D01*
X182625000Y-108885000D01*
X182610297Y-108884278D01*
X182595736Y-108882118D01*
X182581457Y-108878541D01*
X182567597Y-108873582D01*
X182554290Y-108867288D01*
X182541664Y-108859720D01*
X182529841Y-108850952D01*
X182518934Y-108841066D01*
X182509048Y-108830159D01*
X182500280Y-108818336D01*
X182492712Y-108805710D01*
X182486418Y-108792403D01*
X182481459Y-108778543D01*
X182477882Y-108764264D01*
X182475722Y-108749703D01*
X182475000Y-108735000D01*
X182475000Y-108435000D01*
X182475722Y-108420297D01*
X182477882Y-108405736D01*
X182481459Y-108391457D01*
X182486418Y-108377597D01*
X182492712Y-108364290D01*
X182500280Y-108351664D01*
X182509048Y-108339841D01*
X182518934Y-108328934D01*
X182529841Y-108319048D01*
X182541664Y-108310280D01*
X182554290Y-108302712D01*
X182567597Y-108296418D01*
X182581457Y-108291459D01*
X182595736Y-108287882D01*
X182610297Y-108285722D01*
X182625000Y-108285000D01*
X184275000Y-108285000D01*
X184289703Y-108285722D01*
G37*
G04 #@! TD.AperFunction*
G04 #@! TA.AperFunction,SMDPad,CuDef*
G36*
X184289703Y-107015722D02*
G01*
X184304264Y-107017882D01*
X184318543Y-107021459D01*
X184332403Y-107026418D01*
X184345710Y-107032712D01*
X184358336Y-107040280D01*
X184370159Y-107049048D01*
X184381066Y-107058934D01*
X184390952Y-107069841D01*
X184399720Y-107081664D01*
X184407288Y-107094290D01*
X184413582Y-107107597D01*
X184418541Y-107121457D01*
X184422118Y-107135736D01*
X184424278Y-107150297D01*
X184425000Y-107165000D01*
X184425000Y-107465000D01*
X184424278Y-107479703D01*
X184422118Y-107494264D01*
X184418541Y-107508543D01*
X184413582Y-107522403D01*
X184407288Y-107535710D01*
X184399720Y-107548336D01*
X184390952Y-107560159D01*
X184381066Y-107571066D01*
X184370159Y-107580952D01*
X184358336Y-107589720D01*
X184345710Y-107597288D01*
X184332403Y-107603582D01*
X184318543Y-107608541D01*
X184304264Y-107612118D01*
X184289703Y-107614278D01*
X184275000Y-107615000D01*
X182625000Y-107615000D01*
X182610297Y-107614278D01*
X182595736Y-107612118D01*
X182581457Y-107608541D01*
X182567597Y-107603582D01*
X182554290Y-107597288D01*
X182541664Y-107589720D01*
X182529841Y-107580952D01*
X182518934Y-107571066D01*
X182509048Y-107560159D01*
X182500280Y-107548336D01*
X182492712Y-107535710D01*
X182486418Y-107522403D01*
X182481459Y-107508543D01*
X182477882Y-107494264D01*
X182475722Y-107479703D01*
X182475000Y-107465000D01*
X182475000Y-107165000D01*
X182475722Y-107150297D01*
X182477882Y-107135736D01*
X182481459Y-107121457D01*
X182486418Y-107107597D01*
X182492712Y-107094290D01*
X182500280Y-107081664D01*
X182509048Y-107069841D01*
X182518934Y-107058934D01*
X182529841Y-107049048D01*
X182541664Y-107040280D01*
X182554290Y-107032712D01*
X182567597Y-107026418D01*
X182581457Y-107021459D01*
X182595736Y-107017882D01*
X182610297Y-107015722D01*
X182625000Y-107015000D01*
X184275000Y-107015000D01*
X184289703Y-107015722D01*
G37*
G04 #@! TD.AperFunction*
G04 #@! TA.AperFunction,SMDPad,CuDef*
G36*
X184289703Y-105745722D02*
G01*
X184304264Y-105747882D01*
X184318543Y-105751459D01*
X184332403Y-105756418D01*
X184345710Y-105762712D01*
X184358336Y-105770280D01*
X184370159Y-105779048D01*
X184381066Y-105788934D01*
X184390952Y-105799841D01*
X184399720Y-105811664D01*
X184407288Y-105824290D01*
X184413582Y-105837597D01*
X184418541Y-105851457D01*
X184422118Y-105865736D01*
X184424278Y-105880297D01*
X184425000Y-105895000D01*
X184425000Y-106195000D01*
X184424278Y-106209703D01*
X184422118Y-106224264D01*
X184418541Y-106238543D01*
X184413582Y-106252403D01*
X184407288Y-106265710D01*
X184399720Y-106278336D01*
X184390952Y-106290159D01*
X184381066Y-106301066D01*
X184370159Y-106310952D01*
X184358336Y-106319720D01*
X184345710Y-106327288D01*
X184332403Y-106333582D01*
X184318543Y-106338541D01*
X184304264Y-106342118D01*
X184289703Y-106344278D01*
X184275000Y-106345000D01*
X182625000Y-106345000D01*
X182610297Y-106344278D01*
X182595736Y-106342118D01*
X182581457Y-106338541D01*
X182567597Y-106333582D01*
X182554290Y-106327288D01*
X182541664Y-106319720D01*
X182529841Y-106310952D01*
X182518934Y-106301066D01*
X182509048Y-106290159D01*
X182500280Y-106278336D01*
X182492712Y-106265710D01*
X182486418Y-106252403D01*
X182481459Y-106238543D01*
X182477882Y-106224264D01*
X182475722Y-106209703D01*
X182475000Y-106195000D01*
X182475000Y-105895000D01*
X182475722Y-105880297D01*
X182477882Y-105865736D01*
X182481459Y-105851457D01*
X182486418Y-105837597D01*
X182492712Y-105824290D01*
X182500280Y-105811664D01*
X182509048Y-105799841D01*
X182518934Y-105788934D01*
X182529841Y-105779048D01*
X182541664Y-105770280D01*
X182554290Y-105762712D01*
X182567597Y-105756418D01*
X182581457Y-105751459D01*
X182595736Y-105747882D01*
X182610297Y-105745722D01*
X182625000Y-105745000D01*
X184275000Y-105745000D01*
X184289703Y-105745722D01*
G37*
G04 #@! TD.AperFunction*
D19*
X164465000Y-89535000D03*
X187960000Y-119380000D03*
X182880000Y-119380000D03*
X168275000Y-87630000D03*
X160020000Y-121920000D03*
X128270000Y-121920000D03*
X143510000Y-116840000D03*
X189230000Y-118110000D03*
X146050000Y-115570000D03*
X187960000Y-115570000D03*
X160271426Y-107175000D03*
X151765000Y-107950000D03*
X160020000Y-124460000D03*
X164465000Y-85725000D03*
X168910000Y-102235000D03*
X159384999Y-111760000D03*
X170180000Y-111760000D03*
X161290000Y-110490000D03*
X170180000Y-110490000D03*
D20*
X163975000Y-128270000D02*
X170180000Y-128270000D01*
X160020000Y-87630000D02*
X164320000Y-87630000D01*
X164320000Y-87630000D02*
X164320000Y-89390000D01*
X164320000Y-89390000D02*
X164465000Y-89535000D01*
D21*
X111760000Y-104140000D02*
X110209999Y-105690001D01*
X110209999Y-120780001D02*
X112619998Y-123190000D01*
X110209999Y-105690001D02*
X110209999Y-120780001D01*
X112619998Y-123190000D02*
X124460000Y-123190000D01*
X168629999Y-129820001D02*
X168910000Y-129540000D01*
X131090001Y-129820001D02*
X168629999Y-129820001D01*
X124460000Y-123190000D02*
X131090001Y-129820001D01*
X169530426Y-129570010D02*
X177769990Y-129570010D01*
X168910000Y-129540000D02*
X169500416Y-129540000D01*
X169500416Y-129540000D02*
X169530426Y-129570010D01*
X177769990Y-129570010D02*
X184150000Y-123190000D01*
X184150000Y-123190000D02*
X186690000Y-123190000D01*
X189230000Y-125730000D02*
X193040000Y-125730000D01*
X186690000Y-123190000D02*
X189230000Y-125730000D01*
X118110000Y-97790000D02*
X152400000Y-97790000D01*
X111760000Y-104140000D02*
X118110000Y-97790000D01*
X152400000Y-99277500D02*
X150712500Y-100965000D01*
X152400000Y-97790000D02*
X152400000Y-99277500D01*
X186690000Y-123190000D02*
X186690000Y-120650000D01*
X186690000Y-120650000D02*
X187960000Y-119380000D01*
X183450000Y-107315000D02*
X183450000Y-106045000D01*
X184425000Y-107315000D02*
X183450000Y-107315000D01*
X184427808Y-107315000D02*
X184425000Y-107315000D01*
X185175010Y-108062202D02*
X184427808Y-107315000D01*
X185175010Y-110377798D02*
X185175010Y-108062202D01*
X182880000Y-112672808D02*
X185175010Y-110377798D01*
X182880000Y-119380000D02*
X182880000Y-112672808D01*
D20*
X166370000Y-87630000D02*
X166370000Y-83820000D01*
D21*
X161925000Y-93980000D02*
X161925000Y-90805000D01*
X166370000Y-89332002D02*
X166370000Y-88330000D01*
X164897002Y-90805000D02*
X166370000Y-89332002D01*
X166370000Y-88330000D02*
X166370000Y-87630000D01*
X161925000Y-90805000D02*
X164897002Y-90805000D01*
X166370000Y-87630000D02*
X168275000Y-87630000D01*
X147737500Y-103722500D02*
X147320000Y-104140000D01*
X147737500Y-100965000D02*
X147737500Y-103722500D01*
X179705000Y-93980000D02*
X175895000Y-93980000D01*
X174625000Y-93980000D02*
X168275000Y-87630000D01*
X175895000Y-93980000D02*
X174625000Y-93980000D01*
X179477808Y-108585000D02*
X181610000Y-106452808D01*
X178500000Y-108585000D02*
X179477808Y-108585000D01*
X181610000Y-95010000D02*
X180580000Y-93980000D01*
X180580000Y-93980000D02*
X179705000Y-93980000D01*
X181610000Y-106452808D02*
X181610000Y-95010000D01*
D20*
X139700000Y-119380000D02*
X142240000Y-121920000D01*
X142240000Y-121920000D02*
X160020000Y-121920000D01*
X127800998Y-121920000D02*
X128270000Y-121920000D01*
X125824999Y-119005997D02*
X125824999Y-119944001D01*
X125024001Y-118204999D02*
X125824999Y-119005997D01*
X116840000Y-113181000D02*
X119474999Y-115815999D01*
X116840000Y-104140000D02*
X116840000Y-113181000D01*
X119474999Y-115815999D02*
X119474999Y-116944001D01*
X125824999Y-119944001D02*
X127800998Y-121920000D01*
X119474999Y-116944001D02*
X120735997Y-118204999D01*
X120735997Y-118204999D02*
X125024001Y-118204999D01*
X137160000Y-119380000D02*
X139700000Y-116840000D01*
X139700000Y-116840000D02*
X143510000Y-116840000D01*
X190500000Y-118110000D02*
X193040000Y-115570000D01*
X189230000Y-118110000D02*
X190500000Y-118110000D01*
X194765011Y-99515011D02*
X193889999Y-98639999D01*
X193889999Y-98639999D02*
X193040000Y-97790000D01*
X194765011Y-111304989D02*
X194765011Y-99515011D01*
X193040000Y-113030000D02*
X194765011Y-111304989D01*
X142240000Y-119380000D02*
X146050000Y-115570000D01*
X190500000Y-115570000D02*
X193040000Y-113030000D01*
X187960000Y-115570000D02*
X190500000Y-115570000D01*
X193889999Y-103719999D02*
X193040000Y-102870000D01*
X194265001Y-104095001D02*
X193889999Y-103719999D01*
X194265001Y-109264999D02*
X194265001Y-104095001D01*
X193040000Y-110490000D02*
X194265001Y-109264999D01*
D21*
X169500416Y-127000000D02*
X170135416Y-126365000D01*
X168910000Y-127000000D02*
X169500416Y-127000000D01*
X170135416Y-126365000D02*
X178435000Y-126365000D01*
X178435000Y-126365000D02*
X186055000Y-118745000D01*
X186055000Y-114935000D02*
X193040000Y-107950000D01*
X186055000Y-118745000D02*
X186055000Y-114935000D01*
D20*
X192190001Y-96099999D02*
X193040000Y-95250000D01*
X191814999Y-96475001D02*
X192190001Y-96099999D01*
X191814999Y-104184999D02*
X191814999Y-96475001D01*
X193040000Y-105410000D02*
X191814999Y-104184999D01*
X160271426Y-107175000D02*
X159591425Y-107855001D01*
X156304999Y-107855001D02*
X145579999Y-118580001D01*
X159591425Y-107855001D02*
X156304999Y-107855001D01*
X145579999Y-118580001D02*
X144780000Y-119380000D01*
X134620000Y-119380000D02*
X138430000Y-115570000D01*
X139205001Y-114794999D02*
X144920001Y-114794999D01*
X138430000Y-115570000D02*
X139205001Y-114794999D01*
X144920001Y-114794999D02*
X151765000Y-107950000D01*
X121044990Y-121044990D02*
X124854990Y-121044990D01*
X119380000Y-119380000D02*
X121044990Y-121044990D01*
X124854990Y-121044990D02*
X128270000Y-124460000D01*
X128270000Y-124460000D02*
X160020000Y-124460000D01*
X157970000Y-84520000D02*
X157970000Y-83820000D01*
X157400000Y-85090000D02*
X157970000Y-84520000D01*
X152400000Y-85090000D02*
X157400000Y-85090000D01*
X160020000Y-83820000D02*
X164320000Y-83820000D01*
X164320000Y-83820000D02*
X164320000Y-85580000D01*
X164320000Y-85580000D02*
X164465000Y-85725000D01*
X167640000Y-119380000D02*
X168910000Y-118110000D01*
X168910000Y-118110000D02*
X168910000Y-102235000D01*
X161384999Y-115352004D02*
X161384999Y-127029999D01*
X161925000Y-127570000D02*
X161925000Y-128270000D01*
X162560000Y-104140000D02*
X162560000Y-114177003D01*
X161384999Y-127029999D02*
X161925000Y-127570000D01*
X162560000Y-114177003D02*
X161384999Y-115352004D01*
X152400000Y-87630000D02*
X157970000Y-87630000D01*
X152400000Y-92710000D02*
X154305000Y-90805000D01*
X154305000Y-90805000D02*
X156425000Y-90805000D01*
X159899999Y-92379999D02*
X159899999Y-95130001D01*
X158325000Y-90805000D02*
X159899999Y-92379999D01*
X156425000Y-90805000D02*
X158325000Y-90805000D01*
X171456408Y-95867490D02*
X179329990Y-95867490D01*
X177525000Y-109855000D02*
X178500000Y-109855000D01*
X176530000Y-103445000D02*
X176530000Y-108860000D01*
X175895000Y-102810000D02*
X176530000Y-103445000D01*
X176530000Y-108860000D02*
X177525000Y-109855000D01*
X175895000Y-102235000D02*
X175895000Y-102810000D01*
X179329990Y-95867490D02*
X160672510Y-95867490D01*
X179705000Y-96242500D02*
X179329990Y-95867490D01*
X160672510Y-95867490D02*
X160655000Y-95885000D01*
X179705000Y-96955000D02*
X179705000Y-96242500D01*
X159899999Y-95130001D02*
X160655000Y-95885000D01*
X161284997Y-96514999D02*
X160655000Y-95885000D01*
X165100000Y-100330000D02*
X161284997Y-96514999D01*
X175895000Y-102235000D02*
X175195000Y-102235000D01*
X173290000Y-100330000D02*
X165100000Y-100330000D01*
X175195000Y-102235000D02*
X173290000Y-100330000D01*
D21*
X175060000Y-97790000D02*
X175895000Y-96955000D01*
X172475000Y-97790000D02*
X175060000Y-97790000D01*
X175895000Y-96955000D02*
X175895000Y-100185000D01*
X178500000Y-105745000D02*
X178500000Y-106045000D01*
X178500000Y-102090000D02*
X178500000Y-105745000D01*
X176595000Y-100185000D02*
X178500000Y-102090000D01*
X175895000Y-100185000D02*
X176595000Y-100185000D01*
X165735000Y-97790000D02*
X170425000Y-97790000D01*
X153035000Y-95250000D02*
X155575000Y-97790000D01*
X152400000Y-95250000D02*
X153035000Y-95250000D01*
X155155000Y-95250000D02*
X156425000Y-93980000D01*
X152400000Y-95250000D02*
X155155000Y-95250000D01*
D20*
X154940000Y-119380000D02*
X154940000Y-114935000D01*
X158020000Y-113124999D02*
X156750001Y-113124999D01*
X159384999Y-111760000D02*
X158020000Y-113124999D01*
X156750001Y-113124999D02*
X154940000Y-114935000D01*
X170745685Y-111760000D02*
X170180000Y-111760000D01*
X183450000Y-109855000D02*
X181545000Y-111760000D01*
X181545000Y-111760000D02*
X170745685Y-111760000D01*
X161290000Y-111055685D02*
X161290000Y-110490000D01*
X160020000Y-116840000D02*
X160020000Y-113595689D01*
X157480000Y-119380000D02*
X160020000Y-116840000D01*
X160020000Y-113595689D02*
X161290000Y-112325689D01*
X161290000Y-112325689D02*
X161290000Y-111055685D01*
X177417522Y-110490000D02*
X170745685Y-110490000D01*
X179542468Y-110530010D02*
X177457532Y-110530010D01*
X170745685Y-110490000D02*
X170180000Y-110490000D01*
X179582478Y-110490000D02*
X179542468Y-110530010D01*
X181545000Y-110490000D02*
X179582478Y-110490000D01*
X182855010Y-109179990D02*
X182407532Y-109179990D01*
X183450000Y-108585000D02*
X182855010Y-109179990D01*
X177457532Y-110530010D02*
X177417522Y-110490000D01*
X182099990Y-109487532D02*
X182099990Y-109935010D01*
X182407532Y-109179990D02*
X182099990Y-109487532D01*
X182099990Y-109935010D02*
X181545000Y-110490000D01*
M02*
