G04 #@! TF.GenerationSoftware,KiCad,Pcbnew,(5.1.5)-3*
G04 #@! TF.CreationDate,2020-02-02T22:49:33-08:00*
G04 #@! TF.ProjectId,boostino,626f6f73-7469-46e6-9f2e-6b696361645f,rev?*
G04 #@! TF.SameCoordinates,Original*
G04 #@! TF.FileFunction,Copper,L2,Bot*
G04 #@! TF.FilePolarity,Positive*
%FSLAX46Y46*%
G04 Gerber Fmt 4.6, Leading zero omitted, Abs format (unit mm)*
G04 Created by KiCad (PCBNEW (5.1.5)-3) date 2020-02-02 22:49:33*
%MOMM*%
%LPD*%
G04 APERTURE LIST*
%ADD10R,1.700000X1.700000*%
%ADD11O,1.700000X1.700000*%
%ADD12C,1.600000*%
%ADD13R,1.600000X1.600000*%
%ADD14R,1.800000X1.100000*%
%ADD15C,0.100000*%
%ADD16O,1.600000X1.600000*%
%ADD17C,0.800000*%
%ADD18C,0.250000*%
%ADD19C,0.254000*%
G04 APERTURE END LIST*
D10*
X152400000Y-97790000D03*
D11*
X152400000Y-95250000D03*
X152400000Y-92710000D03*
X152400000Y-90170000D03*
X152400000Y-87630000D03*
X152400000Y-85090000D03*
D12*
X152400000Y-119380000D03*
X154940000Y-119380000D03*
X157480000Y-119380000D03*
X160020000Y-119380000D03*
X149860000Y-119380000D03*
X147320000Y-119380000D03*
X144780000Y-119380000D03*
X162560000Y-119380000D03*
X165100000Y-119380000D03*
X167640000Y-119380000D03*
X170180000Y-119380000D03*
X157480000Y-116840000D03*
X157480000Y-114300000D03*
X157480000Y-111760000D03*
X157480000Y-109220000D03*
X157480000Y-106680000D03*
X170180000Y-104140000D03*
X167640000Y-104140000D03*
X165100000Y-104140000D03*
X162560000Y-104140000D03*
X160020000Y-104140000D03*
X157480000Y-104140000D03*
X154940000Y-104140000D03*
X152400000Y-104140000D03*
X142240000Y-119380000D03*
X139700000Y-119380000D03*
X137160000Y-119380000D03*
X134620000Y-119380000D03*
X132080000Y-119380000D03*
X129540000Y-119380000D03*
X127000000Y-119380000D03*
X124460000Y-119380000D03*
X121920000Y-119380000D03*
X119380000Y-119380000D03*
X116840000Y-119380000D03*
X114300000Y-119380000D03*
D13*
X111760000Y-119380000D03*
D12*
X149860000Y-104140000D03*
X147320000Y-104140000D03*
X144780000Y-104140000D03*
X142240000Y-104140000D03*
X139700000Y-104140000D03*
X137160000Y-104140000D03*
X134620000Y-104140000D03*
X132080000Y-104140000D03*
X129540000Y-104140000D03*
X127000000Y-104140000D03*
X124460000Y-104140000D03*
X121920000Y-104140000D03*
X119380000Y-104140000D03*
X116840000Y-104140000D03*
X114300000Y-104140000D03*
X111760000Y-104140000D03*
X114300000Y-106680000D03*
X119380000Y-106680000D03*
X121920000Y-106680000D03*
X124460000Y-106680000D03*
X118110000Y-116380000D03*
X120650000Y-116380000D03*
X123190000Y-116380000D03*
X125730000Y-116380000D03*
X128270000Y-116380000D03*
D14*
X168510000Y-127000000D03*
G04 #@! TA.AperFunction,ComponentPad*
D15*
G36*
X169161955Y-128991324D02*
G01*
X169188650Y-128995284D01*
X169214828Y-129001841D01*
X169240238Y-129010933D01*
X169264634Y-129022472D01*
X169287782Y-129036346D01*
X169309458Y-129052422D01*
X169329454Y-129070546D01*
X169347578Y-129090542D01*
X169363654Y-129112218D01*
X169377528Y-129135366D01*
X169389067Y-129159762D01*
X169398159Y-129185172D01*
X169404716Y-129211350D01*
X169408676Y-129238045D01*
X169410000Y-129265000D01*
X169410000Y-129815000D01*
X169408676Y-129841955D01*
X169404716Y-129868650D01*
X169398159Y-129894828D01*
X169389067Y-129920238D01*
X169377528Y-129944634D01*
X169363654Y-129967782D01*
X169347578Y-129989458D01*
X169329454Y-130009454D01*
X169309458Y-130027578D01*
X169287782Y-130043654D01*
X169264634Y-130057528D01*
X169240238Y-130069067D01*
X169214828Y-130078159D01*
X169188650Y-130084716D01*
X169161955Y-130088676D01*
X169135000Y-130090000D01*
X167885000Y-130090000D01*
X167858045Y-130088676D01*
X167831350Y-130084716D01*
X167805172Y-130078159D01*
X167779762Y-130069067D01*
X167755366Y-130057528D01*
X167732218Y-130043654D01*
X167710542Y-130027578D01*
X167690546Y-130009454D01*
X167672422Y-129989458D01*
X167656346Y-129967782D01*
X167642472Y-129944634D01*
X167630933Y-129920238D01*
X167621841Y-129894828D01*
X167615284Y-129868650D01*
X167611324Y-129841955D01*
X167610000Y-129815000D01*
X167610000Y-129265000D01*
X167611324Y-129238045D01*
X167615284Y-129211350D01*
X167621841Y-129185172D01*
X167630933Y-129159762D01*
X167642472Y-129135366D01*
X167656346Y-129112218D01*
X167672422Y-129090542D01*
X167690546Y-129070546D01*
X167710542Y-129052422D01*
X167732218Y-129036346D01*
X167755366Y-129022472D01*
X167779762Y-129010933D01*
X167805172Y-129001841D01*
X167831350Y-128995284D01*
X167858045Y-128991324D01*
X167885000Y-128990000D01*
X169135000Y-128990000D01*
X169161955Y-128991324D01*
G37*
G04 #@! TD.AperFunction*
G04 #@! TA.AperFunction,ComponentPad*
G36*
X171231955Y-127721324D02*
G01*
X171258650Y-127725284D01*
X171284828Y-127731841D01*
X171310238Y-127740933D01*
X171334634Y-127752472D01*
X171357782Y-127766346D01*
X171379458Y-127782422D01*
X171399454Y-127800546D01*
X171417578Y-127820542D01*
X171433654Y-127842218D01*
X171447528Y-127865366D01*
X171459067Y-127889762D01*
X171468159Y-127915172D01*
X171474716Y-127941350D01*
X171478676Y-127968045D01*
X171480000Y-127995000D01*
X171480000Y-128545000D01*
X171478676Y-128571955D01*
X171474716Y-128598650D01*
X171468159Y-128624828D01*
X171459067Y-128650238D01*
X171447528Y-128674634D01*
X171433654Y-128697782D01*
X171417578Y-128719458D01*
X171399454Y-128739454D01*
X171379458Y-128757578D01*
X171357782Y-128773654D01*
X171334634Y-128787528D01*
X171310238Y-128799067D01*
X171284828Y-128808159D01*
X171258650Y-128814716D01*
X171231955Y-128818676D01*
X171205000Y-128820000D01*
X169955000Y-128820000D01*
X169928045Y-128818676D01*
X169901350Y-128814716D01*
X169875172Y-128808159D01*
X169849762Y-128799067D01*
X169825366Y-128787528D01*
X169802218Y-128773654D01*
X169780542Y-128757578D01*
X169760546Y-128739454D01*
X169742422Y-128719458D01*
X169726346Y-128697782D01*
X169712472Y-128674634D01*
X169700933Y-128650238D01*
X169691841Y-128624828D01*
X169685284Y-128598650D01*
X169681324Y-128571955D01*
X169680000Y-128545000D01*
X169680000Y-127995000D01*
X169681324Y-127968045D01*
X169685284Y-127941350D01*
X169691841Y-127915172D01*
X169700933Y-127889762D01*
X169712472Y-127865366D01*
X169726346Y-127842218D01*
X169742422Y-127820542D01*
X169760546Y-127800546D01*
X169780542Y-127782422D01*
X169802218Y-127766346D01*
X169825366Y-127752472D01*
X169849762Y-127740933D01*
X169875172Y-127731841D01*
X169901350Y-127725284D01*
X169928045Y-127721324D01*
X169955000Y-127720000D01*
X171205000Y-127720000D01*
X171231955Y-127721324D01*
G37*
G04 #@! TD.AperFunction*
D10*
X193040000Y-125730000D03*
D11*
X193040000Y-123190000D03*
X193040000Y-120650000D03*
X193040000Y-118110000D03*
X193040000Y-115570000D03*
X193040000Y-113030000D03*
X193040000Y-110490000D03*
X193040000Y-107950000D03*
X193040000Y-105410000D03*
X193040000Y-102870000D03*
X193040000Y-100330000D03*
X193040000Y-97790000D03*
X193040000Y-95250000D03*
X193040000Y-92710000D03*
D12*
X166370000Y-90170000D03*
D16*
X156210000Y-90170000D03*
D12*
X180340000Y-90170000D03*
D16*
X170180000Y-90170000D03*
X154940000Y-128270000D03*
D12*
X165100000Y-128270000D03*
X166370000Y-85090000D03*
D16*
X156210000Y-85090000D03*
X170180000Y-85090000D03*
D12*
X180340000Y-85090000D03*
D17*
X160020000Y-121920000D03*
X128270000Y-121920000D03*
X143510000Y-116840000D03*
X189230000Y-118110000D03*
X146050000Y-115570000D03*
X187960000Y-115570000D03*
X147320000Y-101600000D03*
X160271426Y-107175000D03*
X166370000Y-100330000D03*
X160020000Y-124460000D03*
D18*
X191770000Y-121920000D02*
X193040000Y-120650000D01*
X160020000Y-121920000D02*
X191770000Y-121920000D01*
X192190001Y-118959999D02*
X193040000Y-118110000D01*
X129634999Y-120555001D02*
X190594999Y-120555001D01*
X190594999Y-120555001D02*
X192190001Y-118959999D01*
X128270000Y-121920000D02*
X129634999Y-120555001D01*
X143510000Y-116840000D02*
X144780000Y-118110000D01*
X144780000Y-118110000D02*
X189230000Y-118110000D01*
X146050000Y-115570000D02*
X187960000Y-115570000D01*
X191770000Y-101600000D02*
X193040000Y-102870000D01*
X147320000Y-101600000D02*
X191770000Y-101600000D01*
X160271426Y-107175000D02*
X191275000Y-107175000D01*
X191275000Y-107175000D02*
X193040000Y-105410000D01*
X166370000Y-100330000D02*
X193040000Y-100330000D01*
X193889999Y-93559999D02*
X193040000Y-92710000D01*
X194265001Y-93935001D02*
X193889999Y-93559999D01*
X194265001Y-123778001D02*
X194265001Y-93935001D01*
X193583002Y-124460000D02*
X194265001Y-123778001D01*
X160020000Y-124460000D02*
X193583002Y-124460000D01*
D19*
G36*
X151246525Y-84143368D02*
G01*
X151084010Y-84386589D01*
X150972068Y-84656842D01*
X150915000Y-84943740D01*
X150915000Y-85236260D01*
X150972068Y-85523158D01*
X151084010Y-85793411D01*
X151246525Y-86036632D01*
X151453368Y-86243475D01*
X151627760Y-86360000D01*
X151453368Y-86476525D01*
X151246525Y-86683368D01*
X151084010Y-86926589D01*
X150972068Y-87196842D01*
X150915000Y-87483740D01*
X150915000Y-87776260D01*
X150972068Y-88063158D01*
X151084010Y-88333411D01*
X151246525Y-88576632D01*
X151453368Y-88783475D01*
X151635534Y-88905195D01*
X151518645Y-88974822D01*
X151302412Y-89169731D01*
X151128359Y-89403080D01*
X151003175Y-89665901D01*
X150958524Y-89813110D01*
X151079845Y-90043000D01*
X152273000Y-90043000D01*
X152273000Y-90023000D01*
X152527000Y-90023000D01*
X152527000Y-90043000D01*
X153720155Y-90043000D01*
X153727720Y-90028665D01*
X154775000Y-90028665D01*
X154775000Y-90311335D01*
X154830147Y-90588574D01*
X154938320Y-90849727D01*
X155095363Y-91084759D01*
X155295241Y-91284637D01*
X155530273Y-91441680D01*
X155791426Y-91549853D01*
X156068665Y-91605000D01*
X156351335Y-91605000D01*
X156628574Y-91549853D01*
X156889727Y-91441680D01*
X157124759Y-91284637D01*
X157324637Y-91084759D01*
X157481680Y-90849727D01*
X157589853Y-90588574D01*
X157645000Y-90311335D01*
X157645000Y-90028665D01*
X164935000Y-90028665D01*
X164935000Y-90311335D01*
X164990147Y-90588574D01*
X165098320Y-90849727D01*
X165255363Y-91084759D01*
X165455241Y-91284637D01*
X165690273Y-91441680D01*
X165951426Y-91549853D01*
X166228665Y-91605000D01*
X166511335Y-91605000D01*
X166788574Y-91549853D01*
X167049727Y-91441680D01*
X167284759Y-91284637D01*
X167484637Y-91084759D01*
X167641680Y-90849727D01*
X167749853Y-90588574D01*
X167805000Y-90311335D01*
X167805000Y-90028665D01*
X168745000Y-90028665D01*
X168745000Y-90311335D01*
X168800147Y-90588574D01*
X168908320Y-90849727D01*
X169065363Y-91084759D01*
X169265241Y-91284637D01*
X169500273Y-91441680D01*
X169761426Y-91549853D01*
X170038665Y-91605000D01*
X170321335Y-91605000D01*
X170598574Y-91549853D01*
X170859727Y-91441680D01*
X171094759Y-91284637D01*
X171216694Y-91162702D01*
X179526903Y-91162702D01*
X179598486Y-91406671D01*
X179853996Y-91527571D01*
X180128184Y-91596300D01*
X180410512Y-91610217D01*
X180690130Y-91568787D01*
X180956292Y-91473603D01*
X181081514Y-91406671D01*
X181153097Y-91162702D01*
X180340000Y-90349605D01*
X179526903Y-91162702D01*
X171216694Y-91162702D01*
X171294637Y-91084759D01*
X171451680Y-90849727D01*
X171559853Y-90588574D01*
X171615000Y-90311335D01*
X171615000Y-90240512D01*
X178899783Y-90240512D01*
X178941213Y-90520130D01*
X179036397Y-90786292D01*
X179103329Y-90911514D01*
X179347298Y-90983097D01*
X180160395Y-90170000D01*
X180519605Y-90170000D01*
X181332702Y-90983097D01*
X181576671Y-90911514D01*
X181697571Y-90656004D01*
X181766300Y-90381816D01*
X181780217Y-90099488D01*
X181758049Y-89949872D01*
X183185000Y-89949872D01*
X183185000Y-90390128D01*
X183270890Y-90821925D01*
X183439369Y-91228669D01*
X183683962Y-91594729D01*
X183995271Y-91906038D01*
X184361331Y-92150631D01*
X184768075Y-92319110D01*
X185199872Y-92405000D01*
X185640128Y-92405000D01*
X186071925Y-92319110D01*
X186478669Y-92150631D01*
X186844729Y-91906038D01*
X187156038Y-91594729D01*
X187400631Y-91228669D01*
X187569110Y-90821925D01*
X187655000Y-90390128D01*
X187655000Y-89949872D01*
X187569110Y-89518075D01*
X187400631Y-89111331D01*
X187156038Y-88745271D01*
X186844729Y-88433962D01*
X186478669Y-88189369D01*
X186071925Y-88020890D01*
X185640128Y-87935000D01*
X185199872Y-87935000D01*
X184768075Y-88020890D01*
X184361331Y-88189369D01*
X183995271Y-88433962D01*
X183683962Y-88745271D01*
X183439369Y-89111331D01*
X183270890Y-89518075D01*
X183185000Y-89949872D01*
X181758049Y-89949872D01*
X181738787Y-89819870D01*
X181643603Y-89553708D01*
X181576671Y-89428486D01*
X181332702Y-89356903D01*
X180519605Y-90170000D01*
X180160395Y-90170000D01*
X179347298Y-89356903D01*
X179103329Y-89428486D01*
X178982429Y-89683996D01*
X178913700Y-89958184D01*
X178899783Y-90240512D01*
X171615000Y-90240512D01*
X171615000Y-90028665D01*
X171559853Y-89751426D01*
X171451680Y-89490273D01*
X171294637Y-89255241D01*
X171216694Y-89177298D01*
X179526903Y-89177298D01*
X180340000Y-89990395D01*
X181153097Y-89177298D01*
X181081514Y-88933329D01*
X180826004Y-88812429D01*
X180551816Y-88743700D01*
X180269488Y-88729783D01*
X179989870Y-88771213D01*
X179723708Y-88866397D01*
X179598486Y-88933329D01*
X179526903Y-89177298D01*
X171216694Y-89177298D01*
X171094759Y-89055363D01*
X170859727Y-88898320D01*
X170598574Y-88790147D01*
X170321335Y-88735000D01*
X170038665Y-88735000D01*
X169761426Y-88790147D01*
X169500273Y-88898320D01*
X169265241Y-89055363D01*
X169065363Y-89255241D01*
X168908320Y-89490273D01*
X168800147Y-89751426D01*
X168745000Y-90028665D01*
X167805000Y-90028665D01*
X167749853Y-89751426D01*
X167641680Y-89490273D01*
X167484637Y-89255241D01*
X167284759Y-89055363D01*
X167049727Y-88898320D01*
X166788574Y-88790147D01*
X166511335Y-88735000D01*
X166228665Y-88735000D01*
X165951426Y-88790147D01*
X165690273Y-88898320D01*
X165455241Y-89055363D01*
X165255363Y-89255241D01*
X165098320Y-89490273D01*
X164990147Y-89751426D01*
X164935000Y-90028665D01*
X157645000Y-90028665D01*
X157589853Y-89751426D01*
X157481680Y-89490273D01*
X157324637Y-89255241D01*
X157124759Y-89055363D01*
X156889727Y-88898320D01*
X156628574Y-88790147D01*
X156351335Y-88735000D01*
X156068665Y-88735000D01*
X155791426Y-88790147D01*
X155530273Y-88898320D01*
X155295241Y-89055363D01*
X155095363Y-89255241D01*
X154938320Y-89490273D01*
X154830147Y-89751426D01*
X154775000Y-90028665D01*
X153727720Y-90028665D01*
X153841476Y-89813110D01*
X153796825Y-89665901D01*
X153671641Y-89403080D01*
X153497588Y-89169731D01*
X153281355Y-88974822D01*
X153164466Y-88905195D01*
X153346632Y-88783475D01*
X153553475Y-88576632D01*
X153715990Y-88333411D01*
X153827932Y-88063158D01*
X153885000Y-87776260D01*
X153885000Y-87483740D01*
X153827932Y-87196842D01*
X153715990Y-86926589D01*
X153553475Y-86683368D01*
X153346632Y-86476525D01*
X153172240Y-86360000D01*
X153346632Y-86243475D01*
X153553475Y-86036632D01*
X153715990Y-85793411D01*
X153827932Y-85523158D01*
X153885000Y-85236260D01*
X153885000Y-84943740D01*
X153827932Y-84656842D01*
X153715990Y-84386589D01*
X153553475Y-84143368D01*
X153357107Y-83947000D01*
X155337689Y-83947000D01*
X155295241Y-83975363D01*
X155095363Y-84175241D01*
X154938320Y-84410273D01*
X154830147Y-84671426D01*
X154775000Y-84948665D01*
X154775000Y-85231335D01*
X154830147Y-85508574D01*
X154938320Y-85769727D01*
X155095363Y-86004759D01*
X155295241Y-86204637D01*
X155530273Y-86361680D01*
X155791426Y-86469853D01*
X156068665Y-86525000D01*
X156351335Y-86525000D01*
X156628574Y-86469853D01*
X156889727Y-86361680D01*
X157124759Y-86204637D01*
X157324637Y-86004759D01*
X157481680Y-85769727D01*
X157589853Y-85508574D01*
X157645000Y-85231335D01*
X157645000Y-84948665D01*
X157589853Y-84671426D01*
X157481680Y-84410273D01*
X157324637Y-84175241D01*
X157124759Y-83975363D01*
X157082311Y-83947000D01*
X165497689Y-83947000D01*
X165455241Y-83975363D01*
X165255363Y-84175241D01*
X165098320Y-84410273D01*
X164990147Y-84671426D01*
X164935000Y-84948665D01*
X164935000Y-85231335D01*
X164990147Y-85508574D01*
X165098320Y-85769727D01*
X165255363Y-86004759D01*
X165455241Y-86204637D01*
X165690273Y-86361680D01*
X165951426Y-86469853D01*
X166228665Y-86525000D01*
X166511335Y-86525000D01*
X166788574Y-86469853D01*
X167049727Y-86361680D01*
X167284759Y-86204637D01*
X167484637Y-86004759D01*
X167641680Y-85769727D01*
X167749853Y-85508574D01*
X167805000Y-85231335D01*
X167805000Y-84948665D01*
X167749853Y-84671426D01*
X167641680Y-84410273D01*
X167484637Y-84175241D01*
X167284759Y-83975363D01*
X167242311Y-83947000D01*
X169307689Y-83947000D01*
X169265241Y-83975363D01*
X169065363Y-84175241D01*
X168908320Y-84410273D01*
X168800147Y-84671426D01*
X168745000Y-84948665D01*
X168745000Y-85231335D01*
X168800147Y-85508574D01*
X168908320Y-85769727D01*
X169065363Y-86004759D01*
X169265241Y-86204637D01*
X169500273Y-86361680D01*
X169761426Y-86469853D01*
X170038665Y-86525000D01*
X170321335Y-86525000D01*
X170598574Y-86469853D01*
X170859727Y-86361680D01*
X171094759Y-86204637D01*
X171216694Y-86082702D01*
X179526903Y-86082702D01*
X179598486Y-86326671D01*
X179853996Y-86447571D01*
X180128184Y-86516300D01*
X180410512Y-86530217D01*
X180690130Y-86488787D01*
X180956292Y-86393603D01*
X181081514Y-86326671D01*
X181153097Y-86082702D01*
X180340000Y-85269605D01*
X179526903Y-86082702D01*
X171216694Y-86082702D01*
X171294637Y-86004759D01*
X171451680Y-85769727D01*
X171559853Y-85508574D01*
X171615000Y-85231335D01*
X171615000Y-85160512D01*
X178899783Y-85160512D01*
X178941213Y-85440130D01*
X179036397Y-85706292D01*
X179103329Y-85831514D01*
X179347298Y-85903097D01*
X180160395Y-85090000D01*
X180519605Y-85090000D01*
X181332702Y-85903097D01*
X181576671Y-85831514D01*
X181697571Y-85576004D01*
X181766300Y-85301816D01*
X181780217Y-85019488D01*
X181738787Y-84739870D01*
X181643603Y-84473708D01*
X181576671Y-84348486D01*
X181332702Y-84276903D01*
X180519605Y-85090000D01*
X180160395Y-85090000D01*
X179347298Y-84276903D01*
X179103329Y-84348486D01*
X178982429Y-84603996D01*
X178913700Y-84878184D01*
X178899783Y-85160512D01*
X171615000Y-85160512D01*
X171615000Y-84948665D01*
X171559853Y-84671426D01*
X171451680Y-84410273D01*
X171294637Y-84175241D01*
X171094759Y-83975363D01*
X171052311Y-83947000D01*
X179571002Y-83947000D01*
X179526903Y-84097298D01*
X180340000Y-84910395D01*
X181153097Y-84097298D01*
X181108998Y-83947000D01*
X195453000Y-83947000D01*
X195453000Y-131953000D01*
X110617000Y-131953000D01*
X110617000Y-128049872D01*
X119685000Y-128049872D01*
X119685000Y-128490128D01*
X119770890Y-128921925D01*
X119939369Y-129328669D01*
X120183962Y-129694729D01*
X120495271Y-130006038D01*
X120861331Y-130250631D01*
X121268075Y-130419110D01*
X121699872Y-130505000D01*
X122140128Y-130505000D01*
X122571925Y-130419110D01*
X122978669Y-130250631D01*
X123344729Y-130006038D01*
X123656038Y-129694729D01*
X123900631Y-129328669D01*
X124069110Y-128921925D01*
X124155000Y-128490128D01*
X124155000Y-128128665D01*
X153505000Y-128128665D01*
X153505000Y-128411335D01*
X153560147Y-128688574D01*
X153668320Y-128949727D01*
X153825363Y-129184759D01*
X154025241Y-129384637D01*
X154260273Y-129541680D01*
X154521426Y-129649853D01*
X154798665Y-129705000D01*
X155081335Y-129705000D01*
X155358574Y-129649853D01*
X155619727Y-129541680D01*
X155854759Y-129384637D01*
X156054637Y-129184759D01*
X156211680Y-128949727D01*
X156319853Y-128688574D01*
X156375000Y-128411335D01*
X156375000Y-128128665D01*
X163665000Y-128128665D01*
X163665000Y-128411335D01*
X163720147Y-128688574D01*
X163828320Y-128949727D01*
X163985363Y-129184759D01*
X164185241Y-129384637D01*
X164420273Y-129541680D01*
X164681426Y-129649853D01*
X164958665Y-129705000D01*
X165241335Y-129705000D01*
X165518574Y-129649853D01*
X165779727Y-129541680D01*
X166014759Y-129384637D01*
X166214637Y-129184759D01*
X166371680Y-128949727D01*
X166479853Y-128688574D01*
X166535000Y-128411335D01*
X166535000Y-128128665D01*
X166479853Y-127851426D01*
X166371680Y-127590273D01*
X166214637Y-127355241D01*
X166014759Y-127155363D01*
X165779727Y-126998320D01*
X165518574Y-126890147D01*
X165241335Y-126835000D01*
X164958665Y-126835000D01*
X164681426Y-126890147D01*
X164420273Y-126998320D01*
X164185241Y-127155363D01*
X163985363Y-127355241D01*
X163828320Y-127590273D01*
X163720147Y-127851426D01*
X163665000Y-128128665D01*
X156375000Y-128128665D01*
X156319853Y-127851426D01*
X156211680Y-127590273D01*
X156054637Y-127355241D01*
X155854759Y-127155363D01*
X155619727Y-126998320D01*
X155358574Y-126890147D01*
X155081335Y-126835000D01*
X154798665Y-126835000D01*
X154521426Y-126890147D01*
X154260273Y-126998320D01*
X154025241Y-127155363D01*
X153825363Y-127355241D01*
X153668320Y-127590273D01*
X153560147Y-127851426D01*
X153505000Y-128128665D01*
X124155000Y-128128665D01*
X124155000Y-128049872D01*
X124069110Y-127618075D01*
X123900631Y-127211331D01*
X123656038Y-126845271D01*
X123344729Y-126533962D01*
X123219071Y-126450000D01*
X166971928Y-126450000D01*
X166971928Y-127550000D01*
X166984188Y-127674482D01*
X167020498Y-127794180D01*
X167079463Y-127904494D01*
X167158815Y-128001185D01*
X167255506Y-128080537D01*
X167365820Y-128139502D01*
X167485518Y-128175812D01*
X167610000Y-128188072D01*
X169041928Y-128188072D01*
X169041928Y-128351928D01*
X167885000Y-128351928D01*
X167706868Y-128369472D01*
X167535582Y-128421431D01*
X167377724Y-128505808D01*
X167239361Y-128619361D01*
X167125808Y-128757724D01*
X167041431Y-128915582D01*
X166989472Y-129086868D01*
X166971928Y-129265000D01*
X166971928Y-129815000D01*
X166989472Y-129993132D01*
X167041431Y-130164418D01*
X167125808Y-130322276D01*
X167239361Y-130460639D01*
X167377724Y-130574192D01*
X167535582Y-130658569D01*
X167706868Y-130710528D01*
X167885000Y-130728072D01*
X169135000Y-130728072D01*
X169313132Y-130710528D01*
X169484418Y-130658569D01*
X169642276Y-130574192D01*
X169780639Y-130460639D01*
X169894192Y-130322276D01*
X169978569Y-130164418D01*
X170030528Y-129993132D01*
X170048072Y-129815000D01*
X170048072Y-129458072D01*
X171205000Y-129458072D01*
X171383132Y-129440528D01*
X171554418Y-129388569D01*
X171712276Y-129304192D01*
X171850639Y-129190639D01*
X171964192Y-129052276D01*
X172048569Y-128894418D01*
X172100528Y-128723132D01*
X172118072Y-128545000D01*
X172118072Y-128049872D01*
X183185000Y-128049872D01*
X183185000Y-128490128D01*
X183270890Y-128921925D01*
X183439369Y-129328669D01*
X183683962Y-129694729D01*
X183995271Y-130006038D01*
X184361331Y-130250631D01*
X184768075Y-130419110D01*
X185199872Y-130505000D01*
X185640128Y-130505000D01*
X186071925Y-130419110D01*
X186478669Y-130250631D01*
X186844729Y-130006038D01*
X187156038Y-129694729D01*
X187400631Y-129328669D01*
X187569110Y-128921925D01*
X187655000Y-128490128D01*
X187655000Y-128049872D01*
X187569110Y-127618075D01*
X187400631Y-127211331D01*
X187156038Y-126845271D01*
X186844729Y-126533962D01*
X186478669Y-126289369D01*
X186071925Y-126120890D01*
X185640128Y-126035000D01*
X185199872Y-126035000D01*
X184768075Y-126120890D01*
X184361331Y-126289369D01*
X183995271Y-126533962D01*
X183683962Y-126845271D01*
X183439369Y-127211331D01*
X183270890Y-127618075D01*
X183185000Y-128049872D01*
X172118072Y-128049872D01*
X172118072Y-127995000D01*
X172100528Y-127816868D01*
X172048569Y-127645582D01*
X171964192Y-127487724D01*
X171850639Y-127349361D01*
X171712276Y-127235808D01*
X171554418Y-127151431D01*
X171383132Y-127099472D01*
X171205000Y-127081928D01*
X170048072Y-127081928D01*
X170048072Y-126450000D01*
X170035812Y-126325518D01*
X169999502Y-126205820D01*
X169940537Y-126095506D01*
X169861185Y-125998815D01*
X169764494Y-125919463D01*
X169654180Y-125860498D01*
X169534482Y-125824188D01*
X169410000Y-125811928D01*
X167610000Y-125811928D01*
X167485518Y-125824188D01*
X167365820Y-125860498D01*
X167255506Y-125919463D01*
X167158815Y-125998815D01*
X167079463Y-126095506D01*
X167020498Y-126205820D01*
X166984188Y-126325518D01*
X166971928Y-126450000D01*
X123219071Y-126450000D01*
X122978669Y-126289369D01*
X122571925Y-126120890D01*
X122140128Y-126035000D01*
X121699872Y-126035000D01*
X121268075Y-126120890D01*
X120861331Y-126289369D01*
X120495271Y-126533962D01*
X120183962Y-126845271D01*
X119939369Y-127211331D01*
X119770890Y-127618075D01*
X119685000Y-128049872D01*
X110617000Y-128049872D01*
X110617000Y-120716681D01*
X110715820Y-120769502D01*
X110835518Y-120805812D01*
X110960000Y-120818072D01*
X111474250Y-120815000D01*
X111633000Y-120656250D01*
X111633000Y-119507000D01*
X111613000Y-119507000D01*
X111613000Y-119253000D01*
X111633000Y-119253000D01*
X111633000Y-118103750D01*
X111887000Y-118103750D01*
X111887000Y-119253000D01*
X111907000Y-119253000D01*
X111907000Y-119507000D01*
X111887000Y-119507000D01*
X111887000Y-120656250D01*
X112045750Y-120815000D01*
X112560000Y-120818072D01*
X112684482Y-120805812D01*
X112804180Y-120769502D01*
X112914494Y-120710537D01*
X113011185Y-120631185D01*
X113090537Y-120534494D01*
X113149502Y-120424180D01*
X113185812Y-120304482D01*
X113186643Y-120296039D01*
X113385241Y-120494637D01*
X113620273Y-120651680D01*
X113881426Y-120759853D01*
X114158665Y-120815000D01*
X114441335Y-120815000D01*
X114718574Y-120759853D01*
X114979727Y-120651680D01*
X115214759Y-120494637D01*
X115414637Y-120294759D01*
X115570000Y-120062241D01*
X115725363Y-120294759D01*
X115925241Y-120494637D01*
X116160273Y-120651680D01*
X116421426Y-120759853D01*
X116698665Y-120815000D01*
X116981335Y-120815000D01*
X117258574Y-120759853D01*
X117519727Y-120651680D01*
X117754759Y-120494637D01*
X117954637Y-120294759D01*
X118110000Y-120062241D01*
X118265363Y-120294759D01*
X118465241Y-120494637D01*
X118700273Y-120651680D01*
X118961426Y-120759853D01*
X119238665Y-120815000D01*
X119521335Y-120815000D01*
X119798574Y-120759853D01*
X120059727Y-120651680D01*
X120294759Y-120494637D01*
X120494637Y-120294759D01*
X120650000Y-120062241D01*
X120805363Y-120294759D01*
X121005241Y-120494637D01*
X121240273Y-120651680D01*
X121501426Y-120759853D01*
X121778665Y-120815000D01*
X122061335Y-120815000D01*
X122338574Y-120759853D01*
X122599727Y-120651680D01*
X122834759Y-120494637D01*
X123034637Y-120294759D01*
X123190000Y-120062241D01*
X123345363Y-120294759D01*
X123545241Y-120494637D01*
X123780273Y-120651680D01*
X124041426Y-120759853D01*
X124318665Y-120815000D01*
X124601335Y-120815000D01*
X124878574Y-120759853D01*
X125139727Y-120651680D01*
X125374759Y-120494637D01*
X125574637Y-120294759D01*
X125730000Y-120062241D01*
X125885363Y-120294759D01*
X126085241Y-120494637D01*
X126320273Y-120651680D01*
X126581426Y-120759853D01*
X126858665Y-120815000D01*
X127141335Y-120815000D01*
X127418574Y-120759853D01*
X127679727Y-120651680D01*
X127914759Y-120494637D01*
X128114637Y-120294759D01*
X128270000Y-120062241D01*
X128425363Y-120294759D01*
X128622901Y-120492297D01*
X128230199Y-120885000D01*
X128168061Y-120885000D01*
X127968102Y-120924774D01*
X127779744Y-121002795D01*
X127610226Y-121116063D01*
X127466063Y-121260226D01*
X127352795Y-121429744D01*
X127274774Y-121618102D01*
X127235000Y-121818061D01*
X127235000Y-122021939D01*
X127274774Y-122221898D01*
X127352795Y-122410256D01*
X127466063Y-122579774D01*
X127610226Y-122723937D01*
X127779744Y-122837205D01*
X127968102Y-122915226D01*
X128168061Y-122955000D01*
X128371939Y-122955000D01*
X128571898Y-122915226D01*
X128760256Y-122837205D01*
X128929774Y-122723937D01*
X129073937Y-122579774D01*
X129187205Y-122410256D01*
X129265226Y-122221898D01*
X129305000Y-122021939D01*
X129305000Y-121959801D01*
X129949801Y-121315001D01*
X159179464Y-121315001D01*
X159102795Y-121429744D01*
X159024774Y-121618102D01*
X158985000Y-121818061D01*
X158985000Y-122021939D01*
X159024774Y-122221898D01*
X159102795Y-122410256D01*
X159216063Y-122579774D01*
X159360226Y-122723937D01*
X159529744Y-122837205D01*
X159718102Y-122915226D01*
X159918061Y-122955000D01*
X160121939Y-122955000D01*
X160321898Y-122915226D01*
X160510256Y-122837205D01*
X160679774Y-122723937D01*
X160723711Y-122680000D01*
X191645986Y-122680000D01*
X191643175Y-122685901D01*
X191598524Y-122833110D01*
X191719845Y-123063000D01*
X192913000Y-123063000D01*
X192913000Y-123043000D01*
X193167000Y-123043000D01*
X193167000Y-123063000D01*
X193187000Y-123063000D01*
X193187000Y-123317000D01*
X193167000Y-123317000D01*
X193167000Y-123337000D01*
X192913000Y-123337000D01*
X192913000Y-123317000D01*
X191719845Y-123317000D01*
X191598524Y-123546890D01*
X191643175Y-123694099D01*
X191645986Y-123700000D01*
X160723711Y-123700000D01*
X160679774Y-123656063D01*
X160510256Y-123542795D01*
X160321898Y-123464774D01*
X160121939Y-123425000D01*
X159918061Y-123425000D01*
X159718102Y-123464774D01*
X159529744Y-123542795D01*
X159360226Y-123656063D01*
X159216063Y-123800226D01*
X159102795Y-123969744D01*
X159024774Y-124158102D01*
X158985000Y-124358061D01*
X158985000Y-124561939D01*
X159024774Y-124761898D01*
X159102795Y-124950256D01*
X159216063Y-125119774D01*
X159360226Y-125263937D01*
X159529744Y-125377205D01*
X159718102Y-125455226D01*
X159918061Y-125495000D01*
X160121939Y-125495000D01*
X160321898Y-125455226D01*
X160510256Y-125377205D01*
X160679774Y-125263937D01*
X160723711Y-125220000D01*
X191551928Y-125220000D01*
X191551928Y-126580000D01*
X191564188Y-126704482D01*
X191600498Y-126824180D01*
X191659463Y-126934494D01*
X191738815Y-127031185D01*
X191835506Y-127110537D01*
X191945820Y-127169502D01*
X192065518Y-127205812D01*
X192190000Y-127218072D01*
X193890000Y-127218072D01*
X194014482Y-127205812D01*
X194134180Y-127169502D01*
X194244494Y-127110537D01*
X194341185Y-127031185D01*
X194420537Y-126934494D01*
X194479502Y-126824180D01*
X194515812Y-126704482D01*
X194528072Y-126580000D01*
X194528072Y-124880000D01*
X194515812Y-124755518D01*
X194480080Y-124637724D01*
X194776005Y-124341799D01*
X194805002Y-124318002D01*
X194899975Y-124202277D01*
X194970547Y-124070248D01*
X195014004Y-123926987D01*
X195025001Y-123815334D01*
X195025001Y-123815325D01*
X195028677Y-123778002D01*
X195025001Y-123740679D01*
X195025001Y-93972324D01*
X195028677Y-93935001D01*
X195025001Y-93897678D01*
X195025001Y-93897668D01*
X195014004Y-93786015D01*
X194970547Y-93642754D01*
X194899975Y-93510725D01*
X194805002Y-93395000D01*
X194775998Y-93371197D01*
X194481209Y-93076408D01*
X194525000Y-92856260D01*
X194525000Y-92563740D01*
X194467932Y-92276842D01*
X194355990Y-92006589D01*
X194193475Y-91763368D01*
X193986632Y-91556525D01*
X193743411Y-91394010D01*
X193473158Y-91282068D01*
X193186260Y-91225000D01*
X192893740Y-91225000D01*
X192606842Y-91282068D01*
X192336589Y-91394010D01*
X192093368Y-91556525D01*
X191886525Y-91763368D01*
X191724010Y-92006589D01*
X191612068Y-92276842D01*
X191555000Y-92563740D01*
X191555000Y-92856260D01*
X191612068Y-93143158D01*
X191724010Y-93413411D01*
X191886525Y-93656632D01*
X192093368Y-93863475D01*
X192267760Y-93980000D01*
X192093368Y-94096525D01*
X191886525Y-94303368D01*
X191724010Y-94546589D01*
X191612068Y-94816842D01*
X191555000Y-95103740D01*
X191555000Y-95396260D01*
X191612068Y-95683158D01*
X191724010Y-95953411D01*
X191886525Y-96196632D01*
X192093368Y-96403475D01*
X192267760Y-96520000D01*
X192093368Y-96636525D01*
X191886525Y-96843368D01*
X191724010Y-97086589D01*
X191612068Y-97356842D01*
X191555000Y-97643740D01*
X191555000Y-97936260D01*
X191612068Y-98223158D01*
X191724010Y-98493411D01*
X191886525Y-98736632D01*
X192093368Y-98943475D01*
X192267760Y-99060000D01*
X192093368Y-99176525D01*
X191886525Y-99383368D01*
X191761822Y-99570000D01*
X167073711Y-99570000D01*
X167029774Y-99526063D01*
X166860256Y-99412795D01*
X166671898Y-99334774D01*
X166471939Y-99295000D01*
X166268061Y-99295000D01*
X166068102Y-99334774D01*
X165879744Y-99412795D01*
X165710226Y-99526063D01*
X165566063Y-99670226D01*
X165452795Y-99839744D01*
X165374774Y-100028102D01*
X165335000Y-100228061D01*
X165335000Y-100431939D01*
X165374774Y-100631898D01*
X165452795Y-100820256D01*
X165465987Y-100840000D01*
X148023711Y-100840000D01*
X147979774Y-100796063D01*
X147810256Y-100682795D01*
X147621898Y-100604774D01*
X147421939Y-100565000D01*
X147218061Y-100565000D01*
X147018102Y-100604774D01*
X146829744Y-100682795D01*
X146660226Y-100796063D01*
X146516063Y-100940226D01*
X146402795Y-101109744D01*
X146324774Y-101298102D01*
X146285000Y-101498061D01*
X146285000Y-101701939D01*
X146324774Y-101901898D01*
X146402795Y-102090256D01*
X146516063Y-102259774D01*
X146660226Y-102403937D01*
X146829744Y-102517205D01*
X147018102Y-102595226D01*
X147218061Y-102635000D01*
X147421939Y-102635000D01*
X147621898Y-102595226D01*
X147810256Y-102517205D01*
X147979774Y-102403937D01*
X148023711Y-102360000D01*
X191455199Y-102360000D01*
X191598791Y-102503592D01*
X191555000Y-102723740D01*
X191555000Y-103016260D01*
X191612068Y-103303158D01*
X191724010Y-103573411D01*
X191886525Y-103816632D01*
X192093368Y-104023475D01*
X192267760Y-104140000D01*
X192093368Y-104256525D01*
X191886525Y-104463368D01*
X191724010Y-104706589D01*
X191612068Y-104976842D01*
X191555000Y-105263740D01*
X191555000Y-105556260D01*
X191598790Y-105776408D01*
X190960199Y-106415000D01*
X160975137Y-106415000D01*
X160931200Y-106371063D01*
X160761682Y-106257795D01*
X160573324Y-106179774D01*
X160373365Y-106140000D01*
X160169487Y-106140000D01*
X159969528Y-106179774D01*
X159781170Y-106257795D01*
X159611652Y-106371063D01*
X159467489Y-106515226D01*
X159354221Y-106684744D01*
X159276200Y-106873102D01*
X159236426Y-107073061D01*
X159236426Y-107276939D01*
X159276200Y-107476898D01*
X159354221Y-107665256D01*
X159467489Y-107834774D01*
X159611652Y-107978937D01*
X159781170Y-108092205D01*
X159969528Y-108170226D01*
X160169487Y-108210000D01*
X160373365Y-108210000D01*
X160573324Y-108170226D01*
X160761682Y-108092205D01*
X160931200Y-107978937D01*
X160975137Y-107935000D01*
X191237678Y-107935000D01*
X191275000Y-107938676D01*
X191312322Y-107935000D01*
X191312333Y-107935000D01*
X191423986Y-107924003D01*
X191555000Y-107884261D01*
X191555000Y-108096260D01*
X191612068Y-108383158D01*
X191724010Y-108653411D01*
X191886525Y-108896632D01*
X192093368Y-109103475D01*
X192267760Y-109220000D01*
X192093368Y-109336525D01*
X191886525Y-109543368D01*
X191724010Y-109786589D01*
X191612068Y-110056842D01*
X191555000Y-110343740D01*
X191555000Y-110636260D01*
X191612068Y-110923158D01*
X191724010Y-111193411D01*
X191886525Y-111436632D01*
X192093368Y-111643475D01*
X192267760Y-111760000D01*
X192093368Y-111876525D01*
X191886525Y-112083368D01*
X191724010Y-112326589D01*
X191612068Y-112596842D01*
X191555000Y-112883740D01*
X191555000Y-113176260D01*
X191612068Y-113463158D01*
X191724010Y-113733411D01*
X191886525Y-113976632D01*
X192093368Y-114183475D01*
X192267760Y-114300000D01*
X192093368Y-114416525D01*
X191886525Y-114623368D01*
X191724010Y-114866589D01*
X191612068Y-115136842D01*
X191555000Y-115423740D01*
X191555000Y-115716260D01*
X191612068Y-116003158D01*
X191724010Y-116273411D01*
X191886525Y-116516632D01*
X192093368Y-116723475D01*
X192267760Y-116840000D01*
X192093368Y-116956525D01*
X191886525Y-117163368D01*
X191724010Y-117406589D01*
X191612068Y-117676842D01*
X191555000Y-117963740D01*
X191555000Y-118256260D01*
X191598790Y-118476407D01*
X190280198Y-119795001D01*
X171560564Y-119795001D01*
X171615000Y-119521335D01*
X171615000Y-119238665D01*
X171559853Y-118961426D01*
X171521983Y-118870000D01*
X188526289Y-118870000D01*
X188570226Y-118913937D01*
X188739744Y-119027205D01*
X188928102Y-119105226D01*
X189128061Y-119145000D01*
X189331939Y-119145000D01*
X189531898Y-119105226D01*
X189720256Y-119027205D01*
X189889774Y-118913937D01*
X190033937Y-118769774D01*
X190147205Y-118600256D01*
X190225226Y-118411898D01*
X190265000Y-118211939D01*
X190265000Y-118008061D01*
X190225226Y-117808102D01*
X190147205Y-117619744D01*
X190033937Y-117450226D01*
X189889774Y-117306063D01*
X189720256Y-117192795D01*
X189531898Y-117114774D01*
X189331939Y-117075000D01*
X189128061Y-117075000D01*
X188928102Y-117114774D01*
X188739744Y-117192795D01*
X188570226Y-117306063D01*
X188526289Y-117350000D01*
X158821983Y-117350000D01*
X158859853Y-117258574D01*
X158915000Y-116981335D01*
X158915000Y-116698665D01*
X158859853Y-116421426D01*
X158821983Y-116330000D01*
X187256289Y-116330000D01*
X187300226Y-116373937D01*
X187469744Y-116487205D01*
X187658102Y-116565226D01*
X187858061Y-116605000D01*
X188061939Y-116605000D01*
X188261898Y-116565226D01*
X188450256Y-116487205D01*
X188619774Y-116373937D01*
X188763937Y-116229774D01*
X188877205Y-116060256D01*
X188955226Y-115871898D01*
X188995000Y-115671939D01*
X188995000Y-115468061D01*
X188955226Y-115268102D01*
X188877205Y-115079744D01*
X188763937Y-114910226D01*
X188619774Y-114766063D01*
X188450256Y-114652795D01*
X188261898Y-114574774D01*
X188061939Y-114535000D01*
X187858061Y-114535000D01*
X187658102Y-114574774D01*
X187469744Y-114652795D01*
X187300226Y-114766063D01*
X187256289Y-114810000D01*
X158821983Y-114810000D01*
X158859853Y-114718574D01*
X158915000Y-114441335D01*
X158915000Y-114158665D01*
X158859853Y-113881426D01*
X158751680Y-113620273D01*
X158594637Y-113385241D01*
X158394759Y-113185363D01*
X158162241Y-113030000D01*
X158394759Y-112874637D01*
X158594637Y-112674759D01*
X158751680Y-112439727D01*
X158859853Y-112178574D01*
X158915000Y-111901335D01*
X158915000Y-111618665D01*
X158859853Y-111341426D01*
X158751680Y-111080273D01*
X158594637Y-110845241D01*
X158394759Y-110645363D01*
X158162241Y-110490000D01*
X158394759Y-110334637D01*
X158594637Y-110134759D01*
X158751680Y-109899727D01*
X158859853Y-109638574D01*
X158915000Y-109361335D01*
X158915000Y-109078665D01*
X158859853Y-108801426D01*
X158751680Y-108540273D01*
X158594637Y-108305241D01*
X158394759Y-108105363D01*
X158162241Y-107950000D01*
X158394759Y-107794637D01*
X158594637Y-107594759D01*
X158751680Y-107359727D01*
X158859853Y-107098574D01*
X158915000Y-106821335D01*
X158915000Y-106538665D01*
X158859853Y-106261426D01*
X158751680Y-106000273D01*
X158594637Y-105765241D01*
X158394759Y-105565363D01*
X158162241Y-105410000D01*
X158394759Y-105254637D01*
X158594637Y-105054759D01*
X158750000Y-104822241D01*
X158905363Y-105054759D01*
X159105241Y-105254637D01*
X159340273Y-105411680D01*
X159601426Y-105519853D01*
X159878665Y-105575000D01*
X160161335Y-105575000D01*
X160438574Y-105519853D01*
X160699727Y-105411680D01*
X160934759Y-105254637D01*
X161134637Y-105054759D01*
X161290000Y-104822241D01*
X161445363Y-105054759D01*
X161645241Y-105254637D01*
X161880273Y-105411680D01*
X162141426Y-105519853D01*
X162418665Y-105575000D01*
X162701335Y-105575000D01*
X162978574Y-105519853D01*
X163239727Y-105411680D01*
X163474759Y-105254637D01*
X163674637Y-105054759D01*
X163830000Y-104822241D01*
X163985363Y-105054759D01*
X164185241Y-105254637D01*
X164420273Y-105411680D01*
X164681426Y-105519853D01*
X164958665Y-105575000D01*
X165241335Y-105575000D01*
X165518574Y-105519853D01*
X165779727Y-105411680D01*
X166014759Y-105254637D01*
X166214637Y-105054759D01*
X166370000Y-104822241D01*
X166525363Y-105054759D01*
X166725241Y-105254637D01*
X166960273Y-105411680D01*
X167221426Y-105519853D01*
X167498665Y-105575000D01*
X167781335Y-105575000D01*
X168058574Y-105519853D01*
X168319727Y-105411680D01*
X168554759Y-105254637D01*
X168754637Y-105054759D01*
X168910000Y-104822241D01*
X169065363Y-105054759D01*
X169265241Y-105254637D01*
X169500273Y-105411680D01*
X169761426Y-105519853D01*
X170038665Y-105575000D01*
X170321335Y-105575000D01*
X170598574Y-105519853D01*
X170859727Y-105411680D01*
X171094759Y-105254637D01*
X171294637Y-105054759D01*
X171451680Y-104819727D01*
X171559853Y-104558574D01*
X171615000Y-104281335D01*
X171615000Y-103998665D01*
X171559853Y-103721426D01*
X171451680Y-103460273D01*
X171294637Y-103225241D01*
X171094759Y-103025363D01*
X170859727Y-102868320D01*
X170598574Y-102760147D01*
X170321335Y-102705000D01*
X170038665Y-102705000D01*
X169761426Y-102760147D01*
X169500273Y-102868320D01*
X169265241Y-103025363D01*
X169065363Y-103225241D01*
X168910000Y-103457759D01*
X168754637Y-103225241D01*
X168554759Y-103025363D01*
X168319727Y-102868320D01*
X168058574Y-102760147D01*
X167781335Y-102705000D01*
X167498665Y-102705000D01*
X167221426Y-102760147D01*
X166960273Y-102868320D01*
X166725241Y-103025363D01*
X166525363Y-103225241D01*
X166370000Y-103457759D01*
X166214637Y-103225241D01*
X166014759Y-103025363D01*
X165779727Y-102868320D01*
X165518574Y-102760147D01*
X165241335Y-102705000D01*
X164958665Y-102705000D01*
X164681426Y-102760147D01*
X164420273Y-102868320D01*
X164185241Y-103025363D01*
X163985363Y-103225241D01*
X163830000Y-103457759D01*
X163674637Y-103225241D01*
X163474759Y-103025363D01*
X163239727Y-102868320D01*
X162978574Y-102760147D01*
X162701335Y-102705000D01*
X162418665Y-102705000D01*
X162141426Y-102760147D01*
X161880273Y-102868320D01*
X161645241Y-103025363D01*
X161445363Y-103225241D01*
X161290000Y-103457759D01*
X161134637Y-103225241D01*
X160934759Y-103025363D01*
X160699727Y-102868320D01*
X160438574Y-102760147D01*
X160161335Y-102705000D01*
X159878665Y-102705000D01*
X159601426Y-102760147D01*
X159340273Y-102868320D01*
X159105241Y-103025363D01*
X158905363Y-103225241D01*
X158750000Y-103457759D01*
X158594637Y-103225241D01*
X158394759Y-103025363D01*
X158159727Y-102868320D01*
X157898574Y-102760147D01*
X157621335Y-102705000D01*
X157338665Y-102705000D01*
X157061426Y-102760147D01*
X156800273Y-102868320D01*
X156565241Y-103025363D01*
X156365363Y-103225241D01*
X156210000Y-103457759D01*
X156054637Y-103225241D01*
X155854759Y-103025363D01*
X155619727Y-102868320D01*
X155358574Y-102760147D01*
X155081335Y-102705000D01*
X154798665Y-102705000D01*
X154521426Y-102760147D01*
X154260273Y-102868320D01*
X154025241Y-103025363D01*
X153825363Y-103225241D01*
X153670000Y-103457759D01*
X153514637Y-103225241D01*
X153314759Y-103025363D01*
X153079727Y-102868320D01*
X152818574Y-102760147D01*
X152541335Y-102705000D01*
X152258665Y-102705000D01*
X151981426Y-102760147D01*
X151720273Y-102868320D01*
X151485241Y-103025363D01*
X151285363Y-103225241D01*
X151130000Y-103457759D01*
X150974637Y-103225241D01*
X150774759Y-103025363D01*
X150539727Y-102868320D01*
X150278574Y-102760147D01*
X150001335Y-102705000D01*
X149718665Y-102705000D01*
X149441426Y-102760147D01*
X149180273Y-102868320D01*
X148945241Y-103025363D01*
X148745363Y-103225241D01*
X148589085Y-103459128D01*
X148556671Y-103398486D01*
X148312702Y-103326903D01*
X147499605Y-104140000D01*
X148312702Y-104953097D01*
X148556671Y-104881514D01*
X148587194Y-104817008D01*
X148588320Y-104819727D01*
X148745363Y-105054759D01*
X148945241Y-105254637D01*
X149180273Y-105411680D01*
X149441426Y-105519853D01*
X149718665Y-105575000D01*
X150001335Y-105575000D01*
X150278574Y-105519853D01*
X150539727Y-105411680D01*
X150774759Y-105254637D01*
X150974637Y-105054759D01*
X151130000Y-104822241D01*
X151285363Y-105054759D01*
X151485241Y-105254637D01*
X151720273Y-105411680D01*
X151981426Y-105519853D01*
X152258665Y-105575000D01*
X152541335Y-105575000D01*
X152818574Y-105519853D01*
X153079727Y-105411680D01*
X153314759Y-105254637D01*
X153514637Y-105054759D01*
X153670000Y-104822241D01*
X153825363Y-105054759D01*
X154025241Y-105254637D01*
X154260273Y-105411680D01*
X154521426Y-105519853D01*
X154798665Y-105575000D01*
X155081335Y-105575000D01*
X155358574Y-105519853D01*
X155619727Y-105411680D01*
X155854759Y-105254637D01*
X156054637Y-105054759D01*
X156210000Y-104822241D01*
X156365363Y-105054759D01*
X156565241Y-105254637D01*
X156797759Y-105410000D01*
X156565241Y-105565363D01*
X156365363Y-105765241D01*
X156208320Y-106000273D01*
X156100147Y-106261426D01*
X156045000Y-106538665D01*
X156045000Y-106821335D01*
X156100147Y-107098574D01*
X156208320Y-107359727D01*
X156365363Y-107594759D01*
X156565241Y-107794637D01*
X156797759Y-107950000D01*
X156565241Y-108105363D01*
X156365363Y-108305241D01*
X156208320Y-108540273D01*
X156100147Y-108801426D01*
X156045000Y-109078665D01*
X156045000Y-109361335D01*
X156100147Y-109638574D01*
X156208320Y-109899727D01*
X156365363Y-110134759D01*
X156565241Y-110334637D01*
X156797759Y-110490000D01*
X156565241Y-110645363D01*
X156365363Y-110845241D01*
X156208320Y-111080273D01*
X156100147Y-111341426D01*
X156045000Y-111618665D01*
X156045000Y-111901335D01*
X156100147Y-112178574D01*
X156208320Y-112439727D01*
X156365363Y-112674759D01*
X156565241Y-112874637D01*
X156797759Y-113030000D01*
X156565241Y-113185363D01*
X156365363Y-113385241D01*
X156208320Y-113620273D01*
X156100147Y-113881426D01*
X156045000Y-114158665D01*
X156045000Y-114441335D01*
X156100147Y-114718574D01*
X156138017Y-114810000D01*
X146753711Y-114810000D01*
X146709774Y-114766063D01*
X146540256Y-114652795D01*
X146351898Y-114574774D01*
X146151939Y-114535000D01*
X145948061Y-114535000D01*
X145748102Y-114574774D01*
X145559744Y-114652795D01*
X145390226Y-114766063D01*
X145246063Y-114910226D01*
X145132795Y-115079744D01*
X145054774Y-115268102D01*
X145015000Y-115468061D01*
X145015000Y-115671939D01*
X145054774Y-115871898D01*
X145132795Y-116060256D01*
X145246063Y-116229774D01*
X145390226Y-116373937D01*
X145559744Y-116487205D01*
X145748102Y-116565226D01*
X145948061Y-116605000D01*
X146151939Y-116605000D01*
X146351898Y-116565226D01*
X146540256Y-116487205D01*
X146709774Y-116373937D01*
X146753711Y-116330000D01*
X156138017Y-116330000D01*
X156100147Y-116421426D01*
X156045000Y-116698665D01*
X156045000Y-116981335D01*
X156100147Y-117258574D01*
X156138017Y-117350000D01*
X145094802Y-117350000D01*
X144545000Y-116800199D01*
X144545000Y-116738061D01*
X144505226Y-116538102D01*
X144427205Y-116349744D01*
X144313937Y-116180226D01*
X144169774Y-116036063D01*
X144000256Y-115922795D01*
X143811898Y-115844774D01*
X143611939Y-115805000D01*
X143408061Y-115805000D01*
X143208102Y-115844774D01*
X143019744Y-115922795D01*
X142850226Y-116036063D01*
X142706063Y-116180226D01*
X142592795Y-116349744D01*
X142514774Y-116538102D01*
X142475000Y-116738061D01*
X142475000Y-116941939D01*
X142514774Y-117141898D01*
X142592795Y-117330256D01*
X142706063Y-117499774D01*
X142850226Y-117643937D01*
X143019744Y-117757205D01*
X143208102Y-117835226D01*
X143408061Y-117875000D01*
X143470199Y-117875000D01*
X143862901Y-118267703D01*
X143665363Y-118465241D01*
X143510000Y-118697759D01*
X143354637Y-118465241D01*
X143154759Y-118265363D01*
X142919727Y-118108320D01*
X142658574Y-118000147D01*
X142381335Y-117945000D01*
X142098665Y-117945000D01*
X141821426Y-118000147D01*
X141560273Y-118108320D01*
X141325241Y-118265363D01*
X141125363Y-118465241D01*
X140970000Y-118697759D01*
X140814637Y-118465241D01*
X140614759Y-118265363D01*
X140379727Y-118108320D01*
X140118574Y-118000147D01*
X139841335Y-117945000D01*
X139558665Y-117945000D01*
X139281426Y-118000147D01*
X139020273Y-118108320D01*
X138785241Y-118265363D01*
X138585363Y-118465241D01*
X138430000Y-118697759D01*
X138274637Y-118465241D01*
X138074759Y-118265363D01*
X137839727Y-118108320D01*
X137578574Y-118000147D01*
X137301335Y-117945000D01*
X137018665Y-117945000D01*
X136741426Y-118000147D01*
X136480273Y-118108320D01*
X136245241Y-118265363D01*
X136045363Y-118465241D01*
X135890000Y-118697759D01*
X135734637Y-118465241D01*
X135534759Y-118265363D01*
X135299727Y-118108320D01*
X135038574Y-118000147D01*
X134761335Y-117945000D01*
X134478665Y-117945000D01*
X134201426Y-118000147D01*
X133940273Y-118108320D01*
X133705241Y-118265363D01*
X133505363Y-118465241D01*
X133350000Y-118697759D01*
X133194637Y-118465241D01*
X132994759Y-118265363D01*
X132759727Y-118108320D01*
X132498574Y-118000147D01*
X132221335Y-117945000D01*
X131938665Y-117945000D01*
X131661426Y-118000147D01*
X131400273Y-118108320D01*
X131165241Y-118265363D01*
X130965363Y-118465241D01*
X130810000Y-118697759D01*
X130654637Y-118465241D01*
X130454759Y-118265363D01*
X130219727Y-118108320D01*
X129958574Y-118000147D01*
X129681335Y-117945000D01*
X129398665Y-117945000D01*
X129121426Y-118000147D01*
X128860273Y-118108320D01*
X128625241Y-118265363D01*
X128425363Y-118465241D01*
X128270000Y-118697759D01*
X128114637Y-118465241D01*
X127914759Y-118265363D01*
X127679727Y-118108320D01*
X127418574Y-118000147D01*
X127141335Y-117945000D01*
X126858665Y-117945000D01*
X126581426Y-118000147D01*
X126320273Y-118108320D01*
X126085241Y-118265363D01*
X125885363Y-118465241D01*
X125730000Y-118697759D01*
X125574637Y-118465241D01*
X125374759Y-118265363D01*
X125139727Y-118108320D01*
X124878574Y-118000147D01*
X124601335Y-117945000D01*
X124318665Y-117945000D01*
X124041426Y-118000147D01*
X123780273Y-118108320D01*
X123545241Y-118265363D01*
X123345363Y-118465241D01*
X123190000Y-118697759D01*
X123034637Y-118465241D01*
X122834759Y-118265363D01*
X122599727Y-118108320D01*
X122338574Y-118000147D01*
X122061335Y-117945000D01*
X121778665Y-117945000D01*
X121501426Y-118000147D01*
X121240273Y-118108320D01*
X121005241Y-118265363D01*
X120805363Y-118465241D01*
X120650000Y-118697759D01*
X120494637Y-118465241D01*
X120294759Y-118265363D01*
X120059727Y-118108320D01*
X119798574Y-118000147D01*
X119521335Y-117945000D01*
X119238665Y-117945000D01*
X118961426Y-118000147D01*
X118700273Y-118108320D01*
X118465241Y-118265363D01*
X118265363Y-118465241D01*
X118110000Y-118697759D01*
X117954637Y-118465241D01*
X117754759Y-118265363D01*
X117519727Y-118108320D01*
X117258574Y-118000147D01*
X116981335Y-117945000D01*
X116698665Y-117945000D01*
X116421426Y-118000147D01*
X116160273Y-118108320D01*
X115925241Y-118265363D01*
X115725363Y-118465241D01*
X115570000Y-118697759D01*
X115414637Y-118465241D01*
X115214759Y-118265363D01*
X114979727Y-118108320D01*
X114718574Y-118000147D01*
X114441335Y-117945000D01*
X114158665Y-117945000D01*
X113881426Y-118000147D01*
X113620273Y-118108320D01*
X113385241Y-118265363D01*
X113186643Y-118463961D01*
X113185812Y-118455518D01*
X113149502Y-118335820D01*
X113090537Y-118225506D01*
X113011185Y-118128815D01*
X112914494Y-118049463D01*
X112804180Y-117990498D01*
X112684482Y-117954188D01*
X112560000Y-117941928D01*
X112045750Y-117945000D01*
X111887000Y-118103750D01*
X111633000Y-118103750D01*
X111474250Y-117945000D01*
X110960000Y-117941928D01*
X110835518Y-117954188D01*
X110715820Y-117990498D01*
X110617000Y-118043319D01*
X110617000Y-116238665D01*
X116675000Y-116238665D01*
X116675000Y-116521335D01*
X116730147Y-116798574D01*
X116838320Y-117059727D01*
X116995363Y-117294759D01*
X117195241Y-117494637D01*
X117430273Y-117651680D01*
X117691426Y-117759853D01*
X117968665Y-117815000D01*
X118251335Y-117815000D01*
X118528574Y-117759853D01*
X118789727Y-117651680D01*
X119024759Y-117494637D01*
X119224637Y-117294759D01*
X119380000Y-117062241D01*
X119535363Y-117294759D01*
X119735241Y-117494637D01*
X119970273Y-117651680D01*
X120231426Y-117759853D01*
X120508665Y-117815000D01*
X120791335Y-117815000D01*
X121068574Y-117759853D01*
X121329727Y-117651680D01*
X121564759Y-117494637D01*
X121764637Y-117294759D01*
X121920000Y-117062241D01*
X122075363Y-117294759D01*
X122275241Y-117494637D01*
X122510273Y-117651680D01*
X122771426Y-117759853D01*
X123048665Y-117815000D01*
X123331335Y-117815000D01*
X123608574Y-117759853D01*
X123869727Y-117651680D01*
X124104759Y-117494637D01*
X124304637Y-117294759D01*
X124460000Y-117062241D01*
X124615363Y-117294759D01*
X124815241Y-117494637D01*
X125050273Y-117651680D01*
X125311426Y-117759853D01*
X125588665Y-117815000D01*
X125871335Y-117815000D01*
X126148574Y-117759853D01*
X126409727Y-117651680D01*
X126644759Y-117494637D01*
X126844637Y-117294759D01*
X127000000Y-117062241D01*
X127155363Y-117294759D01*
X127355241Y-117494637D01*
X127590273Y-117651680D01*
X127851426Y-117759853D01*
X128128665Y-117815000D01*
X128411335Y-117815000D01*
X128688574Y-117759853D01*
X128949727Y-117651680D01*
X129184759Y-117494637D01*
X129384637Y-117294759D01*
X129541680Y-117059727D01*
X129649853Y-116798574D01*
X129705000Y-116521335D01*
X129705000Y-116238665D01*
X129649853Y-115961426D01*
X129541680Y-115700273D01*
X129384637Y-115465241D01*
X129184759Y-115265363D01*
X128949727Y-115108320D01*
X128688574Y-115000147D01*
X128411335Y-114945000D01*
X128128665Y-114945000D01*
X127851426Y-115000147D01*
X127590273Y-115108320D01*
X127355241Y-115265363D01*
X127155363Y-115465241D01*
X127000000Y-115697759D01*
X126844637Y-115465241D01*
X126644759Y-115265363D01*
X126409727Y-115108320D01*
X126148574Y-115000147D01*
X125871335Y-114945000D01*
X125588665Y-114945000D01*
X125311426Y-115000147D01*
X125050273Y-115108320D01*
X124815241Y-115265363D01*
X124615363Y-115465241D01*
X124460000Y-115697759D01*
X124304637Y-115465241D01*
X124104759Y-115265363D01*
X123869727Y-115108320D01*
X123608574Y-115000147D01*
X123331335Y-114945000D01*
X123048665Y-114945000D01*
X122771426Y-115000147D01*
X122510273Y-115108320D01*
X122275241Y-115265363D01*
X122075363Y-115465241D01*
X121920000Y-115697759D01*
X121764637Y-115465241D01*
X121564759Y-115265363D01*
X121329727Y-115108320D01*
X121068574Y-115000147D01*
X120791335Y-114945000D01*
X120508665Y-114945000D01*
X120231426Y-115000147D01*
X119970273Y-115108320D01*
X119735241Y-115265363D01*
X119535363Y-115465241D01*
X119380000Y-115697759D01*
X119224637Y-115465241D01*
X119024759Y-115265363D01*
X118789727Y-115108320D01*
X118528574Y-115000147D01*
X118251335Y-114945000D01*
X117968665Y-114945000D01*
X117691426Y-115000147D01*
X117430273Y-115108320D01*
X117195241Y-115265363D01*
X116995363Y-115465241D01*
X116838320Y-115700273D01*
X116730147Y-115961426D01*
X116675000Y-116238665D01*
X110617000Y-116238665D01*
X110617000Y-105012311D01*
X110645363Y-105054759D01*
X110845241Y-105254637D01*
X111080273Y-105411680D01*
X111341426Y-105519853D01*
X111618665Y-105575000D01*
X111901335Y-105575000D01*
X112178574Y-105519853D01*
X112439727Y-105411680D01*
X112674759Y-105254637D01*
X112874637Y-105054759D01*
X113030000Y-104822241D01*
X113185363Y-105054759D01*
X113385241Y-105254637D01*
X113617759Y-105410000D01*
X113385241Y-105565363D01*
X113185363Y-105765241D01*
X113028320Y-106000273D01*
X112920147Y-106261426D01*
X112865000Y-106538665D01*
X112865000Y-106821335D01*
X112920147Y-107098574D01*
X113028320Y-107359727D01*
X113185363Y-107594759D01*
X113385241Y-107794637D01*
X113620273Y-107951680D01*
X113881426Y-108059853D01*
X114158665Y-108115000D01*
X114441335Y-108115000D01*
X114718574Y-108059853D01*
X114979727Y-107951680D01*
X115214759Y-107794637D01*
X115414637Y-107594759D01*
X115571680Y-107359727D01*
X115679853Y-107098574D01*
X115735000Y-106821335D01*
X115735000Y-106538665D01*
X115679853Y-106261426D01*
X115571680Y-106000273D01*
X115414637Y-105765241D01*
X115214759Y-105565363D01*
X114982241Y-105410000D01*
X115214759Y-105254637D01*
X115414637Y-105054759D01*
X115570000Y-104822241D01*
X115725363Y-105054759D01*
X115925241Y-105254637D01*
X116160273Y-105411680D01*
X116421426Y-105519853D01*
X116698665Y-105575000D01*
X116981335Y-105575000D01*
X117258574Y-105519853D01*
X117519727Y-105411680D01*
X117754759Y-105254637D01*
X117954637Y-105054759D01*
X118110000Y-104822241D01*
X118265363Y-105054759D01*
X118465241Y-105254637D01*
X118697759Y-105410000D01*
X118465241Y-105565363D01*
X118265363Y-105765241D01*
X118108320Y-106000273D01*
X118000147Y-106261426D01*
X117945000Y-106538665D01*
X117945000Y-106821335D01*
X118000147Y-107098574D01*
X118108320Y-107359727D01*
X118265363Y-107594759D01*
X118465241Y-107794637D01*
X118700273Y-107951680D01*
X118961426Y-108059853D01*
X119238665Y-108115000D01*
X119521335Y-108115000D01*
X119798574Y-108059853D01*
X120059727Y-107951680D01*
X120294759Y-107794637D01*
X120494637Y-107594759D01*
X120650000Y-107362241D01*
X120805363Y-107594759D01*
X121005241Y-107794637D01*
X121240273Y-107951680D01*
X121501426Y-108059853D01*
X121778665Y-108115000D01*
X122061335Y-108115000D01*
X122338574Y-108059853D01*
X122599727Y-107951680D01*
X122834759Y-107794637D01*
X123034637Y-107594759D01*
X123190000Y-107362241D01*
X123345363Y-107594759D01*
X123545241Y-107794637D01*
X123780273Y-107951680D01*
X124041426Y-108059853D01*
X124318665Y-108115000D01*
X124601335Y-108115000D01*
X124878574Y-108059853D01*
X125139727Y-107951680D01*
X125374759Y-107794637D01*
X125574637Y-107594759D01*
X125731680Y-107359727D01*
X125839853Y-107098574D01*
X125895000Y-106821335D01*
X125895000Y-106538665D01*
X125839853Y-106261426D01*
X125731680Y-106000273D01*
X125574637Y-105765241D01*
X125374759Y-105565363D01*
X125142241Y-105410000D01*
X125374759Y-105254637D01*
X125574637Y-105054759D01*
X125730000Y-104822241D01*
X125885363Y-105054759D01*
X126085241Y-105254637D01*
X126320273Y-105411680D01*
X126581426Y-105519853D01*
X126858665Y-105575000D01*
X127141335Y-105575000D01*
X127418574Y-105519853D01*
X127679727Y-105411680D01*
X127914759Y-105254637D01*
X128114637Y-105054759D01*
X128270000Y-104822241D01*
X128425363Y-105054759D01*
X128625241Y-105254637D01*
X128860273Y-105411680D01*
X129121426Y-105519853D01*
X129398665Y-105575000D01*
X129681335Y-105575000D01*
X129958574Y-105519853D01*
X130219727Y-105411680D01*
X130454759Y-105254637D01*
X130654637Y-105054759D01*
X130810000Y-104822241D01*
X130965363Y-105054759D01*
X131165241Y-105254637D01*
X131400273Y-105411680D01*
X131661426Y-105519853D01*
X131938665Y-105575000D01*
X132221335Y-105575000D01*
X132498574Y-105519853D01*
X132759727Y-105411680D01*
X132994759Y-105254637D01*
X133194637Y-105054759D01*
X133350000Y-104822241D01*
X133505363Y-105054759D01*
X133705241Y-105254637D01*
X133940273Y-105411680D01*
X134201426Y-105519853D01*
X134478665Y-105575000D01*
X134761335Y-105575000D01*
X135038574Y-105519853D01*
X135299727Y-105411680D01*
X135534759Y-105254637D01*
X135734637Y-105054759D01*
X135890000Y-104822241D01*
X136045363Y-105054759D01*
X136245241Y-105254637D01*
X136480273Y-105411680D01*
X136741426Y-105519853D01*
X137018665Y-105575000D01*
X137301335Y-105575000D01*
X137578574Y-105519853D01*
X137839727Y-105411680D01*
X138074759Y-105254637D01*
X138274637Y-105054759D01*
X138430000Y-104822241D01*
X138585363Y-105054759D01*
X138785241Y-105254637D01*
X139020273Y-105411680D01*
X139281426Y-105519853D01*
X139558665Y-105575000D01*
X139841335Y-105575000D01*
X140118574Y-105519853D01*
X140379727Y-105411680D01*
X140614759Y-105254637D01*
X140814637Y-105054759D01*
X140970000Y-104822241D01*
X141125363Y-105054759D01*
X141325241Y-105254637D01*
X141560273Y-105411680D01*
X141821426Y-105519853D01*
X142098665Y-105575000D01*
X142381335Y-105575000D01*
X142658574Y-105519853D01*
X142919727Y-105411680D01*
X143154759Y-105254637D01*
X143354637Y-105054759D01*
X143510000Y-104822241D01*
X143665363Y-105054759D01*
X143865241Y-105254637D01*
X144100273Y-105411680D01*
X144361426Y-105519853D01*
X144638665Y-105575000D01*
X144921335Y-105575000D01*
X145198574Y-105519853D01*
X145459727Y-105411680D01*
X145694759Y-105254637D01*
X145816694Y-105132702D01*
X146506903Y-105132702D01*
X146578486Y-105376671D01*
X146833996Y-105497571D01*
X147108184Y-105566300D01*
X147390512Y-105580217D01*
X147670130Y-105538787D01*
X147936292Y-105443603D01*
X148061514Y-105376671D01*
X148133097Y-105132702D01*
X147320000Y-104319605D01*
X146506903Y-105132702D01*
X145816694Y-105132702D01*
X145894637Y-105054759D01*
X146050915Y-104820872D01*
X146083329Y-104881514D01*
X146327298Y-104953097D01*
X147140395Y-104140000D01*
X146327298Y-103326903D01*
X146083329Y-103398486D01*
X146052806Y-103462992D01*
X146051680Y-103460273D01*
X145894637Y-103225241D01*
X145816694Y-103147298D01*
X146506903Y-103147298D01*
X147320000Y-103960395D01*
X148133097Y-103147298D01*
X148061514Y-102903329D01*
X147806004Y-102782429D01*
X147531816Y-102713700D01*
X147249488Y-102699783D01*
X146969870Y-102741213D01*
X146703708Y-102836397D01*
X146578486Y-102903329D01*
X146506903Y-103147298D01*
X145816694Y-103147298D01*
X145694759Y-103025363D01*
X145459727Y-102868320D01*
X145198574Y-102760147D01*
X144921335Y-102705000D01*
X144638665Y-102705000D01*
X144361426Y-102760147D01*
X144100273Y-102868320D01*
X143865241Y-103025363D01*
X143665363Y-103225241D01*
X143510000Y-103457759D01*
X143354637Y-103225241D01*
X143154759Y-103025363D01*
X142919727Y-102868320D01*
X142658574Y-102760147D01*
X142381335Y-102705000D01*
X142098665Y-102705000D01*
X141821426Y-102760147D01*
X141560273Y-102868320D01*
X141325241Y-103025363D01*
X141125363Y-103225241D01*
X140970000Y-103457759D01*
X140814637Y-103225241D01*
X140614759Y-103025363D01*
X140379727Y-102868320D01*
X140118574Y-102760147D01*
X139841335Y-102705000D01*
X139558665Y-102705000D01*
X139281426Y-102760147D01*
X139020273Y-102868320D01*
X138785241Y-103025363D01*
X138585363Y-103225241D01*
X138430000Y-103457759D01*
X138274637Y-103225241D01*
X138074759Y-103025363D01*
X137839727Y-102868320D01*
X137578574Y-102760147D01*
X137301335Y-102705000D01*
X137018665Y-102705000D01*
X136741426Y-102760147D01*
X136480273Y-102868320D01*
X136245241Y-103025363D01*
X136045363Y-103225241D01*
X135890000Y-103457759D01*
X135734637Y-103225241D01*
X135534759Y-103025363D01*
X135299727Y-102868320D01*
X135038574Y-102760147D01*
X134761335Y-102705000D01*
X134478665Y-102705000D01*
X134201426Y-102760147D01*
X133940273Y-102868320D01*
X133705241Y-103025363D01*
X133505363Y-103225241D01*
X133350000Y-103457759D01*
X133194637Y-103225241D01*
X132994759Y-103025363D01*
X132759727Y-102868320D01*
X132498574Y-102760147D01*
X132221335Y-102705000D01*
X131938665Y-102705000D01*
X131661426Y-102760147D01*
X131400273Y-102868320D01*
X131165241Y-103025363D01*
X130965363Y-103225241D01*
X130810000Y-103457759D01*
X130654637Y-103225241D01*
X130454759Y-103025363D01*
X130219727Y-102868320D01*
X129958574Y-102760147D01*
X129681335Y-102705000D01*
X129398665Y-102705000D01*
X129121426Y-102760147D01*
X128860273Y-102868320D01*
X128625241Y-103025363D01*
X128425363Y-103225241D01*
X128270000Y-103457759D01*
X128114637Y-103225241D01*
X127914759Y-103025363D01*
X127679727Y-102868320D01*
X127418574Y-102760147D01*
X127141335Y-102705000D01*
X126858665Y-102705000D01*
X126581426Y-102760147D01*
X126320273Y-102868320D01*
X126085241Y-103025363D01*
X125885363Y-103225241D01*
X125730000Y-103457759D01*
X125574637Y-103225241D01*
X125374759Y-103025363D01*
X125139727Y-102868320D01*
X124878574Y-102760147D01*
X124601335Y-102705000D01*
X124318665Y-102705000D01*
X124041426Y-102760147D01*
X123780273Y-102868320D01*
X123545241Y-103025363D01*
X123345363Y-103225241D01*
X123190000Y-103457759D01*
X123034637Y-103225241D01*
X122834759Y-103025363D01*
X122599727Y-102868320D01*
X122338574Y-102760147D01*
X122061335Y-102705000D01*
X121778665Y-102705000D01*
X121501426Y-102760147D01*
X121240273Y-102868320D01*
X121005241Y-103025363D01*
X120805363Y-103225241D01*
X120650000Y-103457759D01*
X120494637Y-103225241D01*
X120294759Y-103025363D01*
X120059727Y-102868320D01*
X119798574Y-102760147D01*
X119521335Y-102705000D01*
X119238665Y-102705000D01*
X118961426Y-102760147D01*
X118700273Y-102868320D01*
X118465241Y-103025363D01*
X118265363Y-103225241D01*
X118110000Y-103457759D01*
X117954637Y-103225241D01*
X117754759Y-103025363D01*
X117519727Y-102868320D01*
X117258574Y-102760147D01*
X116981335Y-102705000D01*
X116698665Y-102705000D01*
X116421426Y-102760147D01*
X116160273Y-102868320D01*
X115925241Y-103025363D01*
X115725363Y-103225241D01*
X115570000Y-103457759D01*
X115414637Y-103225241D01*
X115214759Y-103025363D01*
X114979727Y-102868320D01*
X114718574Y-102760147D01*
X114441335Y-102705000D01*
X114158665Y-102705000D01*
X113881426Y-102760147D01*
X113620273Y-102868320D01*
X113385241Y-103025363D01*
X113185363Y-103225241D01*
X113030000Y-103457759D01*
X112874637Y-103225241D01*
X112674759Y-103025363D01*
X112439727Y-102868320D01*
X112178574Y-102760147D01*
X111901335Y-102705000D01*
X111618665Y-102705000D01*
X111341426Y-102760147D01*
X111080273Y-102868320D01*
X110845241Y-103025363D01*
X110645363Y-103225241D01*
X110617000Y-103267689D01*
X110617000Y-96940000D01*
X150911928Y-96940000D01*
X150911928Y-98640000D01*
X150924188Y-98764482D01*
X150960498Y-98884180D01*
X151019463Y-98994494D01*
X151098815Y-99091185D01*
X151195506Y-99170537D01*
X151305820Y-99229502D01*
X151425518Y-99265812D01*
X151550000Y-99278072D01*
X153250000Y-99278072D01*
X153374482Y-99265812D01*
X153494180Y-99229502D01*
X153604494Y-99170537D01*
X153701185Y-99091185D01*
X153780537Y-98994494D01*
X153839502Y-98884180D01*
X153875812Y-98764482D01*
X153888072Y-98640000D01*
X153888072Y-96940000D01*
X153875812Y-96815518D01*
X153839502Y-96695820D01*
X153780537Y-96585506D01*
X153701185Y-96488815D01*
X153604494Y-96409463D01*
X153494180Y-96350498D01*
X153421620Y-96328487D01*
X153553475Y-96196632D01*
X153715990Y-95953411D01*
X153827932Y-95683158D01*
X153885000Y-95396260D01*
X153885000Y-95103740D01*
X153827932Y-94816842D01*
X153715990Y-94546589D01*
X153553475Y-94303368D01*
X153346632Y-94096525D01*
X153172240Y-93980000D01*
X153346632Y-93863475D01*
X153553475Y-93656632D01*
X153715990Y-93413411D01*
X153827932Y-93143158D01*
X153885000Y-92856260D01*
X153885000Y-92563740D01*
X153827932Y-92276842D01*
X153715990Y-92006589D01*
X153553475Y-91763368D01*
X153346632Y-91556525D01*
X153164466Y-91434805D01*
X153281355Y-91365178D01*
X153497588Y-91170269D01*
X153671641Y-90936920D01*
X153796825Y-90674099D01*
X153841476Y-90526890D01*
X153720155Y-90297000D01*
X152527000Y-90297000D01*
X152527000Y-90317000D01*
X152273000Y-90317000D01*
X152273000Y-90297000D01*
X151079845Y-90297000D01*
X150958524Y-90526890D01*
X151003175Y-90674099D01*
X151128359Y-90936920D01*
X151302412Y-91170269D01*
X151518645Y-91365178D01*
X151635534Y-91434805D01*
X151453368Y-91556525D01*
X151246525Y-91763368D01*
X151084010Y-92006589D01*
X150972068Y-92276842D01*
X150915000Y-92563740D01*
X150915000Y-92856260D01*
X150972068Y-93143158D01*
X151084010Y-93413411D01*
X151246525Y-93656632D01*
X151453368Y-93863475D01*
X151627760Y-93980000D01*
X151453368Y-94096525D01*
X151246525Y-94303368D01*
X151084010Y-94546589D01*
X150972068Y-94816842D01*
X150915000Y-95103740D01*
X150915000Y-95396260D01*
X150972068Y-95683158D01*
X151084010Y-95953411D01*
X151246525Y-96196632D01*
X151378380Y-96328487D01*
X151305820Y-96350498D01*
X151195506Y-96409463D01*
X151098815Y-96488815D01*
X151019463Y-96585506D01*
X150960498Y-96695820D01*
X150924188Y-96815518D01*
X150911928Y-96940000D01*
X110617000Y-96940000D01*
X110617000Y-89949872D01*
X119685000Y-89949872D01*
X119685000Y-90390128D01*
X119770890Y-90821925D01*
X119939369Y-91228669D01*
X120183962Y-91594729D01*
X120495271Y-91906038D01*
X120861331Y-92150631D01*
X121268075Y-92319110D01*
X121699872Y-92405000D01*
X122140128Y-92405000D01*
X122571925Y-92319110D01*
X122978669Y-92150631D01*
X123344729Y-91906038D01*
X123656038Y-91594729D01*
X123900631Y-91228669D01*
X124069110Y-90821925D01*
X124155000Y-90390128D01*
X124155000Y-89949872D01*
X124069110Y-89518075D01*
X123900631Y-89111331D01*
X123656038Y-88745271D01*
X123344729Y-88433962D01*
X122978669Y-88189369D01*
X122571925Y-88020890D01*
X122140128Y-87935000D01*
X121699872Y-87935000D01*
X121268075Y-88020890D01*
X120861331Y-88189369D01*
X120495271Y-88433962D01*
X120183962Y-88745271D01*
X119939369Y-89111331D01*
X119770890Y-89518075D01*
X119685000Y-89949872D01*
X110617000Y-89949872D01*
X110617000Y-83947000D01*
X151442893Y-83947000D01*
X151246525Y-84143368D01*
G37*
X151246525Y-84143368D02*
X151084010Y-84386589D01*
X150972068Y-84656842D01*
X150915000Y-84943740D01*
X150915000Y-85236260D01*
X150972068Y-85523158D01*
X151084010Y-85793411D01*
X151246525Y-86036632D01*
X151453368Y-86243475D01*
X151627760Y-86360000D01*
X151453368Y-86476525D01*
X151246525Y-86683368D01*
X151084010Y-86926589D01*
X150972068Y-87196842D01*
X150915000Y-87483740D01*
X150915000Y-87776260D01*
X150972068Y-88063158D01*
X151084010Y-88333411D01*
X151246525Y-88576632D01*
X151453368Y-88783475D01*
X151635534Y-88905195D01*
X151518645Y-88974822D01*
X151302412Y-89169731D01*
X151128359Y-89403080D01*
X151003175Y-89665901D01*
X150958524Y-89813110D01*
X151079845Y-90043000D01*
X152273000Y-90043000D01*
X152273000Y-90023000D01*
X152527000Y-90023000D01*
X152527000Y-90043000D01*
X153720155Y-90043000D01*
X153727720Y-90028665D01*
X154775000Y-90028665D01*
X154775000Y-90311335D01*
X154830147Y-90588574D01*
X154938320Y-90849727D01*
X155095363Y-91084759D01*
X155295241Y-91284637D01*
X155530273Y-91441680D01*
X155791426Y-91549853D01*
X156068665Y-91605000D01*
X156351335Y-91605000D01*
X156628574Y-91549853D01*
X156889727Y-91441680D01*
X157124759Y-91284637D01*
X157324637Y-91084759D01*
X157481680Y-90849727D01*
X157589853Y-90588574D01*
X157645000Y-90311335D01*
X157645000Y-90028665D01*
X164935000Y-90028665D01*
X164935000Y-90311335D01*
X164990147Y-90588574D01*
X165098320Y-90849727D01*
X165255363Y-91084759D01*
X165455241Y-91284637D01*
X165690273Y-91441680D01*
X165951426Y-91549853D01*
X166228665Y-91605000D01*
X166511335Y-91605000D01*
X166788574Y-91549853D01*
X167049727Y-91441680D01*
X167284759Y-91284637D01*
X167484637Y-91084759D01*
X167641680Y-90849727D01*
X167749853Y-90588574D01*
X167805000Y-90311335D01*
X167805000Y-90028665D01*
X168745000Y-90028665D01*
X168745000Y-90311335D01*
X168800147Y-90588574D01*
X168908320Y-90849727D01*
X169065363Y-91084759D01*
X169265241Y-91284637D01*
X169500273Y-91441680D01*
X169761426Y-91549853D01*
X170038665Y-91605000D01*
X170321335Y-91605000D01*
X170598574Y-91549853D01*
X170859727Y-91441680D01*
X171094759Y-91284637D01*
X171216694Y-91162702D01*
X179526903Y-91162702D01*
X179598486Y-91406671D01*
X179853996Y-91527571D01*
X180128184Y-91596300D01*
X180410512Y-91610217D01*
X180690130Y-91568787D01*
X180956292Y-91473603D01*
X181081514Y-91406671D01*
X181153097Y-91162702D01*
X180340000Y-90349605D01*
X179526903Y-91162702D01*
X171216694Y-91162702D01*
X171294637Y-91084759D01*
X171451680Y-90849727D01*
X171559853Y-90588574D01*
X171615000Y-90311335D01*
X171615000Y-90240512D01*
X178899783Y-90240512D01*
X178941213Y-90520130D01*
X179036397Y-90786292D01*
X179103329Y-90911514D01*
X179347298Y-90983097D01*
X180160395Y-90170000D01*
X180519605Y-90170000D01*
X181332702Y-90983097D01*
X181576671Y-90911514D01*
X181697571Y-90656004D01*
X181766300Y-90381816D01*
X181780217Y-90099488D01*
X181758049Y-89949872D01*
X183185000Y-89949872D01*
X183185000Y-90390128D01*
X183270890Y-90821925D01*
X183439369Y-91228669D01*
X183683962Y-91594729D01*
X183995271Y-91906038D01*
X184361331Y-92150631D01*
X184768075Y-92319110D01*
X185199872Y-92405000D01*
X185640128Y-92405000D01*
X186071925Y-92319110D01*
X186478669Y-92150631D01*
X186844729Y-91906038D01*
X187156038Y-91594729D01*
X187400631Y-91228669D01*
X187569110Y-90821925D01*
X187655000Y-90390128D01*
X187655000Y-89949872D01*
X187569110Y-89518075D01*
X187400631Y-89111331D01*
X187156038Y-88745271D01*
X186844729Y-88433962D01*
X186478669Y-88189369D01*
X186071925Y-88020890D01*
X185640128Y-87935000D01*
X185199872Y-87935000D01*
X184768075Y-88020890D01*
X184361331Y-88189369D01*
X183995271Y-88433962D01*
X183683962Y-88745271D01*
X183439369Y-89111331D01*
X183270890Y-89518075D01*
X183185000Y-89949872D01*
X181758049Y-89949872D01*
X181738787Y-89819870D01*
X181643603Y-89553708D01*
X181576671Y-89428486D01*
X181332702Y-89356903D01*
X180519605Y-90170000D01*
X180160395Y-90170000D01*
X179347298Y-89356903D01*
X179103329Y-89428486D01*
X178982429Y-89683996D01*
X178913700Y-89958184D01*
X178899783Y-90240512D01*
X171615000Y-90240512D01*
X171615000Y-90028665D01*
X171559853Y-89751426D01*
X171451680Y-89490273D01*
X171294637Y-89255241D01*
X171216694Y-89177298D01*
X179526903Y-89177298D01*
X180340000Y-89990395D01*
X181153097Y-89177298D01*
X181081514Y-88933329D01*
X180826004Y-88812429D01*
X180551816Y-88743700D01*
X180269488Y-88729783D01*
X179989870Y-88771213D01*
X179723708Y-88866397D01*
X179598486Y-88933329D01*
X179526903Y-89177298D01*
X171216694Y-89177298D01*
X171094759Y-89055363D01*
X170859727Y-88898320D01*
X170598574Y-88790147D01*
X170321335Y-88735000D01*
X170038665Y-88735000D01*
X169761426Y-88790147D01*
X169500273Y-88898320D01*
X169265241Y-89055363D01*
X169065363Y-89255241D01*
X168908320Y-89490273D01*
X168800147Y-89751426D01*
X168745000Y-90028665D01*
X167805000Y-90028665D01*
X167749853Y-89751426D01*
X167641680Y-89490273D01*
X167484637Y-89255241D01*
X167284759Y-89055363D01*
X167049727Y-88898320D01*
X166788574Y-88790147D01*
X166511335Y-88735000D01*
X166228665Y-88735000D01*
X165951426Y-88790147D01*
X165690273Y-88898320D01*
X165455241Y-89055363D01*
X165255363Y-89255241D01*
X165098320Y-89490273D01*
X164990147Y-89751426D01*
X164935000Y-90028665D01*
X157645000Y-90028665D01*
X157589853Y-89751426D01*
X157481680Y-89490273D01*
X157324637Y-89255241D01*
X157124759Y-89055363D01*
X156889727Y-88898320D01*
X156628574Y-88790147D01*
X156351335Y-88735000D01*
X156068665Y-88735000D01*
X155791426Y-88790147D01*
X155530273Y-88898320D01*
X155295241Y-89055363D01*
X155095363Y-89255241D01*
X154938320Y-89490273D01*
X154830147Y-89751426D01*
X154775000Y-90028665D01*
X153727720Y-90028665D01*
X153841476Y-89813110D01*
X153796825Y-89665901D01*
X153671641Y-89403080D01*
X153497588Y-89169731D01*
X153281355Y-88974822D01*
X153164466Y-88905195D01*
X153346632Y-88783475D01*
X153553475Y-88576632D01*
X153715990Y-88333411D01*
X153827932Y-88063158D01*
X153885000Y-87776260D01*
X153885000Y-87483740D01*
X153827932Y-87196842D01*
X153715990Y-86926589D01*
X153553475Y-86683368D01*
X153346632Y-86476525D01*
X153172240Y-86360000D01*
X153346632Y-86243475D01*
X153553475Y-86036632D01*
X153715990Y-85793411D01*
X153827932Y-85523158D01*
X153885000Y-85236260D01*
X153885000Y-84943740D01*
X153827932Y-84656842D01*
X153715990Y-84386589D01*
X153553475Y-84143368D01*
X153357107Y-83947000D01*
X155337689Y-83947000D01*
X155295241Y-83975363D01*
X155095363Y-84175241D01*
X154938320Y-84410273D01*
X154830147Y-84671426D01*
X154775000Y-84948665D01*
X154775000Y-85231335D01*
X154830147Y-85508574D01*
X154938320Y-85769727D01*
X155095363Y-86004759D01*
X155295241Y-86204637D01*
X155530273Y-86361680D01*
X155791426Y-86469853D01*
X156068665Y-86525000D01*
X156351335Y-86525000D01*
X156628574Y-86469853D01*
X156889727Y-86361680D01*
X157124759Y-86204637D01*
X157324637Y-86004759D01*
X157481680Y-85769727D01*
X157589853Y-85508574D01*
X157645000Y-85231335D01*
X157645000Y-84948665D01*
X157589853Y-84671426D01*
X157481680Y-84410273D01*
X157324637Y-84175241D01*
X157124759Y-83975363D01*
X157082311Y-83947000D01*
X165497689Y-83947000D01*
X165455241Y-83975363D01*
X165255363Y-84175241D01*
X165098320Y-84410273D01*
X164990147Y-84671426D01*
X164935000Y-84948665D01*
X164935000Y-85231335D01*
X164990147Y-85508574D01*
X165098320Y-85769727D01*
X165255363Y-86004759D01*
X165455241Y-86204637D01*
X165690273Y-86361680D01*
X165951426Y-86469853D01*
X166228665Y-86525000D01*
X166511335Y-86525000D01*
X166788574Y-86469853D01*
X167049727Y-86361680D01*
X167284759Y-86204637D01*
X167484637Y-86004759D01*
X167641680Y-85769727D01*
X167749853Y-85508574D01*
X167805000Y-85231335D01*
X167805000Y-84948665D01*
X167749853Y-84671426D01*
X167641680Y-84410273D01*
X167484637Y-84175241D01*
X167284759Y-83975363D01*
X167242311Y-83947000D01*
X169307689Y-83947000D01*
X169265241Y-83975363D01*
X169065363Y-84175241D01*
X168908320Y-84410273D01*
X168800147Y-84671426D01*
X168745000Y-84948665D01*
X168745000Y-85231335D01*
X168800147Y-85508574D01*
X168908320Y-85769727D01*
X169065363Y-86004759D01*
X169265241Y-86204637D01*
X169500273Y-86361680D01*
X169761426Y-86469853D01*
X170038665Y-86525000D01*
X170321335Y-86525000D01*
X170598574Y-86469853D01*
X170859727Y-86361680D01*
X171094759Y-86204637D01*
X171216694Y-86082702D01*
X179526903Y-86082702D01*
X179598486Y-86326671D01*
X179853996Y-86447571D01*
X180128184Y-86516300D01*
X180410512Y-86530217D01*
X180690130Y-86488787D01*
X180956292Y-86393603D01*
X181081514Y-86326671D01*
X181153097Y-86082702D01*
X180340000Y-85269605D01*
X179526903Y-86082702D01*
X171216694Y-86082702D01*
X171294637Y-86004759D01*
X171451680Y-85769727D01*
X171559853Y-85508574D01*
X171615000Y-85231335D01*
X171615000Y-85160512D01*
X178899783Y-85160512D01*
X178941213Y-85440130D01*
X179036397Y-85706292D01*
X179103329Y-85831514D01*
X179347298Y-85903097D01*
X180160395Y-85090000D01*
X180519605Y-85090000D01*
X181332702Y-85903097D01*
X181576671Y-85831514D01*
X181697571Y-85576004D01*
X181766300Y-85301816D01*
X181780217Y-85019488D01*
X181738787Y-84739870D01*
X181643603Y-84473708D01*
X181576671Y-84348486D01*
X181332702Y-84276903D01*
X180519605Y-85090000D01*
X180160395Y-85090000D01*
X179347298Y-84276903D01*
X179103329Y-84348486D01*
X178982429Y-84603996D01*
X178913700Y-84878184D01*
X178899783Y-85160512D01*
X171615000Y-85160512D01*
X171615000Y-84948665D01*
X171559853Y-84671426D01*
X171451680Y-84410273D01*
X171294637Y-84175241D01*
X171094759Y-83975363D01*
X171052311Y-83947000D01*
X179571002Y-83947000D01*
X179526903Y-84097298D01*
X180340000Y-84910395D01*
X181153097Y-84097298D01*
X181108998Y-83947000D01*
X195453000Y-83947000D01*
X195453000Y-131953000D01*
X110617000Y-131953000D01*
X110617000Y-128049872D01*
X119685000Y-128049872D01*
X119685000Y-128490128D01*
X119770890Y-128921925D01*
X119939369Y-129328669D01*
X120183962Y-129694729D01*
X120495271Y-130006038D01*
X120861331Y-130250631D01*
X121268075Y-130419110D01*
X121699872Y-130505000D01*
X122140128Y-130505000D01*
X122571925Y-130419110D01*
X122978669Y-130250631D01*
X123344729Y-130006038D01*
X123656038Y-129694729D01*
X123900631Y-129328669D01*
X124069110Y-128921925D01*
X124155000Y-128490128D01*
X124155000Y-128128665D01*
X153505000Y-128128665D01*
X153505000Y-128411335D01*
X153560147Y-128688574D01*
X153668320Y-128949727D01*
X153825363Y-129184759D01*
X154025241Y-129384637D01*
X154260273Y-129541680D01*
X154521426Y-129649853D01*
X154798665Y-129705000D01*
X155081335Y-129705000D01*
X155358574Y-129649853D01*
X155619727Y-129541680D01*
X155854759Y-129384637D01*
X156054637Y-129184759D01*
X156211680Y-128949727D01*
X156319853Y-128688574D01*
X156375000Y-128411335D01*
X156375000Y-128128665D01*
X163665000Y-128128665D01*
X163665000Y-128411335D01*
X163720147Y-128688574D01*
X163828320Y-128949727D01*
X163985363Y-129184759D01*
X164185241Y-129384637D01*
X164420273Y-129541680D01*
X164681426Y-129649853D01*
X164958665Y-129705000D01*
X165241335Y-129705000D01*
X165518574Y-129649853D01*
X165779727Y-129541680D01*
X166014759Y-129384637D01*
X166214637Y-129184759D01*
X166371680Y-128949727D01*
X166479853Y-128688574D01*
X166535000Y-128411335D01*
X166535000Y-128128665D01*
X166479853Y-127851426D01*
X166371680Y-127590273D01*
X166214637Y-127355241D01*
X166014759Y-127155363D01*
X165779727Y-126998320D01*
X165518574Y-126890147D01*
X165241335Y-126835000D01*
X164958665Y-126835000D01*
X164681426Y-126890147D01*
X164420273Y-126998320D01*
X164185241Y-127155363D01*
X163985363Y-127355241D01*
X163828320Y-127590273D01*
X163720147Y-127851426D01*
X163665000Y-128128665D01*
X156375000Y-128128665D01*
X156319853Y-127851426D01*
X156211680Y-127590273D01*
X156054637Y-127355241D01*
X155854759Y-127155363D01*
X155619727Y-126998320D01*
X155358574Y-126890147D01*
X155081335Y-126835000D01*
X154798665Y-126835000D01*
X154521426Y-126890147D01*
X154260273Y-126998320D01*
X154025241Y-127155363D01*
X153825363Y-127355241D01*
X153668320Y-127590273D01*
X153560147Y-127851426D01*
X153505000Y-128128665D01*
X124155000Y-128128665D01*
X124155000Y-128049872D01*
X124069110Y-127618075D01*
X123900631Y-127211331D01*
X123656038Y-126845271D01*
X123344729Y-126533962D01*
X123219071Y-126450000D01*
X166971928Y-126450000D01*
X166971928Y-127550000D01*
X166984188Y-127674482D01*
X167020498Y-127794180D01*
X167079463Y-127904494D01*
X167158815Y-128001185D01*
X167255506Y-128080537D01*
X167365820Y-128139502D01*
X167485518Y-128175812D01*
X167610000Y-128188072D01*
X169041928Y-128188072D01*
X169041928Y-128351928D01*
X167885000Y-128351928D01*
X167706868Y-128369472D01*
X167535582Y-128421431D01*
X167377724Y-128505808D01*
X167239361Y-128619361D01*
X167125808Y-128757724D01*
X167041431Y-128915582D01*
X166989472Y-129086868D01*
X166971928Y-129265000D01*
X166971928Y-129815000D01*
X166989472Y-129993132D01*
X167041431Y-130164418D01*
X167125808Y-130322276D01*
X167239361Y-130460639D01*
X167377724Y-130574192D01*
X167535582Y-130658569D01*
X167706868Y-130710528D01*
X167885000Y-130728072D01*
X169135000Y-130728072D01*
X169313132Y-130710528D01*
X169484418Y-130658569D01*
X169642276Y-130574192D01*
X169780639Y-130460639D01*
X169894192Y-130322276D01*
X169978569Y-130164418D01*
X170030528Y-129993132D01*
X170048072Y-129815000D01*
X170048072Y-129458072D01*
X171205000Y-129458072D01*
X171383132Y-129440528D01*
X171554418Y-129388569D01*
X171712276Y-129304192D01*
X171850639Y-129190639D01*
X171964192Y-129052276D01*
X172048569Y-128894418D01*
X172100528Y-128723132D01*
X172118072Y-128545000D01*
X172118072Y-128049872D01*
X183185000Y-128049872D01*
X183185000Y-128490128D01*
X183270890Y-128921925D01*
X183439369Y-129328669D01*
X183683962Y-129694729D01*
X183995271Y-130006038D01*
X184361331Y-130250631D01*
X184768075Y-130419110D01*
X185199872Y-130505000D01*
X185640128Y-130505000D01*
X186071925Y-130419110D01*
X186478669Y-130250631D01*
X186844729Y-130006038D01*
X187156038Y-129694729D01*
X187400631Y-129328669D01*
X187569110Y-128921925D01*
X187655000Y-128490128D01*
X187655000Y-128049872D01*
X187569110Y-127618075D01*
X187400631Y-127211331D01*
X187156038Y-126845271D01*
X186844729Y-126533962D01*
X186478669Y-126289369D01*
X186071925Y-126120890D01*
X185640128Y-126035000D01*
X185199872Y-126035000D01*
X184768075Y-126120890D01*
X184361331Y-126289369D01*
X183995271Y-126533962D01*
X183683962Y-126845271D01*
X183439369Y-127211331D01*
X183270890Y-127618075D01*
X183185000Y-128049872D01*
X172118072Y-128049872D01*
X172118072Y-127995000D01*
X172100528Y-127816868D01*
X172048569Y-127645582D01*
X171964192Y-127487724D01*
X171850639Y-127349361D01*
X171712276Y-127235808D01*
X171554418Y-127151431D01*
X171383132Y-127099472D01*
X171205000Y-127081928D01*
X170048072Y-127081928D01*
X170048072Y-126450000D01*
X170035812Y-126325518D01*
X169999502Y-126205820D01*
X169940537Y-126095506D01*
X169861185Y-125998815D01*
X169764494Y-125919463D01*
X169654180Y-125860498D01*
X169534482Y-125824188D01*
X169410000Y-125811928D01*
X167610000Y-125811928D01*
X167485518Y-125824188D01*
X167365820Y-125860498D01*
X167255506Y-125919463D01*
X167158815Y-125998815D01*
X167079463Y-126095506D01*
X167020498Y-126205820D01*
X166984188Y-126325518D01*
X166971928Y-126450000D01*
X123219071Y-126450000D01*
X122978669Y-126289369D01*
X122571925Y-126120890D01*
X122140128Y-126035000D01*
X121699872Y-126035000D01*
X121268075Y-126120890D01*
X120861331Y-126289369D01*
X120495271Y-126533962D01*
X120183962Y-126845271D01*
X119939369Y-127211331D01*
X119770890Y-127618075D01*
X119685000Y-128049872D01*
X110617000Y-128049872D01*
X110617000Y-120716681D01*
X110715820Y-120769502D01*
X110835518Y-120805812D01*
X110960000Y-120818072D01*
X111474250Y-120815000D01*
X111633000Y-120656250D01*
X111633000Y-119507000D01*
X111613000Y-119507000D01*
X111613000Y-119253000D01*
X111633000Y-119253000D01*
X111633000Y-118103750D01*
X111887000Y-118103750D01*
X111887000Y-119253000D01*
X111907000Y-119253000D01*
X111907000Y-119507000D01*
X111887000Y-119507000D01*
X111887000Y-120656250D01*
X112045750Y-120815000D01*
X112560000Y-120818072D01*
X112684482Y-120805812D01*
X112804180Y-120769502D01*
X112914494Y-120710537D01*
X113011185Y-120631185D01*
X113090537Y-120534494D01*
X113149502Y-120424180D01*
X113185812Y-120304482D01*
X113186643Y-120296039D01*
X113385241Y-120494637D01*
X113620273Y-120651680D01*
X113881426Y-120759853D01*
X114158665Y-120815000D01*
X114441335Y-120815000D01*
X114718574Y-120759853D01*
X114979727Y-120651680D01*
X115214759Y-120494637D01*
X115414637Y-120294759D01*
X115570000Y-120062241D01*
X115725363Y-120294759D01*
X115925241Y-120494637D01*
X116160273Y-120651680D01*
X116421426Y-120759853D01*
X116698665Y-120815000D01*
X116981335Y-120815000D01*
X117258574Y-120759853D01*
X117519727Y-120651680D01*
X117754759Y-120494637D01*
X117954637Y-120294759D01*
X118110000Y-120062241D01*
X118265363Y-120294759D01*
X118465241Y-120494637D01*
X118700273Y-120651680D01*
X118961426Y-120759853D01*
X119238665Y-120815000D01*
X119521335Y-120815000D01*
X119798574Y-120759853D01*
X120059727Y-120651680D01*
X120294759Y-120494637D01*
X120494637Y-120294759D01*
X120650000Y-120062241D01*
X120805363Y-120294759D01*
X121005241Y-120494637D01*
X121240273Y-120651680D01*
X121501426Y-120759853D01*
X121778665Y-120815000D01*
X122061335Y-120815000D01*
X122338574Y-120759853D01*
X122599727Y-120651680D01*
X122834759Y-120494637D01*
X123034637Y-120294759D01*
X123190000Y-120062241D01*
X123345363Y-120294759D01*
X123545241Y-120494637D01*
X123780273Y-120651680D01*
X124041426Y-120759853D01*
X124318665Y-120815000D01*
X124601335Y-120815000D01*
X124878574Y-120759853D01*
X125139727Y-120651680D01*
X125374759Y-120494637D01*
X125574637Y-120294759D01*
X125730000Y-120062241D01*
X125885363Y-120294759D01*
X126085241Y-120494637D01*
X126320273Y-120651680D01*
X126581426Y-120759853D01*
X126858665Y-120815000D01*
X127141335Y-120815000D01*
X127418574Y-120759853D01*
X127679727Y-120651680D01*
X127914759Y-120494637D01*
X128114637Y-120294759D01*
X128270000Y-120062241D01*
X128425363Y-120294759D01*
X128622901Y-120492297D01*
X128230199Y-120885000D01*
X128168061Y-120885000D01*
X127968102Y-120924774D01*
X127779744Y-121002795D01*
X127610226Y-121116063D01*
X127466063Y-121260226D01*
X127352795Y-121429744D01*
X127274774Y-121618102D01*
X127235000Y-121818061D01*
X127235000Y-122021939D01*
X127274774Y-122221898D01*
X127352795Y-122410256D01*
X127466063Y-122579774D01*
X127610226Y-122723937D01*
X127779744Y-122837205D01*
X127968102Y-122915226D01*
X128168061Y-122955000D01*
X128371939Y-122955000D01*
X128571898Y-122915226D01*
X128760256Y-122837205D01*
X128929774Y-122723937D01*
X129073937Y-122579774D01*
X129187205Y-122410256D01*
X129265226Y-122221898D01*
X129305000Y-122021939D01*
X129305000Y-121959801D01*
X129949801Y-121315001D01*
X159179464Y-121315001D01*
X159102795Y-121429744D01*
X159024774Y-121618102D01*
X158985000Y-121818061D01*
X158985000Y-122021939D01*
X159024774Y-122221898D01*
X159102795Y-122410256D01*
X159216063Y-122579774D01*
X159360226Y-122723937D01*
X159529744Y-122837205D01*
X159718102Y-122915226D01*
X159918061Y-122955000D01*
X160121939Y-122955000D01*
X160321898Y-122915226D01*
X160510256Y-122837205D01*
X160679774Y-122723937D01*
X160723711Y-122680000D01*
X191645986Y-122680000D01*
X191643175Y-122685901D01*
X191598524Y-122833110D01*
X191719845Y-123063000D01*
X192913000Y-123063000D01*
X192913000Y-123043000D01*
X193167000Y-123043000D01*
X193167000Y-123063000D01*
X193187000Y-123063000D01*
X193187000Y-123317000D01*
X193167000Y-123317000D01*
X193167000Y-123337000D01*
X192913000Y-123337000D01*
X192913000Y-123317000D01*
X191719845Y-123317000D01*
X191598524Y-123546890D01*
X191643175Y-123694099D01*
X191645986Y-123700000D01*
X160723711Y-123700000D01*
X160679774Y-123656063D01*
X160510256Y-123542795D01*
X160321898Y-123464774D01*
X160121939Y-123425000D01*
X159918061Y-123425000D01*
X159718102Y-123464774D01*
X159529744Y-123542795D01*
X159360226Y-123656063D01*
X159216063Y-123800226D01*
X159102795Y-123969744D01*
X159024774Y-124158102D01*
X158985000Y-124358061D01*
X158985000Y-124561939D01*
X159024774Y-124761898D01*
X159102795Y-124950256D01*
X159216063Y-125119774D01*
X159360226Y-125263937D01*
X159529744Y-125377205D01*
X159718102Y-125455226D01*
X159918061Y-125495000D01*
X160121939Y-125495000D01*
X160321898Y-125455226D01*
X160510256Y-125377205D01*
X160679774Y-125263937D01*
X160723711Y-125220000D01*
X191551928Y-125220000D01*
X191551928Y-126580000D01*
X191564188Y-126704482D01*
X191600498Y-126824180D01*
X191659463Y-126934494D01*
X191738815Y-127031185D01*
X191835506Y-127110537D01*
X191945820Y-127169502D01*
X192065518Y-127205812D01*
X192190000Y-127218072D01*
X193890000Y-127218072D01*
X194014482Y-127205812D01*
X194134180Y-127169502D01*
X194244494Y-127110537D01*
X194341185Y-127031185D01*
X194420537Y-126934494D01*
X194479502Y-126824180D01*
X194515812Y-126704482D01*
X194528072Y-126580000D01*
X194528072Y-124880000D01*
X194515812Y-124755518D01*
X194480080Y-124637724D01*
X194776005Y-124341799D01*
X194805002Y-124318002D01*
X194899975Y-124202277D01*
X194970547Y-124070248D01*
X195014004Y-123926987D01*
X195025001Y-123815334D01*
X195025001Y-123815325D01*
X195028677Y-123778002D01*
X195025001Y-123740679D01*
X195025001Y-93972324D01*
X195028677Y-93935001D01*
X195025001Y-93897678D01*
X195025001Y-93897668D01*
X195014004Y-93786015D01*
X194970547Y-93642754D01*
X194899975Y-93510725D01*
X194805002Y-93395000D01*
X194775998Y-93371197D01*
X194481209Y-93076408D01*
X194525000Y-92856260D01*
X194525000Y-92563740D01*
X194467932Y-92276842D01*
X194355990Y-92006589D01*
X194193475Y-91763368D01*
X193986632Y-91556525D01*
X193743411Y-91394010D01*
X193473158Y-91282068D01*
X193186260Y-91225000D01*
X192893740Y-91225000D01*
X192606842Y-91282068D01*
X192336589Y-91394010D01*
X192093368Y-91556525D01*
X191886525Y-91763368D01*
X191724010Y-92006589D01*
X191612068Y-92276842D01*
X191555000Y-92563740D01*
X191555000Y-92856260D01*
X191612068Y-93143158D01*
X191724010Y-93413411D01*
X191886525Y-93656632D01*
X192093368Y-93863475D01*
X192267760Y-93980000D01*
X192093368Y-94096525D01*
X191886525Y-94303368D01*
X191724010Y-94546589D01*
X191612068Y-94816842D01*
X191555000Y-95103740D01*
X191555000Y-95396260D01*
X191612068Y-95683158D01*
X191724010Y-95953411D01*
X191886525Y-96196632D01*
X192093368Y-96403475D01*
X192267760Y-96520000D01*
X192093368Y-96636525D01*
X191886525Y-96843368D01*
X191724010Y-97086589D01*
X191612068Y-97356842D01*
X191555000Y-97643740D01*
X191555000Y-97936260D01*
X191612068Y-98223158D01*
X191724010Y-98493411D01*
X191886525Y-98736632D01*
X192093368Y-98943475D01*
X192267760Y-99060000D01*
X192093368Y-99176525D01*
X191886525Y-99383368D01*
X191761822Y-99570000D01*
X167073711Y-99570000D01*
X167029774Y-99526063D01*
X166860256Y-99412795D01*
X166671898Y-99334774D01*
X166471939Y-99295000D01*
X166268061Y-99295000D01*
X166068102Y-99334774D01*
X165879744Y-99412795D01*
X165710226Y-99526063D01*
X165566063Y-99670226D01*
X165452795Y-99839744D01*
X165374774Y-100028102D01*
X165335000Y-100228061D01*
X165335000Y-100431939D01*
X165374774Y-100631898D01*
X165452795Y-100820256D01*
X165465987Y-100840000D01*
X148023711Y-100840000D01*
X147979774Y-100796063D01*
X147810256Y-100682795D01*
X147621898Y-100604774D01*
X147421939Y-100565000D01*
X147218061Y-100565000D01*
X147018102Y-100604774D01*
X146829744Y-100682795D01*
X146660226Y-100796063D01*
X146516063Y-100940226D01*
X146402795Y-101109744D01*
X146324774Y-101298102D01*
X146285000Y-101498061D01*
X146285000Y-101701939D01*
X146324774Y-101901898D01*
X146402795Y-102090256D01*
X146516063Y-102259774D01*
X146660226Y-102403937D01*
X146829744Y-102517205D01*
X147018102Y-102595226D01*
X147218061Y-102635000D01*
X147421939Y-102635000D01*
X147621898Y-102595226D01*
X147810256Y-102517205D01*
X147979774Y-102403937D01*
X148023711Y-102360000D01*
X191455199Y-102360000D01*
X191598791Y-102503592D01*
X191555000Y-102723740D01*
X191555000Y-103016260D01*
X191612068Y-103303158D01*
X191724010Y-103573411D01*
X191886525Y-103816632D01*
X192093368Y-104023475D01*
X192267760Y-104140000D01*
X192093368Y-104256525D01*
X191886525Y-104463368D01*
X191724010Y-104706589D01*
X191612068Y-104976842D01*
X191555000Y-105263740D01*
X191555000Y-105556260D01*
X191598790Y-105776408D01*
X190960199Y-106415000D01*
X160975137Y-106415000D01*
X160931200Y-106371063D01*
X160761682Y-106257795D01*
X160573324Y-106179774D01*
X160373365Y-106140000D01*
X160169487Y-106140000D01*
X159969528Y-106179774D01*
X159781170Y-106257795D01*
X159611652Y-106371063D01*
X159467489Y-106515226D01*
X159354221Y-106684744D01*
X159276200Y-106873102D01*
X159236426Y-107073061D01*
X159236426Y-107276939D01*
X159276200Y-107476898D01*
X159354221Y-107665256D01*
X159467489Y-107834774D01*
X159611652Y-107978937D01*
X159781170Y-108092205D01*
X159969528Y-108170226D01*
X160169487Y-108210000D01*
X160373365Y-108210000D01*
X160573324Y-108170226D01*
X160761682Y-108092205D01*
X160931200Y-107978937D01*
X160975137Y-107935000D01*
X191237678Y-107935000D01*
X191275000Y-107938676D01*
X191312322Y-107935000D01*
X191312333Y-107935000D01*
X191423986Y-107924003D01*
X191555000Y-107884261D01*
X191555000Y-108096260D01*
X191612068Y-108383158D01*
X191724010Y-108653411D01*
X191886525Y-108896632D01*
X192093368Y-109103475D01*
X192267760Y-109220000D01*
X192093368Y-109336525D01*
X191886525Y-109543368D01*
X191724010Y-109786589D01*
X191612068Y-110056842D01*
X191555000Y-110343740D01*
X191555000Y-110636260D01*
X191612068Y-110923158D01*
X191724010Y-111193411D01*
X191886525Y-111436632D01*
X192093368Y-111643475D01*
X192267760Y-111760000D01*
X192093368Y-111876525D01*
X191886525Y-112083368D01*
X191724010Y-112326589D01*
X191612068Y-112596842D01*
X191555000Y-112883740D01*
X191555000Y-113176260D01*
X191612068Y-113463158D01*
X191724010Y-113733411D01*
X191886525Y-113976632D01*
X192093368Y-114183475D01*
X192267760Y-114300000D01*
X192093368Y-114416525D01*
X191886525Y-114623368D01*
X191724010Y-114866589D01*
X191612068Y-115136842D01*
X191555000Y-115423740D01*
X191555000Y-115716260D01*
X191612068Y-116003158D01*
X191724010Y-116273411D01*
X191886525Y-116516632D01*
X192093368Y-116723475D01*
X192267760Y-116840000D01*
X192093368Y-116956525D01*
X191886525Y-117163368D01*
X191724010Y-117406589D01*
X191612068Y-117676842D01*
X191555000Y-117963740D01*
X191555000Y-118256260D01*
X191598790Y-118476407D01*
X190280198Y-119795001D01*
X171560564Y-119795001D01*
X171615000Y-119521335D01*
X171615000Y-119238665D01*
X171559853Y-118961426D01*
X171521983Y-118870000D01*
X188526289Y-118870000D01*
X188570226Y-118913937D01*
X188739744Y-119027205D01*
X188928102Y-119105226D01*
X189128061Y-119145000D01*
X189331939Y-119145000D01*
X189531898Y-119105226D01*
X189720256Y-119027205D01*
X189889774Y-118913937D01*
X190033937Y-118769774D01*
X190147205Y-118600256D01*
X190225226Y-118411898D01*
X190265000Y-118211939D01*
X190265000Y-118008061D01*
X190225226Y-117808102D01*
X190147205Y-117619744D01*
X190033937Y-117450226D01*
X189889774Y-117306063D01*
X189720256Y-117192795D01*
X189531898Y-117114774D01*
X189331939Y-117075000D01*
X189128061Y-117075000D01*
X188928102Y-117114774D01*
X188739744Y-117192795D01*
X188570226Y-117306063D01*
X188526289Y-117350000D01*
X158821983Y-117350000D01*
X158859853Y-117258574D01*
X158915000Y-116981335D01*
X158915000Y-116698665D01*
X158859853Y-116421426D01*
X158821983Y-116330000D01*
X187256289Y-116330000D01*
X187300226Y-116373937D01*
X187469744Y-116487205D01*
X187658102Y-116565226D01*
X187858061Y-116605000D01*
X188061939Y-116605000D01*
X188261898Y-116565226D01*
X188450256Y-116487205D01*
X188619774Y-116373937D01*
X188763937Y-116229774D01*
X188877205Y-116060256D01*
X188955226Y-115871898D01*
X188995000Y-115671939D01*
X188995000Y-115468061D01*
X188955226Y-115268102D01*
X188877205Y-115079744D01*
X188763937Y-114910226D01*
X188619774Y-114766063D01*
X188450256Y-114652795D01*
X188261898Y-114574774D01*
X188061939Y-114535000D01*
X187858061Y-114535000D01*
X187658102Y-114574774D01*
X187469744Y-114652795D01*
X187300226Y-114766063D01*
X187256289Y-114810000D01*
X158821983Y-114810000D01*
X158859853Y-114718574D01*
X158915000Y-114441335D01*
X158915000Y-114158665D01*
X158859853Y-113881426D01*
X158751680Y-113620273D01*
X158594637Y-113385241D01*
X158394759Y-113185363D01*
X158162241Y-113030000D01*
X158394759Y-112874637D01*
X158594637Y-112674759D01*
X158751680Y-112439727D01*
X158859853Y-112178574D01*
X158915000Y-111901335D01*
X158915000Y-111618665D01*
X158859853Y-111341426D01*
X158751680Y-111080273D01*
X158594637Y-110845241D01*
X158394759Y-110645363D01*
X158162241Y-110490000D01*
X158394759Y-110334637D01*
X158594637Y-110134759D01*
X158751680Y-109899727D01*
X158859853Y-109638574D01*
X158915000Y-109361335D01*
X158915000Y-109078665D01*
X158859853Y-108801426D01*
X158751680Y-108540273D01*
X158594637Y-108305241D01*
X158394759Y-108105363D01*
X158162241Y-107950000D01*
X158394759Y-107794637D01*
X158594637Y-107594759D01*
X158751680Y-107359727D01*
X158859853Y-107098574D01*
X158915000Y-106821335D01*
X158915000Y-106538665D01*
X158859853Y-106261426D01*
X158751680Y-106000273D01*
X158594637Y-105765241D01*
X158394759Y-105565363D01*
X158162241Y-105410000D01*
X158394759Y-105254637D01*
X158594637Y-105054759D01*
X158750000Y-104822241D01*
X158905363Y-105054759D01*
X159105241Y-105254637D01*
X159340273Y-105411680D01*
X159601426Y-105519853D01*
X159878665Y-105575000D01*
X160161335Y-105575000D01*
X160438574Y-105519853D01*
X160699727Y-105411680D01*
X160934759Y-105254637D01*
X161134637Y-105054759D01*
X161290000Y-104822241D01*
X161445363Y-105054759D01*
X161645241Y-105254637D01*
X161880273Y-105411680D01*
X162141426Y-105519853D01*
X162418665Y-105575000D01*
X162701335Y-105575000D01*
X162978574Y-105519853D01*
X163239727Y-105411680D01*
X163474759Y-105254637D01*
X163674637Y-105054759D01*
X163830000Y-104822241D01*
X163985363Y-105054759D01*
X164185241Y-105254637D01*
X164420273Y-105411680D01*
X164681426Y-105519853D01*
X164958665Y-105575000D01*
X165241335Y-105575000D01*
X165518574Y-105519853D01*
X165779727Y-105411680D01*
X166014759Y-105254637D01*
X166214637Y-105054759D01*
X166370000Y-104822241D01*
X166525363Y-105054759D01*
X166725241Y-105254637D01*
X166960273Y-105411680D01*
X167221426Y-105519853D01*
X167498665Y-105575000D01*
X167781335Y-105575000D01*
X168058574Y-105519853D01*
X168319727Y-105411680D01*
X168554759Y-105254637D01*
X168754637Y-105054759D01*
X168910000Y-104822241D01*
X169065363Y-105054759D01*
X169265241Y-105254637D01*
X169500273Y-105411680D01*
X169761426Y-105519853D01*
X170038665Y-105575000D01*
X170321335Y-105575000D01*
X170598574Y-105519853D01*
X170859727Y-105411680D01*
X171094759Y-105254637D01*
X171294637Y-105054759D01*
X171451680Y-104819727D01*
X171559853Y-104558574D01*
X171615000Y-104281335D01*
X171615000Y-103998665D01*
X171559853Y-103721426D01*
X171451680Y-103460273D01*
X171294637Y-103225241D01*
X171094759Y-103025363D01*
X170859727Y-102868320D01*
X170598574Y-102760147D01*
X170321335Y-102705000D01*
X170038665Y-102705000D01*
X169761426Y-102760147D01*
X169500273Y-102868320D01*
X169265241Y-103025363D01*
X169065363Y-103225241D01*
X168910000Y-103457759D01*
X168754637Y-103225241D01*
X168554759Y-103025363D01*
X168319727Y-102868320D01*
X168058574Y-102760147D01*
X167781335Y-102705000D01*
X167498665Y-102705000D01*
X167221426Y-102760147D01*
X166960273Y-102868320D01*
X166725241Y-103025363D01*
X166525363Y-103225241D01*
X166370000Y-103457759D01*
X166214637Y-103225241D01*
X166014759Y-103025363D01*
X165779727Y-102868320D01*
X165518574Y-102760147D01*
X165241335Y-102705000D01*
X164958665Y-102705000D01*
X164681426Y-102760147D01*
X164420273Y-102868320D01*
X164185241Y-103025363D01*
X163985363Y-103225241D01*
X163830000Y-103457759D01*
X163674637Y-103225241D01*
X163474759Y-103025363D01*
X163239727Y-102868320D01*
X162978574Y-102760147D01*
X162701335Y-102705000D01*
X162418665Y-102705000D01*
X162141426Y-102760147D01*
X161880273Y-102868320D01*
X161645241Y-103025363D01*
X161445363Y-103225241D01*
X161290000Y-103457759D01*
X161134637Y-103225241D01*
X160934759Y-103025363D01*
X160699727Y-102868320D01*
X160438574Y-102760147D01*
X160161335Y-102705000D01*
X159878665Y-102705000D01*
X159601426Y-102760147D01*
X159340273Y-102868320D01*
X159105241Y-103025363D01*
X158905363Y-103225241D01*
X158750000Y-103457759D01*
X158594637Y-103225241D01*
X158394759Y-103025363D01*
X158159727Y-102868320D01*
X157898574Y-102760147D01*
X157621335Y-102705000D01*
X157338665Y-102705000D01*
X157061426Y-102760147D01*
X156800273Y-102868320D01*
X156565241Y-103025363D01*
X156365363Y-103225241D01*
X156210000Y-103457759D01*
X156054637Y-103225241D01*
X155854759Y-103025363D01*
X155619727Y-102868320D01*
X155358574Y-102760147D01*
X155081335Y-102705000D01*
X154798665Y-102705000D01*
X154521426Y-102760147D01*
X154260273Y-102868320D01*
X154025241Y-103025363D01*
X153825363Y-103225241D01*
X153670000Y-103457759D01*
X153514637Y-103225241D01*
X153314759Y-103025363D01*
X153079727Y-102868320D01*
X152818574Y-102760147D01*
X152541335Y-102705000D01*
X152258665Y-102705000D01*
X151981426Y-102760147D01*
X151720273Y-102868320D01*
X151485241Y-103025363D01*
X151285363Y-103225241D01*
X151130000Y-103457759D01*
X150974637Y-103225241D01*
X150774759Y-103025363D01*
X150539727Y-102868320D01*
X150278574Y-102760147D01*
X150001335Y-102705000D01*
X149718665Y-102705000D01*
X149441426Y-102760147D01*
X149180273Y-102868320D01*
X148945241Y-103025363D01*
X148745363Y-103225241D01*
X148589085Y-103459128D01*
X148556671Y-103398486D01*
X148312702Y-103326903D01*
X147499605Y-104140000D01*
X148312702Y-104953097D01*
X148556671Y-104881514D01*
X148587194Y-104817008D01*
X148588320Y-104819727D01*
X148745363Y-105054759D01*
X148945241Y-105254637D01*
X149180273Y-105411680D01*
X149441426Y-105519853D01*
X149718665Y-105575000D01*
X150001335Y-105575000D01*
X150278574Y-105519853D01*
X150539727Y-105411680D01*
X150774759Y-105254637D01*
X150974637Y-105054759D01*
X151130000Y-104822241D01*
X151285363Y-105054759D01*
X151485241Y-105254637D01*
X151720273Y-105411680D01*
X151981426Y-105519853D01*
X152258665Y-105575000D01*
X152541335Y-105575000D01*
X152818574Y-105519853D01*
X153079727Y-105411680D01*
X153314759Y-105254637D01*
X153514637Y-105054759D01*
X153670000Y-104822241D01*
X153825363Y-105054759D01*
X154025241Y-105254637D01*
X154260273Y-105411680D01*
X154521426Y-105519853D01*
X154798665Y-105575000D01*
X155081335Y-105575000D01*
X155358574Y-105519853D01*
X155619727Y-105411680D01*
X155854759Y-105254637D01*
X156054637Y-105054759D01*
X156210000Y-104822241D01*
X156365363Y-105054759D01*
X156565241Y-105254637D01*
X156797759Y-105410000D01*
X156565241Y-105565363D01*
X156365363Y-105765241D01*
X156208320Y-106000273D01*
X156100147Y-106261426D01*
X156045000Y-106538665D01*
X156045000Y-106821335D01*
X156100147Y-107098574D01*
X156208320Y-107359727D01*
X156365363Y-107594759D01*
X156565241Y-107794637D01*
X156797759Y-107950000D01*
X156565241Y-108105363D01*
X156365363Y-108305241D01*
X156208320Y-108540273D01*
X156100147Y-108801426D01*
X156045000Y-109078665D01*
X156045000Y-109361335D01*
X156100147Y-109638574D01*
X156208320Y-109899727D01*
X156365363Y-110134759D01*
X156565241Y-110334637D01*
X156797759Y-110490000D01*
X156565241Y-110645363D01*
X156365363Y-110845241D01*
X156208320Y-111080273D01*
X156100147Y-111341426D01*
X156045000Y-111618665D01*
X156045000Y-111901335D01*
X156100147Y-112178574D01*
X156208320Y-112439727D01*
X156365363Y-112674759D01*
X156565241Y-112874637D01*
X156797759Y-113030000D01*
X156565241Y-113185363D01*
X156365363Y-113385241D01*
X156208320Y-113620273D01*
X156100147Y-113881426D01*
X156045000Y-114158665D01*
X156045000Y-114441335D01*
X156100147Y-114718574D01*
X156138017Y-114810000D01*
X146753711Y-114810000D01*
X146709774Y-114766063D01*
X146540256Y-114652795D01*
X146351898Y-114574774D01*
X146151939Y-114535000D01*
X145948061Y-114535000D01*
X145748102Y-114574774D01*
X145559744Y-114652795D01*
X145390226Y-114766063D01*
X145246063Y-114910226D01*
X145132795Y-115079744D01*
X145054774Y-115268102D01*
X145015000Y-115468061D01*
X145015000Y-115671939D01*
X145054774Y-115871898D01*
X145132795Y-116060256D01*
X145246063Y-116229774D01*
X145390226Y-116373937D01*
X145559744Y-116487205D01*
X145748102Y-116565226D01*
X145948061Y-116605000D01*
X146151939Y-116605000D01*
X146351898Y-116565226D01*
X146540256Y-116487205D01*
X146709774Y-116373937D01*
X146753711Y-116330000D01*
X156138017Y-116330000D01*
X156100147Y-116421426D01*
X156045000Y-116698665D01*
X156045000Y-116981335D01*
X156100147Y-117258574D01*
X156138017Y-117350000D01*
X145094802Y-117350000D01*
X144545000Y-116800199D01*
X144545000Y-116738061D01*
X144505226Y-116538102D01*
X144427205Y-116349744D01*
X144313937Y-116180226D01*
X144169774Y-116036063D01*
X144000256Y-115922795D01*
X143811898Y-115844774D01*
X143611939Y-115805000D01*
X143408061Y-115805000D01*
X143208102Y-115844774D01*
X143019744Y-115922795D01*
X142850226Y-116036063D01*
X142706063Y-116180226D01*
X142592795Y-116349744D01*
X142514774Y-116538102D01*
X142475000Y-116738061D01*
X142475000Y-116941939D01*
X142514774Y-117141898D01*
X142592795Y-117330256D01*
X142706063Y-117499774D01*
X142850226Y-117643937D01*
X143019744Y-117757205D01*
X143208102Y-117835226D01*
X143408061Y-117875000D01*
X143470199Y-117875000D01*
X143862901Y-118267703D01*
X143665363Y-118465241D01*
X143510000Y-118697759D01*
X143354637Y-118465241D01*
X143154759Y-118265363D01*
X142919727Y-118108320D01*
X142658574Y-118000147D01*
X142381335Y-117945000D01*
X142098665Y-117945000D01*
X141821426Y-118000147D01*
X141560273Y-118108320D01*
X141325241Y-118265363D01*
X141125363Y-118465241D01*
X140970000Y-118697759D01*
X140814637Y-118465241D01*
X140614759Y-118265363D01*
X140379727Y-118108320D01*
X140118574Y-118000147D01*
X139841335Y-117945000D01*
X139558665Y-117945000D01*
X139281426Y-118000147D01*
X139020273Y-118108320D01*
X138785241Y-118265363D01*
X138585363Y-118465241D01*
X138430000Y-118697759D01*
X138274637Y-118465241D01*
X138074759Y-118265363D01*
X137839727Y-118108320D01*
X137578574Y-118000147D01*
X137301335Y-117945000D01*
X137018665Y-117945000D01*
X136741426Y-118000147D01*
X136480273Y-118108320D01*
X136245241Y-118265363D01*
X136045363Y-118465241D01*
X135890000Y-118697759D01*
X135734637Y-118465241D01*
X135534759Y-118265363D01*
X135299727Y-118108320D01*
X135038574Y-118000147D01*
X134761335Y-117945000D01*
X134478665Y-117945000D01*
X134201426Y-118000147D01*
X133940273Y-118108320D01*
X133705241Y-118265363D01*
X133505363Y-118465241D01*
X133350000Y-118697759D01*
X133194637Y-118465241D01*
X132994759Y-118265363D01*
X132759727Y-118108320D01*
X132498574Y-118000147D01*
X132221335Y-117945000D01*
X131938665Y-117945000D01*
X131661426Y-118000147D01*
X131400273Y-118108320D01*
X131165241Y-118265363D01*
X130965363Y-118465241D01*
X130810000Y-118697759D01*
X130654637Y-118465241D01*
X130454759Y-118265363D01*
X130219727Y-118108320D01*
X129958574Y-118000147D01*
X129681335Y-117945000D01*
X129398665Y-117945000D01*
X129121426Y-118000147D01*
X128860273Y-118108320D01*
X128625241Y-118265363D01*
X128425363Y-118465241D01*
X128270000Y-118697759D01*
X128114637Y-118465241D01*
X127914759Y-118265363D01*
X127679727Y-118108320D01*
X127418574Y-118000147D01*
X127141335Y-117945000D01*
X126858665Y-117945000D01*
X126581426Y-118000147D01*
X126320273Y-118108320D01*
X126085241Y-118265363D01*
X125885363Y-118465241D01*
X125730000Y-118697759D01*
X125574637Y-118465241D01*
X125374759Y-118265363D01*
X125139727Y-118108320D01*
X124878574Y-118000147D01*
X124601335Y-117945000D01*
X124318665Y-117945000D01*
X124041426Y-118000147D01*
X123780273Y-118108320D01*
X123545241Y-118265363D01*
X123345363Y-118465241D01*
X123190000Y-118697759D01*
X123034637Y-118465241D01*
X122834759Y-118265363D01*
X122599727Y-118108320D01*
X122338574Y-118000147D01*
X122061335Y-117945000D01*
X121778665Y-117945000D01*
X121501426Y-118000147D01*
X121240273Y-118108320D01*
X121005241Y-118265363D01*
X120805363Y-118465241D01*
X120650000Y-118697759D01*
X120494637Y-118465241D01*
X120294759Y-118265363D01*
X120059727Y-118108320D01*
X119798574Y-118000147D01*
X119521335Y-117945000D01*
X119238665Y-117945000D01*
X118961426Y-118000147D01*
X118700273Y-118108320D01*
X118465241Y-118265363D01*
X118265363Y-118465241D01*
X118110000Y-118697759D01*
X117954637Y-118465241D01*
X117754759Y-118265363D01*
X117519727Y-118108320D01*
X117258574Y-118000147D01*
X116981335Y-117945000D01*
X116698665Y-117945000D01*
X116421426Y-118000147D01*
X116160273Y-118108320D01*
X115925241Y-118265363D01*
X115725363Y-118465241D01*
X115570000Y-118697759D01*
X115414637Y-118465241D01*
X115214759Y-118265363D01*
X114979727Y-118108320D01*
X114718574Y-118000147D01*
X114441335Y-117945000D01*
X114158665Y-117945000D01*
X113881426Y-118000147D01*
X113620273Y-118108320D01*
X113385241Y-118265363D01*
X113186643Y-118463961D01*
X113185812Y-118455518D01*
X113149502Y-118335820D01*
X113090537Y-118225506D01*
X113011185Y-118128815D01*
X112914494Y-118049463D01*
X112804180Y-117990498D01*
X112684482Y-117954188D01*
X112560000Y-117941928D01*
X112045750Y-117945000D01*
X111887000Y-118103750D01*
X111633000Y-118103750D01*
X111474250Y-117945000D01*
X110960000Y-117941928D01*
X110835518Y-117954188D01*
X110715820Y-117990498D01*
X110617000Y-118043319D01*
X110617000Y-116238665D01*
X116675000Y-116238665D01*
X116675000Y-116521335D01*
X116730147Y-116798574D01*
X116838320Y-117059727D01*
X116995363Y-117294759D01*
X117195241Y-117494637D01*
X117430273Y-117651680D01*
X117691426Y-117759853D01*
X117968665Y-117815000D01*
X118251335Y-117815000D01*
X118528574Y-117759853D01*
X118789727Y-117651680D01*
X119024759Y-117494637D01*
X119224637Y-117294759D01*
X119380000Y-117062241D01*
X119535363Y-117294759D01*
X119735241Y-117494637D01*
X119970273Y-117651680D01*
X120231426Y-117759853D01*
X120508665Y-117815000D01*
X120791335Y-117815000D01*
X121068574Y-117759853D01*
X121329727Y-117651680D01*
X121564759Y-117494637D01*
X121764637Y-117294759D01*
X121920000Y-117062241D01*
X122075363Y-117294759D01*
X122275241Y-117494637D01*
X122510273Y-117651680D01*
X122771426Y-117759853D01*
X123048665Y-117815000D01*
X123331335Y-117815000D01*
X123608574Y-117759853D01*
X123869727Y-117651680D01*
X124104759Y-117494637D01*
X124304637Y-117294759D01*
X124460000Y-117062241D01*
X124615363Y-117294759D01*
X124815241Y-117494637D01*
X125050273Y-117651680D01*
X125311426Y-117759853D01*
X125588665Y-117815000D01*
X125871335Y-117815000D01*
X126148574Y-117759853D01*
X126409727Y-117651680D01*
X126644759Y-117494637D01*
X126844637Y-117294759D01*
X127000000Y-117062241D01*
X127155363Y-117294759D01*
X127355241Y-117494637D01*
X127590273Y-117651680D01*
X127851426Y-117759853D01*
X128128665Y-117815000D01*
X128411335Y-117815000D01*
X128688574Y-117759853D01*
X128949727Y-117651680D01*
X129184759Y-117494637D01*
X129384637Y-117294759D01*
X129541680Y-117059727D01*
X129649853Y-116798574D01*
X129705000Y-116521335D01*
X129705000Y-116238665D01*
X129649853Y-115961426D01*
X129541680Y-115700273D01*
X129384637Y-115465241D01*
X129184759Y-115265363D01*
X128949727Y-115108320D01*
X128688574Y-115000147D01*
X128411335Y-114945000D01*
X128128665Y-114945000D01*
X127851426Y-115000147D01*
X127590273Y-115108320D01*
X127355241Y-115265363D01*
X127155363Y-115465241D01*
X127000000Y-115697759D01*
X126844637Y-115465241D01*
X126644759Y-115265363D01*
X126409727Y-115108320D01*
X126148574Y-115000147D01*
X125871335Y-114945000D01*
X125588665Y-114945000D01*
X125311426Y-115000147D01*
X125050273Y-115108320D01*
X124815241Y-115265363D01*
X124615363Y-115465241D01*
X124460000Y-115697759D01*
X124304637Y-115465241D01*
X124104759Y-115265363D01*
X123869727Y-115108320D01*
X123608574Y-115000147D01*
X123331335Y-114945000D01*
X123048665Y-114945000D01*
X122771426Y-115000147D01*
X122510273Y-115108320D01*
X122275241Y-115265363D01*
X122075363Y-115465241D01*
X121920000Y-115697759D01*
X121764637Y-115465241D01*
X121564759Y-115265363D01*
X121329727Y-115108320D01*
X121068574Y-115000147D01*
X120791335Y-114945000D01*
X120508665Y-114945000D01*
X120231426Y-115000147D01*
X119970273Y-115108320D01*
X119735241Y-115265363D01*
X119535363Y-115465241D01*
X119380000Y-115697759D01*
X119224637Y-115465241D01*
X119024759Y-115265363D01*
X118789727Y-115108320D01*
X118528574Y-115000147D01*
X118251335Y-114945000D01*
X117968665Y-114945000D01*
X117691426Y-115000147D01*
X117430273Y-115108320D01*
X117195241Y-115265363D01*
X116995363Y-115465241D01*
X116838320Y-115700273D01*
X116730147Y-115961426D01*
X116675000Y-116238665D01*
X110617000Y-116238665D01*
X110617000Y-105012311D01*
X110645363Y-105054759D01*
X110845241Y-105254637D01*
X111080273Y-105411680D01*
X111341426Y-105519853D01*
X111618665Y-105575000D01*
X111901335Y-105575000D01*
X112178574Y-105519853D01*
X112439727Y-105411680D01*
X112674759Y-105254637D01*
X112874637Y-105054759D01*
X113030000Y-104822241D01*
X113185363Y-105054759D01*
X113385241Y-105254637D01*
X113617759Y-105410000D01*
X113385241Y-105565363D01*
X113185363Y-105765241D01*
X113028320Y-106000273D01*
X112920147Y-106261426D01*
X112865000Y-106538665D01*
X112865000Y-106821335D01*
X112920147Y-107098574D01*
X113028320Y-107359727D01*
X113185363Y-107594759D01*
X113385241Y-107794637D01*
X113620273Y-107951680D01*
X113881426Y-108059853D01*
X114158665Y-108115000D01*
X114441335Y-108115000D01*
X114718574Y-108059853D01*
X114979727Y-107951680D01*
X115214759Y-107794637D01*
X115414637Y-107594759D01*
X115571680Y-107359727D01*
X115679853Y-107098574D01*
X115735000Y-106821335D01*
X115735000Y-106538665D01*
X115679853Y-106261426D01*
X115571680Y-106000273D01*
X115414637Y-105765241D01*
X115214759Y-105565363D01*
X114982241Y-105410000D01*
X115214759Y-105254637D01*
X115414637Y-105054759D01*
X115570000Y-104822241D01*
X115725363Y-105054759D01*
X115925241Y-105254637D01*
X116160273Y-105411680D01*
X116421426Y-105519853D01*
X116698665Y-105575000D01*
X116981335Y-105575000D01*
X117258574Y-105519853D01*
X117519727Y-105411680D01*
X117754759Y-105254637D01*
X117954637Y-105054759D01*
X118110000Y-104822241D01*
X118265363Y-105054759D01*
X118465241Y-105254637D01*
X118697759Y-105410000D01*
X118465241Y-105565363D01*
X118265363Y-105765241D01*
X118108320Y-106000273D01*
X118000147Y-106261426D01*
X117945000Y-106538665D01*
X117945000Y-106821335D01*
X118000147Y-107098574D01*
X118108320Y-107359727D01*
X118265363Y-107594759D01*
X118465241Y-107794637D01*
X118700273Y-107951680D01*
X118961426Y-108059853D01*
X119238665Y-108115000D01*
X119521335Y-108115000D01*
X119798574Y-108059853D01*
X120059727Y-107951680D01*
X120294759Y-107794637D01*
X120494637Y-107594759D01*
X120650000Y-107362241D01*
X120805363Y-107594759D01*
X121005241Y-107794637D01*
X121240273Y-107951680D01*
X121501426Y-108059853D01*
X121778665Y-108115000D01*
X122061335Y-108115000D01*
X122338574Y-108059853D01*
X122599727Y-107951680D01*
X122834759Y-107794637D01*
X123034637Y-107594759D01*
X123190000Y-107362241D01*
X123345363Y-107594759D01*
X123545241Y-107794637D01*
X123780273Y-107951680D01*
X124041426Y-108059853D01*
X124318665Y-108115000D01*
X124601335Y-108115000D01*
X124878574Y-108059853D01*
X125139727Y-107951680D01*
X125374759Y-107794637D01*
X125574637Y-107594759D01*
X125731680Y-107359727D01*
X125839853Y-107098574D01*
X125895000Y-106821335D01*
X125895000Y-106538665D01*
X125839853Y-106261426D01*
X125731680Y-106000273D01*
X125574637Y-105765241D01*
X125374759Y-105565363D01*
X125142241Y-105410000D01*
X125374759Y-105254637D01*
X125574637Y-105054759D01*
X125730000Y-104822241D01*
X125885363Y-105054759D01*
X126085241Y-105254637D01*
X126320273Y-105411680D01*
X126581426Y-105519853D01*
X126858665Y-105575000D01*
X127141335Y-105575000D01*
X127418574Y-105519853D01*
X127679727Y-105411680D01*
X127914759Y-105254637D01*
X128114637Y-105054759D01*
X128270000Y-104822241D01*
X128425363Y-105054759D01*
X128625241Y-105254637D01*
X128860273Y-105411680D01*
X129121426Y-105519853D01*
X129398665Y-105575000D01*
X129681335Y-105575000D01*
X129958574Y-105519853D01*
X130219727Y-105411680D01*
X130454759Y-105254637D01*
X130654637Y-105054759D01*
X130810000Y-104822241D01*
X130965363Y-105054759D01*
X131165241Y-105254637D01*
X131400273Y-105411680D01*
X131661426Y-105519853D01*
X131938665Y-105575000D01*
X132221335Y-105575000D01*
X132498574Y-105519853D01*
X132759727Y-105411680D01*
X132994759Y-105254637D01*
X133194637Y-105054759D01*
X133350000Y-104822241D01*
X133505363Y-105054759D01*
X133705241Y-105254637D01*
X133940273Y-105411680D01*
X134201426Y-105519853D01*
X134478665Y-105575000D01*
X134761335Y-105575000D01*
X135038574Y-105519853D01*
X135299727Y-105411680D01*
X135534759Y-105254637D01*
X135734637Y-105054759D01*
X135890000Y-104822241D01*
X136045363Y-105054759D01*
X136245241Y-105254637D01*
X136480273Y-105411680D01*
X136741426Y-105519853D01*
X137018665Y-105575000D01*
X137301335Y-105575000D01*
X137578574Y-105519853D01*
X137839727Y-105411680D01*
X138074759Y-105254637D01*
X138274637Y-105054759D01*
X138430000Y-104822241D01*
X138585363Y-105054759D01*
X138785241Y-105254637D01*
X139020273Y-105411680D01*
X139281426Y-105519853D01*
X139558665Y-105575000D01*
X139841335Y-105575000D01*
X140118574Y-105519853D01*
X140379727Y-105411680D01*
X140614759Y-105254637D01*
X140814637Y-105054759D01*
X140970000Y-104822241D01*
X141125363Y-105054759D01*
X141325241Y-105254637D01*
X141560273Y-105411680D01*
X141821426Y-105519853D01*
X142098665Y-105575000D01*
X142381335Y-105575000D01*
X142658574Y-105519853D01*
X142919727Y-105411680D01*
X143154759Y-105254637D01*
X143354637Y-105054759D01*
X143510000Y-104822241D01*
X143665363Y-105054759D01*
X143865241Y-105254637D01*
X144100273Y-105411680D01*
X144361426Y-105519853D01*
X144638665Y-105575000D01*
X144921335Y-105575000D01*
X145198574Y-105519853D01*
X145459727Y-105411680D01*
X145694759Y-105254637D01*
X145816694Y-105132702D01*
X146506903Y-105132702D01*
X146578486Y-105376671D01*
X146833996Y-105497571D01*
X147108184Y-105566300D01*
X147390512Y-105580217D01*
X147670130Y-105538787D01*
X147936292Y-105443603D01*
X148061514Y-105376671D01*
X148133097Y-105132702D01*
X147320000Y-104319605D01*
X146506903Y-105132702D01*
X145816694Y-105132702D01*
X145894637Y-105054759D01*
X146050915Y-104820872D01*
X146083329Y-104881514D01*
X146327298Y-104953097D01*
X147140395Y-104140000D01*
X146327298Y-103326903D01*
X146083329Y-103398486D01*
X146052806Y-103462992D01*
X146051680Y-103460273D01*
X145894637Y-103225241D01*
X145816694Y-103147298D01*
X146506903Y-103147298D01*
X147320000Y-103960395D01*
X148133097Y-103147298D01*
X148061514Y-102903329D01*
X147806004Y-102782429D01*
X147531816Y-102713700D01*
X147249488Y-102699783D01*
X146969870Y-102741213D01*
X146703708Y-102836397D01*
X146578486Y-102903329D01*
X146506903Y-103147298D01*
X145816694Y-103147298D01*
X145694759Y-103025363D01*
X145459727Y-102868320D01*
X145198574Y-102760147D01*
X144921335Y-102705000D01*
X144638665Y-102705000D01*
X144361426Y-102760147D01*
X144100273Y-102868320D01*
X143865241Y-103025363D01*
X143665363Y-103225241D01*
X143510000Y-103457759D01*
X143354637Y-103225241D01*
X143154759Y-103025363D01*
X142919727Y-102868320D01*
X142658574Y-102760147D01*
X142381335Y-102705000D01*
X142098665Y-102705000D01*
X141821426Y-102760147D01*
X141560273Y-102868320D01*
X141325241Y-103025363D01*
X141125363Y-103225241D01*
X140970000Y-103457759D01*
X140814637Y-103225241D01*
X140614759Y-103025363D01*
X140379727Y-102868320D01*
X140118574Y-102760147D01*
X139841335Y-102705000D01*
X139558665Y-102705000D01*
X139281426Y-102760147D01*
X139020273Y-102868320D01*
X138785241Y-103025363D01*
X138585363Y-103225241D01*
X138430000Y-103457759D01*
X138274637Y-103225241D01*
X138074759Y-103025363D01*
X137839727Y-102868320D01*
X137578574Y-102760147D01*
X137301335Y-102705000D01*
X137018665Y-102705000D01*
X136741426Y-102760147D01*
X136480273Y-102868320D01*
X136245241Y-103025363D01*
X136045363Y-103225241D01*
X135890000Y-103457759D01*
X135734637Y-103225241D01*
X135534759Y-103025363D01*
X135299727Y-102868320D01*
X135038574Y-102760147D01*
X134761335Y-102705000D01*
X134478665Y-102705000D01*
X134201426Y-102760147D01*
X133940273Y-102868320D01*
X133705241Y-103025363D01*
X133505363Y-103225241D01*
X133350000Y-103457759D01*
X133194637Y-103225241D01*
X132994759Y-103025363D01*
X132759727Y-102868320D01*
X132498574Y-102760147D01*
X132221335Y-102705000D01*
X131938665Y-102705000D01*
X131661426Y-102760147D01*
X131400273Y-102868320D01*
X131165241Y-103025363D01*
X130965363Y-103225241D01*
X130810000Y-103457759D01*
X130654637Y-103225241D01*
X130454759Y-103025363D01*
X130219727Y-102868320D01*
X129958574Y-102760147D01*
X129681335Y-102705000D01*
X129398665Y-102705000D01*
X129121426Y-102760147D01*
X128860273Y-102868320D01*
X128625241Y-103025363D01*
X128425363Y-103225241D01*
X128270000Y-103457759D01*
X128114637Y-103225241D01*
X127914759Y-103025363D01*
X127679727Y-102868320D01*
X127418574Y-102760147D01*
X127141335Y-102705000D01*
X126858665Y-102705000D01*
X126581426Y-102760147D01*
X126320273Y-102868320D01*
X126085241Y-103025363D01*
X125885363Y-103225241D01*
X125730000Y-103457759D01*
X125574637Y-103225241D01*
X125374759Y-103025363D01*
X125139727Y-102868320D01*
X124878574Y-102760147D01*
X124601335Y-102705000D01*
X124318665Y-102705000D01*
X124041426Y-102760147D01*
X123780273Y-102868320D01*
X123545241Y-103025363D01*
X123345363Y-103225241D01*
X123190000Y-103457759D01*
X123034637Y-103225241D01*
X122834759Y-103025363D01*
X122599727Y-102868320D01*
X122338574Y-102760147D01*
X122061335Y-102705000D01*
X121778665Y-102705000D01*
X121501426Y-102760147D01*
X121240273Y-102868320D01*
X121005241Y-103025363D01*
X120805363Y-103225241D01*
X120650000Y-103457759D01*
X120494637Y-103225241D01*
X120294759Y-103025363D01*
X120059727Y-102868320D01*
X119798574Y-102760147D01*
X119521335Y-102705000D01*
X119238665Y-102705000D01*
X118961426Y-102760147D01*
X118700273Y-102868320D01*
X118465241Y-103025363D01*
X118265363Y-103225241D01*
X118110000Y-103457759D01*
X117954637Y-103225241D01*
X117754759Y-103025363D01*
X117519727Y-102868320D01*
X117258574Y-102760147D01*
X116981335Y-102705000D01*
X116698665Y-102705000D01*
X116421426Y-102760147D01*
X116160273Y-102868320D01*
X115925241Y-103025363D01*
X115725363Y-103225241D01*
X115570000Y-103457759D01*
X115414637Y-103225241D01*
X115214759Y-103025363D01*
X114979727Y-102868320D01*
X114718574Y-102760147D01*
X114441335Y-102705000D01*
X114158665Y-102705000D01*
X113881426Y-102760147D01*
X113620273Y-102868320D01*
X113385241Y-103025363D01*
X113185363Y-103225241D01*
X113030000Y-103457759D01*
X112874637Y-103225241D01*
X112674759Y-103025363D01*
X112439727Y-102868320D01*
X112178574Y-102760147D01*
X111901335Y-102705000D01*
X111618665Y-102705000D01*
X111341426Y-102760147D01*
X111080273Y-102868320D01*
X110845241Y-103025363D01*
X110645363Y-103225241D01*
X110617000Y-103267689D01*
X110617000Y-96940000D01*
X150911928Y-96940000D01*
X150911928Y-98640000D01*
X150924188Y-98764482D01*
X150960498Y-98884180D01*
X151019463Y-98994494D01*
X151098815Y-99091185D01*
X151195506Y-99170537D01*
X151305820Y-99229502D01*
X151425518Y-99265812D01*
X151550000Y-99278072D01*
X153250000Y-99278072D01*
X153374482Y-99265812D01*
X153494180Y-99229502D01*
X153604494Y-99170537D01*
X153701185Y-99091185D01*
X153780537Y-98994494D01*
X153839502Y-98884180D01*
X153875812Y-98764482D01*
X153888072Y-98640000D01*
X153888072Y-96940000D01*
X153875812Y-96815518D01*
X153839502Y-96695820D01*
X153780537Y-96585506D01*
X153701185Y-96488815D01*
X153604494Y-96409463D01*
X153494180Y-96350498D01*
X153421620Y-96328487D01*
X153553475Y-96196632D01*
X153715990Y-95953411D01*
X153827932Y-95683158D01*
X153885000Y-95396260D01*
X153885000Y-95103740D01*
X153827932Y-94816842D01*
X153715990Y-94546589D01*
X153553475Y-94303368D01*
X153346632Y-94096525D01*
X153172240Y-93980000D01*
X153346632Y-93863475D01*
X153553475Y-93656632D01*
X153715990Y-93413411D01*
X153827932Y-93143158D01*
X153885000Y-92856260D01*
X153885000Y-92563740D01*
X153827932Y-92276842D01*
X153715990Y-92006589D01*
X153553475Y-91763368D01*
X153346632Y-91556525D01*
X153164466Y-91434805D01*
X153281355Y-91365178D01*
X153497588Y-91170269D01*
X153671641Y-90936920D01*
X153796825Y-90674099D01*
X153841476Y-90526890D01*
X153720155Y-90297000D01*
X152527000Y-90297000D01*
X152527000Y-90317000D01*
X152273000Y-90317000D01*
X152273000Y-90297000D01*
X151079845Y-90297000D01*
X150958524Y-90526890D01*
X151003175Y-90674099D01*
X151128359Y-90936920D01*
X151302412Y-91170269D01*
X151518645Y-91365178D01*
X151635534Y-91434805D01*
X151453368Y-91556525D01*
X151246525Y-91763368D01*
X151084010Y-92006589D01*
X150972068Y-92276842D01*
X150915000Y-92563740D01*
X150915000Y-92856260D01*
X150972068Y-93143158D01*
X151084010Y-93413411D01*
X151246525Y-93656632D01*
X151453368Y-93863475D01*
X151627760Y-93980000D01*
X151453368Y-94096525D01*
X151246525Y-94303368D01*
X151084010Y-94546589D01*
X150972068Y-94816842D01*
X150915000Y-95103740D01*
X150915000Y-95396260D01*
X150972068Y-95683158D01*
X151084010Y-95953411D01*
X151246525Y-96196632D01*
X151378380Y-96328487D01*
X151305820Y-96350498D01*
X151195506Y-96409463D01*
X151098815Y-96488815D01*
X151019463Y-96585506D01*
X150960498Y-96695820D01*
X150924188Y-96815518D01*
X150911928Y-96940000D01*
X110617000Y-96940000D01*
X110617000Y-89949872D01*
X119685000Y-89949872D01*
X119685000Y-90390128D01*
X119770890Y-90821925D01*
X119939369Y-91228669D01*
X120183962Y-91594729D01*
X120495271Y-91906038D01*
X120861331Y-92150631D01*
X121268075Y-92319110D01*
X121699872Y-92405000D01*
X122140128Y-92405000D01*
X122571925Y-92319110D01*
X122978669Y-92150631D01*
X123344729Y-91906038D01*
X123656038Y-91594729D01*
X123900631Y-91228669D01*
X124069110Y-90821925D01*
X124155000Y-90390128D01*
X124155000Y-89949872D01*
X124069110Y-89518075D01*
X123900631Y-89111331D01*
X123656038Y-88745271D01*
X123344729Y-88433962D01*
X122978669Y-88189369D01*
X122571925Y-88020890D01*
X122140128Y-87935000D01*
X121699872Y-87935000D01*
X121268075Y-88020890D01*
X120861331Y-88189369D01*
X120495271Y-88433962D01*
X120183962Y-88745271D01*
X119939369Y-89111331D01*
X119770890Y-89518075D01*
X119685000Y-89949872D01*
X110617000Y-89949872D01*
X110617000Y-83947000D01*
X151442893Y-83947000D01*
X151246525Y-84143368D01*
M02*
