M48
; DRILL file {KiCad (5.1.5)-3} date 10/1/2020 10:25:36 PM
; FORMAT={-:-/ absolute / inch / decimal}
; #@! TF.CreationDate,2020-10-01T22:25:36-07:00
; #@! TF.GenerationSoftware,Kicad,Pcbnew,(5.1.5)-3
; #@! TF.FileFunction,Plated,1,2,PTH
FMAT,2
INCH
T1C0.0157
T2C0.0295
T3C0.0354
T4C0.0394
T5C0.0433
%
G90
G05
T1
X5.05Y-4.8
X5.65Y-4.6
X5.75Y-4.55
X5.975Y-4.25
X6.275Y-4.4
X6.3Y-4.8
X6.3Y-4.9
X6.3099Y-4.2195
X6.35Y-4.35
X6.475Y-3.375
X6.475Y-3.525
X6.625Y-3.45
X6.65Y-4.025
X6.7Y-4.35
X6.7Y-4.4
X7.2Y-4.7
X7.4Y-4.55
X7.4Y-4.7
X7.45Y-4.65
T2
X6.65Y-5.0
X6.65Y-5.1
X6.7Y-5.05
T3
X6.125Y-3.85
X6.525Y-3.85
T4
X7.6Y-3.65
X7.6Y-3.75
X7.6Y-3.85
X7.6Y-3.95
X7.6Y-4.05
X7.6Y-4.15
X7.6Y-4.25
X7.6Y-4.35
X7.6Y-4.45
X7.6Y-4.55
X7.6Y-4.65
X7.6Y-4.75
X7.6Y-4.85
X7.6Y-4.95
X6.0Y-3.35
X6.0Y-3.45
X6.0Y-3.55
X6.0Y-3.65
X6.0Y-3.75
X6.0Y-3.85
T5
X4.4Y-4.1
X4.4Y-4.7
X4.5Y-4.1
X4.5Y-4.2
X4.5Y-4.7
X4.6Y-4.1
X4.6Y-4.7
X4.65Y-4.5819
X4.7Y-4.1
X4.7Y-4.2
X4.7Y-4.7
X4.75Y-4.5819
X4.8Y-4.1
X4.8Y-4.2
X4.8Y-4.7
X4.85Y-4.5819
X4.9Y-4.1
X4.9Y-4.2
X4.9Y-4.7
X4.95Y-4.5819
X5.0Y-4.1
X5.0Y-4.7
X5.05Y-4.5819
X5.1Y-4.1
X5.1Y-4.7
X5.2Y-4.1
X5.2Y-4.7
X5.3Y-4.1
X5.3Y-4.7
X5.4Y-4.1
X5.4Y-4.7
X5.5Y-4.1
X5.5Y-4.7
X5.6Y-4.1
X5.6Y-4.7
X5.7Y-4.1
X5.7Y-4.7
X5.8Y-4.1
X5.8Y-4.7
X5.9Y-4.1
X5.9Y-4.7
X6.0Y-4.1
X6.0Y-4.7
X6.1Y-4.1
X6.1Y-4.7
X6.2Y-4.1
X6.2Y-4.2
X6.2Y-4.3
X6.2Y-4.4
X6.2Y-4.5
X6.2Y-4.6
X6.2Y-4.7
X6.3Y-4.1
X6.3Y-4.7
X6.4Y-4.1
X6.4Y-4.7
X6.5Y-4.1
X6.5Y-4.7
X6.6Y-4.1
X6.6Y-4.7
X6.7Y-4.1
X6.7Y-4.7
T0
M30
